<svg xmlns="http://www.w3.org/2000/svg" xmlns:xlink="http://www.w3.org/1999/xlink" width="502" height="235" fill="none" xmlns:v="https://vecta.io/nano"><style><![CDATA[.B{fill:#233862}.C{fill:#ffb27d}.D{fill:#2b478b}.E{stroke-linecap:round}.F{stroke-linejoin:round}.G{fill:#e2915a}.H{fill:#f99746}]]></style><g clip-path="url(#A)"><path d="M657.778 131.948c5.645-93.86-131.793-178.481-306.977-189.007S29.025-.031 23.38 93.829 155.173 272.31 330.357 282.837s321.775-57.029 327.421-150.889z" fill="#e5e0ff"/><g class="B"><path d="M304.022 39.848l-9.222 17.48-4.716-1.719 1.53 4.674-9.243 27.834s-5.113-35.358 21.651-48.269z"/><path d="M288.638 55.316s-10.186 37.559-11.171 73.399c0 0 8.446 2.956 21.734.608 13.351-2.347-10.563-74.007-10.563-74.007z"/></g><path d="M239.866 107.4c2.725-.042 6.581.293 7.86-1.111 1.446-1.572 3.144-1.342 3.144-1.342l-.336-1.802-.419-2.159s-.147-.189-.712-.189c0 0-1.991.084-2.935-.251-2.305-.818-11.464 4.674-11.15 6.183.105.566 3.375.691 4.548.671z" class="G"/><g class="B"><path d="M289.791 54.582s-15.468 31.963-20.267 35.4-21.86 10.857-21.86 10.857-.44 1.069-.042 2.62c.44 1.614 1.278 2.075 1.278 2.075s23.872-2.138 29.426-5.575c5.554-3.458 17.794-17.229 17.794-17.229l-6.329-28.148zm45.29 179.223h9.159c1.153-.628 2.18-2.054 2.515-4.192.44-2.955 3.752-4.569 4.464-6.979s-2.955-5.806-2.955-5.806l-.608-.796-.628-.818-6.078 1.426-.252 3.29-.021 4.213c.189 3.228-.901 6.686-3.751 7.315-2.117.461-2.033 1.719-1.845 2.347zm-53.151 0h20.937c1.007-1.236.629-5.764.483-7.252l-.063-.482s-7.147-5.722-8.132-1.341c-.021.147-.063.272-.105.398-1.237 4.108-6.791 5.953-9.997 6.477-2.054.356-2.83 1.446-3.123 2.2z"/></g><path d="M285.934 116.873l2.368 29.846 4.024 54.453c.356 8.949 1.781 23.244 1.781 23.244s3.396 3.395 10.186 1.97c0 0 6.057-20.415 7.776-42.024.021-.356.063-.712.084-1.069l4.108-68.306-30.327 1.886z" class="H"/><path d="M285.934 116.873l2.368 29.846 23.788 37.643.084-1.069 4.108-68.306-30.348 1.886z" fill="#ed7d2b"/><path d="M290.879 118.487s19.575 49.087 32.444 72.142l16.893 29.49s7.377-2.955 8.048-4.968c0 0-4.926-44.517-13.54-55.374-4.862-6.141-10.584-24.543-10.856-30.978s-1.74-19.178-1.74-19.178l-31.249 8.866z" class="H"/><path d="M295.764 46.953c7.65 2.41 20.895-4.108 20.895-4.108s-7.063-5.303-6.685-16.306l-5.911 4.758-4.024 3.228s.021 1.907.461 5.261c.084.608.168 1.279.294 1.97a1.42 1.42 0 0 1-.65 1.425c-2.808 1.74-4.38 3.773-4.38 3.773z" class="C"/><path d="M285.074 118.005c.231.189.503.314.797.314 2.871-.042 11.254 1.551 18.338.839 5.974-.566 11.255-2.348 16.935-4.884.755-.335 2.494-1.257 2.452-2.117-.021-.922-.126-2.263-.23-3.94-.399-5.869-1.111-15.95-.42-27.582.126-2.159.189-4.318.189-6.434.063-15.761-3.06-29.637-9.347-34.331 0 0-4.381 2.452-7.42 3.416-2.976.943-4.506.755-6.036-.272 0 0-2.997 1.488-4.275 2.892-2.977 3.228-5.282 7.524-6.812 13.707-1.299 5.24-2.515 12.89-2.955 22.699l-1.216 35.694z" fill="#fff"/><path d="M322.235 65.9l-8.426-26.052s-20.225 7.629-21.147 36.176c-.377 6.497-1.928 33.158.901 55.249 0 0 15.761 6.141 35.064-5.973L322.235 65.9z" class="D"/><path d="M300.018 34.545s.021 1.907.461 5.261c4.443-.755 9.494-7.965 9.494-7.965-2.264-.65-4.255-.776-5.931-.524l-4.024 3.228z" fill="#ed975d"/><path d="M296.707 34.335s13.77 2.285 15.069-6.309 3.94-14.106-4.799-15.929-10.941 1.195-12.072 3.961-1.74 17.459 1.802 18.277z" class="C"/><path d="M357.173 145.629l-28.127 4.004a6.75 6.75 0 0 1-7.608-5.701l-1.739-12.199a6.75 6.75 0 0 1 5.7-7.608l28.127-4.003a6.75 6.75 0 0 1 7.608 5.701l1.739 12.198c.524 3.668-2.033 7.084-5.7 7.608z" class="B"/><path d="M323.409 131.209l1.76 12.324c.336 2.39 1.908 4.318 3.983 5.219.691.294 1.425.503 2.2.545.482.042.964.021 1.467-.042l28.085-4.003a6.77 6.77 0 0 0 5.722-7.629l-1.761-12.324a6.77 6.77 0 0 0-7.629-5.722l-9.662 1.383-.377-2.641c-.168-1.215-1.3-2.054-2.515-1.886l-1.069.147-5.889.838-1.467.21c-.587.084-1.111.398-1.468.859-.356.482-.503 1.069-.419 1.656l.377 2.641-5.595.796-.65.126a6.74 6.74 0 0 0-4.653 4.066c-.461 1.048-.608 2.222-.44 3.437zm22.761-10.06l-10.039 1.425-.378-2.641a.83.83 0 0 1 .713-.943l2.515-.356 4.632-.671 1.258-.168c.083-.021.167 0 .251 0 .356.063.629.336.692.713l.356 2.641z" class="D"/><path d="M335.773 109.328s1.468 1.97 1.53 2.746c.399 5.323-2.033 6.057 4.276 9.033 0 0 2.683 1.027 2.746-1.069.041-2.096-1.866-2.117-1.509-5.051.398-3.375.356-3.416-1.845-5.177l-1.467-2.431-3.731 1.949z" class="C"/><g class="D"><path d="M339.545 110.837c-2.368.461-4.946.272-4.946.272l-7.964-23.767c-.901-1.991-20.938-25.549-20.938-25.549l8.132-21.944s4.758 2.788 9.809 11.486c6.225 10.752 13.078 28.044 14.294 30.852 3.646 8.405 4.904 27.248 4.904 27.248s-1.425 1.048-3.291 1.404zm-27.749-83.628s-1.404-.231-1.194-2.18c.23-1.949.23-4.485-1.363-4.024-1.593.482-1.655 1.74-2.305 1.006s-.671-3.856-5.366-4.087c-4.715-.21-6.622 1.425-8.823.461s-2.306-4.276-2.306-4.276.629 1.195 1.572 1.551c0 0-3.646-5.009.587-8.426s8.551-1.174 11.003-1.027c5.387.335 8.887.65 10.647 4.192 1.74 3.542 1.006 13.393-2.452 16.809z"/></g><path d="M338.121 111.675s-1.425 1.488-1.509 2.096c-.294 1.991-.943 2.83-.608 3.06.692.44 1.593-1.027 2.033-2.326.419-1.321.084-2.83.084-2.83z" class="C"/><path d="M313.808 39.848l-9.222 17.48-4.716-1.719 1.53 4.674-9.242 27.834c.021 0-5.093-35.358 21.65-48.269z" class="B"/><path d="M292.354 43.961s.463 1.211 1.603 1.229c1.14.036 2.012-1.069 2.012-1.069s-2.476-.57-3.615-.16z" fill="#fff"/><path d="M223.855 161.349l27.98-6.477c3.647-.838 5.931-4.506 5.093-8.153l-2.808-12.114c-.839-3.647-4.506-5.932-8.153-5.093l-27.98 6.476c-3.647.838-5.931 4.506-5.093 8.153l2.808 12.115c.86 3.647 4.528 5.931 8.153 5.093z" class="H"/><path d="M248.795 132.341c-1.467-1.572-3.646-2.431-5.868-2.138a3.55 3.55 0 0 0-.65.126l-5.575 1.3-.608-2.62a2.15 2.15 0 0 0-1.006-1.405 2.29 2.29 0 0 0-1.697-.293l-1.446.335-5.848 1.363-1.048.251a2.23 2.23 0 0 0-1.676 2.704l.607 2.62-9.62 2.221c-3.646.839-5.952 4.528-5.114 8.196l2.851 12.261c.838 3.647 4.527 5.952 8.174 5.114l27.917-6.477c.503-.104.964-.272 1.404-.482.712-.335 1.32-.775 1.865-1.32 1.614-1.614 2.389-4.003 1.845-6.372l-2.851-12.261c-.293-1.237-.88-2.284-1.656-3.123zm-24.102-.712a.86.86 0 0 1 .398-.923.75.75 0 0 1 .231-.104l1.236-.294 4.611-1.069 2.515-.587c.461-.104.901.168 1.006.629l.608 2.62-9.997 2.306-.608-2.578z" fill="#ed7d2b"/><g class="C"><path d="M230.435 116.559s-.838 2.997-.545 3.961c1.97 6.477 5.365 10.71-3.773 9.62 0 0 .378-.377-1.362-3.667-2.012-3.794-1.991-3.857-.168-6.938l.629-3.521 5.219.545zm11.507-7.692c-2.767-.168-6.12-.881-7.336-2.348-1.383-1.655-2.766-2.096-2.766-2.096l.419-1.802.503-2.159s.168-.189.734-.168c0 0 2.158.482 2.976-.125.796-.629 2.263-.252 3.164.356 1.153.754 2.704.65 2.662 1.006 0 0-2.284 1.111-2.075 1.299 2.096 1.845 7.587 2.599 7.231 4.046-.147.566-4.338 2.054-5.512 1.991zm-38.438-70.466v1.509s.398 4.695-5.366 5.366c-5.763.692-10.5.587-10.353-3.018.524-2.809 1.446-7.147 1.488-9.474a15.03 15.03 0 0 0-.21-2.809l11.192-.231 3.29.545-.041 8.111z"/></g><path d="M203.545 30.29l-.042 8.111c-1.195.545-2.536.88-4.024.88-5.135 0-8.467-3.773-10.207-6.497.021-.859-.042-1.782-.21-2.809l11.192-.231 3.291.545z" class="G"/><path d="M188.203 28.173c1.3 6.98 10.312 6.749 14.21 6.309 1.09-.126 1.782-.252 1.782-.252 1.236-.335 1.928-2.285 2.242-4.821.629-5.051-.167-12.45-1.027-14.357-1.278-2.85-3.709-5.932-12.784-3.71-9.054 2.222-6.099 7.881-4.423 16.83z" class="C"/><g class="B"><path d="M180.826 235h12.764c-.105-.671-.419-2.704-1.027-4.59-.21-.65-.44-1.279-.734-1.844-1.236-2.474-9.137-.902-9.137-.902s-.734.629-1.3 3.018a28.45 28.45 0 0 0-.566 4.318zm38.605-4.024c.042 1.739.252 3.374.881 4.024h25.255c-.315-.922-1.237-2.285-3.815-2.704-2.955-.482-7.545-1.886-10.228-4.737-.964-1.006-1.676-2.2-1.97-3.584-1.194-5.302-9.829 1.614-9.829 1.614s-.357 2.809-.294 5.387z"/></g><path d="M202.623 173.778l.629 4.674c.796 15.677 13.183 51.497 15.404 52.335 3.437 1.3 8.824-1.446 11.653-2.347 1.174-.378 1.97-1.551 1.698-2.746-6.141-28.19-8.384-68.788-9.201-92.829-.419-12.114-2.494-20.477-2.494-20.477s-30.201-8.069-30.39 2.138c-.168 8.97 9.997 44.35 12.701 59.252z" class="D"/><path d="M202.623 173.778l20.183-40.955c-.419-12.114-2.494-20.477-2.494-20.477s-30.201-8.069-30.39 2.138c-.168 9.012 9.997 44.392 12.701 59.294z" class="B"/><path d="M209.329 114.526l-15.97 115.737s-7.021 1.698-12.471.336c0 0-4.674-61.558-4.275-76.439s-3.354-39.823.859-42.569 31.857 2.935 31.857 2.935z" class="D"/><path d="M205.766 16.143c-2.494.775-7.775-.021-9.976 1.761s-.105 4.716-2.62 5.785a1.26 1.26 0 0 1-1.446-.356c-.692-.88-1.656-1.74-2.536-1.383-.734.293-.755 1.237-.44 2.138.272.755.188 1.614-.273 2.284-.209.294-.335.608-.272.922.209 1.153.775 2.662.985 3.416l.063.797s-4.213-4.569-5.994-8.405c-1.216-2.641-1.195-12.492 4.778-15.384l-.063-.063c-.125-.231-.482-.189-.482-.189.503-.231 1.3-.084 1.3-.084-.021-.021.021-.042.084-.105.104-.692.796-1.195.796-1.195a2.38 2.38 0 0 0-.377.943c1.572-.817 6.392-2.662 10.227-.985 2.578 1.132 4.968 1.719 6.582 2.033 1.32.252 2.263 1.446 2.221 2.788-.105 1.907-.775 4.632-2.557 5.282z" class="B"/><path d="M186.4 44.249l3.668 78.891s30.684.503 29.803-6.434-11.066-70.026-11.066-70.026" fill="#e9f3fe"/><g fill="#22407a"><path d="M196.524 93.671s-1.551 21.064-4.548 34.29c0 0-17.899.943-22.154-5.974 0 0 3.375-28.462 3.375-34.226 0-2.033-.147-4.779-.399-7.881-.377-4.674-.943-10.081-1.488-14.797l-1.467-11.779 14.755-11.989 11.926 52.356zm35.524 24.921s-3.332 2.096-8.593 1.383c-1.907 4.695-6.434 6.288-6.434 5.869 0-.042-1.006-8.866-2.222-19.262l-.356-3.144a1.22 1.22 0 0 0-.042-.272l-.608-5.261-2.829-24.502c-3.144-19.22-5.806-31.921-5.806-31.921 6.707.692 11.213 3.081 13.016 6.204 5.344 9.264 9.221 32.445 11.485 49.799 0 .042 0 .084.021.126l1.027 8.362.063.462 1.278 12.156z"/></g><path d="M200.988 29.326s.294.901 2.557.566c0 0 1.907-.273 1.761-1.279.021 0-1.907-.566-4.318.713z" fill="#fff"/><g fill="#d9e9f9"><path d="M185.541 41.231c-.042-.755 3.521-1.803 3.521-1.803s4.087 5.659 10.815 5.764c0 0-1.907 3.731-4.171 4.695 0 0-9.934-4.192-10.165-8.656zm14.336 3.836s3.563-2.117 3.584-4.401c0 0 2.305-.294 3.311.817 0 0 .839 3.919-.272 6.204-.021 0-5.156-.775-6.623-2.62z"/></g><path d="M197.447 44.71l4.82-1.153s.629.063.608.838c-.021.796-1.362 3.081-1.949 3.27-.566.189-4.611-1.362-3.479-2.955z" fill="#ba4c43"/><g fill="#e9f3fe"><path d="M186.108 40.833c-.042-.755 2.368-2.306 2.368-2.306s4.674 5.449 11.402 5.554c0 0-1.908 3.731-4.171 4.695 0 .021-9.389-3.458-9.599-7.944z"/><path d="M199.877 44.102s3.605-1.907 3.605-4.192c0 0 2.18.964 3.186 2.075 0 0 .922 2.473-.189 4.758 0-.021-5.135-.796-6.602-2.641z"/></g><path d="M208.701 110.25c-.189 2.264-1.048 4.381-2.432 5.932l-2.158 2.452c-.545.608-1.384.545-1.824-.168l-2.62-4.087c-.691-1.09-1.027-2.494-.901-3.898l1.216-14.965c.356-4.716.629-9.285.671-12.073.146-8.887-1.027-37.182-1.027-37.182l1.739.084s4.213 10.941 6.33 25.885c.524 3.668.922 7.587 1.089 11.653 0-.042.755 16.139-.083 26.367z" fill="#c65447"/><path d="M208.701 110.25c-.189 2.264-1.048 4.381-2.432 5.932l-2.158 2.452c-.545.608-1.384.545-1.824-.168l-2.62-4.087c-.691-1.09-1.027-2.494-.901-3.898l1.216-14.965c4.862-6.665 6.895-15.824 7.713-23.286.524 3.668.922 7.587 1.089 11.653 0-.042.755 16.139-.083 26.367z" fill="#ba4c43"/><g class="B"><path d="M188.477 38.527s9.557 40.053 8.048 55.144c0 0-3.521-16.118-11.967-29.322 0 0 3.081-2.725 2.913-3.71 0 0-2.285-.671-4.506-.23 0 0 .251-17.27 1.635-19.094 1.362-1.823 3.877-2.788 3.877-2.788zm15.005 1.363c-1.425.126 9.473 39.131 10.291 51.644l-.86-28.756s-3.982-2.096-3.982-2.85c0-.734 4.234-2.725 4.234-2.725s-2.683-13.749-4.15-15.258c-1.446-1.509-5.533-2.054-5.533-2.054z"/></g><path d="M223.456 121.568s-.671.901-.252 3.144.189 3.5.776 3.102 1.781-3.102 1.781-3.102l-2.305-3.144z" class="C"/><g class="B"><path d="M195.35 99.833c-11.129-1.656-18.57-12.072-22.573-19.953-.377-4.674-.943-10.082-1.488-14.797l2.599-7.441 21.462 42.191zm35.442 6.602c-2.222.503-8.949 1.761-15.991.147l-.357-3.144a1.22 1.22 0 0 0-.042-.272l.692-2.704 15.635 5.512.063.461z"/></g><path d="M184.578 41.315s-9.788 1.237-14.252 7.462 5.114 40.179 25.025 51.057c9.578 5.24 37.201 6.414 37.201 6.414s1.509.147 2.117-2.914c.21-1.068 0-2.892 0-2.892s-31.438-11.8-34.205-14.064c-2.766-2.243-15.886-45.063-15.886-45.063z" fill="#22407a"/><path d="M250.461 104.381l-3.598-.873c-.944-.196-1.799-.908-2.066-.57-.499.624 1.639 1.692 2.476 3.598.41.927 1.247 1.443 2.921.748.837-.338 1.514-2.084.267-2.903z" class="G"/></g><g stroke="#fff" class="E F"><path d="M.941 69.488c5.293-4.575 10.379-9.655 16.997-12.282 10.551-4.189 22.399-4.572 33.48-6.339 18.534-2.956 39.034-5.99 52.934-19.89"/><use xlink:href="#B"/></g><use xlink:href="#B" x="-5" y="133" stroke="#221849" class="E F"/><use xlink:href="#C" stroke="#fff" class="E F"/><use xlink:href="#C" x="7" y="-63" stroke="#221849" class="E F"/><path d="M414 80c2.61-2.257 5.119-4.763 8.383-6.06 5.203-2.067 11.047-2.256 16.511-3.127C448.035 69.354 458.145 67.858 465 61" stroke="#fff" class="E F"/><defs><clipPath id="A"><rect x="17" width="485" height="235" rx="15" fill="#fff"/></clipPath><path id="B" d="M354 79.512c5.293-4.575 10.379-9.655 16.997-12.283 10.551-4.189 22.4-4.572 33.48-6.339 18.534-2.956 39.034-5.99 52.934-19.89"/><path id="C" d="M89 174c2.61-2.257 5.119-4.763 8.383-6.06 5.203-2.066 11.047-2.255 16.511-3.127 9.141-1.459 19.251-2.955 26.106-9.813"/></defs></svg>