<svg xmlns="http://www.w3.org/2000/svg" width="330" height="131" fill="none" xmlns:v="https://vecta.io/nano"><style><![CDATA[.B{fill:#233862}.C{fill:#ffb27d}.D{fill:#2b478b}.E{fill:#e2915a}.F{fill:#f99746}]]></style><rect width="330" height="131" rx="10" fill="#221849"/><g clip-path="url(#A)"><path d="M481.251 72.64c2.594-43.136-60.569-82.025-141.079-86.863s-147.88 26.209-150.474 69.345 60.568 82.025 141.078 86.863 147.88-26.209 150.475-69.345z" fill="#e5e0ff"/><g class="B"><path d="M298.658 28.961l-3.876 7.348-1.983-.723.643 1.965-3.885 11.701s-2.15-14.864 9.101-20.292z"/><path d="M292.19 35.464s-4.282 15.789-4.696 30.856c0 0 3.551 1.242 9.137.255 5.612-.987-4.441-31.112-4.441-31.112z"/></g><path d="M271.687 57.359c1.145-.018 2.766.123 3.304-.467.608-.661 1.321-.564 1.321-.564l-.141-.758-.176-.908s-.062-.079-.299-.079c0 0-.837.035-1.234-.106-.969-.344-4.819 1.965-4.687 2.599.044.238 1.418.291 1.912.282z" class="E"/><g class="B"><path d="M292.674 35.155s-6.502 13.437-8.52 14.882-9.189 4.564-9.189 4.564-.185.449-.018 1.101c.185.678.538.872.538.872s10.035-.899 12.37-2.344c2.335-1.454 7.48-7.243 7.48-7.243l-2.661-11.833zm19.041 75.343h3.85c.485-.264.917-.864 1.058-1.762.185-1.243 1.577-1.921 1.876-2.934s-1.242-2.441-1.242-2.441l-.255-.335-.265-.343-2.555.599-.106 1.383-.008 1.771c.079 1.357-.379 2.811-1.577 3.075-.89.194-.855.723-.776.987zm-22.344 0h8.802c.423-.52.264-2.423.203-3.049l-.027-.202s-3.004-2.406-3.418-.564c-.009.061-.027.114-.044.167-.52 1.727-2.855 2.502-4.203 2.723-.864.149-1.19.608-1.313.925z"/></g><path d="M291.055 61.342l.995 12.547 1.692 22.891.749 9.772s1.427 1.427 4.282.828c0 0 2.546-8.582 3.269-17.666.008-.15.026-.3.035-.449l1.727-28.715-12.749.793z" class="F"/><path d="M291.055 61.342l.995 12.547 10 15.825.036-.449 1.727-28.715-12.758.793z" fill="#ed7d2b"/><path d="M293.133 62.02s8.229 20.635 13.639 30.327l7.101 12.397s3.102-1.242 3.384-2.088c0 0-2.071-18.714-5.692-23.279-2.044-2.582-4.45-10.318-4.564-13.023s-.731-8.062-.731-8.062l-13.137 3.727z" class="F"/><path d="M295.186 31.948c3.215 1.013 8.784-1.727 8.784-1.727s-2.969-2.229-2.811-6.855l-2.484 2-1.692 1.357s.009.802.194 2.212l.123.828c.035.238-.07.476-.273.599-1.181.731-1.841 1.586-1.841 1.586z" class="C"/><path d="M290.692 61.817c.097.079.211.132.335.132 1.207-.018 4.731.652 7.709.352 2.511-.238 4.731-.987 7.119-2.053.317-.141 1.048-.529 1.031-.89l-.097-1.657c-.167-2.467-.467-6.705-.176-11.595.053-.907.079-1.815.079-2.705.026-6.626-1.286-12.459-3.93-14.432 0 0-1.841 1.031-3.119 1.436-1.251.397-1.894.317-2.537-.115 0 0-1.26.626-1.797 1.216-1.252 1.357-2.221 3.163-2.864 5.762-.546 2.203-1.057 5.419-1.242 9.542l-.511 15.005z" fill="#fff"/><path d="M306.313 39.913l-3.541-10.952s-8.503 3.207-8.89 15.208c-.159 2.731-.811 13.939.378 23.226 0 0 6.626 2.582 14.741-2.511l-2.688-24.97z" class="D"/><path d="M296.975 26.732s.008.802.193 2.212c1.868-.317 3.992-3.348 3.992-3.348-.952-.273-1.789-.326-2.494-.22l-1.691 1.357z" fill="#ed975d"/><path d="M295.581 26.644s5.789.96 6.335-2.652 1.657-5.93-2.018-6.696-4.599.502-5.074 1.665-.732 7.34.757 7.683z" class="C"/><path d="M321.003 73.43l-11.824 1.683a2.84 2.84 0 0 1-3.199-2.397l-.731-5.128a2.84 2.84 0 0 1 2.397-3.198l11.824-1.683a2.84 2.84 0 0 1 3.198 2.397l.731 5.128a2.83 2.83 0 0 1-2.396 3.198z" class="B"/><path d="M306.809 67.368l.741 5.181a2.82 2.82 0 0 0 1.674 2.194 2.74 2.74 0 0 0 .925.229c.202.018.405.009.616-.018l11.807-1.683c1.542-.22 2.625-1.665 2.405-3.207l-.74-5.181c-.22-1.542-1.665-2.626-3.207-2.405l-4.062.582-.158-1.11c-.071-.511-.547-.864-1.058-.793l-.449.062-2.476.352-.617.088a.95.95 0 0 0-.616.361.94.94 0 0 0-.177.696l.159 1.11-2.352.335-.274.053c-.907.22-1.63.881-1.956 1.709-.193.441-.255.934-.185 1.445zm9.569-4.229l-4.22.599-.159-1.11a.35.35 0 0 1 .3-.397l1.057-.15 1.947-.282.529-.071c.035-.009.07 0 .105 0 .15.026.265.141.291.3l.15 1.11z" class="D"/><path d="M312.006 58.17s.617.828.643 1.154c.167 2.238-.855 2.546 1.797 3.797 0 0 1.128.432 1.155-.449.017-.881-.785-.89-.635-2.123.168-1.419.15-1.436-.775-2.176l-.617-1.022-1.568.819z" class="C"/><g class="D"><path d="M313.591 58.804c-.996.194-2.08.115-2.08.115l-3.348-9.992c-.379-.837-8.802-10.741-8.802-10.741l3.419-9.225s2 1.172 4.123 4.829c2.617 4.52 5.498 11.789 6.009 12.97 1.533 3.533 2.062 11.454 2.062 11.454s-.599.441-1.383.59zm-11.666-35.156s-.59-.097-.502-.916c.097-.819.097-1.886-.573-1.692-.669.203-.696.731-.969.423s-.282-1.621-2.255-1.718c-1.983-.088-2.784.599-3.71.194s-.969-1.797-.969-1.797.265.502.661.652c0 0-1.533-2.106.247-3.542s3.595-.493 4.625-.432c2.265.141 3.736.273 4.476 1.762.731 1.489.423 5.63-1.031 7.066z"/></g><path d="M312.99 59.157s-.599.626-.635.881c-.123.837-.396 1.19-.255 1.286.291.185.67-.432.855-.978.176-.555.035-1.189.035-1.189z" class="C"/><path d="M302.77 28.961l-3.876 7.348-1.983-.723.643 1.965-3.885 11.701c.009 0-2.141-14.864 9.101-20.292z" class="B"/><path d="M293.752 30.691s.195.509.674.517c.479.015.846-.449.846-.449s-1.041-.24-1.52-.067z" fill="#fff"/><path d="M264.958 80.039l11.762-2.723c1.534-.352 2.494-1.894 2.141-3.427l-1.18-5.093c-.353-1.533-1.894-2.493-3.428-2.141l-11.762 2.723c-1.533.352-2.493 1.894-2.141 3.427l1.181 5.093c.361 1.533 1.903 2.494 3.427 2.141z" class="F"/><path d="M275.442 67.844c-.616-.661-1.533-1.022-2.467-.899-.088.009-.185.026-.273.053l-2.343.546-.256-1.101c-.053-.247-.203-.458-.423-.59-.211-.132-.467-.176-.714-.123l-.607.141-2.459.573-.44.106a.94.94 0 0 0-.705 1.137l.255 1.101-4.044.934c-1.533.352-2.502 1.903-2.149 3.445l1.198 5.154a2.88 2.88 0 0 0 3.436 2.15l11.736-2.723c.211-.044.405-.115.59-.203.3-.141.555-.326.784-.555a2.88 2.88 0 0 0 .776-2.679l-1.199-5.154a2.9 2.9 0 0 0-.696-1.313zm-10.132-.3c-.035-.15.035-.308.167-.388.027-.018.062-.035.097-.044l.52-.123 1.939-.449 1.057-.247c.194-.044.379.07.423.264l.255 1.101-4.202.969-.256-1.084z" fill="#ed7d2b"/><g class="C"><path d="M267.723 61.209s-.352 1.26-.229 1.665c.828 2.723 2.256 4.502-1.586 4.044 0 0 .159-.159-.573-1.542-.845-1.595-.837-1.621-.07-2.916l.264-1.48 2.194.229zm4.838-3.234c-1.163-.071-2.573-.37-3.084-.987-.581-.696-1.163-.881-1.163-.881l.177-.758.211-.908s.071-.079.309-.071c0 0 .907.203 1.251-.053.334-.264.951-.106 1.33.15.485.317 1.137.273 1.119.423 0 0-.96.467-.872.546.881.775 3.189 1.093 3.039 1.7-.061.238-1.823.864-2.317.837zm-16.159-29.622v.634s.168 1.974-2.255 2.256c-2.423.291-4.414.247-4.353-1.269l.626-3.983a6.36 6.36 0 0 0-.088-1.181l4.705-.097 1.383.229-.018 3.41z"/></g><path d="M256.418 24.943l-.017 3.41a4.04 4.04 0 0 1-1.692.37c-2.159 0-3.56-1.586-4.291-2.731a6.27 6.27 0 0 0-.088-1.181l4.705-.097 1.383.229z" class="E"/><path d="M249.969 24.053c.547 2.934 4.335 2.837 5.974 2.652l.749-.106c.52-.141.811-.96.943-2.027.264-2.123-.071-5.234-.432-6.035-.537-1.198-1.559-2.494-5.374-1.559-3.807.934-2.564 3.313-1.86 7.075z" class="C"/><g class="B"><path d="M246.869 111h5.366c-.044-.282-.176-1.137-.432-1.93-.088-.273-.185-.537-.308-.775-.52-1.04-3.842-.379-3.842-.379s-.308.264-.546 1.269c-.097.458-.194 1.048-.238 1.815zm16.228-1.691c.017.731.106 1.418.37 1.691h10.617c-.132-.387-.52-.96-1.604-1.136-1.242-.203-3.172-.793-4.299-1.992-.406-.423-.705-.925-.829-1.506-.502-2.23-4.132.678-4.132.678s-.15 1.181-.123 2.265z"/></g><path d="M256.032 85.263l.264 1.965c.335 6.591 5.542 21.649 6.476 22.001 1.445.546 3.709-.608 4.898-.987.494-.158.829-.652.714-1.154-2.581-11.851-3.524-28.918-3.868-39.024-.176-5.093-1.048-8.608-1.048-8.608s-12.696-3.392-12.776.899c-.07 3.771 4.203 18.644 5.34 24.909z" class="D"/><path d="M256.032 85.263l8.484-17.217c-.176-5.093-1.048-8.608-1.048-8.608s-12.696-3.392-12.776.899c-.07 3.789 4.203 18.662 5.34 24.926z" class="B"/><path d="M258.85 60.355l-6.713 48.654s-2.952.714-5.243.141c0 0-1.965-25.878-1.797-32.134s-1.41-16.741.361-17.895 13.392 1.233 13.392 1.233z" class="D"/><path d="M257.352 18.996c-1.048.326-3.269-.009-4.194.74s-.044 1.982-1.101 2.432a.53.53 0 0 1-.608-.15c-.291-.37-.696-.731-1.066-.582-.309.123-.317.52-.185.899.114.317.079.678-.115.96-.088.123-.141.255-.114.388.088.485.326 1.119.414 1.436l.026.335s-1.771-1.921-2.52-3.533c-.511-1.11-.502-5.251 2.009-6.467l-.026-.026c-.053-.097-.203-.079-.203-.079.212-.097.546-.035.546-.035-.008-.009.009-.018.036-.044.044-.291.334-.502.334-.502-.096.141-.141.291-.158.396.661-.344 2.687-1.119 4.299-.414 1.084.476 2.089.722 2.767.855a1.16 1.16 0 0 1 .934 1.172c-.044.802-.326 1.947-1.075 2.22z" class="B"/><path d="M249.213 30.811l1.542 33.165s12.899.211 12.529-2.705-4.652-29.437-4.652-29.437" fill="#e9f3fe"/><g fill="#22407a"><path d="M253.467 51.588s-.652 8.855-1.912 14.415c0 0-7.524.397-9.313-2.511 0 0 1.419-11.965 1.419-14.388 0-.855-.062-2.009-.168-3.313a189.15 189.15 0 0 0-.625-6.221l-.617-4.952 6.203-5.04 5.013 22.01zM268.4 62.064s-1.401.881-3.613.581c-.801 1.974-2.704 2.643-2.704 2.467a2088.09 2088.09 0 0 0-.934-8.097l-.15-1.322a.5.5 0 0 0-.018-.114l-.255-2.212-1.19-10.3c-1.321-8.08-2.44-13.419-2.44-13.419 2.819.291 4.713 1.295 5.471 2.608 2.247 3.895 3.877 13.639 4.828 20.935a.11.11 0 0 0 .009.053l.432 3.516.026.194.538 5.11z"/></g><path d="M255.344 24.538s.123.379 1.075.238c0 0 .801-.115.74-.538.009 0-.802-.238-1.815.3z" fill="#fff"/><g fill="#d9e9f9"><path d="M248.85 29.542c-.018-.317 1.48-.758 1.48-.758s1.718 2.379 4.546 2.423c0 0-.801 1.568-1.753 1.974 0 0-4.176-1.762-4.273-3.639zm6.025 1.613s1.498-.89 1.507-1.85c0 0 .969-.123 1.392.344 0 0 .352 1.648-.115 2.608-.009 0-2.167-.326-2.784-1.101z"/></g><path d="M253.853 31.005l2.027-.485s.264.026.255.352c-.009.335-.573 1.295-.819 1.375-.238.079-1.939-.573-1.463-1.242z" fill="#ba4c43"/><g fill="#e9f3fe"><path d="M249.09 29.375c-.018-.317.996-.969.996-.969s1.964 2.291 4.793 2.335c0 0-.802 1.568-1.754 1.974 0 .009-3.947-1.454-4.035-3.339z"/><path d="M254.875 30.75s1.515-.802 1.515-1.762c0 0 .917.405 1.34.872 0 0 .387 1.04-.08 2 0-.009-2.158-.335-2.775-1.11z"/></g><path d="M258.584 58.557c-.08.952-.441 1.842-1.022 2.494l-.908 1.031c-.229.255-.581.229-.766-.07l-1.102-1.718c-.29-.458-.431-1.049-.379-1.639l.511-6.291.282-5.075c.062-3.736-.431-15.631-.431-15.631l.731.035s1.771 4.599 2.661 10.882a49.23 49.23 0 0 1 .458 4.899c0-.018.317 6.784-.035 11.084z" fill="#c65447"/><path d="M258.584 58.557c-.08.952-.441 1.842-1.022 2.494l-.908 1.031c-.229.255-.581.229-.766-.07l-1.102-1.718c-.29-.458-.431-1.048-.379-1.639l.511-6.291c2.045-2.802 2.899-6.652 3.243-9.789a49.23 49.23 0 0 1 .458 4.899c0-.018.317 6.785-.035 11.084z" fill="#ba4c43"/><g class="B"><path d="M250.085 28.406s4.018 16.838 3.383 23.182c0 0-1.48-6.776-5.031-12.327 0 0 1.295-1.145 1.225-1.559 0 0-.96-.282-1.894-.097 0 0 .105-7.26.687-8.027.573-.767 1.63-1.172 1.63-1.172zm6.307.573c-.599.053 3.982 16.45 4.326 21.71l-.361-12.089s-1.674-.881-1.674-1.198c0-.308 1.779-1.145 1.779-1.145s-1.127-5.78-1.744-6.414c-.608-.634-2.326-.863-2.326-.863z"/></g><path d="M264.789 63.315s-.282.379-.106 1.322.079 1.471.326 1.304.749-1.304.749-1.304l-.969-1.322z" class="C"/><g class="B"><path d="M252.974 54.178c-4.678-.696-7.806-5.075-9.489-8.388a191.94 191.94 0 0 0-.626-6.221l1.093-3.128 9.022 17.737zm14.898 2.775c-.934.211-3.762.74-6.722.062l-.15-1.322a.5.5 0 0 0-.018-.114l.291-1.137 6.573 2.317.026.194z"/></g><path d="M248.445 29.578s-4.114.52-5.991 3.137 2.15 16.891 10.52 21.464c4.026 2.203 15.639 2.696 15.639 2.696s.634.062.89-1.225c.088-.449 0-1.216 0-1.216s-13.216-4.961-14.379-5.912c-1.163-.943-6.679-18.944-6.679-18.944z" fill="#22407a"/><path d="M251.294 59.971l-1.654-.401c-.434-.09-.827-.418-.95-.262-.229.287.754.778 1.138 1.654.189.426.573.663 1.343.344.385-.156.696-.958.123-1.334z" class="E"/></g><defs><clipPath id="A"><path d="M144 0h176a10 10 0 0 1 10 10v111a10 10 0 0 1-10 10H144V0z" fill="#fff"/></clipPath></defs></svg>