<svg xmlns="http://www.w3.org/2000/svg" width="125" height="115" fill="none" xmlns:v="https://vecta.io/nano"><circle cx="73" cy="63" r="51.5" stroke="#0085ff" stroke-opacity=".6"/><g filter="url(#A)"><circle cx="38.5" cy="23.5" r="18.5" fill="#0085ff"/></g><path d="M45.36 27.82h-2.48V31h-2.52v-3.18h-7.68v-1.8l6.9-9.02h2.78l-6.5 8.62h4.58V22.8h2.44v2.82h2.48v2.2z" fill="#fff"/><g clip-path="url(#B)"><path d="M93.18 64c0 11.145-9.035 20.18-20.18 20.18S52.82 75.145 52.82 64 61.855 43.82 73 43.82 93.18 52.855 93.18 64z" fill="#d2e4ff"/><path d="M80.027 54.472l-9.775 9.776-4.279-4.279-4.641 4.64 4.279 4.279 4.641 4.64 14.416-14.416-4.64-4.641z" fill="#fff"/><g fill="#0085ff"><path d="M70.252 74.348a.82.82 0 0 1-.58-.24l-8.92-8.919a.82.82 0 0 1 0-1.16l4.64-4.64a.82.82 0 0 1 1.16 0l3.699 3.699 9.195-9.196a.82.82 0 0 1 1.16 0l4.64 4.641a.82.82 0 0 1 0 1.16L70.832 74.108a.82.82 0 0 1-.58.24zm-7.759-9.74l7.759 7.759 13.256-13.256-3.48-3.48-9.195 9.196a.82.82 0 0 1-1.16 0l-3.699-3.699-3.48 3.48zM72.995 85a21.15 21.15 0 0 1-1.61-.061c-4.99-.383-9.691-2.545-13.235-6.089A20.86 20.86 0 0 1 52 64a20.86 20.86 0 0 1 6.151-14.849A20.86 20.86 0 0 1 73 43a20.86 20.86 0 0 1 14.85 6.151c3.544 3.544 5.706 8.244 6.089 13.235.378 4.936-.996 9.857-3.871 13.855a.82.82 0 0 1-1.332-.958c5.556-7.728 4.695-18.23-2.047-24.972-7.548-7.548-19.83-7.548-27.378 0s-7.548 19.83 0 27.379c6.742 6.741 17.244 7.602 24.972 2.046a.82.82 0 1 1 .958 1.332C81.677 83.63 77.381 85 72.995 85zm14.275-5.91a.83.83 0 0 1-.58-.24c-.153-.152-.24-.364-.24-.58a.83.83 0 0 1 .24-.58c.152-.153.364-.24.58-.24a.83.83 0 0 1 .82.82.83.83 0 0 1-.82.82z"/></g></g><defs><filter id="A" x="0" y="0" width="77" height="77" filterUnits="userSpaceOnUse" color-interpolation-filters="sRGB"><feFlood flood-opacity="0" result="A"/><feColorMatrix in="SourceAlpha" values="0 0 0 0 0 0 0 0 0 0 0 0 0 0 0 0 0 0 127 0"/><feOffset dy="15"/><feGaussianBlur stdDeviation="10"/><feColorMatrix values="0 0 0 0 0.129412 0 0 0 0 0.588235 0 0 0 0 0.952941 0 0 0 0.2 0"/><feBlend in2="A"/><feBlend in="SourceGraphic"/></filter><clipPath id="B"><path fill="#fff" transform="translate(52 43)" d="M0 0h42v42H0z"/></clipPath></defs></svg>