<svg xmlns="http://www.w3.org/2000/svg" width="125" height="115" fill="none" xmlns:v="https://vecta.io/nano"><circle cx="73" cy="63" r="51.5" stroke="#0085ff" stroke-opacity=".6"/><g filter="url(#A)"><circle cx="38.5" cy="23.5" r="18.5" fill="#0085ff"/></g><path d="M38.84 22.78c1.293.16 2.28.6 2.96 1.32s1.02 1.62 1.02 2.7a4.13 4.13 0 0 1-.62 2.22c-.413.667-1.04 1.2-1.88 1.6-.827.387-1.84.58-3.04.58-1 0-1.967-.14-2.9-.42-.92-.293-1.707-.693-2.36-1.2l1.12-2.02c.507.427 1.12.767 1.84 1.02a7.22 7.22 0 0 0 2.26.36c.92 0 1.64-.187 2.16-.56.533-.387.8-.907.8-1.56s-.253-1.16-.76-1.52c-.493-.373-1.253-.56-2.28-.56h-1.28v-1.78l3.18-3.78H32.7V17h9.54v1.74l-3.4 4.04z" fill="#fff"/><path d="M90.982 54.117H55.649l-5.699 8.548h5.699v14.817h35.333V62.665h5.699l-5.699-8.548z" fill="#d2e4ff"/><path d="M49.112 63.113a.95.95 0 0 0 .837.502h4.749v13.867a.95.95 0 0 0 .95.95h35.333a.95.95 0 0 0 .95-.95V63.615h4.749a.95.95 0 0 0 .79-1.477l-5.699-8.548a.95.95 0 0 0-.79-.423h-3.609a.95.95 0 1 0 0 1.9h3.101l4.433 6.649H79.522l-4.433-6.649h3.734a.95.95 0 1 0 0-1.9H55.649a.95.95 0 0 0-.79.423l-5.699 8.548a.95.95 0 0 0-.047.975zm7.486.502h11.018a.95.95 0 0 0 .79-.423l3.959-5.938v19.279H56.599V63.615zm21.625-.423a.95.95 0 0 0 .79.423h11.018v12.917H74.265V57.254l3.959 5.938zm-22.067-8.125H71.54l-4.432 6.649H51.725l4.432-6.649zm26.942-.001a.95.95 0 1 0 0-1.9.95.95 0 1 0 0 1.9zM63.489 41.61l4.118 1.421-1.421 4.118-4.118-1.421zm8.746 5.877l3.434-2.68 2.68 3.434-3.434 2.68zm.501-12.782L79.771 34l.705 7.034-7.034.705z" fill="#0085ff"/><defs><filter id="A" x="0" y="0" width="77" height="77" filterUnits="userSpaceOnUse" color-interpolation-filters="sRGB"><feFlood flood-opacity="0" result="A"/><feColorMatrix in="SourceAlpha" values="0 0 0 0 0 0 0 0 0 0 0 0 0 0 0 0 0 0 127 0"/><feOffset dy="15"/><feGaussianBlur stdDeviation="10"/><feColorMatrix values="0 0 0 0 0.129412 0 0 0 0 0.588235 0 0 0 0 0.952941 0 0 0 0.2 0"/><feBlend in2="A"/><feBlend in="SourceGraphic"/></filter></defs></svg>