<svg xmlns="http://www.w3.org/2000/svg" xmlns:xlink="http://www.w3.org/1999/xlink" width="125" height="115" fill="none" xmlns:v="https://vecta.io/nano"><circle cx="73" cy="63" r="51.5" stroke="#0085ff" stroke-opacity=".6"/><g filter="url(#A)"><circle cx="38.5" cy="23.5" r="18.5" fill="#0085ff"/></g><path d="M44.02 28.8V31H33.7v-1.74l5.56-5.28c.627-.6 1.047-1.12 1.26-1.56.227-.453.34-.9.34-1.34 0-.653-.22-1.153-.66-1.5s-1.087-.52-1.94-.52c-1.427 0-2.52.487-3.28 1.46l-1.82-1.4c.547-.733 1.28-1.3 2.2-1.7.933-.413 1.973-.62 3.12-.62 1.52 0 2.733.36 3.64 1.08s1.36 1.7 1.36 2.94a4.88 4.88 0 0 1-.48 2.14c-.32.667-.933 1.427-1.84 2.28l-3.74 3.56h6.6z" fill="#fff"/><g fill="#d2e4ff"><path d="M94.4 44.917v9.483c0 1.28-1.037 2.317-2.317 2.317H84.42l-2.428 2.143v-2.143h-1.991c-1.279 0-2.317-1.037-2.317-2.317v-9.483c0-1.279 1.037-2.317 2.317-2.317h12.082c1.279 0 2.317 1.037 2.317 2.317z"/><path d="M92.083 42.601H88.88a2.32 2.32 0 0 1 2.317 2.317v9.483a2.32 2.32 0 0 1-2.317 2.317h3.203a2.32 2.32 0 0 0 2.317-2.317v-9.483a2.32 2.32 0 0 0-2.317-2.317zm-31.397 5.25l6.159 3.042 3.028 6.111-1.221 1.217a3.19 3.19 0 0 0 0 4.523l5.605 5.585a3.22 3.22 0 0 0 4.539 0l1.221-1.217 6.025 3.098 3.161 6.056c-3.814 3.8-9.998 3.8-13.812 0L60.686 61.613a9.71 9.71 0 0 1 0-13.762z"/><path d="M69.872 57.005l-9.187-9.154 1.166-1.162a2.77 2.77 0 0 1 3.904 0l5.28 5.261a2.75 2.75 0 0 1 0 3.896l-1.163 1.158z"/><use xlink:href="#B"/><use xlink:href="#B"/><path d="M54.601 80.083V70.6c0-1.28 1.037-2.317 2.317-2.317h7.663l2.428-2.143v2.143H69c1.279 0 2.317 1.037 2.317 2.317v9.483c0 1.279-1.037 2.317-2.317 2.317H56.917c-1.279 0-2.317-1.037-2.317-2.317z"/><path d="M69 68.283h-1.991V66.14l-2.428 2.143h1.216c1.279 0 2.317 1.037 2.317 2.317v9.483c0 1.279-1.037 2.317-2.317 2.317H69c1.279 0 2.317-1.037 2.317-2.317v-9.483A2.32 2.32 0 0 0 69 68.283z"/></g><path d="M92.083 42H80.001a2.92 2.92 0 0 0-2.917 2.917V54.4a2.92 2.92 0 0 0 2.917 2.917h1.39v1.542c0 .503.611.792.998.45l2.258-1.992h7.436A2.92 2.92 0 0 0 95 54.401v-9.483A2.92 2.92 0 0 0 92.083 42zm1.716 12.401a1.72 1.72 0 0 1-1.716 1.716H84.42a.6.6 0 0 0-.397.15l-1.43 1.262v-.812a.6.6 0 0 0-.601-.6h-1.991a1.72 1.72 0 0 1-1.716-1.716v-9.483a1.72 1.72 0 0 1 1.716-1.716h12.082a1.72 1.72 0 0 1 1.716 1.716v9.483zm-23.177-6.886a.6.6 0 0 0 .424-.175l1.713-1.708c.55-.548-.298-1.399-.848-.851l-1.713 1.708a.62.62 0 0 0 .424 1.026zm-1.971-.827a.65.65 0 0 0 .651-.545l.215-2.41c.069-.773-1.127-.88-1.196-.106l-.215 2.41a.6.6 0 0 0 .545.652zm2.311 2.142a.65.65 0 0 0 .65.547l2.41-.207c.774-.066.67-1.261-.103-1.197l-2.41.207a.6.6 0 0 0-.547.65zM90.19 66.484l1.713-1.708c.55-.548-.298-1.399-.848-.851l-1.713 1.708c-.55.548.298 1.399.848.851zm-2.341-.649a.6.6 0 0 0 .598-.547l.215-2.41c.069-.774-1.128-.88-1.197-.106l-.215 2.41a.65.65 0 0 0 .599.654zm5.215 1.282l-2.41.207c-.759.065-.636 1.26.103 1.197l2.41-.207c.774-.067.671-1.262-.103-1.197zm-7.554-1.592c-1.31-1.305-3.442-1.305-4.752 0l-2.387 2.378a2.62 2.62 0 0 1-3.691 0l-5.605-5.585c-1.005-1.001-1.004-2.671 0-3.672l2.384-2.375a3.39 3.39 0 0 0 0-4.746l-5.28-5.261c-1.31-1.305-3.442-1.305-4.752 0l-1.166 1.162a10.24 10.24 0 0 0-3.037 7.306c0 2.76 1.079 5.355 3.037 7.306l4.926 4.908-.834.736h-7.436A2.92 2.92 0 0 0 54 70.599v9.483A2.92 2.92 0 0 0 56.917 83H69a2.92 2.92 0 0 0 2.917-2.917v-6.431l3.05 3.039c1.556 1.55 3.523 2.552 5.689 2.896.745.119.94-1.067.188-1.186a9.11 9.11 0 0 1-5.03-2.561l-3.898-3.884v-1.357A2.92 2.92 0 0 0 69 67.682h-1.391V66.14a.61.61 0 0 0-.998-.45l-.522.46-4.98-4.962a9.05 9.05 0 0 1-2.684-6.456c0-2.238.803-4.354 2.273-6.02l1.495 1.49c.55.548 1.398-.303.848-.851l-1.506-1.5.739-.736a2.17 2.17 0 0 1 3.056 0l5.28 5.261a2.18 2.18 0 0 1 0 3.045l-.739.736-4.382-4.366c-.55-.548-1.398.303-.848.851l4.379 4.363-.794.791a3.84 3.84 0 0 0 0 5.374l5.605 5.585c1.485 1.48 3.902 1.48 5.387 0l.797-.794 8.322 8.292a9.14 9.14 0 0 1-4.029 2.042c-.747.167-.462 1.333.262 1.172 1.914-.427 3.662-1.386 5.056-2.775l1.163-1.159a3.39 3.39 0 0 0 0-4.746l-5.28-5.261zm-18.501 3.358H69a1.72 1.72 0 0 1 1.716 1.716v9.483A1.72 1.72 0 0 1 69 81.799H56.917a1.72 1.72 0 0 1-1.716-1.716V70.6a1.72 1.72 0 0 1 1.716-1.716h7.663a.6.6 0 0 0 .397-.15l1.43-1.262v.812a.6.6 0 0 0 .601.601zm22.933 5.799l-.739.736-8.336-8.306.739-.736a2.17 2.17 0 0 1 3.056 0l5.28 5.261a2.18 2.18 0 0 1 0 3.045zm.549-27.46h-8.898c-.776 0-.776 1.201 0 1.201h8.898c.777 0 .777-1.201 0-1.201zm-3.203 3.685h-5.695c-.776 0-.776 1.201 0 1.201h5.695c.777 0 .777-1.201 0-1.201zM57.909 73.66a.6.6 0 0 0 .601.6h8.898c.776 0 .776-1.201 0-1.201H58.51a.6.6 0 0 0-.601.601zm6.295 3.085h-5.695c-.776 0-.776 1.201 0 1.201h5.695c.776 0 .776-1.201 0-1.201z" fill="#0085ff"/><defs><filter id="A" x="0" y="0" width="77" height="77" filterUnits="userSpaceOnUse" color-interpolation-filters="sRGB"><feFlood flood-opacity="0" result="A"/><feColorMatrix in="SourceAlpha" values="0 0 0 0 0 0 0 0 0 0 0 0 0 0 0 0 0 0 127 0"/><feOffset dy="15"/><feGaussianBlur stdDeviation="10"/><feColorMatrix values="0 0 0 0 0.129412 0 0 0 0 0.588235 0 0 0 0 0.952941 0 0 0 0.2 0"/><feBlend in2="A"/><feBlend in="SourceGraphic"/></filter><path id="B" d="M89.203 76.266l-9.187-9.154 1.166-1.162a2.77 2.77 0 0 1 3.904 0l5.28 5.261a2.75 2.75 0 0 1 0 3.896l-1.162 1.158z"/></defs></svg>