<svg xmlns="http://www.w3.org/2000/svg" width="56" height="56" fill="none" xmlns:v="https://vecta.io/nano"><g clip-path="url(#A)"><g fill="#f1f1f1"><circle cx="27.5" cy="28.5" r="25.5" transform="rotate(180 27.5 28.5)"/><path d="M0 28c0 15.44 12.56 28 28 28s28-12.56 28-28S43.438 0 28 0 0 12.56 0 28zm51.662 0c0 13.046-10.614 23.662-23.662 23.662S4.338 41.046 4.338 28 14.952 4.338 28 4.338 51.662 14.954 51.662 28z"/></g><path d="M30.993 15.616L20.149 26.46a2.17 2.17 0 0 0 0 3.058l10.844 10.844c.811.696 2.011.696 2.822 0a2.17 2.17 0 0 0 .236-3.058L24.747 28l9.304-9.326a2.17 2.17 0 0 0 0-3.058 2.17 2.17 0 0 0-3.058 0z" fill="#fff"/></g><defs><clipPath id="A"><path fill="#fff" transform="matrix(0 -1 1 0 0 56)" d="M0 0h56v56H0z"/></clipPath></defs></svg>