<svg xmlns="http://www.w3.org/2000/svg" width="82" height="96" fill="none" xmlns:v="https://vecta.io/nano"><g clip-path="url(#A)" fill="#91b3fa"><path d="M70.471 15.366c3.114 11.572-.361 24.02-7.42 33.596-7.494 10.129-18.92 16.392-30.91 19.219-6.917 1.645-14.047 2.202-21.099 1.934-.592-.025-.653.883-.061.908 12.771.496 25.968-1.719 37.31-8.073C59.082 56.89 67.551 46.965 71 34.937c1.863-6.469 2.094-13.285.347-19.761-.132-.561-1.008-.372-.876.189zM12.733 80.967L5.631 70.016c-.158-.25-.781-.988-.788-1.249.019-.79.813-1.288 1.389-1.566l2.922-1.285 5.819-2.587c.543-.226.145-1.035-.398-.809l-7.414 3.324C6 66.356 3.297 66.983 3.8 68.774c.264 1.013 1.227 2.049 1.766 2.914l2.198 3.454 4.24 6.44c.374.465 1.059-.141.727-.615z"/></g><defs><clipPath id="A"><path fill="#fff" transform="matrix(.835127 .550057 -.550057 .835127 48.5264 0)" d="M0 0h40.018v88.221H0z"/></clipPath></defs></svg>