<svg xmlns="http://www.w3.org/2000/svg" xmlns:xlink="http://www.w3.org/1999/xlink" width="320" height="493" fill="none" xmlns:v="https://vecta.io/nano"><style><![CDATA[.B{stroke-opacity:.2}.C{stroke-width:2.5}.D{stroke-miterlimit:10}.E{fill:#ff9d9a}.F{stroke-opacity:.3}]]></style><g stroke="#9fc1f4" class="C D"><use xlink:href="#B" class="B"/><use xlink:href="#C" class="B"/><use xlink:href="#C" x="-69" y="148" class="B"/><use xlink:href="#C" x="35" y="-150" class="B"/><use xlink:href="#B" x="-32" y="18" class="B"/><use xlink:href="#C" x="-32" y="18" class="B"/><use xlink:href="#C" x="-101" y="166" class="B"/><use xlink:href="#C" x="3" y="-132" class="B"/><path d="M54 398.66c8.589-2.397 10.448 4.263 18.812 1.928 8.589-2.398 6.73-9.058 15.094-11.392 8.589-2.398 10.448 4.262 18.811 1.928 8.59-2.398 6.731-9.058 15.094-11.392s10.448 4.262 18.812 1.928M43 129.66c8.589-2.397 10.448 4.263 18.812 1.928 8.589-2.398 6.73-9.058 15.094-11.392 8.589-2.398 10.448 4.262 18.812 1.928 8.59-2.398 6.731-9.058 15.094-11.392s10.448 4.262 18.812 1.928"/><use xlink:href="#B" x="-22" y="-64"/></g><g stroke="#77a4e5" class="C D"><use xlink:href="#D"/><path d="M105.732 285.799c-5.015.304-4.779 4.193-9.662 4.489-5.015.304-5.251-3.585-10.134-3.289-5.015.305-4.78 4.193-9.663 4.489-5.015.304-5.251-3.584-10.134-3.288s-4.779 4.192-9.663 4.488" class="F"/><use xlink:href="#D" x="-19" y="10"/><path d="M86.231 294.785c-5.015.304-4.779 4.193-9.663 4.489-5.015.304-5.251-3.585-10.134-3.289-5.015.304-4.78 4.193-9.663 4.489-5.015.304-5.251-3.585-10.134-3.289s-4.779 4.193-9.663 4.489" class="F"/></g><path d="M130.147 51.835s-.684-11.15-.619-15.962c.098-4.811 12.063-18.66 16.105-18.66s2.706 12.743 2.022 16.709 1.336 7.574-.913 10.695c-2.25 3.153-6.684 9.818-6.684 9.818l-9.911-2.601z" fill="#ff9895"/><path d="M201.448 70.202l-19.17 18.335c-4.532-3.771-8.086-8.062-10.955-12.288a33.18 33.18 0 0 1-1.271-1.951c-2.576-4.096-4.434-7.932-5.803-10.89l-.62-1.365c-1.043-2.308 10.661-9.687 17.247-14.369 2.054-1.528 3.651-2.698 4.173-3.446 0 0-.457 3.088-.033 5.201 1.011 4.941 3.195 7.965 5.771 10.793 6.716 7.314 10.661 9.98 10.661 9.98z" class="E"/><path d="M186.94 49.852s-3.814 20.155-15.616 26.397l-1.272-1.95c-2.575-4.096-4.434-7.932-5.803-10.89 1.434-2.991 11.28-9.265 17.149-13.394l5.542-.162z" fill="#ff938f"/><path d="M163.434 72.218s28.69-9.558 22.463-27.275-6.748-30.915-25.332-25.551-19.757 13.361-19.104 19.765c.652 6.437 14.345 35.109 21.973 33.061z" class="E"/><path d="M188.114 50.307s-2.935-1.918 3.488-12.061c3.326-5.201 6.26-10.11 1.565-18.595s-4.401-15.311-17.312-15.311c-12.943 0-14.247-5.982-20.833-3.901s-12.454 11.735-18.061 13.556c-5.641 1.821-9.911 31.273 2.999 30.46 0 0 4.858-2.406 7.01-6.307 2.184-3.901 13.171-12.776 16.659-9.882s17.54 22.171 24.485 22.041z" fill="#2d133b"/><path d="M181.235 84.929c-9.781-.585-27.549 8.257-43.589 18.66l3.684-50.161c-3.228-5.559-12.226-3.511-12.226-3.511s-5.314 4.649-15.323 33.191C104.522 109.44 104 133.269 104 133.269c.359 13.231 11.15 13.946 11.15 13.946 34.395-5.787 91.026-31.046 91.026-31.046 7.139-8.875-4.239-30.005-24.941-31.24z" fill="#e6544c"/><g fill="#2d133b"><path d="M193.07 486.114c-.261 2.828-.88 5.202-2.152 5.819-.228.098-.587.195-1.076.293h-43.1l-1.793-.065s.098-5.299 7.433-6.339c5.934-.813 15.486-3.641 20.214-9.753 1.108-1.463 1.956-3.088 2.412-4.909 2.38-9.589 17.899 3.316 17.899 3.316s.163 1.658.293 3.999c.066 2.21.131 5.104-.13 7.639z"/><path d="M233.496 492.194h-47.893c.522-1.236 2.478-4.812 7.499-6.079a10.67 10.67 0 0 1 1.532-.293c5.151-.715 13.106-2.958 18.16-7.574 2.119-1.918 3.749-4.292 4.434-7.12 2.38-9.59 17.898 3.316 17.898 3.316s.163 1.528.294 3.706c.228 4.714.293 12.418-1.924 14.044z"/></g><path d="M213.152 232.192l-.097 4.843-3.782 141.119-.196 4.584-.098 2.341c-.978 20.935-3.814 41.448-6.716 57.864-3.684 20.903-7.4 35.175-7.4 35.175-13.987 2.828-23.05-2.471-23.05-2.471s-3.782-32.476-5.217-52.111c-.456-6.372-2.771-28.12-5.672-54.582l-7.206-64.919-.391-3.381-7.009-62.123 24.745-2.341 42.089-3.998z" fill="#201589"/><path d="M202.263 442.976l-41.339-74.022-7.206-64.919-.391-3.381-7.009-62.123 24.745-2.341 41.959.845-10.759 205.941z" fill="#090063"/><path d="M150.915 238.726s23.115 114.007 41.959 169.011 19.072 70.316 19.072 70.316 17.279 3.738 24.908-.618c0 0 4.369-104.287-7.042-131.984-7.531-18.335-13.302-57.312-11.346-71.356s3.782-42.228 3.782-42.228l-71.333 6.859z" fill="#201589"/><path d="M225.313 228.908c-1.305 6.989-4.402 12.516-9.194 15.929-5.477 3.869-14.084 5.267-23.572 5.104-11.085-.195-23.343-2.471-33.156-5.396-5.282-1.561-9.814-3.316-13.106-5.039-14.639-7.607-12.585-17.75-12.226-55.687.358-38.717 24.256-88.78 28.559-97.167 7.662-14.921 40.166-10.013 40.166-10.013 7.14 6.502 13.367 15.994 17.606 31.11 1.728 6.112 2.738 14.694 3.292 24.317 1.761 29.387-.521 68.592 1.207 77.76 1.336 7.022 1.467 13.491.424 19.082z" fill="#fe7265"/><path d="M198.547 61.88s5.314 12.548 4.238 14.791c0 0-29.212 2.763-41.112 11.183 0 0 3.913-12.191 8.673-15.214 4.76-3.056 28.201-10.76 28.201-10.76zm26.766 167.028c-60.477-22.951-25.951-107.83-25.951-107.83 8.477.585 16.758 4.714 24.387 10.988 1.76 29.387-.522 68.593 1.206 77.76 1.271 7.022 1.402 13.491.358 19.082z" fill="#e6544c"/><path d="M204.872 194.222s-3.325 5.721-6.52 4.388-9.618-2.763-14.411.293c-4.792 3.088-11.997 11.378-7.498 13.393s13.073-3.348 15.095-4.258 5.575.91 9.454-1.04c3.913-1.951 7.955-5.852 7.955-5.852l-4.075-6.924z" class="E"/><path d="M272 143.541c-22.496-26.591-74.366-61.213-74.366-61.213-11.28-1.658-23.767 18.888-14.28 37.287 5.477 10.663 28.951 23.341 49.164 31.338l-32.863 44.829c-2.575 9.525 12.194 6.99 12.194 6.99s12.291-3.641 34.558-21.911c11.965-9.817 18.551-20.22 22.006-27.535 2.935-4.583 3.587-9.785 3.587-9.785z" fill="#fe7265"/><circle cx="68" cy="169" r="8" fill="#f99746"/><circle cx="272" cy="307" r="8" fill="#4f52ff"/><circle cx="122.5" cy="467.5" r="4.5" fill="#ff928e"/><circle cx="50.5" cy="165.5" r="3.5" fill="#b5453c"/><defs ><path id="B" d="M33 210.66c8.589-2.397 10.448 4.263 18.812 1.928 8.589-2.398 6.73-9.058 15.094-11.392 8.589-2.398 10.448 4.262 18.812 1.928 8.589-2.398 6.73-9.058 15.094-11.392s10.448 4.262 18.812 1.928"/><path id="C" d="M198 277.66c8.589-2.397 10.448 4.263 18.812 1.928 8.589-2.398 6.73-9.058 15.093-11.392 8.59-2.398 10.449 4.262 18.812 1.928 8.59-2.398 6.731-9.058 15.094-11.392s10.448 4.262 18.812 1.928"/><path id="D" d="M304.266 194c-4.993.568-4.553 4.439-9.413 4.991-4.993.568-5.433-3.303-10.294-2.75-4.992.568-4.552 4.439-9.413 4.991-4.992.568-5.432-3.303-10.293-2.75s-4.553 4.439-9.413 4.991"/></defs></svg>