<svg xmlns="http://www.w3.org/2000/svg" width="33" height="40" fill="none" xmlns:v="https://vecta.io/nano"><path d="M14.449 28h-6.15c-2.264 0-4.1 1.791-4.1 4v7.333h27.333V32c0-2.209-1.836-4-4.1-4H14.449z" fill="#e2e9fe"/><path d="M11.571 20.667c-.16-.241-.305-.491-.435-.749l-.117-.237-.137-.307-.122-.325-.089-.253-.152-.579-.041-.215-.072-.461-.023-.207-.035-.667v-4.001h5.535c1.568 0 2.935-1.041 3.315-2.525L20.6 5.333l1.533 5.313c.304 1.187 1.397 2.02 2.651 2.02h.599v4c0 .225-.014.447-.035.667l-.023.207-.072.461-.041.215-.153.58-.088.251-.122.326-.137.307-.117.237c-.129.258-.273.509-.432.75h1.221l.032-.055 1.876-3.294.342-.651.293-.653a11.45 11.45 0 0 0 .875-4.379c0-5.487-4.119-10.311-9.711-10.901C13.088.075 7.677 4.287 7.002 10.141c-.046.396-.069.794-.069 1.192L8.1 16.667c.108.22.221.437.342.651L9.97 20H6.25c-1.132 0-2.05.895-2.05 2s.918 2 2.05 2h-.683c-2.264.019-4.084 1.825-4.065 4.034.018 2.058 1.634 3.767 3.735 3.95 0 0 1.013 4.016 3.746 4.016h1.367c2.265 0 4.783-1.791 4.783-4s-2.519-4-4.783-4h4.1v-4.667c-.772-.298-1.471-.752-2.05-1.333l-.829-1.333z" fill="#e1e9fe"/><path d="M27.434 27.333h-5.467v-3.749a8.19 8.19 0 0 0 2.547-2.251h.87c.248 0 .477-.131.597-.343l1.758-3.087a13.3 13.3 0 0 0 1.745-6.571C29.48 5.07 24.273-.004 17.853 0c-1.549.001-3.082.304-4.509.891C8.175 3.024 5.462 8.937 7.17 14.352l1.571 4.982H6.25c-1.51 0-2.733 1.194-2.733 2.667a2.6 2.6 0 0 0 .54 1.575c-2.505.812-3.86 3.451-3.029 5.894.576 1.692 2.091 2.916 3.903 3.151.32 2.314 2.343 4.042 4.736 4.046h1.367c2.642 0 4.783-2.089 4.783-4.667s-2.142-4.667-4.783-4.667h-2.05v1.333h2.05c1.887 0 3.417 1.492 3.417 3.333s-1.53 3.333-3.417 3.333H9.667c-1.623-.002-3.021-1.116-3.348-2.667h3.348v-1.333h-4.1C3.68 31.333 2.15 29.841 2.15 28s1.53-3.333 3.417-3.333h4.1v-1.333H6.25c-.755 0-1.367-.597-1.367-1.333s.612-1.333 1.367-1.333h3.417c.377 0 .683-.298.684-.666a.65.65 0 0 0-.03-.196l-.013-.039a8.11 8.11 0 0 0 3.46 3.819V28h1.367v-3.8a8.24 8.24 0 0 0 5.467 0V28c0 .368.306.667.683.667h4.686c-.311 1.174-1.394 1.995-2.636 2h-6.15V32h6.15c1.999-.004 3.704-1.411 4.038-3.333h.061c1.886.002 3.414 1.493 3.417 3.333v6.667H4.884v-2H3.517v2.667c0 .368.306.667.683.667h27.333c.377 0 .683-.298.683-.667V32c-.003-2.576-2.143-4.664-4.783-4.667zM8.477 13.959c-1.503-4.769.869-9.97 5.398-11.841 5.219-2.148 11.235.239 13.436 5.331a9.79 9.79 0 0 1 .806 3.884 11.99 11.99 0 0 1-1.572 5.923l-.698 1.225a7.77 7.77 0 0 0 .22-1.815v-3.333h.683V12h-1.966c-.948-.001-1.771-.635-1.994-1.533l-1.533-5.313a.68.68 0 0 0-.657-.487.68.68 0 0 0-.657.484L18.535 9.98c-.304 1.186-1.396 2.019-2.649 2.02H8.984v1.333h.683v3.333c0 .531.055 1.061.163 1.582l-1.353-4.289zm2.557 2.707v-3.333h4.852c1.875.004 3.512-1.236 3.972-3.009l.742-2.543.873 3.027c.372 1.453 1.693 2.484 3.228 2.519v3.34c0 3.682-3.059 6.667-6.833 6.667s-6.833-2.985-6.833-6.667zm3.416-1.833c-.66 0-1.196.522-1.196 1.167s.535 1.167 1.196 1.167 1.196-.522 1.196-1.167-.536-1.166-1.196-1.167zM14.279 16c0-.092.076-.167.171-.167s.171.075.171.167c0 .183-.342.183-.342 0zm7.005-1.167c-.66 0-1.196.522-1.196 1.167s.535 1.167 1.196 1.167S22.48 16.644 22.48 16s-.536-1.166-1.196-1.167zM21.113 16c0-.092.076-.167.171-.167s.171.075.171.167c0 .183-.342.183-.342 0zm-3.246 4.833c-.849-.001-1.537-.672-1.538-1.5h-1.025c0 1.381 1.147 2.5 2.563 2.5s2.563-1.119 2.563-2.5h-1.025c-.001.828-.689 1.499-1.537 1.5z" fill="#3d3a73"/></svg>