<svg xmlns="http://www.w3.org/2000/svg" xmlns:xlink="http://www.w3.org/1999/xlink" width="37" height="37" fill="none" xmlns:v="https://vecta.io/nano"><path d="M20.322 16.617v19.069l.926.763h14.438l.436-.763V17.162l-1.634-1.144-14.166.599z" fill="#e1e9fe"/><path d="M23.537 19.342c0 .327.49 3.596.49 3.596h8.935c.163-.218.545-1.743.545-1.743l-.545-1.852h-9.426z" fill="#fff"/><g fill="#3d3a73"><path d="M16.616 21.249c0 .327.272.599.599.599s.599-.272.599-.599c0-2.016-1.907-3.705-4.304-3.977v-.654c0-.327-.272-.599-.599-.599s-.599.272-.599.599v.654c-2.452.272-4.304 1.907-4.304 3.977 0 2.016 1.907 3.705 4.304 3.977v5.557c-1.743-.218-3.051-1.362-3.051-2.724 0-.327-.272-.599-.599-.599s-.599.273-.599.599c0 2.016 1.907 3.705 4.304 3.977v.654c0 .327.272.599.599.599s.599-.272.599-.599v-.654c2.452-.272 4.304-1.907 4.304-3.977 0-2.016-1.907-3.705-4.304-3.977v-5.557c1.744.218 3.051 1.362 3.051 2.724zm-7.41 0c0-1.362 1.308-2.506 3.051-2.724v5.448c-1.689-.218-3.051-1.362-3.051-2.724zm7.41 6.756c0 1.362-1.308 2.506-3.051 2.724V25.28c1.744.218 3.051 1.362 3.051 2.724zM2.234 18.579c-.327-.163-.654 0-.817.272C.49 20.867 0 23.046 0 25.226 0 32.962 4.359 36.94 12.913 36.94c1.744 0 3.487-.163 5.121-.599.327-.109.545-.436.436-.763s-.436-.545-.763-.436c-1.58.381-3.215.599-4.849.545-7.846 0-11.714-3.432-11.714-10.461 0-2.016.436-4.032 1.308-5.83.218-.327.054-.708-.218-.817zm32.853-3.215H21.52c-1.035 0-1.852.817-1.852 1.852v17.871c0 1.035.817 1.852 1.852 1.852h13.566c1.035 0 1.852-.817 1.852-1.852v-17.87c0-.981-.817-1.852-1.852-1.852zm.599 19.723c0 .327-.272.599-.599.599H21.52c-.327 0-.599-.272-.599-.599v-17.87c0-.327.272-.599.599-.599h13.566c.327 0 .599.272.599.599v17.871zM24.027 23.373h8.608a1.27 1.27 0 0 0 1.253-1.253v-2.452a1.27 1.27 0 0 0-1.253-1.253h-8.608a1.27 1.27 0 0 0-1.253 1.253v2.452a1.23 1.23 0 0 0 1.253 1.253zm0-3.65h8.608v2.452h-8.608v-2.452z"/><use xlink:href="#B"/><use xlink:href="#B" y="2.452"/><use xlink:href="#B" y="4.958"/><use xlink:href="#B" y="7.41"/><use xlink:href="#C"/><use xlink:href="#D"/><use xlink:href="#C" y="4.958"/><use xlink:href="#D" y="4.958"/><use xlink:href="#E"/><use xlink:href="#D" x="4.305"/><use xlink:href="#E" y="4.958"/><use xlink:href="#D" x="4.305" y="4.958"/><path d="M3.869.763C2.234 2.234 5.122 6.81 6.756 9.208h-.327c-.545 0-1.144.218-1.526.654-.381.381-.654.981-.654 1.526 0 .763.436 1.471 1.09 1.852l-2.016 2.397c-.218.272-.163.654.109.872s.654.163.872-.109c.763-.981 1.58-1.961 2.452-2.833h12.586c.763 0 1.471-.436 1.852-1.09s.381-1.471 0-2.179c-.381-.654-1.09-1.09-1.852-1.09h-.272c1.689-2.397 4.522-6.974 2.888-8.445-.763-.708-1.634-.163-2.397.272a4.67 4.67 0 0 1-2.343.817 2.35 2.35 0 0 1-1.743-.763C14.82.381 13.894 0 12.913 0s-1.853.381-2.561 1.09c-.436.49-1.09.763-1.743.763a4.67 4.67 0 0 1-2.343-.817C5.503.599 4.632.109 3.869.763zm16.182 9.97c.272.272.327.654.218.981a.97.97 0 0 1-.872.545H6.484c-.49 0-.926-.436-.926-.926s.436-.926.926-.926h12.913c.218.055.49.163.654.327zM8.609 3.051c.981 0 1.907-.381 2.561-1.09.436-.49 1.09-.763 1.744-.763a2.35 2.35 0 0 1 1.743.763c.654.708 1.58 1.09 2.561 1.09 1.035-.054 2.07-.381 2.942-.981.272-.218.599-.327.926-.436.654.599-1.035 4.086-3.596 7.573h-1.526V6.157c0-.327-.272-.599-.599-.599s-.599.272-.599.599v3.051h-3.705V6.157c0-.327-.272-.599-.599-.599s-.599.272-.599.599v3.051H8.336C5.776 5.775 4.087 2.288 4.74 1.689c.327.109.654.218.926.436.872.545 1.907.872 2.942.926z"/></g><defs ><path id="B" d="M25.225 25.226h-1.852c-.327 0-.599.272-.599.599s.273.599.599.599h1.852c.327 0 .599-.272.599-.599s-.272-.599-.599-.599z"/><path id="C" d="M29.53 25.226h-1.853c-.327 0-.599.272-.599.599s.272.599.599.599h1.853c.327 0 .599-.272.599-.599.055-.327-.218-.599-.599-.599z"/><path id="D" d="M29.53 27.678h-1.853c-.327 0-.599.272-.599.599s.272.599.599.599h1.853c.327 0 .599-.272.599-.599a.57.57 0 0 0-.599-.599z"/><path id="E" d="M33.835 25.226h-1.853c-.327 0-.599.272-.599.599s.272.599.599.599h1.853c.327 0 .599-.272.599-.599.054-.327-.218-.599-.599-.599z"/></defs></svg>