<svg xmlns="http://www.w3.org/2000/svg" width="47" height="44" fill="none" xmlns:v="https://vecta.io/nano"><g clip-path="url(#A)"><path d="M1.021 40.538h7.097l-.269-2.796 2.366-3.226 3.333-.753h1.183l1.989-1.613 1.72-.484 1.72.43.914-1.882c.108-.161.914-.699 1.237-.86.323-.215 1.72.107 1.936 0s1.613.538 1.72.806.538 1.774.538 1.774l1.344-.161c.215 0 1.72.323 1.72.323l1.72.968.806.914 1.989-.269 2.742 1.237 1.505 2.097.484 1.183-.269 2.366h7.796v1.505l-1.183 1.183h-8.065H1.774c-.269 0-1.344-1.021-1.344-1.021l.591-1.721z" fill="#e1e8fe"/><g fill="#0d337d"><path d="M46.237 39.677h-3.011v-25a2.89 2.89 0 0 0-2.903-2.903H31.56c-.376 0-.699.323-.699.699s.323.699.699.699h8.817c.86 0 1.505.699 1.505 1.505v25.054h-2.366c.054-.269.054-.538.054-.806a5.82 5.82 0 0 0-5.806-5.806c-.43 0-.86.054-1.29.161a4.32 4.32 0 0 0-3.871-2.366c-.538 0-1.075.108-1.559.269-.215-1.828-1.72-3.226-3.602-3.226s-3.387 1.398-3.602 3.226c-.484-.215-1.021-.269-1.559-.269-1.613 0-3.118.914-3.871 2.366-.43-.108-.86-.161-1.29-.161a5.82 5.82 0 0 0-5.806 5.807c0 .269 0 .538.054.806H5.054V14.677c0-.86.699-1.505 1.505-1.505h8.817c.376 0 .699-.323.699-.699s-.322-.699-.699-.699H6.559a2.89 2.89 0 0 0-2.903 2.903v25.054H.699c-.376 0-.699.323-.699.699v1.452a2.16 2.16 0 0 0 2.151 2.151h42.634a2.16 2.16 0 0 0 2.151-2.151V40.43c0-.43-.323-.753-.699-.753zm-.645 2.151a.83.83 0 0 1-.806.806H2.151a.83.83 0 0 1-.806-.806v-.806h8.871c.376 0 .699-.322.699-.699s-.323-.699-.699-.699H8.763c-.054-.269-.054-.538-.054-.806a4.45 4.45 0 0 1 4.462-4.462c.484 0 .968.108 1.452.269.161.054.376.054.538-.054.161-.054.269-.215.322-.376.43-1.237 1.559-2.043 2.796-2.043.699 0 1.344.269 1.936.699.215.215.591.215.806.054s.376-.484.269-.753c-.054-.269-.107-.484-.107-.645 0-1.236 1.021-2.258 2.258-2.258s2.258 1.021 2.258 2.258c0 .215-.054.43-.107.645-.108.269 0 .591.269.753s.591.161.806-.054c.538-.484 1.237-.699 1.936-.699 1.29 0 2.419.806 2.796 2.043.054.161.161.323.323.376s.376.108.538.054c.484-.161.968-.269 1.452-.269a4.45 4.45 0 0 1 4.462 4.462c0 .269 0 .538-.054.806H13.172c-.376 0-.699.323-.699.699s.323.699.699.699h32.366v.806h.054zM14.624 20.215a2.92 2.92 0 0 0-.645 1.828v2.151c0 .269.107.484.323.591.107.054.215.107.323.107s.215-.054.323-.107l4.946-2.742a9.99 9.99 0 0 0 .591 1.021l-.591 2.473c-.054.215 0 .43.108.591s.323.269.538.269h5.86c.215 0 .43-.108.538-.269s.161-.376.107-.591l-.591-2.473c.215-.323.43-.645.591-1.021l4.893 2.742c.107.054.215.107.323.107s.215-.054.322-.107c.215-.108.323-.323.323-.591v-2.151c0-.699-.215-1.344-.645-1.828l-3.226-3.925a19.81 19.81 0 0 0 .269-3.118c0-2.527-.484-4.946-1.452-7.204-.914-2.204-2.204-4.14-3.871-5.753a.68.68 0 0 0-.968 0c-1.667 1.667-2.957 3.602-3.925 5.806-.968 2.258-1.452 4.677-1.452 7.204a19.81 19.81 0 0 0 .269 3.118l-3.279 3.871zm.699 2.796v-.968c0-.376.107-.699.376-.968l2.581-3.118c.269.968.591 1.882 1.022 2.796l-3.979 2.258zM21.398 25l.376-1.559h3.333L25.484 25h-4.086zm9.839-3.925c.215.269.376.591.376.968v.968l-3.925-2.204c.43-.914.753-1.828 1.022-2.796l2.527 3.064zM23.495 1.667c1.129 1.237 2.097 2.688 2.85 4.194h-5.699a15.68 15.68 0 0 1 2.849-4.194zm-3.441 5.591h6.828a16.94 16.94 0 0 1 1.075 5.914c0 3.172-.86 6.237-2.473 8.871h-3.978c-1.613-2.634-2.473-5.699-2.473-8.871 0-2.043.323-4.032 1.021-5.914zm6.29 5.215A2.89 2.89 0 0 0 23.44 9.57a2.89 2.89 0 0 0-2.903 2.903 2.89 2.89 0 0 0 2.903 2.903c1.613-.054 2.903-1.344 2.903-2.903zm-4.409 0c0-.86.699-1.505 1.505-1.505.86 0 1.505.699 1.505 1.505 0 .86-.699 1.505-1.505 1.505a1.54 1.54 0 0 1-1.505-1.505z"/></g></g><defs><clipPath id="A"><path fill="#fff" d="M0 0h46.935v43.978H0z"/></clipPath></defs></svg>