<svg xmlns="http://www.w3.org/2000/svg" width="599" height="417" xmlns:v="https://vecta.io/nano"><style><![CDATA[.B{fill:#fc9290}.C{fill:#120e59}.D{fill:#ed6966}.E{fill:#9e332e}.F{fill:#93b3f4}.G{fill:#6d89cf}.H{fill:#d0defb}]]></style><defs><linearGradient id="A" x1="-.02" x2="599.06" y1="224.02" y2="224.02" gradientUnits="userSpaceOnUse"><stop offset="0" stop-color="#dae3fe"/><stop offset="1" stop-color="#e9effd"/></linearGradient></defs><path fill="url(#A)" d="M54.911 278.826c11.292 26.98 2.823 46.566-5.985 72.361-3.218 9.426-2.653 19.755-1.072 29.576C51.467 403.341 60.67 417 85.626 417h278.573a98.89 98.89 0 0 1 11.575 0h175.76c22.245 0 41.272-15.635 44.998-37.083 0-.113.057-.283.057-.395 7.791-45.268-4.291-73.49-22.02-111.815-12.477-26.924-13.437-50.065-7.001-79.472 7.114-32.455 14.002-73.941-3.049-103.518-14.905-25.907-38.505-44.364-63.743-51.137-32.069-8.636-58.944 5.305-84.634 28.504-35.287 31.834-96.32 57.741-139.795 43.687-37.997-12.305-66.058-53.283-106.088-61.185-27.609-5.475-68.768 3.217-77.689 41.542-2.484 10.612-1.807 19.869-8.977 28.674-6.606 8.128-15.188 13.095-25.125 16.312-12.026 3.951-24.899 5.926-35.682 12.53-60.017 36.689 15.695 97.478 31.674 133.997.113.395.282.79.451 1.185z"/><path d="M357.154 413.122c-.205 3.023-4.455 3.064-9.277 2.492s-3.556.654-10.3.735-9.072-2.124-9.4-3.104c-.285-.858 2.943-1.594 6.458-2.41l1.308-.327c3.923-.98 6.539-3.922 9.89-6.496 3.188-2.41 7.275-11.233 7.275-11.233l9.236-.409-5.354 11.275c-.858 2.002-.49 4.453-.122 6.332.163 1.062.368 2.083.286 3.145z" class="B"/><path d="M347.877 415.617c-4.823-.572-3.556.654-10.3.736s-9.072-2.125-9.4-3.105c-.285-.858 2.943-1.593 6.458-2.41l.04.082s4.333 2.328 9.932 1.756c4.536-.45 9.155-2.328 12.302-2.696.204 1.021.408 2.083.327 3.145-.287 3.023-4.537 3.064-9.36 2.492z" class="C"/><path d="M420.914 413.78c-.205 3.023-4.455 3.064-9.277 2.492s-3.556.653-10.3.776c-6.743.081-9.072-2.125-9.4-3.105-.285-.858 2.943-1.593 6.458-2.41l1.308-.327c3.923-1.021 6.539-3.922 9.89-6.495 3.188-2.451 0-16.83 0-16.83l10.136-.981-.49 17.648c0 2.165 1.02 4.248 1.389 6.168.163.94.367 2.002.286 3.064z" class="B"/><path d="M411.597 416.267c-4.823-.572-3.556.653-10.3.776-6.743.081-9.072-2.125-9.4-3.105-.285-.858 2.943-1.593 6.458-2.41l.04.082s4.333 2.328 9.932 1.756c4.537-.45 9.155-2.37 12.302-2.696.204 1.021.408 2.083.327 3.145-.287 2.942-4.537 2.983-9.36 2.452z" class="C"/><path d="M391.277 164.957c-1.757-7.19.776-10.54 3.065-12.296 1.104-2.655 2.33-4.534 3.597-5.27 2.288-1.307 5.067-1.47 6.988-1.348-.49-.53-1.471-.694-1.471-.694 1.185-.164 3.882 1.021 3.882 1.021 16.675-6.414 19.29 18.138 18.964 23.816-.327 5.719-.286 12.419 8.378 16.912 16.552 8.579-5.517 40.892-5.517 40.892.408-4.617-20.844-28.923-31.96-36.194-2.697-3.963-3.678-10.989-3.72-11.56.45 5.555 1.431 8.7 2.29 10.457-5.068-4.698-5.845-15.85-4.496-25.736z" class="E"/><path d="M397.86 192.122c-.04.04 5.354 2.819 9.441 1.716 3.842-1.062 6.335-6.005 6.294-6.005-1.635-.327-2.085-2.533-2.044-12.133l-.735.163-12.343 2.451s.286 3.881.286 7.517c0 3.064-.204 5.964-.899 6.29z" class="B"/><path fill="#eb8d8d" d="M398.47 178.271l.286 7.517c6.907-.205 10.544-6.496 12.056-9.968z"/><path d="M348.29 397.681a3 3 0 0 0 2.737 3.922l4.823.245 5.108.164c1.267.04 2.493-.531 3.31-1.512 4.088-4.984 16.594-21.61 24.195-45.793.205-.695.45-1.349.695-2.043 5.027-14.625 15.408-32.966 20.884-49.593l2.37-7.475c.246-.736.45-1.512.655-2.247 4.046-14.012 5.19-23.244 6.293-33.089l-39.56.327c-.083.04-8.379 64.748-31.51 137.094z" class="F"/><path fill="#fff" d="M385.274 237.877c.082 18.832-2.779 26.92-2.779 26.92s16.96 8.62 37.068 2.288c.246-.082 16.675-3.84 16.675-3.84-.327-.776-3.351-13.44-3.678-14.134-4.25-9.11-7.48-13.114-7.97-15.932-.94-5.229-.94-10.662-.49-15.769 1.226-13.521 4.863-24.755 4.863-24.755-5.476-1.266-10.626-3.431-16.347-5.596-1.308 1.634-5.313 3.35-8.828 3.268-4.005-.082-5.313-1.798-5.109-3.677a124.514 124.514 0 0 0-7.683 4.616c-3.637 6.291-10.994 12.419-11.525 22.1-.082 2.37 5.803 23.98 5.803 24.51z"/><path d="M419.315 239.962c1.717 2.451 5.027 17.321 13.283 19.2-4.25-10.621-7.48-15.237-7.97-18.505-.94-6.087-.94-12.378-.49-18.301l-4.823-8.17c-.204-.776-4.373-13.685-5.721-2.165-1.349 11.56 3.76 25.204 5.721 27.941z" class="G"/><path d="M396.143 181.746s16.307.286 16.348-9.886c0-10.172 2.125-16.994-8.296-17.566-10.422-.612-12.465 3.268-13.283 6.659s.981 20.466 5.231 20.793z" class="B"/><g class="E"><path d="M396.76 154.014s4.455 11.928 11.32 13.685 9.85-.082 9.85-.082-5.272-4.167-6.335-11.479c0 .041-11.443-7.802-14.835-2.124z"/><path d="M397.862 154.991s-3.351 2.656-4.168 5.27c-.818 2.574-1.186 7.925-2.739 7.72 0 0-3.35-8.088.409-12.704 4.046-4.861 6.498-.286 6.498-.286z"/></g><path d="M370.474 250.95l-7.724 23.49 4.414 1.756 12.751-20.752z" class="B"/><g class="D"><path d="M391.243 189.84s-9.073 3.595-11.73 9.232c-2.615 5.638-6.62 43.343-8.214 47.223l-2.779 6.945s4.577 3.88 9.196 4.126c4.659.286 13.527-67.526 13.527-67.526z"/><path d="M398.756 186.61s-9.441 23.326-9.727 28.064-1.103 77.208-1.103 77.208.572 3.35-5.845 1.961c-6.375-1.389-8.051-2.778-8.051-2.778s6.13-44.69 4.455-60.255 12.792-40.891 12.792-40.891z"/></g><path d="M355.85 401.851l5.517.163c.981.041 1.921-.408 2.575-1.143 3.72-4.494 16.675-21.365 24.48-46.12.205-.695.45-1.349.695-2.043 5.027-14.625 15.408-32.967 20.884-49.593l2.37-7.476c.246-.735.45-1.511.655-2.246l-5.845-4.453s-17.491 28.31-22.927 54.985c-4.66 23.162-23.54 51.022-28.404 57.926z" class="G"/><path d="M406.563 346.413c-.082 12.255.49 39.585 1.961 52.943.123 1.225 1.185 2.165 2.412 2.165h4.127l3.924-.041c.735 0 1.39-.531 1.512-1.266 4.087-20.875 7.03-38.237 9.195-53.229l4.619-32.558c1.226-9.314 2.084-17.116 2.41-23.734l.124-3.023c0-.98.04-1.96 0-2.86l-34.167-3.39c.45 22.713 3.964 57.436 3.883 64.993z" class="F"/><path d="M415.11 401.489l3.637-.041c.9 0 1.676-.654 1.88-1.553 4.087-20.752 6.989-38.032 9.155-52.983l4.618-32.558c1.226-9.314 2.085-17.116 2.411-23.734l-12.546 7.394s8.01 2.819 4.945 24.184c-3.106 21.446-9.85 76.268-14.1 79.291z" class="G"/><path d="M413.477 290.453s2.411 8.701 10.749 7.598 20.189-6.127 20.189-6.127l-7.97-26.022c-5.353-17.893-12.015-40.933-15.121-55.516-.858-4.085-1.471-7.476-1.717-9.927l-6.906-13.399s-10.3 23.121-10.872 28.963 11.648 74.43 11.648 74.43z" class="D"/><path d="M421.814 215.165L412.7 187.06c.041 0 11.525 3.431 17.329 6.332 0 0 3.596 4.657 5.844 15.4 0 0 2.37 25.818-2.902 35.255 0 0-16.674 3.35-43.321-5.842v-6.128l35.147 2.206z" class="B"/><path fill="#e75755" d="M413.838 228.282c.367 9.436 2.574 27.778 22.396 37.582.04.041.122.041.163.082-5.354-17.893-12.015-40.932-15.121-55.516-3.638 5.433-7.643 12.623-7.438 17.852z"/><path d="M412.695 187.1s16.92 1.185 21.007 10.254 5.353 39.257.204 48.121c0 0-7.152 2.043-19.78-.326-.164-.041-.328-.041-.45-.082 0 0-4.046-9.845-.409-11.806 0 0 10.667.572 9.523-2.982-1.145-3.513-10.095-43.179-10.095-43.179z" class="D"/><g class="E"><path d="M370.27 235.92l.49 1.593 27.75-8.62s.368-.408.205-.98c-.205-.613-.695-.613-.695-.613z"/><path d="M368.27 237.431l2.003-1.511.49 1.593z"/></g><path d="M363.86 273.78s-7.029 3.88-7.969 6.863-.286 9.15.817 9.069 2.78-6.659 3.72-7.15c.94-.448 2.206-1.837 2.206-.816s-.94 2.86-.45 3.145c.45.286 1.963-2.573 2.984-3.145s1.43-5.147 2.453-6.373c.98-1.225-3.76-1.593-3.76-1.593zm25.741-41.626s-6.293-3.881-8.95-3.268-9.359 5.474-6.13 6.536 5.844-.041 7.111.735c1.226.776 2.166 2.165 7.97 2.165 5.803-.082 0-6.168 0-6.168z" class="B"/><path fill="#0b0754" d="M207.736 190.486c-1.063-2.043 23.009-9.355 23.418 10.702 0 0 45.119-1.102 23.581-26.226-7.438-8.7-6.703-15.89-6.457-22.59s-4.66-26.185-21.334-24.224c0 0-4.373-1.798-9.85 1.062-12.464 6.454-40.255 68.71-9.358 61.276z"/><path d="M281.47 212.958s2.943-4.453 5.313-4.575c2.37-.082 6.743-1.307 6.416-.45-.367.858-3.065.98-3.35 1.471-.246.531 4.045 1.307 5.271 1.389s4.128 0 4.046.613-5.231 3.145-8.827 2.818c-3.638-.367-8.092 1.062-8.092 1.062z" class="B"/><path d="M239 214.383s1.594 3.146 4.496 6.782c3.473 4.37 8.868 9.436 15.612 10.417 3.228.49 6.375-.205 9.277-1.512 8.214-3.636 14.386-12.01 14.386-12.01 1.43-3.962-.94-6.618-.94-6.618s-16.552 3.718-18.146 2.941-10.79-27.288-12.956-30.638c-2.207-3.35-9.645-5.065-9.645-5.065z" class="H"/><path d="M243.496 221.207c3.474 4.371 8.868 9.437 15.612 10.417 3.228.49 6.375-.204 9.277-1.511-.327.04-8.5 1.062-11.77-4.78-3.351-5.964-6.948-15.441-11.893-12.255-2.125 1.307-2.003 4.698-1.226 8.13z" class="F"/><path d="M177.213 393.186s-5.068 4.616-4.087 7.884 5.558 5.474 6.171 9.477 3.065 6.21 5.313 6.21h10.585s1.635-2.819-2.33-3.677-5.435-5.555-5.19-9.926-.368-10.213-.368-10.213l-8.378-1.961zm42.786 1.924s-1.84 19.527.408 20.63l28.404-.041s0-3.268-4.577-4.004-12.588-3.39-13.937-9.354C228.95 396.417 220 395.11 220 395.11z" class="C"/><path d="M199.728 254.948c5.845-13.072 9.441-16.83 8.746-20.915-.49-3.023 1.553-56.456 1.553-56.456.695-.204 2.085-.408 2.861-.572 2.412-.53 4.373-2.206 5.19-4.534.981-2.778 1.799-6.904 1.758-12.051l.736.163 12.587 2.492s-.286 3.963-.286 7.68v.082c0 3.227 2.125 6.087 5.231 6.985l2.984.858s4.618 13.195 5.517 26.757-8.419 19.445.082 46.53c8.623 27.696-50.187 10.253-46.959 2.981z" class="B"/><path fill="#ea8888" d="M233.198 163.082l-.286 7.68c-7.03-.204-10.79-6.618-12.302-10.172z"/><path d="M235.526 166.637s-16.674.286-16.674-10.09-2.166-17.321 8.46-17.934 12.71 3.35 13.568 6.822c.858 3.39-1.022 20.834-5.354 21.202z" class="B"/><g fill="#0b0754"><path d="M234.92 138.326s-4.578 12.173-11.566 13.97-10.054-.08-10.054-.08 5.354-4.25 6.498-11.725c0 0 11.689-7.966 15.122-2.165z"/><path d="M233.81 139.308s3.392 1.266 4.782 3.717c1.348 2.41 2.534 5.596 2.247 9.518 0 0 3.434-8.293-.408-12.95-4.128-4.942-6.621-.285-6.621-.285z"/></g><path fill="#dde8fd" d="M231.93 160.177s1.144 1.512 3.433 1.39c1.84-.083 2.575-1.676 2.575-1.676s-3.392-.817-6.008.286z"/><path d="M198.132 201.232s-.41 5.965 0 13.113c.286 4.74 5.067 11.112 5.762 12.664 1.717 3.963 3.638 4.576 3.638 4.576l14.917 3.676 5.23 1.266 16.553-4.942s7.52-20.998 4.495-32.844-7.642-20.058-7.642-20.058-13.487 13.195-31.06-1.103z" class="H"/><path fill="#a83f3f" d="M202.51 216.27c.286 4.738.736 9.15 1.39 10.743 1.716 3.963 3.637 4.576 3.637 4.576l14.917 3.676 6.457-1.92s-21.62-3.268-19.208-21.855z"/><path fill="#e75755" d="M243.175 234.81s8.174 25.49 8.705 34.151-15.653 123.246-16.307 127.25c-.613 3.758-5.313 6.168-5.313 6.168s-2.166 1.267-5.23.409c-4.251-1.185-5.6-2.656-5.6-2.656s-6.376-81.7-2.411-110.868 4.005-54.413 4.005-54.413h22.151z"/><path d="M208.478 234.04s-12.506 16.749-13.65 28.064-1.84 51.105-4.291 62.134c-2.493 11.03-11.607 32.272-11.607 66.709 0 0 .94 1.961 3.883 3.023.94.327 2.206.654 3.392.94 2.411.572 4.904-.613 6.007-2.86 6.172-12.418 25.789-52.411 26.81-60.704.695-5.882 6.907-44.772 20.435-67.608 3.229-5.474-2.003-27.288-2.003-27.288z" class="D"/><path fill="#fff" d="M232.3 160.463s.286 1.226 3.351 1.021c0 0 2.575-.163 2.493-1.511-.04 0-2.534-.94-5.844.49z"/><path d="M244.484 230.85s-3.27 2.614-9.808 2.737c-7.806.163-27.137-2.002-27.137-2.002s-.858 2.41-.818 4.943c0 0 23.623 5.964 37.273.858 0 0 1.798-3.309.49-6.536z" class="C"/><path fill="#fff" d="M233 236.284c0-2.206 1.594-4.044 3.556-4.044s3.555 1.797 3.555 4.044-1.594 4.044-3.555 4.044S233 238.49 233 236.284zm1.185 0c0 1.553 1.063 2.86 2.37 2.86s2.371-1.267 2.371-2.86c0-1.552-1.063-2.86-2.37-2.86s-2.37 1.308-2.37 2.86z"/><path fill="#a03732" d="M182.139 235.462l24.196 21.058 28.825-33.089-24.196-21.059z"/><path d="M213.006 235.55s8.868 1.021 8.827 3.145c-.04 2.084-2.207 6.414-3.31 6.618s-7.193-5.841-7.193-5.841z" class="B"/><path d="M210.027 177.58s-11.852.817-16.347 11.847c-4.537 11.03-13.16 29.535-13.16 32.64s4.823 12.704 30.61 18.219c0 0 2.657-2.819 2.494-5.025 0 0-16.103-13.848-16.062-15.441.082-3.064 2.657-7.108 16.797-21.243 3.842-3.84-4.332-20.997-4.332-20.997z" class="H"/><path fill="#bed2fa" d="M257.065 64.751C255.224 19.893 292.774 0 331.113 0s80.097 9.947 83.714 69.56c2.302 38.337-18.085 61.984-76.875 61.984-19.86 0-35.248-3.162-47.02-8.695L261.537 149l14.467-36.163c-12.823-11.923-18.15-28.72-18.939-48.086z"/></svg>