<svg xmlns="http://www.w3.org/2000/svg" width="100" height="43" fill="#6677b5" xmlns:v="https://vecta.io/nano"><path d="M62.197 41.465c-.2 0-.4 0-.6-.1l-11.8-4-11.8 4c-.5.2-1.1.1-1.6-.2s-.7-.9-.7-1.4l.1-12.5-7.4-10a2.22 2.22 0 0 1-.3-1.6c.2-.5.6-1 1.1-1.1l12-3.7 7.2-10.2c.7-.9 2.2-.9 2.8 0l7.2 10.2 11.9 3.7c.5.2 1 .6 1.1 1.1.2.5.1 1.1-.3 1.6l-7.4 10 .1 12.5a1.75 1.75 0 0 1-.7 1.4c-.1.2-.5.3-.9.3zm-12.3-7.6c.2 0 .4 0 .6.1l10.1 3.4-.1-10.6c0-.4.1-.7.3-1.1l6.3-8.5-10.1-3.2a1.27 1.27 0 0 1-.9-.7l-6.1-8.6-6.1 8.6c-.2.3-.5.5-.9.7l-10.1 3.2 6.3 8.5c.2.3.3.7.3 1.1l-.1 10.6 10.1-3.4c0-.1.2-.1.4-.1zM87.6 42.37c-.4 0-.8-.1-1.1-.4l-6.1-5.3-8-.6c-.6 0-1.1-.3-1.4-.8s-.3-1.1-.1-1.6l3.2-7.4-2-7.8c-.1-.5 0-1.1.4-1.6.4-.4.9-.6 1.5-.6l8 .7 6.8-4.3c.5-.3 1.1-.3 1.6-.1s.9.7 1 1.2l1.8 7.9 6.2 5.2c.4.4.7.9.6 1.5s-.4 1.1-.8 1.4l-7 4.1-3 7.5c-.2.5-.7.9-1.2 1h-.4zM75 32.77l6.2.4c.4 0 .7.2 1 .4l4.7 4.1 2.3-5.7c.1-.4.4-.6.7-.8l5.3-3.2-4.7-4c-.3-.2-.5-.6-.6-.9l-1.4-6-5.2 3.3c-.3.2-.7.3-1.1.3l-6.2-.6 1.5 6c.1.4.1.8-.1 1.1zm-62.8 9.6h-.4c-.5-.1-1-.5-1.2-1l-3-7.5-6.9-4.1c-.5-.3-.8-.8-.8-1.4s.2-1.1.6-1.5l6.2-5.2 1.8-7.9c.1-.5.5-1 1-1.2s1.1-.2 1.6.1l6.8 4.3 8-.7c.6 0 1.1.2 1.5.6s.5 1 .4 1.6l-2 7.8 3.2 7.4c.2.5.2 1.1-.1 1.6s-.8.8-1.4.8l-8 .6-6.1 5.3a1.92 1.92 0 0 1-1.2.4zm-7.7-14.4l5.3 3.2c.3.2.6.5.7.8l2.3 5.7 4.7-4.1c.3-.3.6-.4 1-.4l6.2-.4-2.4-5.7c-.1-.3-.2-.7-.1-1.1l1.5-6-6.2.6c-.4 0-.8-.1-1.1-.3l-5.2-3.3-1.4 6c-.1.4-.3.7-.6.9z"/></svg>