<svg xmlns="http://www.w3.org/2000/svg" xmlns:xlink="http://www.w3.org/1999/xlink" width="599" height="386" xmlns:v="https://vecta.io/nano"><style><![CDATA[.B{fill:#120e59}.C{fill:#fc9290}.D{fill:#3662c1}.E{fill:#bed2fa}]]></style><defs><linearGradient id="A" x1="-.02" x2="599.06" y1="193.02" y2="193.02" gradientUnits="userSpaceOnUse"><stop offset="0" stop-color="#dae3fe"/><stop offset="1" stop-color="#e9effd"/></linearGradient><path id="B" d="M451.673 383.605h.18a1.74 1.74 0 0 0 1.736-1.739l-2.634-113.567-7.725-.899 6.587 114.466c0 1.019.838 1.739 1.856 1.739z"/></defs><path fill="url(#A)" d="M54.911 247.826c11.292 26.98 2.823 46.566-5.985 72.361-3.218 9.426-2.653 19.755-1.072 29.576C51.467 372.341 60.67 386 85.626 386h278.573a98.89 98.89 0 0 1 11.575 0h175.76c22.245 0 41.272-15.635 44.998-37.083 0-.113.057-.283.057-.395 7.791-45.268-4.291-73.49-22.02-111.815-12.477-26.924-13.437-50.065-7.001-79.472 7.114-32.455 14.002-73.941-3.049-103.518C549.614 27.81 526.014 9.353 500.776 2.58c-32.069-8.636-58.944 5.305-84.634 28.504-35.287 31.834-96.32 57.741-139.795 43.687-37.997-12.305-66.058-53.283-106.088-61.185-27.609-5.475-68.768 3.217-77.689 41.542-2.484 10.612-1.807 19.869-8.977 28.674-6.606 8.128-15.188 13.095-25.125 16.312-12.026 3.951-24.899 5.926-35.682 12.53-60.017 36.689 15.695 97.478 31.674 133.997.113.395.282.79.451 1.185z"/><use xlink:href="#B" class="D"/><use xlink:href="#B" x="44.91" class="E"/><path d="M372.636 383.605h-.18a1.74 1.74 0 0 1-1.736-1.739l2.635-113.567 7.724-.899-6.587 114.466a1.843 1.843 0 0 1-1.856 1.739zM501.68 261.284v-77.83c0-13.671-11.078-24.764-24.73-24.764H420.9c-13.652 0-24.73 11.093-24.73 24.764v80.768z" class="D"/><path d="M386.11 273.572h106.169c5.15 0 9.341-4.197 9.341-9.354v-2.938H386.11z" class="E"/><path fill="#7e9bd7" d="M373.349 273.572h81.438a5.69 5.69 0 0 0 5.688-5.696v-.96a5.69 5.69 0 0 0-5.688-5.696h-81.438a5.69 5.69 0 0 0-5.689 5.696v.96c0 3.118 2.575 5.696 5.689 5.696z"/><path d="M124.426 383.965h-.18a1.739 1.739 0 0 1-1.736-1.739l2.635-113.567 7.724-.899-6.586 114.406c-.06 1.02-.899 1.799-1.857 1.799z" class="D"/><path d="M79.516 383.965h-.18a1.739 1.739 0 0 1-1.736-1.739l2.635-113.567 7.724-.899-6.587 114.406c-.06 1.02-.898 1.799-1.856 1.799z" class="E"/><path d="M203.413 383.965h.18a1.74 1.74 0 0 0 1.736-1.739l-2.634-113.567-7.725-.899 6.587 114.466a1.89 1.89 0 0 0 1.856 1.739zM74.43 261.584v-77.83c0-13.671 11.078-24.764 24.73-24.764h55.99c13.652 0 24.73 11.093 24.73 24.764v80.768z" class="D"/><path d="M189.94 273.872H83.771c-5.15 0-9.341-4.197-9.341-9.354v-2.938h115.51z" class="E"/><path d="M202.687 273.872h-81.438a5.69 5.69 0 0 1-5.689-5.696v-.96c0-3.118 2.515-5.696 5.689-5.696h81.438a5.69 5.69 0 0 1 5.688 5.696v.96a5.69 5.69 0 0 1-5.688 5.696z" class="D"/><path d="M199.7 242.15c-8.023 13.972-18.083 19.368-18.083 19.368H139.64c0 .06 66.169-29.98 60.06-19.367z" class="B"/><path d="M167.483 350.327c-1.078 1.26-1.258 2.639-.719 4.138 1.018 2.758 4.312 5.876 8.144 8.934.48.42.898.78 1.317 1.08.12.06.18.18.3.24.06.06.18.119.24.179 3.592 3.298 2.215 4.077 8.682 10.793 7.366 7.675 12.396 7.795 13.833 7.075 1.197-.6-1.258-4.677-4.012-9.234-.12-.24-.24-.42-.42-.66-.359-.599-.718-1.198-1.077-1.858-3.234-5.456-2.396-8.035-1.617-16.25.599-6.655 10.3-37.056 10.3-37.056l-14.073-2.398s-4.251 24.224-8.922 27.942c-2.515 1.979-5.27 2.039-7.665 3.478-.18.12-.359.18-.479.3-1.377 1.139-2.754 2.038-3.832 3.297z" class="C"/><path d="M167.483 350.328c-1.078 1.259-1.258 2.638-.719 4.137 1.198 2.758 4.431 5.816 8.144 8.934l1.317 1.14c.12.06.18.18.3.24.06.06.18.12.24.18 3.592 3.297 2.215 4.077 8.682 10.792 7.366 7.675 12.396 7.795 13.833 7.076 1.197-.6-1.258-4.677-4.012-9.234-1.437-.54-8.084-3.238-13.054-9.654-4.432-5.636-7.366-12.892-10.36-17.089-.18.12-.36.18-.479.3-1.437 1.02-2.814 1.919-3.892 3.178z" class="B"/><path d="M280.837 341.51c.899 4.318 7.066 3.598 13.953 1.92s5.27.299 15.09-.78 12.814-4.737 13.114-6.236c.24-1.32-4.611-1.74-9.82-2.339-.66-.06-1.318-.18-1.977-.24-5.868-.72-10.18-4.557-15.569-7.675-5.09-2.938-12.635-14.99-12.635-14.99l-13.473 1.08 9.82 15.47c1.617 2.758 1.497 6.415 1.318 9.233 0 1.5-.12 3.058.18 4.557z" class="C"/><path d="M294.85 343.484c6.886-1.679 5.27.3 15.09-.78s12.815-4.736 13.114-6.236c.24-1.319-4.61-1.738-9.82-2.338l-.06.12s-5.929 4.197-14.072 4.377c-6.647.18-13.773-1.739-18.324-1.679-.12 1.5-.18 3.118.12 4.617.838 4.317 7.006 3.598 13.952 1.919z" class="B"/><path fill="#030231" d="M229.158 255.161l-12.635 33.998-16.467 44.372s-4.491.419-8.743-.78c-3.952-1.14-8.443-4.137-8.443-4.137s4.551-47.67 13.114-75.012c2.215-7.015 4.61-12.712 7.365-15.89 13.174-15.65 25.809 17.45 25.809 17.45z"/><path d="M216.348 201.196c-8.264-2.699-31.857.78-55.51 5.396l-4.97-8.215-51.138-3.957s-16.887 37.476-7.665 61.34c1.377 3.538 4.072 5.757 8.683 5.817h41.018c25.45 0 53.833-17.509 57.486-18.229 5.988-1.199 8.443 10.853 14.431 23.445 5.988 12.652 56.528 56.004 56.528 56.004s7.784.06 10.958-1.139c3.473-1.319 4.73-2.998 4.73-2.998s-55.928-111.468-74.551-117.464zM153.887 49.32c-6.527-3.417-16.527-3.897-18.143-4.137-19.402-2.638-31.079 25.604-31.737 34.118-1.258 15.77-9.581 18.168-21.318 28.002-23.473 19.787-16.587 42.753-3.772 51.267 7.724 5.097 21.257 0 21.257 0 .18.12 37.126-20.687 55.33-30.7 27.366-3.898 15.03-69.795-1.616-78.55z" class="B"/><path d="M140.293 119.352c.06.06-8.982 3.117-15.03.48-5.689-2.52-10-11.873-9.88-11.873 2.574-.12 5.449-2.399 7.604-17.269l1.078.42 18.503 6.655s-1.317 5.937-2.215 11.633c-.659 4.677-1.078 9.234-.06 9.953z" class="C"/><path fill="#eb8d8d" d="M142.633 97.706s-1.317 5.936-2.215 11.632c-10.66-1.919-14.791-12.532-16.288-18.288z"/><path d="M145.386 103.638s-25.33-3.418-22.994-19.188.659-26.803 16.946-25.304 18.504 7.975 18.983 13.431c.539 5.457-6.288 31.54-12.935 31.06z" class="C"/><g class="B"><path d="M157.476 63.946s-16.228 13.97-27.246 15.11-15.21-2.399-15.21-2.399 6.527-5.396 10.42-14.15a7.7 7.7 0 0 1 6.407-4.557c7.844-.66 22.754-1.02 25.629 5.996z"/><path d="M147.3 62.692s5.45 5.277 7.126 9.174c1.677 3.778 2.156 12.772.838 16.31 0 0 8.443-16.49 3.653-24.465-5.03-8.454-11.617-1.019-11.617-1.019z"/></g><path fill="#fff" d="M161.671 156.708c-.778 51.387-.24 40.654-5.808 45.511-1.378 1.2-5.15 1.859-10.18 2.219-15.749 1.019-43.354-1.56-44.432-4.437-3.652-10.074-1.078-13.192-4.072-28.602-.299-1.619-.718-3.418-1.137-5.337-2.515-10.613-4.97-14.21 3.952-31.18 8.084-15.53 16.527-28.001 17.305-27.582 21.438 12.712 23.174 2.039 23.174 2.039s21.557 22.306 21.198 47.37z"/><path d="M216.523 289.167l-16.467 44.371s-4.491.42-8.743-.78c-3.952-1.138-8.443-4.136-8.443-4.136s4.551-47.67 13.114-75.012z" class="B"/><path fill="#fff" d="M140.41 109.34s22.036 3.718 24.611 13.251l17.845 65.358s-11.198 2.039-16.408-3.178c-5.15-5.156-18.024-48.089-18.024-48.089z"/><path fill="#dde8fd" d="M145.684 204.435c-15.75 1.02-43.354-1.56-44.432-4.437-3.653-10.074-1.078-13.192-4.072-28.602l7.545-21.466s-1.257 23.805 5.749 30.1c7.006 6.237 28.742 12.113 32.156 17.33 1.616 2.518 2.754 5.036 3.054 7.075z"/><path d="M127.66 194.422s15.51-3.478 18.024-2.099 8.623 6.416 9.402 8.155-5.57-1.319-7.665-1.859c-1.318-.36-4.85.84-6.587 1.44-7.306 2.458-11.797 1.199-11.797 1.199z" class="C"/><path fill="#fff" d="M117.243 107.3s-20.839 1.26-28.024 11.333c-10.18 14.15-30.3 74.592-18.743 82.686 12.994 9.054 59.162 2.399 59.162 2.399s1.557-7.196-.599-10.673-36.886-9.114-38.503-10.733 20.06-31.3 20.06-36.097 6.647-38.915 6.647-38.915z"/><path d="M146.4 196.64s3.234 4.197 4.311 4.677 1.737.36 1.737.36l-2.216-3.958zm-.72-4.32l9.461 4.617s-.419.66-1.557.6-4.072-1.14-4.072-1.14z" class="C"/><path fill="#ed6966" d="M150.71 207.794h74.791l22.516-56.004h-74.672z"/><path fill="#e75755" d="M226.404 205.58H127.66v2.219h97.845z"/><g fill="#fff"><path d="M206.64 179.798c.539-1.979-.599-3.538-2.515-3.538s-4.012 1.619-4.551 3.538c-.539 1.978.599 3.537 2.515 3.537s3.952-1.619 4.55-3.537zm334.618 206.197h.24c1.257 0 2.335-1.139 2.275-2.458L540.3 224.519l-10.18-1.259 8.683 160.277c.06 1.379 1.137 2.458 2.455 2.458zm-413.241 0h-.24c-1.257 0-2.334-1.139-2.275-2.458l3.473-159.018 10.18-1.259-8.682 160.277c-.06 1.379-1.138 2.458-2.456 2.458z"/><path d="M551.854 227.458h-432.7a8.16 8.16 0 0 1-8.144-8.155v-2.878a8.16 8.16 0 0 1 8.144-8.155h432.7a8.16 8.16 0 0 1 8.143 8.155v2.878a8.16 8.16 0 0 1-8.143 8.155z"/></g><g fill="#12123c"><path d="M409.157 208.274h-74.792L311.85 152.27h74.671z"/><path d="M333.47 206.12h98.744v2.159h-97.846z"/></g><path fill="#fff" d="M353.234 180.278c-.539-1.979.599-3.538 2.515-3.538s4.012 1.619 4.55 3.538c.54 1.978-.598 3.537-2.514 3.537s-3.952-1.559-4.551-3.537z"/></svg>