<svg xmlns="http://www.w3.org/2000/svg" width="623" height="386" xmlns:v="https://vecta.io/nano"><defs><linearGradient id="A" x1="-.02" x2="599.06" y1="193.02" y2="193.02" gradientUnits="userSpaceOnUse"><stop offset="0" stop-color="#dae3fe"/><stop offset="1" stop-color="#e9effd"/></linearGradient></defs><path fill="url(#A)" d="M54.911 247.826c11.292 26.98 2.823 46.566-5.985 72.361-3.218 9.426-2.653 19.755-1.072 29.576C51.467 372.341 60.67 386 85.626 386h278.573a98.89 98.89 0 0 1 11.575 0h175.76c22.245 0 41.272-15.635 44.998-37.083 0-.113.057-.283.057-.395 7.791-45.268-4.291-73.49-22.02-111.815-12.477-26.924-13.437-50.065-7.001-79.472 7.114-32.455 14.002-73.941-3.049-103.518C549.614 27.81 526.014 9.353 500.776 2.58c-32.069-8.636-58.944 5.305-84.634 28.504-35.287 31.834-96.32 57.741-139.795 43.687-37.997-12.305-66.058-53.283-106.088-61.185-27.609-5.475-68.768 3.217-77.689 41.542-2.484 10.612-1.807 19.869-8.977 28.674-6.606 8.128-15.188 13.095-25.125 16.312-12.026 3.951-24.899 5.926-35.682 12.53-60.017 36.689 15.695 97.478 31.674 133.997.113.395.282.79.451 1.185z"/><path fill="#ffb07b" d="M307.815 249.217c.252 2.318 3.516 2.234 7.228 1.675s2.734.42 7.953.308 6.948-1.872 7.171-2.626c.196-.67-2.316-1.145-5.022-1.703l-1.033-.224c-3.042-.67-5.135-2.876-7.786-4.775-2.511-1.788-4.213-10.026-4.213-10.026l-7.423-.056s2.316 7.429 3.544 10.026c.725 1.508-.056 3.463-.28 4.943-.083.81-.222 1.62-.139 2.458z"/><path fill="#365da4" d="M315.066 250.885c3.712-.558 2.735.42 7.953.307s6.949-1.87 7.172-2.625c.195-.67-2.316-1.145-5.023-1.703l-.028.056s-3.293 1.927-7.59 1.62c-3.516-.224-7.116-1.565-9.544-1.76-.14.81-.25 1.62-.167 2.43.223 2.318 3.516 2.234 7.227 1.675z"/><path fill="#ffb07b" d="M249.912 248.821c.168 2.318 3.433 2.374 7.172 1.955 3.711-.419 2.735.531 7.953.615s7.004-1.62 7.283-2.374c.223-.67-2.288-1.229-4.967-1.899l-1.005-.251c-3.013-.782-5.022-3.072-7.59-5.055-2.455-1.9-.446-9.719-.446-9.719l-5.61-2.653-1.2 12.148c-.167 1.676-1.004 3.352-1.283 4.804-.223.81-.363 1.62-.307 2.43z"/><path fill="#365da4" d="M257.048 250.775c3.712-.42 2.735.53 7.953.614s7.004-1.62 7.283-2.374c.224-.67-2.288-1.229-4.967-1.899l-.028.056s-3.376 1.787-7.646 1.34c-3.488-.363-7.06-1.843-9.46-2.122-.167.782-.306 1.592-.25 2.43.111 2.346 3.404 2.374 7.115 1.955z"/><g fill="#2b478b"><path d="M262.522 132.64s-1.562 7.54-3.125 45.828c0 0-2.902 7.093-4.995 15.75s-3.572 44.824-3.572 44.824.837 1.201 3.377 1.369c2.065.111 3.683-.782 3.683-.782s14.594-47.365 21.682-65.741 11.274-44.628 11.274-44.628z"/><path d="M280.07 135.886s1.144 7.624 12.92 44.07c0 0-.251 7.652.781 16.505s12.948 43.734 12.948 43.734 1.591.558 3.963-.084c2.204-.587 3.934-1.899 3.934-1.899s-4.576-49.822-4.269-69.54-4.883-45.772-4.883-45.772z"/></g><path fill="#c65447" d="M300.916 30.345c-1.841-1.173-4.13-1.396-5.72-1.396.418-.391 1.256-.53 1.256-.53-.977-.196-3.237.67-3.237.67-13.479-5.977-16.632 14.159-16.576 18.878s-.195 10.138-7.255 13.992c-13.897 7.624-3.237 22.677-3.237 22.677-2.512 7.177 6.753 16.002 6.753 16.002-.168-3.826 17.357-28.15 26.789-33.68 2.4-3.156 3.46-8.909 3.544-9.383-.614 4.58-1.535 7.12-2.289 8.517 8.093-6.73 4.884-32.647-.028-35.747z"/><path fill="#ffb07b" d="M297.986 64.365c.056.028-4.409 2.346-7.785 1.424-3.154-.866-5.219-4.971-5.19-4.971 1.339-.28 1.73-2.095 1.702-9.998l.613.112 9.795 1.955.363.083s-.223 3.212-.251 6.228l.028 1.843c.111 1.732.307 3.1.725 3.324z"/><path fill="#ea8e50" d="M297.263 59.144l.028 1.843c-5.692-.223-8.985-6.758-10.241-9.607l10.074 1.48.362.084c.028 0-.223 3.184-.223 6.2z"/><path fill="#c65447" d="M286.297 49.81s-2.986-4.72-3.712-8.74c-.502-2.877.949-13.546 11.664-12.01 0 0 3.126.308 6.028 2.29 2.316 1.564 5.693 4.972 1.925 14.271l-.976 3.156z"/><path fill="#ffb07b" d="M298.1 57.661s-13.338-1.76-12.11-10.082c1.228-8.294.335-14.13 8.902-13.349s9.766 4.19 10.018 7.066c.279 2.904-3.293 16.617-6.81 16.365z"/><g fill="#c65447"><path d="M300.98 34.951s-5.107 9.188-10.911 9.803-8.009-1.257-8.009-1.257 4.8-2.765 6.586-8.602c0 0 10.269-4.999 12.334.056z"/><path d="M299.97 35.621s2.4 2.57 2.735 4.804c.362 2.206 0 6.618 1.283 6.646 0 0 3.74-6.2 1.2-10.417-2.679-4.468-5.218-1.033-5.218-1.033z"/></g><path fill="#d86713" d="M388.598 148.419c-2.79-5.949-10.576-10.836-17.133-10.864-4.856 0-9.125 1.648-12.418 4.357a3.26 3.26 0 0 1-5.246-1.871l-5.749-26.699a7.21 7.21 0 0 0-8.567-5.53l-92.896 20.024c-3.795.81-6.223 4.552-5.413 8.379l19.98 92.858a7.23 7.23 0 0 0 4.939 5.418l-1.228.335h3.628c.446 0 .893-.056 1.34-.168l2.008-.447 23.831-5.138c3.349-.726 4.716-4.776 2.456-7.345a19.246 19.246 0 0 1-4.409-9.076c-1.87-9.859 4.214-19.633 13.897-22.259 10.771-2.932 21.654 3.799 23.97 14.579a19.39 19.39 0 0 1-1.116 11.645 3.09 3.09 0 0 0 .893 3.631l-1.395.67h3.209c.251 0 .502-.028.753-.056l28.464-6.144a7.22 7.22 0 0 0 5.525-8.574l-5.693-26.53c-.53-2.458 1.702-4.608 4.13-3.994 2.818.726 5.832.81 8.846.168 11.999-2.542 18.975-15.584 13.394-27.37z"/><path fill="#f1a34f" d="M368.175 137.555c-4.856 0-9.125 1.648-12.418 4.357a3.26 3.26 0 0 1-5.246-1.871l-5.749-26.699a7.21 7.21 0 0 0-8.567-5.53L243.3 127.836c-3.795.81-6.223 4.552-5.413 8.378l20.008 92.859c.837 3.938 4.743 6.451 8.678 5.613l25.868-5.557c3.349-.726 4.716-4.776 2.456-7.345a19.246 19.246 0 0 1-4.41-9.077c-1.869-9.858 4.214-19.633 13.897-22.258 10.772-2.932 21.655 3.798 23.971 14.578a19.39 19.39 0 0 1-1.116 11.646c-.977 2.318 1.032 4.748 3.488 4.245l28.463-6.144a7.22 7.22 0 0 0 5.525-8.574l-5.692-26.53c-.53-2.458 1.702-4.609 4.13-3.994 2.818.726 5.832.81 8.846.167 11.915-2.569 18.863-15.611 13.31-27.396-2.79-5.977-10.576-10.892-17.133-10.892z"/><path d="M334.18 102.26s5.804.95 7.311 4.72-.614 6.311-1.423 6.311-2.372-.614-3.125-2.569l-2.763-8.462zm-79.75 16.81s6.502 0 8.846 3.826c2.344 3.854.474 7.01-.419 7.15s-2.706-.252-3.85-2.235c-1.173-1.983-4.577-8.741-4.577-8.741z" fill="#ffb07b"/><path fill="#80bdcc" d="M334.348 106.645l-6.306-.922c-5.916-.921-14.148-2.57-16.911-5.11-.753-.699-2.484-4.497-4.297-8.881-1.842 9.662-1.926 17.091-1.451 22.732l-39.905 8.602c3.433-6.926 8.707-15.5 7.73-22.454-.363-2.569-1.786-6.116-2.316-10.081-.056-.335-.084-.67-.112-1.034-5.609 4.608-12.055 9.691-12.222 10.725-.251 1.703 4.102 20.582 4.102 20.582-1.089 2.485-5.777 1.955-5.777 1.955-4.409-3.156-10.883-21.001-10.352-24.94.53-3.965 16.575-26.474 20.454-31.864 3.851-5.307 17.86-5.195 18.194-5.195 11.162 6.703 12.167 1.145 12.167 1.145s10.046 1.927 11.776 4.887c1.73 2.989 9.32 25.526 9.85 26.308 1.117 1.648 19.45 8.294 19.785 10.221.335 1.955-2.763 3.659-4.409 3.324z"/><path d="M279.405 120.073l-13.925 2.988c3.46-6.898 8.009-15.5 7.032-22.398-.363-2.57-1.2-5.641-1.618-9.607l-.112-1.536s9.85 7.764 10.018 16.17c.111 4.3-.642 10.026-1.395 14.383zm49.002-14.325c-5.971-.922-14.315-2.57-17.106-5.11-.753-.699-2.511-4.497-4.353-8.882 0 0-.642-7.037 1.2-6.758 1.842.251 4.549 12.735 6.474 13.517 1.702.698 11.246 4.385 13.785 7.233z" fill="#5f9aa8"/><path d="M622.89 373.571c-.838 2.849-4.745 4.748-5.247 8.21-.251 1.705-.893 3.017-1.702 3.91H603.83c.112-.67.642-1.396 2.232-1.73 3.377-.727 4.633-4.804 4.437-8.602-.083-1.592-.055-3.408.028-4.971l.28-3.882 7.143-1.676.753.977.726.922s4.297 3.994 3.46 6.842zm-56.4 12.119h-24.5c.558-.642 1.507-1.284 3.097-1.536 3.768-.614 10.297-2.792 11.748-7.624.056-.167.084-.307.14-.474 1.144-5.167 9.571 1.591 9.571 1.591s.028.196.056.559c.14 1.424.475 5.362-.111 7.485z" fill="#2c3a64"/><path fill="#35488b" d="M546.07 249.076l2.79 35.133 4.744 64.093c.419 10.529 2.093 27.369 2.093 27.369s3.99 3.993 12 2.318c0 0 7.115-24.046 9.152-49.46l.084-1.256 4.828-80.403z"/><path fill="#2c3a64" d="M546.07 249.076l2.79 35.133 27.99 44.32.083-1.256 4.828-80.403z"/><path fill="#35488b" d="M551.93 250.967s23.022 57.781 38.174 84.927l19.869 34.713s8.678-3.463 9.46-5.836c0 0-5.805-52.42-15.934-65.183-5.72-7.233-12.474-28.877-12.78-36.473-.308-7.568-2.038-22.565-2.038-22.565z"/><path fill="#935c2f" d="M563.726 161.796c-1.033-6.06-1.06-9.634-1.06-9.634l11.692-9.412c-.447 12.958 7.869 19.186 7.869 19.186s-15.571 7.68-24.557 4.832c-.028-.028 2.177-2.85 6.056-4.972z"/><path d="M559.902 151.943s14.873 2.458 16.269-6.814 4.241-15.22-5.19-17.203-11.804 1.285-13.032 4.273c-1.2 3.016-1.87 18.85 1.953 19.744zM507.726 171.1l-3.153-1.954s-3.935-5.837-10.688-2.206c0 0-2.679 1.703-.865 3.128 1.786 1.424 1.312.614 3.795 2.68s5.693 2.793 7.758 1.676l2.65-.251z" fill="#a16d3c"/><path fill="#d3782f" d="M503.956 171.684c.81-2.542 1.2-2.765 1.2-2.765l28.017 3.211c2.4.168 35.914-6.73 35.914-6.73l15.822 19.214s-46.63 1.76-52.74 1.2c-10.102-.949-28.38-10.332-28.38-10.332s-.475-1.788.167-3.798z"/><path fill="#e69d43" d="M590.411 243.51c.056 1.006-2.009 2.095-2.874 2.486-6.67 2.988-12.892 5.083-19.924 5.753-8.344.866-18.194-1.033-21.57-.977-.364 0-.67-.14-.95-.363-.223-.168-.418-10.361-.223-23.236 0-.502 0-1.033.056-1.536v-.167l.056-4.078.39-11.45c.252-5.641.587-11.199 1.033-16.114.474-5.139 1.088-9.58 1.898-12.735 1.813-7.261 5.943-12.036 9.738-15.555l3.098-2.737c3.097.642 6.39.447 9.683-1.173 3.572-1.76 7.423-3.659 8.065-3.212 4.8 3.603 8.036 11.758 9.683 22.119.893 5.585 1.34 11.785 1.311 18.292a138.7 138.7 0 0 1-.223 7.568c-.81 13.685.028 25.554.502 32.48l.251 4.636z"/><path fill="#4a75cb" d="M511.411 116.925l-94.013-14.942a7.35 7.35 0 0 0-8.4 6.089l-4.157 26.223c-.195 1.201.112 4.636.112 4.636l3.376.503c.196.056.39.084.586.084a4.52 4.52 0 0 0 1.898-.252c3.125-1.117 6.557-1.48 10.074-.837 9.906 1.815 16.826 11.059 15.766 21.057-1.172 11.143-11.385 18.879-22.296 17.147a19.119 19.119 0 0 1-10.465-5.25 2.912 2.912 0 0 0-1.841-.866l-3.544-.53-4.41 31.976c-.613 3.938 2.066 7.652 6 8.267l26.845 4.273c2.483.391 3.683 3.267 2.232 5.306-1.702 2.374-2.874 5.166-3.376 8.238-1.926 12.065 7.757 23.32 20.79 22.37 6.557-.475 13.98-5.976 16.351-12.12 1.758-4.525 1.758-9.133.447-13.21-.753-2.318 1.228-4.636 3.628-4.245l27.012 4.301c3.934.614 7.646-2.067 8.26-6.005l14.957-94.17c.642-3.826-1.981-7.429-5.832-8.043z"/><path fill="#d3782f" d="M579.217 180.23s-7.199 33.652-34.267 41.137l.39-11.45c.252-5.642.587-11.2 1.033-16.114a10.33 10.33 0 0 1 1.34-.587c9.208-2.988 31.504-12.986 31.504-12.986z"/><path fill="#699dee" d="M459.48 237.795c1.757-4.525 1.757-9.133.446-13.21-.753-2.318 1.228-4.636 3.628-4.245l27.012 4.301c3.934.614 7.646-2.067 8.26-6.005l14.957-94.17c.614-3.854-2.009-7.485-5.86-8.071l-93.985-14.942a7.35 7.35 0 0 0-8.4 6.089l-4.157 26.223c-.53 3.38 2.763 6.144 5.972 4.971 3.125-1.117 6.557-1.48 10.074-.837 9.906 1.815 16.826 11.059 15.766 21.057-1.172 11.143-11.385 18.879-22.296 17.147a19.119 19.119 0 0 1-10.465-5.25c-1.786-1.76-4.827-.754-5.218 1.731l-4.576 28.849c-.614 3.938 2.065 7.652 6 8.267l26.844 4.273c2.483.391 3.683 3.267 2.232 5.306-1.702 2.374-2.874 5.166-3.376 8.238-1.926 12.065 7.757 23.32 20.79 22.37 6.585-.447 13.98-5.948 16.351-12.092z"/><path fill="#a16d3c" d="M507.803 192.774l-3.851-.642s-4.41-6.367-12.083-2.793c0 0-3.042 1.704-1.033 3.296s1.48.726 4.27 3.016c2.79 2.318 6.418 3.24 8.79 2.094l3.014-.167z"/><path fill="#e69d43" d="M504.88 194.75c.111-2.848 1.646-3.155 1.646-3.155l31.812-2.43c2.539-.502 25.84-19.828 25.84-19.828s9.013-8.1 15.348-5.362c5.497 2.374 7.2 7.065 7.478 11.394.335 5.139-2.567 9.942-7.227 12.12-10.465 4.888-31.421 14.495-36.193 15.333-10.604 1.843-37.895-4.078-37.895-4.078s-.921-1.76-.81-3.993z"/><path fill="#2c3a64" d="M557.956 132.224s-6.027-4.469-2.093-11.423c0 0 4.744 1.564 11.497 0s12.78.67 13.562 3.016c0 0 2.623 1.062 2.874 5s-7.618 16.337-7.618 16.337-1.674-2.095-1.228-3.547 1.898-4.664.14-4.664-2.372 2.625-3.07 1.564c-.725-1.061.586-5.446-1.507-6.172-2.12-.726-10.185 1.201-12.557-.112z"/><path fill="#c3e0f4" d="M352.933 382.339l-26.565-120.73h7.311a3.17 3.17 0 0 0 3.153-3.156v-4.077a3.17 3.17 0 0 0-3.153-3.156h-92.785a3.17 3.17 0 0 0-3.153 3.156v4.077a3.17 3.17 0 0 0 3.153 3.156h9.404l-26.565 120.73a3.027 3.027 0 0 0 2.288 3.602 3.025 3.025 0 0 0 3.6-2.29l26.844-122.042h63.708l26.872 122.042a3.026 3.026 0 0 0 3.6 2.29 3.027 3.027 0 0 0 2.288-3.602z"/><path fill="#d86713" d="M493.271 276.11h-26.538c-3.433 0-5.61 3.686-3.963 6.703 1.59 2.904-4.046 28.066-15.906 28.709-11.162.614-20.426-8.295-20.426-19.354 0-4.161 1.311-8.015 3.544-11.17 1.45-2.04 0-4.888-2.512-4.888h-29.188a7.232 7.232 0 0 0-7.228 7.233s-2.65 31.362-4.883 30.245a19.046 19.046 0 0 0-7.646-2.01h-.028c-.335-.028-.642-.028-.977-.028s-5.134-.084-5.134-.084l-.726 38.763 4.186.056c3.962-.112 7.423-.503 10.464-2.067 2.177-1.117 4.772.475 4.772 2.933v27.368c0 3.994 3.237 7.234 7.227 7.234h95.268a7.054 7.054 0 0 0 7.061-7.066v-95.232c-.028-4.05-3.321-7.345-7.367-7.345z"/><path fill="#f1a34f" d="M368.06 349.776c4.744 1.033 9.292.307 13.087-1.648 2.177-1.117 4.772.475 4.772 2.933v27.368c0 3.994 3.237 7.234 7.227 7.234h95.269a7.054 7.054 0 0 0 7.06-7.066v-95.232c0-4.05-3.293-7.345-7.34-7.345h-26.537c-3.433 0-5.609 3.686-3.963 6.703a19.438 19.438 0 0 1 2.4 9.83c-.251 10.054-8.26 18.348-18.306 18.879-11.162.586-20.426-8.295-20.426-19.354 0-4.161 1.311-8.015 3.544-11.17 1.45-2.04 0-4.888-2.512-4.888h-29.189a7.232 7.232 0 0 0-7.227 7.233v27.201c0 2.514-2.65 4.161-4.911 3.016-2.595-1.312-5.525-2.038-8.65-2.038-12.223 0-21.795 11.31-18.837 24.045 1.507 6.451 8.12 12.903 14.539 14.299z"/><path fill="#ea8e50" d="M153.356 247.73l2.54 2.067s6.92-2.486 8.482 5.753c0 0 .419 3.518-1.813 3.518s-1.312-.39-4.465-.279c-3.154.084-5.749-1.564-6.223-4.133l-1.507-2.178z"/><path fill="#1e3d70" d="M153.078 252.141c2.01-2.122 1.87-3.686 1.87-3.686l-25.785-20.75c-1.618-1.061-18.864-16.365-26.928-25.693-3.99-4.636-8.958-2.82-14.623-1.201l-4.66 1.34c-5.637 1.62-7.088 9.496-2.483 13.322 13.004 10.78 34.658 22.928 38.732 25.47 10.046 6.339 29.747 13.851 29.747 13.851s2.4-.837 4.13-2.653z"/><path fill="#233862" d="M180.479 369.77s5.692 4.273 14.37 2.01c0 0 7.033-1.591 8.568 1.9l-13.479 6.982c-2.065 1.117-4.185 2.904-5.72 4.272-1.2 1.09-3.07.95-4.074-.307a88.685 88.685 0 0 1-1.619-2.094C176.88 380.27 173 373.01 173 373.01z"/><path fill="#2b478b" d="M183.136 367.819s-3.46 7.988-11.44 6.507c0 0-16.297-13.46-27.46-27.452-3.627-4.552-6.725-9.132-8.538-13.35-7.423-17.174-27.403-42.784-40.128-55.77l31.812-11.534s10.185 20.527 23.747 45.717c9.767 18.18 21.292 38.79 32.007 55.882z"/><path d="M151.13 311.965l-6.894 34.909c-3.627-4.552-6.725-9.132-8.538-13.35-7.423-17.174-27.403-42.784-40.128-55.77l31.812-11.534c0 .028 10.185 20.555 23.747 45.745zm-26.098 62.365s-.335 6.368 7.367 7.206c0 0 4.41.028 4.41 4.078l-22.436.083s-.642-1.647-.81-5.138c-.111-2.681 2.596-9.719 2.596-9.719z" fill="#233862"/><path fill="#2b478b" d="M116.938 266.246s14.175 15.584 23.16 43.679c4.884 15.276-8.985 53.704-11.664 67.053 0 0-9.292.782-15.654-1.676 0 0-.475-27.564 3.237-48.816 2.093-11.898-18.669-25.442-27.738-46.918-6.167-14.606 1.34-14.383 10.548-14.718z"/><path fill="#ffb07b" d="M100.556 196.712c-7.897 4.468-24.026.335-24.026.335s6.558-7.512 3.572-19.577l6.195 3.156 6.641 3.379s.419 2.122.726 5.976c.083.978.14 2.095.195 3.296 4.074 1.2 6.697 3.435 6.697 3.435z"/><path fill="#2a4e96" d="M129.494 265.443c0 1.396-1.59 2.038-1.926 2.122-3.18.587-12.054 4.05-20.063 4.832-6.725.698-13.004.028-19.869-1.34-.92-.196-3.041-.755-3.209-1.62-.195-.95-26.51-53.705-6.055-76.354.474-.53 4.52.419 8.204 1.313 3.404.81 6.53.363 9.32-.754l3.46 1.815c4.242 2.374 12.306 10.808 13.255 17.399.475 3.35 2.4 5.864 2.958 8.797.196 1.089.419 2.15.642 3.211l1.284 5.837a160.15 160.15 0 0 0 3.711 13.014c1.34 3.938 2.623 7.233 3.795 9.97l3.572 8.267c.586 1.452.92 2.57.92 3.49z"/><path fill="#1e3d70" d="M128.606 261.973C91.464 244.434 78.6 210.81 78.6 210.81l37.616 14.047 1.284 5.837a160.15 160.15 0 0 0 3.711 13.014c1.34 3.938 2.623 7.234 3.795 9.97l3.6 8.295z"/><path fill="#4a75cb" d="M233.53 224.722l-7.953-25.246c-.781-2.458-3.321-3.603-5.525-2.988-.112.027-.224.083-.363.111l-2.791.922s-4.381 4.496-7.506 5.418c-9.627 2.793-18.78-2.346-22.296-11.758-3.907-10.472.614-21.95 11.134-25.274 3.6-1.145 10.66.978 10.66.978l2.846-.922c1.535-.475 2.595-2.122 2.037-3.882l-8.734-27.815c-1.2-3.798-5.246-5.921-9.041-4.72l-25.869 8.155c-2.4.754-4.743-1.285-4.353-3.743.447-2.876.28-5.892-.67-8.853-3.655-11.617-17.3-17.342-28.518-10.696-5.637 3.352-9.795 11.562-9.181 18.097.446 4.832 2.483 8.937 5.497 11.981 1.702 1.732.977 4.664-1.367 5.418l-26.036 8.21c-3.795 1.201-5.888 5.25-4.716 9.049l28.63 90.708c1.173 3.714 5.135 5.781 8.819 4.608l90.524-28.598a7.28 7.28 0 0 0 4.772-9.16z"/><path fill="#699dee" d="M124.667 133.428c.446 4.832 2.483 8.937 5.497 11.981 1.702 1.732.977 4.664-1.367 5.418l-26.036 8.21c-3.795 1.201-5.888 5.25-4.716 9.049l28.575 90.708c1.172 3.714 5.135 5.781 8.818 4.608l90.524-28.57c3.851-1.201 5.972-5.334 4.772-9.188l-7.953-25.246c-1.032-3.268-5.19-4.245-7.534-1.76a19.196 19.196 0 0 1-8.623 5.223c-9.627 2.793-19.924-2.374-23.44-11.785a19.34 19.34 0 0 1 12.278-25.247 19.108 19.108 0 0 1 11.664.028c2.372.754 4.633-1.48 3.879-3.854l-8.762-27.787c-1.2-3.799-5.246-5.921-9.041-4.72l-25.868 8.155c-2.4.754-4.744-1.285-4.354-3.743.447-2.876.28-5.892-.67-8.853-3.655-11.617-17.3-17.342-28.518-10.696-5.581 3.324-9.74 11.534-9.125 18.07z"/><path fill="#ffb07b" d="M150.344 251.812l3.21 1.173s6.418-4.552 10.436 2.849c0 0 1.451 3.24-.837 3.937s-1.451.028-4.688 1.118c-3.21 1.06-6.39.307-7.618-2.011l-2.177-1.592z"/><path fill="#2a4e96" d="M152.969 256.36l1.73-4.496-26.733-21.476c-1.674-1.145-18.445-13.712-26.622-23.487-4.046-4.86-10.436-7.066-16.631-5.781l-5.079 1.061c-6.139 1.285-8.148 9.077-3.376 13.182 13.422 11.534 36.081 24.883 40.323 27.676 10.492 6.898 33.681 16.56 33.681 16.56s1.786-.81 2.707-3.239z"/><path fill="#ea8e50" d="M93.698 189.946c-7.757.446-12.808-5.977-12.808-5.977s3.516-1.955 5.414-3.379l6.641 3.38c.028 0 .447 2.15.753 5.976z"/><path fill="#ffb07b" d="M96.99 181.988s-11.748 8.434-16.882 1.033-10.13-11.31-2.819-17.008c7.283-5.697 10.716-3.91 13.032-1.843 2.288 2.039 9.6 15.416 6.67 17.818z"/><path fill="#233862" d="M91.547 157.47c-.419-2.85-1.367-4.86-1.367-4.86s-.726 3.044-6.307 2.625-14.427.559-17.385 6.926a9.8 9.8 0 0 0-.502 1.257c-.53-1.424-.67-3.519-.67-3.519-1.06 2.737 0 6.172 0 6.172-.028.112-.028.196-.056.307-1.228 1.034-2.26 4.273-2.26 4.273.363-.894 1.284-1.48 2.093-1.843-.028 4.943 1.981 9.802 5.497 11.227 5.163 2.094 5.107.502 10.297 3.937 0 0 1.395-1.731.447-2.876-.95-1.173-4.521-2.849-2.54-4.524 2.01-1.676 2.735.223 3.488-.95.726-1.173-2.958-4.524 1.786-7.708 4.744-3.156 7.897-7.596 7.479-10.445z"/></svg>