<svg xmlns="http://www.w3.org/2000/svg" width="54" height="23" fill="none" xmlns:v="https://vecta.io/nano"><path d="M21.742 16.129a1.93 1.93 0 0 0-1.075.326 1.94 1.94 0 0 0-.713.869 1.93 1.93 0 0 0-.11 1.118 1.94 1.94 0 0 0 1.521 1.521c.375.075.765.036 1.118-.11a1.94 1.94 0 0 0 .869-.713c.213-.318.326-.693.326-1.075a1.94 1.94 0 0 0-1.936-1.936zm0 2.581a.64.64 0 0 1-.358-.109.65.65 0 0 1-.238-.29c-.049-.118-.062-.248-.037-.373a.64.64 0 0 1 .177-.33.65.65 0 0 1 .33-.177c.125-.025.255-.012.373.037a.65.65 0 0 1 .29.238c.071.106.109.231.109.358 0 .171-.068.335-.189.456s-.285.189-.456.189zm24.516-2.581a1.93 1.93 0 0 0-1.075.326 1.94 1.94 0 0 0-.713.869 1.93 1.93 0 0 0-.11 1.118 1.94 1.94 0 0 0 1.521 1.521c.375.075.765.036 1.118-.11a1.94 1.94 0 0 0 .869-.713c.213-.318.326-.693.326-1.075a1.94 1.94 0 0 0-1.935-1.935zm0 2.581a.64.64 0 0 1-.358-.109.65.65 0 0 1-.238-.29c-.049-.118-.062-.248-.037-.373s.086-.24.176-.33.205-.152.33-.177.255-.012.373.037a.65.65 0 0 1 .29.238c.071.106.109.231.109.358 0 .171-.068.335-.189.456s-.285.189-.456.189zm6.452-3.871v-3.871c-.001-1.026-.409-2.01-1.135-2.736s-1.71-1.134-2.736-1.135h-5.36l-1.774-4.732A3.47 3.47 0 0 0 38.411 0H26.258a3.47 3.47 0 0 0-3.284 2.336l-2.284 4.76h-1.529c-1.026.001-2.01.409-2.736 1.135s-1.134 1.71-1.135 2.736v3.871a1.29 1.29 0 0 0-1.29 1.29v1.29a1.29 1.29 0 0 0 1.29 1.29h1.982a4.51 4.51 0 0 0 1.513 2.768 4.52 4.52 0 0 0 2.956 1.102c1.086 0 2.135-.391 2.956-1.102s1.358-1.694 1.513-2.768h15.577a4.51 4.51 0 0 0 1.513 2.768 4.52 4.52 0 0 0 2.956 1.102c1.086 0 2.135-.391 2.956-1.102s1.358-1.694 1.513-2.768h1.982a1.3 1.3 0 0 0 .912-.378 1.29 1.29 0 0 0 .378-.912v-1.29a1.29 1.29 0 0 0-1.29-1.29zM42.102 7.097H34V3.226h6.65l1.452 3.871zm-25.521 4.516h1.29v.645h-1.29v-.645zm.692 5.807H15.29v-1.29h2.372c-.194.408-.326.843-.389 1.29zm4.469 3.871a3.22 3.22 0 0 1-1.792-.544 3.23 3.23 0 0 1-1.372-3.312c.124-.626.432-1.2.883-1.652s1.026-.758 1.652-.883 1.274-.061 1.864.184 1.093.658 1.448 1.188a3.22 3.22 0 0 1 .544 1.792 3.23 3.23 0 0 1-3.226 3.226zm20.047-3.871H26.211a4.48 4.48 0 0 0-.39-1.29h16.356a4.48 4.48 0 0 0-.389 1.29zm4.469 3.871a3.22 3.22 0 0 1-1.792-.544 3.23 3.23 0 0 1-1.372-3.312c.124-.626.432-1.2.883-1.652s1.026-.758 1.652-.883 1.274-.061 1.864.184 1.093.658 1.448 1.188a3.22 3.22 0 0 1 .544 1.792 3.23 3.23 0 0 1-3.226 3.226zm3.226-6.452c-.022 0-.044.002-.065.004-.843-.829-1.977-1.294-3.16-1.294s-2.317.464-3.16 1.293a.61.61 0 0 0-.066-.003H24.968a.61.61 0 0 0-.066.003 4.5 4.5 0 0 0-3.16-1.293 4.51 4.51 0 0 0-3.16 1.294c-.022-.003-.043-.004-.065-.004h-1.936v-1.29h1.936c.171 0 .335-.068.456-.189s.189-.285.189-.456v-1.935c0-.171-.068-.335-.189-.456s-.285-.189-.456-.189h-1.854c.144-.554.467-1.044.919-1.394a2.58 2.58 0 0 1 1.58-.541h1.936a.64.64 0 0 0 .343-.099c.102-.065.185-.157.238-.267l2.477-5.161a.61.61 0 0 0 .03-.075c.145-.435.423-.814.795-1.082s.819-.412 1.278-.412h12.153a2.18 2.18 0 0 1 1.55.645H26.258c-.171 0-.335.068-.456.189s-.189.285-.189.456v5.161c0 .171.068.335.189.456s.285.189.456.189h22.581a2.59 2.59 0 0 1 1.58.541c.452.35.776.841.919 1.394h-1.854c-.171 0-.335.068-.456.189s-.189.285-.189.456v1.935c0 .171.068.335.189.456s.285.189.456.189h1.936v1.29h-1.936zM32.71 3.226v3.871h-5.806V3.226h5.807zm18.71 8.387v.645h-1.29v-.645h1.29zm1.29 5.807h-1.982c-.064-.447-.195-.882-.39-1.29h2.372v1.29zM34 10.323h3.226c.171 0 .335-.068.456-.189s.189-.285.189-.456-.068-.335-.189-.456-.285-.189-.456-.189H34c-.171 0-.335.068-.456.189s-.189.285-.189.456.068.335.189.456.285.189.456.189z" fill="#0085ff"/><path d="M17 .5H7m7 3H1m9 18H0m11-7H5" stroke="#0085ff"/></svg>