<svg xmlns="http://www.w3.org/2000/svg" width="26" height="23" fill="#221849" xmlns:v="https://vecta.io/nano"><path d="M19.897 16.733a3.14 3.14 0 0 0-3.134 3.133A3.14 3.14 0 0 0 19.897 23a3.14 3.14 0 0 0 3.133-3.134 3.14 3.14 0 0 0-3.133-3.133zm0 4.387c-.691 0-1.253-.562-1.253-1.253s.562-1.253 1.253-1.253 1.253.562 1.253 1.253-.562 1.253-1.253 1.253zm5.034-16.498a.94.94 0 0 0-.74-.361H5.803L4.957.722A.94.94 0 0 0 4.042 0H.94a.94.94 0 1 0 0 1.88H3.3l3.055 12.784a.94.94 0 0 0 .914.722h14.634a.94.94 0 0 0 .912-.714l2.288-9.244a.94.94 0 0 0-.172-.805zm-3.763 8.883H8.012l-1.76-7.364H22.99l-1.822 7.364zM8.524 16.733a3.14 3.14 0 0 0-3.134 3.133A3.14 3.14 0 0 0 8.524 23a3.14 3.14 0 0 0 3.133-3.134 3.14 3.14 0 0 0-3.133-3.133zm0 4.387c-.691 0-1.253-.562-1.253-1.253s.562-1.253 1.253-1.253 1.253.562 1.253 1.253-.562 1.253-1.253 1.253z"/></svg>