<svg xmlns="http://www.w3.org/2000/svg" width="48" height="87" fill="#91b3fa" xmlns:v="https://vecta.io/nano"><path d="M110.673-65.604c7.811 9.087 10.06 21.814 7.836 33.502-2.377 12.373-9.971 22.961-19.559 30.695-5.526 4.475-11.714 8.06-18.189 10.868-.545.234-.207 1.079.337.845 11.729-5.075 22.67-12.779 30.151-23.412 7.109-10.131 10.454-22.742 8.364-35.079-1.118-6.638-3.858-12.884-8.232-17.967-.362-.449-1.069.1-.709.549zM86.982 18.514L75.843 11.71c-.25-.157-1.131-.554-1.251-.785-.324-.72.176-1.513.577-2.012l2.079-2.423 4.129-4.85c.391-.438-.318-.996-.708-.558L75.42 7.286c-.824.964-2.991 2.697-1.763 4.095.676.798 1.993 1.317 2.853 1.864l3.476 2.164 6.607 3.974c.538.258.894-.585.39-.869z"/></svg>