<svg xmlns="http://www.w3.org/2000/svg" width="15" height="14" xmlns:v="https://vecta.io/nano"><path fill="#fff" d="M14.306 1.685a1.816 1.816 0 0 1 0 2.692L5.9 12.224c-.005.007-.013.011-.017.015l-.045.034-.04.023a.015.015 0 0 1-.009.004.153.153 0 0 1-.036.015L.62 13.914a.513.513 0 0 1-.13.02.426.426 0 0 1-.29-.111.357.357 0 0 1-.098-.389L1.807 8.65l.016-.038.028-.042c.013-.02.025-.031.033-.042l.025-.023 7.685-7.17.722-.677a2.146 2.146 0 0 1 2.885 0zM12.72 4.792l-2.84-2.65-7.106 6.632 2.839 2.65zM1.13 12.95l3.725-1.157-2.48-2.315zm12.602-9.107a1.092 1.092 0 0 0 .004-1.615l-1.11-1.035a1.286 1.286 0 0 0-1.73 0l-.436.407 2.84 2.65z"/></svg>