<svg xmlns="http://www.w3.org/2000/svg" width="20" height="20" fill="none" xmlns:v="https://vecta.io/nano"><g clip-path="url(#A)"><path d="M20 2.295v14.995c0 1.266-1.051 2.295-2.344 2.295H8.242c-1.292 0-2.344-1.03-2.344-2.295v-3.06h1.563v3.06c0 .422.351.765.781.765h9.414c.431 0 .781-.343.781-.765V2.295c0-.422-.351-.765-.781-.765H8.242c-.431 0-.781.343-.781.765v3.06H5.898v-3.06C5.898 1.03 6.95 0 8.242 0h9.414C18.949 0 20 1.03 20 2.295zM8.309 12.318L9.414 13.4l3.683-3.607-3.683-3.607-1.105 1.082 1.797 1.76H0v1.53h10.106l-1.797 1.76z" fill="#221849"/></g><defs><clipPath id="A"><path fill="#fff" d="M0 0h20v19.586H0z"/></clipPath></defs></svg>