<svg xmlns="http://www.w3.org/2000/svg" width="19" height="16" xmlns:v="https://vecta.io/nano"><path fill="#565656" d="M18.65 4.765a4.694 4.694 0 0 1-1.383 3.34l-6.926 6.926a.804.804 0 0 1-1.142 0L2.274 8.106A4.694 4.694 0 0 1 .89 4.765a4.69 4.69 0 0 1 1.384-3.341A4.694 4.694 0 0 1 5.614.04a4.69 4.69 0 0 1 3.342 1.384l.814.814.814-.814A4.694 4.694 0 0 1 13.926.04a4.69 4.69 0 0 1 3.34 1.384 4.694 4.694 0 0 1 1.384 3.34zm-2.525 2.2a3.09 3.09 0 0 0 .91-2.2 3.09 3.09 0 0 0-.91-2.2 3.114 3.114 0 0 0-4.399 0l-1.385 1.386a.807.807 0 0 1-1.142 0L7.814 2.566a3.1 3.1 0 0 0-2.2-.91 3.1 3.1 0 0 0-2.198.91 3.09 3.09 0 0 0-.911 2.199c0 .83.323 1.612.91 2.2l6.355 6.354z"/></svg>