<svg xmlns="http://www.w3.org/2000/svg" xmlns:xlink="http://www.w3.org/1999/xlink" width="656" height="423" fill="none" xmlns:v="https://vecta.io/nano"><g clip-path="url(#s)"><path d="M87.911 284.826c11.292 26.98 2.823 46.566-5.985 72.361-3.218 9.426-2.654 19.755-1.073 29.576C84.467 409.341 93.67 423 118.626 423h278.573a98.89 98.89 0 0 1 11.575 0h175.76c22.245 0 41.272-15.635 44.998-37.083 0-.113.057-.283.057-.395 7.791-45.268-4.291-73.49-22.02-111.815-12.477-26.924-13.437-50.065-7.001-79.472 7.114-32.455 14.002-73.941-3.049-103.518-14.905-25.908-38.505-44.365-63.743-51.138-32.069-8.636-58.944 5.306-84.634 28.504-35.287 31.834-96.32 57.742-139.795 43.688-37.997-12.305-66.058-53.283-106.088-61.185-27.609-5.475-68.768 3.217-77.689 41.542-2.484 10.612-1.807 19.868-8.977 28.674-6.606 8.128-15.188 13.095-25.125 16.312-12.026 3.951-24.899 5.926-35.683 12.53-60.017 36.689 15.696 97.478 31.674 133.997.113.395.282.79.452 1.185z" fill="url(#A)"/><path d="M298.417 147.617s-3.091-8.225-6.739-7.483-7.604 3.525-7.604 3.525l-5.873 7.916s16.445 6.494 22.194 2.783c0 0 16.754 2.907 37.96-.557-3.092-6.493-4.884-12.986-5.997-17.996-10.696 6.061-22.256 10.637-33.941 11.812z" fill="url(#B)"/><path d="M387.318 88.063s-23.987 30.241-54.898 47.742c1.051 5.01 2.906 11.503 5.997 17.996 16.012-2.659 34.559-8.905 50.262-22.881l-1.361-42.857z" fill="url(#C)"/><path d="M417.24 222.199c-4.698-22.325-9.397-35.25-25.1-77.55-4.946-13.296-9.459-26.778-7.295-40.816l2.411-15.77s30.541-10.328 64.419-.433c0 0 46.244 20.099 14.838 119.294-14.096 15.831-30.664 20.346-49.273 15.275z" fill="url(#D)"/><path d="M392.512 67.964l7.913 19.047c.495 1.175 1.607 2.041 2.844 2.288 4.575.804 15.641 1.979 22.874-2.783a1.82 1.82 0 0 0 .495-2.597l-14.652-21.026-19.474 5.071z" fill="url(#E)"/><path d="M400.672 38.775c-.309.309-14.033 27.272-14.033 27.272l15.517 7.483 16.816-23.624c0 .062-12.736-16.388-18.3-11.131z" fill="url(#F)"/><path d="M412.109 50.587c.247.742.186 1.546-.185 2.165l-7.728 12.925c-.124.186-.248.371-.433.556-.927.866-4.08 3.34-6.491-.062-2.102-2.907-4.019-5.566-6.121-6.617-1.236-.618-2.72-.124-3.338 1.113-1.299 2.535-3.771 7.668-5.317 12.616a2.5 2.5 0 0 0 1.422 3.03c3.153 1.299 9.397 3.587 14.899 4.329.928.124 1.793-.247 2.349-.989 2.35-3.278 9.088-12.368 11.376-14.657 2.102-2.103 6.058-1.299 7.79-.804.68.186 1.36.124 1.978-.247 1.793-1.051 4.946-3.772 2.04-8.287-.68-1.113-.371-2.659.742-3.401 1.978-1.299 4.142-3.772 2.102-7.792-2.102-4.02-5.812-4.391-8.346-4.082-1.113.124-2.288-.433-2.72-1.484-.186-.495-.557-.866-1.299-.989a2.41 2.41 0 0 1-1.978-2.845c.433-2.288.124-5.256-3.524-7.297-6.677-3.711-12.612 2.35-14.096 7.421s5.997 8.658 10.696 9.276c3.524.371 5.378 4.143 6.182 6.122z" fill="url(#G)"/><path d="M409.203 68.892s3.339-7.854 7.172-7.545 6.8 4.143 2.101 8.411c-5.934 5.318-9.273-.866-9.273-.866z" fill="url(#H)"/><path d="M414.21 418.856c7.357.619 20.216 1.67 30.293 2.103 6.059.247 9.583-.309 11.561-1.113v.618a2.13 2.13 0 0 1-1.978 1.979c-19.104 1.052-34.25.371-39.69.062-1.113-.062-1.793-1.299-1.237-2.226l1.051-1.423z" fill="url(#I)"/><path d="M444.504 420.959c-10.077-.433-22.936-1.484-30.293-2.102 7.233-8.906 30.293-14.904 30.293-14.904h6.491c4.452 6.431 5.132 12.615 5.07 15.893-1.978.804-5.441 1.422-11.561 1.113z" fill="url(#J)"/><path d="M452.107 393.316l-.618 12.059a2.77 2.77 0 0 1-2.349 2.597c-1.298.186-3.029.186-4.884-.433-1.113-.371-1.978-1.36-2.164-2.473l-2.102-11.75h12.117z" fill="url(#K)"/><path d="M536.62 420.897c3.215-.433 4.637-2.102 5.255-3.896v.062c.495 1.855-.618 3.834-2.782 4.762-2.658 1.113-5.502 1.299-7.789 1.237-2.412-.124-4.637-1.113-5.812-2.659 2.411 1.113 5.812 1.236 11.128.494z" fill="url(#L)"/><path d="M521.536 393.254h5.379c8.16-.186 13.292 17.068 14.961 23.747-.618 1.794-2.04 3.463-5.255 3.896-5.317.742-8.717.619-11.128-.618-4.389-5.813-6.615-14.347-7.666-19.295-1.175-5.627 3.709-7.73 3.709-7.73z" fill="url(#M)"/><path d="M526.234 382.061l2.968 11.873c.371 1.423-.31 2.969-1.67 3.649-1.669.866-4.018 1.732-6.182 1.484-.989-.124-1.855-.866-2.164-1.793l-4.389-12.492 11.437-2.721z" fill="url(#N)"/><path d="M529.757 385.462c-3.709 3.277-15.765 3.71-15.765 3.71-43.399-104.266-61.513-132.96-61.513-132.96 6.244 39.331 1.36 140.381 1.36 140.381-7.172 3.154-16.383 0-16.383 0-.557-64.439-9.645-133.64-21.329-177.981 29.366-.681 45.316-7.05 50.385-11.07 24.42 39.455 63.245 177.92 63.245 177.92z" fill="url(#O)"/><path d="M408.646 247.801l5.379 33.581c.927 5.875 6.368 9.894 12.303 9.214l80.864-9.833a8.03 8.03 0 0 0 7.048-7.73c.185-8.658-.186-24.119-3.833-38.219l-101.761 12.987z" fill="url(#P)"/><path d="M426.452 288.493c-.557 0-1.175-.062-1.731-.185-.124 0-.186-.124-.186-.248s.124-.185.248-.185c.556.124 1.112.185 1.669.185.123 0 .185.124.185.248s-.062.185-.185.185zm3.956-.371c-.123 0-.185-.062-.185-.185s.062-.248.185-.248l1.67-.185c.123 0 .247.062.247.185s-.062.248-.186.248l-1.731.185zm5.626-.68c-.123 0-.185-.062-.185-.186s.062-.247.185-.247l1.669-.185c.124 0 .248.061.248.185s-.062.247-.186.247l-1.731.186zm-14.961-.557c-.062 0-.062 0-.123-.061-.495-.31-.928-.681-1.361-1.052-.061-.062-.123-.185 0-.309.062-.062.186-.124.31 0 .432.371.865.68 1.36.989.123.062.123.186.061.31s-.123.123-.247.123zm20.587-.123c-.123 0-.185-.062-.185-.186s.062-.247.185-.247l1.669-.186c.124 0 .248.062.248.186s-.062.247-.186.247l-1.731.186zm5.626-.681a.16.16 0 0 1-.185-.185c0-.124.061-.247.185-.247l1.669-.186c.124 0 .247.062.247.186s-.061.247-.185.247l-1.731.185zm5.626-.68c-.124 0-.186-.062-.186-.185s.062-.248.186-.248l1.669-.185c.124 0 .247.062.247.185s-.061.248-.185.248l-1.731.185zm5.564-.68c-.124 0-.186-.062-.186-.186s.062-.247.186-.247l1.669-.186c.124 0 .247.062.247.186s-.061.247-.185.247l-1.731.186h0zm5.626-.68c-.124 0-.186-.062-.186-.186s.062-.247.186-.247l1.669-.186c.124 0 .247.062.247.186s-.062.247-.185.247l-1.731.186h0zm5.626-.742c-.124 0-.186-.062-.186-.186s.062-.247.186-.247l1.669-.186c.123 0 .247.062.247.186s-.062.247-.185.247l-1.731.186h0zm-52.426-.495c-.062 0-.124-.062-.185-.124a12.52 12.52 0 0 1-.681-1.608c-.061-.123 0-.247.124-.247.124-.062.247 0 .247.124.186.556.371 1.051.619 1.546.061.123 0 .247-.062.309h-.062zm58.051-.186c-.123 0-.185-.062-.185-.185s.062-.248.185-.248l1.67-.185c.123 0 .247.062.247.185s-.062.248-.185.248l-1.732.185h0zm5.626-.68c-.123 0-.185-.062-.185-.186s.062-.247.185-.247l1.67-.185c.123 0 .247.061.247.185s-.062.247-.186.247l-1.731.186zm5.626-.68c-.123 0-.185-.062-.185-.186s.062-.247.185-.247l1.669-.186c.124 0 .248.062.248.186s-.062.247-.186.247l-1.731.186zm5.626-.681a.16.16 0 0 1-.185-.185c0-.124.061-.247.185-.247l1.669-.186c.124 0 .248.062.248.186s-.062.247-.186.247l-1.731.185zm5.626-.68c-.124 0-.186-.062-.186-.185s.062-.248.186-.248l1.669-.185c.124 0 .247.062.247.185s-.061.248-.185.248l-1.731.185zm5.626-.68c-.124 0-.186-.062-.186-.186s.062-.247.186-.247l1.422-.185c.062 0 .185 0 .247-.062.124 0 .247.062.247.185s-.062.248-.185.248c-.062 0-.186 0-.247.061l-1.484.186zm5.255-1.793c-.062 0-.124 0-.186-.062s-.062-.248.062-.31c.433-.371.804-.742 1.175-1.175.062-.061.185-.123.309-.061.062.061.123.185.062.309a11.65 11.65 0 0 1-1.237 1.237c-.062.062-.123.062-.185.062zm-92.796-.124c-.124 0-.186-.062-.186-.186l-.247-1.669c0-.124.062-.248.186-.248s.247.062.247.186l.247 1.669c-.062.124-.123.248-.247.248zm95.578-4.638c-.124 0-.248-.124-.186-.248.062-.309.062-.618.062-.989v-.68c0-.124.124-.186.186-.186.123 0 .185.124.185.186v.68c0 .309-.062.68-.062.989 0 .186-.062.248-.185.248zm-96.505-.928c-.124 0-.186-.062-.186-.185l-.247-1.67c0-.124.062-.248.185-.248s.248.062.248.186l.247 1.67c0 .123-.124.247-.247.247zm96.628-4.762c-.123 0-.185-.123-.185-.185v-1.67c0-.124.062-.186.185-.186s.186.062.186.186v1.732c0 .061-.062.123-.186.123zm-97.556-.804c-.123 0-.185-.062-.185-.185l-.248-1.67c0-.124.062-.247.186-.247s.247.061.247.185l.248 1.67c0 .062-.062.185-.248.247h0zm97.433-4.823c-.124 0-.186-.062-.186-.186l-.062-1.67c0-.123.062-.247.186-.247s.247.062.247.185l.062 1.732c-.062.062-.124.186-.247.186zm-98.298-.804c-.124 0-.186-.062-.186-.186l-.247-1.67c0-.123.062-.247.185-.247s.248.062.248.186l.247 1.669c0 .124-.124.248-.247.248zm97.927-4.886c-.124 0-.186-.062-.186-.185l-.123-1.67c0-.124.061-.248.185-.248s.247.062.247.186l.124 1.67c0 .123-.062.247-.247.247h0zm-98.855-.68c-.123 0-.185-.062-.185-.186l-.247-1.669c0-.124.061-.248.185-.248s.247.062.247.186l.248 1.669c0 .124-.062.186-.248.248h0zm98.36-4.948c-.123 0-.185-.061-.185-.185l-.186-1.67c0-.123.062-.247.186-.247s.247.062.247.185l.186 1.67c-.062.124-.124.247-.248.247zm-99.225-.68c-.124 0-.186-.062-.186-.185l-.247-1.67c0-.124.062-.247.186-.247s.247.061.247.185l.247 1.67c0 .124-.123.247-.247.247zm3.029-2.102c-.123 0-.185-.062-.185-.186s.062-.247.185-.247l1.669-.186c.124 0 .248.062.248.186s-.062.247-.186.247l-1.731.186zm5.626-.681c-.124 0-.185-.062-.185-.185s.061-.248.185-.248l1.669-.185c.124 0 .248.062.248.185s-.062.248-.186.248l-1.731.185zm5.564-.742c-.124 0-.185-.062-.185-.185s.061-.248.185-.248l1.669-.185c.124 0 .248.062.248.185s-.062.248-.186.248l-1.731.185h0zm5.626-.742c-.124 0-.186-.062-.186-.185s.062-.248.186-.248l1.669-.185c.124 0 .247.062.247.185s-.061.248-.185.248l-1.731.185h0zm78.577-.68c-.124 0-.186-.062-.186-.186-.062-.556-.185-1.113-.309-1.669 0-.124.062-.248.185-.248s.248.062.248.186l.309 1.669c0 .124-.062.248-.247.248h0zm-72.951 0c-.124 0-.186-.062-.186-.186s.062-.247.186-.247l1.669-.186c.124 0 .247.062.247.186s-.062.247-.185.247l-1.731.186zm5.626-.742c-.124 0-.186-.062-.186-.186s.062-.247.186-.247l1.669-.186c.124 0 .247.062.247.186s-.062.247-.185.247l-1.731.186zm5.626-.681c-.124 0-.186-.061-.186-.185s.062-.247.186-.247l1.669-.186c.123 0 .247.062.247.186s-.062.247-.185.247l-1.731.185zm5.625-.742c-.123 0-.185-.061-.185-.185s.062-.248.185-.248l1.67-.185c.123 0 .247.062.247.185s-.062.248-.186.248l-1.731.185zm5.564-.742c-.123 0-.185-.062-.185-.185s.062-.248.185-.248l1.67-.185c.123 0 .247.062.247.185s-.062.248-.186.248l-1.731.185h0zm5.626-.68c-.123 0-.185-.062-.185-.186s.062-.247.185-.247l1.669-.185c.124 0 .248.061.248.185s-.062.247-.186.247l-1.731.186h0zm5.626-.742c-.124 0-.185-.062-.185-.186s.061-.247.185-.247l1.669-.186c.124 0 .248.062.248.186s-.062.247-.186.247l-1.731.186zm5.626-.742c-.124 0-.185-.062-.185-.186s.061-.247.185-.247l1.669-.186c.124 0 .248.062.248.186s-.062.247-.186.247l-1.731.186zm32.581-.495c-.124 0-.186-.062-.186-.185l-.371-1.67c0-.124.062-.248.186-.248s.247.062.247.186l.371 1.67c0 .123-.062.247-.247.247h0zm-26.955-.185c-.124 0-.186-.062-.186-.186s.062-.247.186-.247l1.669-.186c.124 0 .247.062.247.186s-.061.247-.185.247l-1.731.186zm5.626-.743c-.124 0-.186-.061-.186-.185s.062-.247.186-.247l1.669-.186c.124 0 .247.062.247.186s-.062.247-.185.247l-1.731.185zm5.626-.68c-.124 0-.186-.062-.186-.185s.062-.248.186-.248l1.669-.185c.123 0 .247.062.247.185s-.062.248-.185.248l-1.731.185zm5.564-.742c-.124 0-.186-.062-.186-.185s.062-.248.186-.248l1.669-.185c.123 0 .247.061.247.185s-.062.248-.185.248l-1.731.185h0zm5.625-.742c-.123 0-.185-.062-.185-.186s.062-.247.185-.247l1.67-.185c.123 0 .247.061.247.185s-.062.247-.185.247l-1.732.186h0z" fill="#fff"/><path d="M429.234 220.282l-.062-2.66a1.89 1.89 0 0 1 1.36-1.36c2.473-.742 8.593-2.227 11.932-.371l.865 2.968-14.095 1.423z" fill="url(#Q)"/><path d="M436.776 216.756c-.556.186-1.113.31-1.731.248-.742-.062-1.298-.619-1.422-1.361l-1.051-8.163 4.142-.556 1.051 8.163c.062.68-.309 1.422-.989 1.669z" fill="url(#R)"/><path d="M469.357 215.148l-.062-2.659a1.89 1.89 0 0 1 1.36-1.36c2.473-.742 8.593-2.227 11.932-.371l.865 2.968-14.095 1.422z" fill="url(#S)"/><path d="M476.898 211.623c-.557.186-1.113.31-1.731.248-.742-.062-1.298-.619-1.422-1.361l-1.175-9.029 4.142-.556 1.175 9.029c.124.68-.309 1.422-.989 1.669z" fill="url(#T)"/><path d="M432.386 209.521l44.388-7.174c.99-.185 1.793-.989 1.855-2.04.062-1.423 0-3.525-.556-5.69-.68-2.412-3.03-3.958-5.564-3.71-8.346.865-29.49 3.586-40.618 9.709-1.174.618-1.978 1.793-2.102 3.154-.123 1.237-.123 2.906.495 4.514.309.866 1.236 1.361 2.102 1.237z" fill="url(#U)"/><path d="M431.336 207.666c-.248 0-.495-.186-.557-.433 0-.062-.432-1.794-.185-3.525.185-1.423 1.113-2.598 2.411-3.216 2.411-1.051 7.048-2.907 10.943-3.525.309-.062.618.186.618.495.062.309-.186.618-.495.618-3.771.619-8.284 2.412-10.633 3.463-.928.433-1.608 1.299-1.731 2.289-.186 1.546.123 3.092.123 3.092.062.309-.123.618-.432.68 0 .062-.062.062-.062.062z" fill="#91b3fa"/><path d="M408.399 221.889c14.404-2.04 76.598-10.636 94.959-10.76 1.608 0 3.03.989 3.524 2.474 1.67 4.7 5.255 15.646 6.43 26.839.185 1.546-.804 2.968-2.226 3.401l-40.308 13.111-14.652 1.855-45.131-3.092a3.55 3.55 0 0 1-3.214-2.845c-.99-5.565-3.153-18.676-2.721-27.334.124-1.855 1.484-3.401 3.339-3.649z" fill="url(#V)"/><path d="M456.064 255.408l-1.731-.124c-.123 0-.185-.124-.185-.247s.124-.186.247-.186l1.669.124h.186c.123 0 .247.062.247.185s-.062.248-.185.248h-.248zm-5.687-.433l-1.731-.124c-.124 0-.186-.124-.186-.247s.124-.186.247-.186l1.67.124c.123 0 .185.124.185.247s-.062.186-.185.186zm9.83-.124c-.124 0-.186-.062-.186-.185s.062-.248.186-.248l1.669-.185c.123 0 .247.062.247.185s-.062.248-.185.248l-1.731.185zm-15.518-.247l-1.731-.124c-.124 0-.185-.124-.185-.247s.123-.186.247-.186l1.669.124c.124 0 .185.124.185.247.062.124-.061.186-.185.186zm-5.626-.371l-1.731-.124c-.124 0-.185-.124-.185-.247s.123-.186.247-.186l1.669.124c.124 0 .186.124.186.247 0 .062-.062.186-.186.186zm26.708-.062c-.124 0-.186-.062-.186-.186s.062-.247.186-.247l1.669-.186c.123 0 .247.062.247.186s-.062.247-.185.247l-1.731.186c.061-.062.061 0 0 0zm-32.334-.309l-1.731-.124c-.123 0-.185-.124-.185-.247s.123-.186.247-.186l1.669.124c.124 0 .186.123.186.247 0 .062-.062.186-.186.186zm-5.687-.433l-1.731-.124c-.124 0-.186-.124-.186-.247s.124-.186.247-.186l1.67.124c.123 0 .185.124.185.247.062.124-.062.186-.185.186zm43.585-.248c-.062 0-.186-.061-.186-.123-.062-.124 0-.248.124-.248l1.607-.494c.124-.062.247 0 .247.123.062.124 0 .248-.123.248l-1.608.494h-.061zm-49.211-.123l-1.731-.124c-.124 0-.186-.124-.186-.247s.124-.186.248-.186l1.669.124c.123 0 .185.124.185.247s-.062.186-.185.186zm-5.626-.371s-.062 0 0 0l-1.731-.124c-.124 0-.186-.124-.186-.247s.124-.186.248-.186l1.669.124c.124 0 .185.123.185.247a.28.28 0 0 1-.185.186zm-5.255-.866c-.124 0-.186-.062-.186-.186-.061-.494-.185-1.051-.309-1.669 0-.124.062-.248.186-.248s.247.062.247.186l.309 1.67c-.062.123-.123.247-.247.247zm65.47-.433c-.062 0-.185-.062-.185-.124-.062-.123 0-.247.123-.247l1.608-.495c.123-.062.247 0 .247.124.062.124 0 .247-.124.247l-1.607.495h-.062zm5.441-1.732c-.062 0-.186-.061-.186-.123-.062-.124 0-.248.124-.248l1.607-.494c.124-.062.247 0 .247.123.062.124 0 .248-.123.248l-1.608.494h-.061zm5.378-1.731c-.062 0-.185-.062-.185-.124-.062-.124 0-.247.123-.247l1.608-.495c.123-.062.247 0 .247.124.062.123 0 .247-.124.247l-1.607.495h-.062zm-77.216-1.67c-.124 0-.186-.062-.186-.185l-.247-1.67c0-.124.062-.248.185-.248s.248.062.248.186l.247 1.67c-.062.123-.124.185-.247.247zm82.595-.124c-.062 0-.186-.061-.186-.123-.062-.124 0-.248.124-.248l1.607-.494c.124-.062.248 0 .248.123.061.124 0 .248-.124.248l-1.607.494h-.062zm5.378-1.731c-.062 0-.185-.062-.185-.124-.062-.124 0-.247.123-.247l1.608-.495c.123-.062.247 0 .247.124.062.123 0 .247-.124.247l-1.607.495h-.062zm5.379-1.732c-.062 0-.186-.062-.186-.123-.061-.124 0-.248.124-.248l1.607-.495c.124-.061.248 0 .248.124.061.124 0 .248-.124.248l-1.607.494h-.062zm5.378-1.731c-.061 0-.185-.062-.185-.124-.062-.124 0-.247.124-.247l.556-.186c0-.247-.062-.495-.062-.804 0-.124.062-.247.186-.247s.247.062.247.185c.062.31.062.619.124.928v.185l-.866.31c-.062-.062-.124 0-.124 0zm-99.534-.31c-.124 0-.186-.061-.186-.185l-.185-1.67c0-.123.062-.247.185-.247s.248.062.248.185l.185 1.67c0 .124-.062.247-.247.247h0zm99.596-4.823c-.123 0-.185-.062-.185-.186l-.309-1.669c0-.124.061-.248.185-.248s.247.062.247.186l.31 1.669c-.062.124-.124.248-.248.248zM408.956 235c-.124 0-.186-.062-.186-.186l-.124-1.669c0-.124.062-.248.186-.248s.247.062.247.186l.124 1.669c-.062.124-.124.186-.247.248zm99.039-4.762c-.123 0-.185-.062-.185-.186l-.371-1.669c0-.124.062-.248.185-.248s.248.062.248.186l.371 1.67c0 .123-.124.247-.248.247zm-99.349-.928c-.123 0-.185-.061-.185-.185v-1.113-.557c0-.124.124-.185.185-.185.124 0 .186.123.186.185v.557 1.113c0 .124-.062.185-.186.185zm2.102-3.896c-.123 0-.185-.062-.185-.185s.062-.248.185-.248l1.67-.247c.123 0 .247.062.247.186s-.062.247-.186.247l-1.731.247h0zm95.887-.68c-.123 0-.185-.062-.185-.185l-.433-1.608c-.062-.124.062-.248.124-.248.123 0 .247.062.247.124l.433 1.67c0 .123-.062.247-.186.247zm-90.261-.124c-.123 0-.185-.061-.185-.185s.062-.248.185-.248l1.669-.247c.124 0 .248.062.248.186s-.062.247-.186.247l-1.731.247h0zm5.626-.742c-.124 0-.185-.062-.185-.185s.061-.248.185-.248l1.669-.247c.124 0 .248.062.248.186s-.062.247-.186.247l-1.731.247zm5.626-.804c-.124 0-.185-.062-.185-.185s.061-.248.185-.248l1.669-.247c.124 0 .247.062.247.186s-.061.247-.185.247l-1.731.247zm5.626-.742c-.124 0-.186-.062-.186-.185s.062-.248.186-.248l1.669-.247c.124 0 .247.062.247.185s-.062.248-.185.248l-1.731.247zm5.564-.742c-.124 0-.186-.062-.186-.185s.062-.248.186-.248l1.669-.247c.124 0 .247.062.247.185s-.061.248-.185.248l-1.731.247h0zm5.626-.68c-.124 0-.186-.062-.186-.186s.062-.247.186-.247l1.669-.186c.124 0 .247.062.247.186s-.062.247-.185.247l-1.731.186h0zm5.626-.742c-.124 0-.186-.062-.186-.186s.062-.247.186-.247l1.669-.186c.123 0 .247.062.247.186s-.062.247-.185.247l-1.731.186zm5.625-.681c-.123 0-.185-.061-.185-.185s.062-.247.185-.247l1.67-.186c.123 0 .247.062.247.186s-.062.247-.186.247l-1.731.185zm49.335-.185c-.062 0-.186-.062-.186-.124l-.556-1.608c-.062-.123 0-.247.124-.247.123-.062.247 0 .247.124l.556 1.608c.062.123 0 .247-.123.247h-.062zm-43.709-.495c-.123 0-.185-.062-.185-.185s.062-.248.185-.248l1.67-.185c.123 0 .247.062.247.185s-.062.248-.186.248l-1.731.185zm5.626-.68c-.123 0-.185-.062-.185-.186s.062-.247.185-.247l1.669-.185c.124 0 .248.061.248.185s-.062.247-.186.247l-1.731.186zm5.626-.618c-.124 0-.185-.062-.185-.186s.061-.247.185-.247l1.669-.186c.124 0 .248.062.248.186s-.062.247-.186.247l-1.731.186zm5.626-.619c-.124 0-.186-.062-.186-.185s.062-.248.186-.248l1.669-.185c.124 0 .247.062.247.185s-.061.248-.185.248l-1.731.185zm5.626-.618c-.124 0-.186-.062-.186-.186s.062-.247.186-.247l1.669-.186c.124 0 .247.062.247.186s-.062.247-.185.247l-1.731.186zm5.626-.495c-.124 0-.186-.062-.186-.186s.062-.247.186-.247l1.669-.124c.123 0 .247.062.247.186s-.062.247-.185.247c-.557 0-1.113.062-1.731.124h0zm5.687-.495c-.123 0-.185-.062-.185-.185s.062-.248.185-.248l1.669-.123c.124 0 .248.061.248.185s-.062.248-.186.248l-1.731.123zm5.626-.309c-.123 0-.185-.062-.185-.186s.062-.185.185-.247l1.731-.062c.124 0 .186.062.247.186 0 .123-.061.185-.185.247-.618.062-1.175.062-1.793.062z" fill="#fff"/><path d="M470.221 263.262l-12.859 1.669c-1.669.186-3.276-.865-3.647-2.473l-3.091-12.183c-.495-1.917.865-3.896 2.843-4.144l15.456-1.979c1.978-.247 3.709 1.237 3.771 3.154l.495 12.493c0 1.731-1.237 3.215-2.968 3.463z" fill="#7d97f4"/><path d="M468.305 261.159l-9.768 1.237c-1.298.185-2.472-.68-2.782-1.917l-2.349-9.276a2.54 2.54 0 0 1 2.164-3.154l11.746-1.485c1.484-.185 2.844.928 2.844 2.412l.371 9.524c.062 1.36-.865 2.535-2.226 2.659z" fill="#91b3fa"/><path d="M460.701 162.521c3.029 12.554 3.091 24.799 2.658 29.251-.185 1.67-1.545 2.969-3.214 3.093l-6.863.432c-2.534.124-5.378-1.484-7.295-2.844-.989-.681-2.225.371-1.669 1.422.927 1.855 2.535 3.278 4.142 4.515.989.742 4.204 2.04 3.957 3.525-.062.432-.371.865-.618 1.236-1.793 2.165-4.514 3.278-7.172 4.144-.309.124-.68.185-.927.495-.062 1.731 5.255 3.648 6.615 4.081 2.04.68 4.266.99 6.368.742 5.378-.556 10.262-4.267 13.168-8.719 7.728-11.936 11.684-26.283 13.168-37.291-7.171-7.112-17.99-5.319-22.318-4.082z" fill="url(#W)"/><path d="M483.018 167.778c5.688-43.166-27.573-76.375-27.573-76.375l-19.783 23.067c15.023 18.738 22.194 35.93 25.409 49.412 4.328-1.299 14.776-3.278 21.947 3.896z" fill="url(#X)"/><path d="M460.639 163.634a1.19 1.19 0 0 1-1.174-.927c-4.019-16.636-12.488-33.086-25.224-48.918-.433-.556-.309-1.298.186-1.731.556-.433 1.298-.309 1.731.185 12.921 16.141 21.576 32.9 25.656 49.907.186.68-.247 1.299-.927 1.484h-.248z" fill="url(#Y)"/><path d="M192.516 419.66c0-.185 0-.432-.062-.618-3.152-12.616-18.979-20.47-18.979-20.47l-6.244.495c-3.586 11.132-3.153 17.934-2.535 20.965 0 .061.062.185.062.247 5.131.433 15.765.742 27.758-.619z" fill="url(#Z)"/><path d="M164.697 420.279c.309.989 1.051 1.793 1.979 1.979 7.356 1.546 19.041.309 23.925-.309 1.113-.124 1.855-1.114 1.916-2.289-11.993 1.361-22.627 1.052-27.82.619z" fill="url(#a)"/><path d="M164.697 389.729l2.659 12.801c.185.928.927 1.608 1.793 1.732 1.05.124 2.596.185 4.08-.062 1.36-.185 2.349-1.608 2.102-3.092l-1.855-11.317h-8.779v-.062z" fill="url(#b)"/><path d="M219.657 420.093c-6.924-.185-10.509-.989-12.364-1.793v2.103c0 .804.618 1.422 1.298 1.36l37.959-.247c1.237 0 1.917-1.423 1.422-2.536-4.946.495-17.681 1.423-28.315 1.113z" fill="url(#c)"/><path d="M247.971 419.104c-.062-.124-.062-.186-.124-.309-3.338-4.7-11.87-14.039-28.747-18.058l-8.099-.248s-3.586 6.246-3.647 17.873c1.854.742 5.44 1.546 12.364 1.793 10.572.247 23.307-.68 28.253-1.051z" fill="url(#d)"/><path d="M209.086 388.554l2.473 13.234c.185.866.804 1.423 1.607 1.484 1.36.062 3.648.062 5.564-.433 1.051-.309 1.731-1.36 1.669-2.535l-.927-14.347-10.386 2.597z" fill="url(#e)"/><path d="M202.965 220.776s11.128 76.561 19.165 167.654c.123 1.67-1.175 3.154-2.844 3.525-2.473.495-6.059 1.113-9.026 1.052-1.608-.062-2.906-1.237-3.215-2.783-2.72-16.079-22.256-102.287-27.387-121.211 0 0-5.874 80.58-4.019 122.386.062 1.051-.742 1.917-1.731 2.04-1.545.186-4.08.31-7.295 0-1.236-.123-2.164-1.051-2.349-2.226-1.979-13.605-13.168-94.495-12.674-152.812 0-3.277 3.833-30.302 3.833-30.302l47.542 12.677z" fill="url(#f)"/><path d="M153.691 225.229c-1.174-.433-1.916-1.422-2.04-2.659-1.484-14.348-8.655-103.524 36.599-140.134 0 0 2.597-6.803 23.925 9.895s9.892 34.199 4.823 58.379c-6.183 29.252-17.002 53.123-12.241 71.119.309 1.236-.309 2.535-1.546 2.968-16.506 6.061-33.075 6.246-49.52.433z" fill="url(#g)"/><path d="M205.93 55.72c0 1.299-18.114 26.963-18.114 26.963s3.215 6.37 18.733 11.564l13.353-27.52L205.93 55.72z" fill="url(#h)"/><path d="M220.152 41.001s6.429 14.78 6.862 22.511 2.102 12.801-6.862 14.347-16.507-2.907-20.587-10.637c0 0-6.43-11.936-4.946-16.759 1.422-4.886 25.533-9.462 25.533-9.462z" fill="url(#i)"/><path d="M202.594 61.657l.494-.247c.68-.309.928-1.051.619-1.67-1.237-2.474-3.71-8.04-.557-9.338 4.08-1.67 20.34-5.009 23.864-10.761 3.4-5.566.371-12.678-4.081-14.718-.309-.124-.68 0-.803.247l-.371.68c-.248.495-.989.433-1.113-.124-.124-.495-.804-.618-1.113-.185-1.051 1.732-4.018 4.514-11.746 5.937-11.066 2.041-18.361 6.493-18.547 14.162 0 .495-.556.742-.927.495-.804-.495-2.102-.742-3.895.742-3.029 2.535-1.793 9.214 4.884 14.657.309.247.309.742 0 .989-1.237.804-3.029 2.659 1.669 5.133 4.822 2.597 8.408 2.35 9.83 2.165.371-.062.556-.371.494-.742l-1.483-6.741c-.062-.371.185-.742.618-.742h2.164v.062z" fill="url(#j)"/><path d="M202.902 63.079s-2.473-9.462-6.677-6.803 2.226 10.575 5.626 10.946l1.051-4.144z" fill="url(#k)"/><path d="M219.1 100.06l1.236 33.457a81.81 81.81 0 0 0 10.139 2.845c1.978-6.494 6.43-14.41 10.077-20.285-13.354-4.638-21.452-16.017-21.452-16.017z" fill="url(#l)"/><path d="M285.498 99.504c-18.238 19.728-33.013 20.841-45.007 16.635-3.647 5.875-8.037 13.853-10.077 20.285 48.716 10.76 60.215-34.075 60.215-34.075l-5.131-2.845z" fill="url(#m)"/><path d="M289.145 97.401s2.101-2.288 5.996-1.546c3.895.68 7.357 2.041 9.768 0s3.277.68 3.277.68l-7.233 5.504-11.808-4.638z" fill="url(#n)"/><path d="M284.816 101.235s1.422-5.998 5.75-5.194 14.219 6.184 16.754 5.194 5.811-3.339 7.48-2.535l-2.905 3.649s7.542-4.329 8.84-1.67l-12.55 7.05c-.061.062-18.423-1.794-23.369-6.494z" fill="url(#o)"/><path d="M198.822 143.906s34.312 28.757 71.344 16.203c2.287-.804 4.822-.618 6.924.495l10.633 5.627a9.55 9.55 0 0 0 12.612-3.525c1.484-2.473 2.72-5.318 2.968-8.039l-20.773-8.411 1.546-2.535s-10.201-.866-12.859 6.432c0 0-19.351 8.039-52.055-27.891 0 0-14.838 12.616-20.34 21.644z" fill="url(#p)"/><path d="M196.967 143.597c-.124 0-.248-.061-.31-.123-14.466-9.771-21.205-25.541-21.328-25.665-.124-.309 0-.618.309-.742s.618 0 .742.309c.061.186 6.738 15.585 20.896 25.17.247.186.309.557.185.804-.124.124-.309.247-.494.247z" fill="url(#q)"/><path d="M218.481 121.767c-.185 0-.371-.124-.494-.247-.062-.062-4.452-6.927-12.859-22.016-2.597-4.638-5.997-7.545-10.078-8.72-6.8-1.917-13.353 1.732-13.415 1.793-.309.186-.618.062-.804-.247s-.062-.618.248-.804 7.047-3.958 14.342-1.917c4.452 1.237 8.099 4.329 10.819 9.276 8.408 15.028 12.798 21.831 12.798 21.954.185.248.123.619-.186.804-.123.062-.247.124-.371.124z" fill="url(#r)"/></g><defs><linearGradient id="A" x1="32.976" y1="230.02" x2="632.063" y2="230.02" xlink:href="#t"><stop stop-color="#dae3fe"/><stop offset="1" stop-color="#e9effd"/></linearGradient><linearGradient id="B" x1="278.193" y1="145.662" x2="338.351" y2="145.662" xlink:href="#t"><stop stop-color="#ff928e"/><stop offset="1" stop-color="#feb3b1"/></linearGradient><linearGradient id="C" x1="378.413" y1="111.413" x2="260.906" y2="255.469" xlink:href="#t"><stop stop-color="#fe7062"/><stop offset="1" stop-color="#ff928e"/></linearGradient><linearGradient id="D" x1="425.208" y1="149.584" x2="307.701" y2="293.639" xlink:href="#t"><stop stop-color="#fe7062"/><stop offset="1" stop-color="#ff928e"/></linearGradient><linearGradient id="E" x1="412.797" y1="85.472" x2="403.145" y2="56.525" xlink:href="#t"><stop stop-color="#ff928e"/><stop offset="1" stop-color="#feb3b1"/></linearGradient><linearGradient id="F" x1="390.264" y1="49.947" x2="424.94" y2="65.018" xlink:href="#t"><stop stop-color="#ff928e"/><stop offset="1" stop-color="#feb3b1"/></linearGradient><linearGradient id="G" x1="415.334" y1="70.728" x2="386.937" y2="40.571" xlink:href="#t"><stop stop-color="#09005d"/><stop offset="1" stop-color="#1a0f91"/></linearGradient><linearGradient id="H" x1="388.103" y1="54.917" x2="422.778" y2="69.989" xlink:href="#t"><stop stop-color="#ff928e"/><stop offset="1" stop-color="#feb3b1"/></linearGradient><linearGradient id="I" x1="465.455" y1="688.323" x2="448.134" y2="538.252" xlink:href="#t"><stop stop-color="#09005d"/><stop offset="1" stop-color="#1a0f91"/></linearGradient><linearGradient id="J" x1="560.111" y1="380.618" x2="404.079" y2="425.077" xlink:href="#t"><stop stop-color="#4042e2"/><stop offset="1" stop-color="#4f52ff"/></linearGradient><linearGradient id="K" x1="452.126" y1="400.704" x2="439.989" y2="400.704" xlink:href="#t"><stop stop-color="#ff928e"/><stop offset="1" stop-color="#feb3b1"/></linearGradient><linearGradient id="L" x1="563.511" y1="677.003" x2="546.19" y2="526.934" xlink:href="#t"><stop stop-color="#09005d"/><stop offset="1" stop-color="#1a0f91"/></linearGradient><linearGradient id="M" x1="473.131" y1="371.577" x2="570.382" y2="434.883" xlink:href="#t"><stop stop-color="#4042e2"/><stop offset="1" stop-color="#4f52ff"/></linearGradient><linearGradient id="N" x1="529.291" y1="390.583" x2="514.785" y2="390.583" xlink:href="#t"><stop stop-color="#ff928e"/><stop offset="1" stop-color="#feb3b1"/></linearGradient><linearGradient id="O" x1="531.335" y1="411.888" x2="309.902" y2="105.841" xlink:href="#t"><stop stop-color="#09005d"/><stop offset="1" stop-color="#1a0f91"/></linearGradient><linearGradient id="P" x1="461.296" y1="252.735" x2="465.421" y2="299.735" xlink:href="#t"><stop stop-color="#4042e2"/><stop offset="1" stop-color="#4f52ff"/></linearGradient><linearGradient id="Q" x1="415.766" y1="76.043" x2="413.728" y2="61.755" xlink:href="#t"><stop stop-color="#4042e2"/><stop offset="1" stop-color="#4f52ff"/></linearGradient><linearGradient id="R" x1="433.815" y1="204.568" x2="442.067" y2="245.437" xlink:href="#t"><stop stop-color="#4042e2"/><stop offset="1" stop-color="#4f52ff"/></linearGradient><linearGradient id="S" x1="455.838" y1="70.327" x2="453.8" y2="56.039" xlink:href="#t"><stop stop-color="#4042e2"/><stop offset="1" stop-color="#4f52ff"/></linearGradient><linearGradient id="T" x1="473.424" y1="196.574" x2="481.676" y2="237.443" xlink:href="#t"><stop stop-color="#4042e2"/><stop offset="1" stop-color="#4f52ff"/></linearGradient><linearGradient id="U" x1="454.387" y1="178.598" x2="454.143" y2="208.485" xlink:href="#t"><stop stop-color="#4042e2"/><stop offset="1" stop-color="#4f52ff"/></linearGradient><linearGradient id="V" x1="458.522" y1="201.324" x2="461.387" y2="340.297" xlink:href="#t"><stop stop-color="#4042e2"/><stop offset="1" stop-color="#4f52ff"/></linearGradient><linearGradient id="W" x1="472.255" y1="169.557" x2="439.392" y2="232.736" xlink:href="#t"><stop stop-color="#ff928e"/><stop offset="1" stop-color="#feb3b1"/></linearGradient><linearGradient id="X" x1="441.55" y1="162.916" x2="324.042" y2="306.972" xlink:href="#t"><stop stop-color="#fe7062"/><stop offset="1" stop-color="#ff928e"/></linearGradient><linearGradient id="Y" x1="507.019" y1="50.29" x2="393.216" y2="218.467" xlink:href="#t"><stop stop-color="#e1473d"/><stop offset="1" stop-color="#e9605a"/></linearGradient><linearGradient id="Z" x1="164.244" y1="409.608" x2="192.511" y2="409.608" xlink:href="#t"><stop stop-color="#09005d"/><stop offset="1" stop-color="#1a0f91"/></linearGradient><linearGradient id="a" x1="180.403" y1="372.629" x2="185.352" y2="242.142" xlink:href="#t"><stop stop-color="#4042e2"/><stop offset="1" stop-color="#4f52ff"/></linearGradient><linearGradient id="b" x1="172.106" y1="377.416" x2="166.703" y2="424.554" xlink:href="#t"><stop stop-color="#a22b25"/><stop offset="1" stop-color="#c0423c"/></linearGradient><linearGradient id="c" x1="229.414" y1="374.489" x2="234.363" y2="244.003" xlink:href="#t"><stop stop-color="#4042e2"/><stop offset="1" stop-color="#4f52ff"/></linearGradient><linearGradient id="d" x1="207.287" y1="410.326" x2="247.978" y2="410.326" xlink:href="#t"><stop stop-color="#09005d"/><stop offset="1" stop-color="#1a0f91"/></linearGradient><linearGradient id="e" x1="215.352" y1="382.395" x2="212.926" y2="429.78" xlink:href="#t"><stop stop-color="#a22b25"/><stop offset="1" stop-color="#c0423c"/></linearGradient><linearGradient id="f" x1="276.819" y1="179.984" x2="239.71" y2="230.065" xlink:href="#t"><stop stop-color="#09005d"/><stop offset="1" stop-color="#1a0f91"/></linearGradient><linearGradient id="g" x1="307.568" y1="-92.129" x2="151.629" y2="238.838" xlink:href="#t"><stop stop-color="#fe7062"/><stop offset="1" stop-color="#ff928e"/></linearGradient><linearGradient id="h" x1="193.644" y1="102.672" x2="206.192" y2="68.419" xlink:href="#t"><stop stop-color="#a22b25"/><stop offset="1" stop-color="#c0423c"/></linearGradient><linearGradient id="i" x1="273.984" y1="173.558" x2="256.046" y2="140.168" xlink:href="#t"><stop stop-color="#a22b25"/><stop offset="1" stop-color="#c0423c"/></linearGradient><linearGradient id="j" x1="182.724" y1="17.935" x2="213.741" y2="54.252" xlink:href="#t"><stop stop-color="#09005d"/><stop offset="1" stop-color="#1a0f91"/></linearGradient><linearGradient id="k" x1="262.529" y1="179.711" x2="244.592" y2="146.321" xlink:href="#t"><stop stop-color="#a22b25"/><stop offset="1" stop-color="#c0423c"/></linearGradient><linearGradient id="l" x1="243.449" y1="99.153" x2="217.1" y2="126.031" xlink:href="#t"><stop stop-color="#e1473d"/><stop offset="1" stop-color="#e9605a"/></linearGradient><linearGradient id="m" x1="309.553" y1="96.674" x2="230.655" y2="135.909" xlink:href="#t"><stop stop-color="#a22b25"/><stop offset="1" stop-color="#c0423c"/></linearGradient><linearGradient id="n" x1="308.397" y1="86.828" x2="281.404" y2="115.012" xlink:href="#t"><stop stop-color="#a22b25"/><stop offset="1" stop-color="#c0423c"/></linearGradient><linearGradient id="o" x1="309.926" y1="96.208" x2="231.029" y2="135.443" xlink:href="#t"><stop stop-color="#a22b25"/><stop offset="1" stop-color="#c0423c"/></linearGradient><linearGradient id="p" x1="342.894" y1="162.813" x2="113.949" y2="121.426" xlink:href="#t"><stop stop-color="#a22b25"/><stop offset="1" stop-color="#c0423c"/></linearGradient><linearGradient id="q" x1="181.841" y1="134.598" x2="109.675" y2="202.352" xlink:href="#t"><stop stop-color="#e1473d"/><stop offset="1" stop-color="#e9605a"/></linearGradient><linearGradient id="r" x1="181.363" y1="124.016" x2="109.199" y2="191.769" xlink:href="#t"><stop stop-color="#e1473d"/><stop offset="1" stop-color="#e9605a"/></linearGradient><clipPath id="s"><path fill="#fff" d="M0 0h656v423H0z"/></clipPath><linearGradient id="t" gradientUnits="userSpaceOnUse"/></defs></svg>