<svg xmlns="http://www.w3.org/2000/svg" width="25" height="27" xmlns:v="https://vecta.io/nano"><path fill="#8887a6" d="M11.758 25.945c0 .583-.472 1.055-1.055 1.055H4.64A4.223 4.223 0 0 1 .42 22.781V4.22A4.223 4.223 0 0 1 4.639 0h12.967a4.224 4.224 0 0 1 4.218 4.219v11.18a1.055 1.055 0 0 1-2.109 0V4.218c0-1.163-.946-2.11-2.11-2.11H4.64c-1.163 0-2.11.947-2.11 2.11V22.78c0 1.163.947 2.11 2.11 2.11h6.064c.583 0 1.055.472 1.055 1.054zm12.67-7.296l-5.22 7.291A2.718 2.718 0 0 1 17.06 27a2.72 2.72 0 0 1-1.87-.748l-3.37-3.234a1.055 1.055 0 1 1 1.461-1.522l3.366 3.232a.595.595 0 0 0 .452.161.597.597 0 0 0 .415-.206l5.199-7.262a1.055 1.055 0 0 1 1.715 1.228zM16.55 6.329a1.055 1.055 0 0 1 0 2.109H5.688a1.055 1.055 0 1 1 0-2.11zm0 6.327H5.688a1.055 1.055 0 1 1 0-2.11H16.55a1.055 1.055 0 1 1 0 2.11zm-4.266 2.11a1.055 1.055 0 1 1 0 2.109H5.688a1.055 1.055 0 1 1 0-2.11z"/></svg>