<svg xmlns="http://www.w3.org/2000/svg" width="20" height="20" fill="#f1f1f1" xmlns:v="https://vecta.io/nano"><path d="M12.32 9.792a2.06 2.06 0 0 1-2.04 2.039 2.06 2.06 0 0 1-2.04-2.039 2.06 2.06 0 0 1 2.04-2.039c1.113-.062 2.04.865 2.04 2.039zm2.268-3.345c-.113-.227-.225-.453-.394-.623s-.394-.34-.62-.397-.507-.17-1.07-.17c-.62 0-.788-.057-2.253-.057l-2.253.057c-.563 0-.845.113-1.07.17-.225.113-.451.227-.62.397s-.338.397-.394.623-.169.51-.169 1.077l-.056 2.267.056 2.267c0 .567.113.85.169 1.077.113.227.225.453.394.623s.394.34.62.397.507.17 1.07.17l2.253.057 2.253-.057c.563 0 .845-.113 1.07-.17a1.69 1.69 0 0 0 1.07-1.077c.056-.227.169-.51.169-1.077l.056-2.267-.056-2.267c-.056-.51-.113-.85-.225-1.02zm-4.337 6.233c-1.577 0-2.872-1.303-2.872-2.89S8.674 6.9 10.251 6.9s2.872 1.303 2.872 2.89-1.295 2.89-2.872 2.89zm2.985-5.27a.65.65 0 0 1-.676-.68.65.65 0 0 1 .676-.68.65.65 0 0 1 .676.68.65.65 0 0 1-.676.68zM10.308.101C4.946.101.59 4.444.59 9.791s4.356 9.69 9.718 9.69 9.662-4.344 9.662-9.69-4.3-9.69-9.662-9.69zm5.529 11.973c0 .613-.112 1.002-.279 1.336a2.88 2.88 0 0 1-1.62 1.615c-.335.111-.782.223-1.34.279-.614 0-.782.056-2.29.056s-1.676 0-2.29-.056c-.614 0-1.005-.111-1.34-.279-.391-.167-.726-.334-1.005-.668-.279-.278-.503-.613-.67-1.002-.112-.334-.223-.78-.279-1.336 0-.613-.056-.78-.056-2.283s0-1.671.056-2.283c0-.613.112-1.002.279-1.337.168-.39.335-.724.67-1.002a3.17 3.17 0 0 1 1.005-.668c.335-.111.782-.223 1.34-.278.614 0 .782-.056 2.29-.056s1.675 0 2.29.056c.614 0 1.005.111 1.34.278.391.167.726.334 1.005.668.279.278.503.613.67 1.002.112.334.223.78.279 1.337 0 .613.056.78.056 2.283s-.112 1.726-.112 2.339z"/></svg>