<svg xmlns="http://www.w3.org/2000/svg" xmlns:xlink="http://www.w3.org/1999/xlink" width="580" height="388" fill="none" xmlns:v="https://vecta.io/nano"><style><![CDATA[.B{stroke-opacity:.6}.C{fill:#ffb27d}.D{fill:#b5453c}.E{fill:#ed985f}.F{fill:#f99746}]]></style><path d="M53.17 254.122c10.934 26.141 2.733 45.118-5.795 70.111-3.116 9.133-2.569 19.141-1.039 28.657C49.835 374.765 58.746 388 82.91 388h269.737c3.718-.219 7.49-.219 11.207 0h170.185c21.54 0 39.963-15.149 43.572-35.931 0-.109.054-.273.054-.382 7.544-43.861-4.155-71.205-21.321-108.339-12.082-26.086-13.011-48.509-6.779-77.002 6.888-31.446 13.558-71.642-2.952-100.299-14.433-25.102-37.284-42.985-61.721-49.548-31.052-8.367-57.075 5.141-81.949 27.618-34.169 30.845-93.266 55.947-135.361 42.329-36.792-11.922-63.963-51.626-102.723-59.283-26.734-5.305-66.587 3.117-75.225 40.251-2.406 10.281-1.749 19.251-8.692 27.782-6.396 7.876-14.706 12.688-24.328 15.805-11.644 3.829-24.109 5.743-34.551 12.141-58.113 35.548 15.198 94.448 30.669 129.831.109.383.273.766.437 1.149z" fill="#d2e4ff"/><g stroke="#9fc1f4" stroke-width="2.5" stroke-miterlimit="10" class="B"><path d="M401 114.661c8.589-2.398 10.448 4.262 18.812 1.928 8.589-2.398 6.73-9.058 15.093-11.393 8.59-2.397 10.449 4.263 18.812 1.928 8.59-2.397 6.731-9.057 15.094-11.392s10.448 4.262 18.812 1.928"/><use xlink:href="#B"/><use xlink:href="#B" x="117" y="219"/><use xlink:href="#B" x="85" y="237"/><use xlink:href="#C"/><use xlink:href="#C" x="-24.503" y="13.783"/><use xlink:href="#B" x="-221" y="83"/><use xlink:href="#B" x="-253" y="101"/></g><g clip-path="url(#A)"><path d="M236.865 154.634c1.529-1.529 10.817-1.182 10.817-1.182s5.135-2.049 11.423-4.818c8.77-3.895 19.76-9.117 22.183-11.771 5.596-6.203 12.289-27.003 18.577-40.707l1.702-3.693c.058-.115.115-.26.202-.346.317-.577.577-1.067.808-1.529 0-.058.057-.115.115-.144 1.183-2.25 2.394-4.039 3.519-5.222v-.058c1.385-1.471 2.712-2.106 3.952-1.587 0 0 2.394 1.24 4.875 4.154.317.26.519.577.721.865a21.69 21.69 0 0 1 3.779 7.587c.664 2.395 1.039 5.164.866 8.395-.202 5.28-2.827 11.886-6.549 18.55a7.41 7.41 0 0 1-.519.924c-7.182 12.549-18.173 25.099-24.894 29.196-4.413 2.711-15.462 4.356-24.779 5.279-6.202.664-11.683.981-13.933 1.125-.98 1.068-8.048 9.174-10.701 6.809-2.943-2.568-3.722-10.3-2.164-11.829z" class="E"/><path d="M314.75 376.662l6.779 2.51s29.394-40.765 33-76.625c.634-6.404.432-12.607-.981-18.348l.779-4.53.836-4.846 3.779-21.493 11.423-63.181-1.817-.577-19.731-6.376-4.067-12.982-14.683-3.866s-3.288 6.433-6.202 36.754c-.548 3.981-1.038 8.367-1.413 13.127-1.154 14.511-1.241 32.542 1.384 53.112.664 5.28 1.529 10.703 2.568 16.3.779 4.097.894 9.694.577 16.098-1.471 29.341-12.231 74.923-12.231 74.923z" fill="#2b478b"/><g fill="#233862"><path d="M322.452 216.229l31.904 63.412.837-4.847 3.779-21.493 11.423-63.181-40.327-23.772s-3.289 6.433-6.202 36.754c-.577 3.981-1.067 8.367-1.414 13.127zm-168.173 68.806l34.298-2.683s.807-5.222-.981-9.203c-1.731-3.808.635-6.549 3-11.078-2.192 2.25-9.692 1.904-14.654 1.24-.606.981-6.721 10.04-8.74 11.511-2.25 1.616-12.231 3.722-12.923 10.213zm40.269-2.683h34.298s.808-5.222-.981-9.203c-1.731-3.808-4.702-7.876-2.365-12.434-2.192 2.25-9.058 1.99-14.019 1.327-.606.981 2.307 7.414-4.01 12.752-2.106 1.788-12.231 1.067-12.923 7.558z"/></g><path d="M200.259 160.433s16.327-5.568 22.587 11.021c29.913 24.233 72.692 86.116 76.298 90.443 7.24 8.655 1.644 20.715-27.923 20.426-17.279-.173-27.865-8.107-32.596-15.233-1.269-1.904-5.914-10.559-11.596-22.185l.23 20.108c.895 8.28-17.682 6.001-17.682 6.001-31.471-105.302-9.318-110.581-9.318-110.581z" fill="#163560"/><path d="M215.548 122.092c1.731-3.491 4.991-5.914 7.443-7.357-1.039-.231-2.366.346-2.366.346 1.327-1.183 5.539-1.933 5.539-1.933 15.057-21.435 38.279 6.318 42.519 13.56s9.548 15.261 23.856 14.684c28.154-1.096 28.125 26.6 24.173 41.717C314.635 191.1 302 209.766 302 209.766c-3.259-5.943-31.644-33.235-51.086-33.033-6.52-2.625-13.443-10.415-13.962-11.02 5.106 6.404 8.827 9.433 11.279 10.876-28.99-6.26-37.269-45.294-32.683-54.497z" class="D"/><path d="M249.731 176.704c-.058.058 2.538 9.665 10.327 5.453 5.106-2.77 13.327-14.569 10.154-18.551-1.5-1.904-8.135-5.51-15.029-17.742l-.837.721-13.903 12.059s3.173 4.732 5.826 9.376c2.25 3.924 4.125 7.761 3.462 8.684z" fill="#f4a269"/><path d="M254.894 143.585s-.26-9.895-3.202-16.56c-2.077-4.76-14.798-19.04-29.106-6.173 0 0-4.298 3.519-6.663 9.347-1.875 4.616-3.491 12.953 11.25 22.964l4.557 3.664 23.164-13.242z" class="D"/><path d="M273.615 158.385s-5.105.981-7.269-1.933-6.865-9.03-7.961-5.51-11.481 13.761-13.904 14.021c-2.395.259-4.096.952-2.741 2.192s.779 6.232 2.164 6.693c1.327.433 26.567-15.752 29.711-15.463z" class="F"/><path d="M241.423 165.366s20.077-12.982 11.798-25.387c-8.279-12.377-11.279-22.417-24.433-14.627-13.183 7.76-12.49 14.136-10.731 18.954s17.943 24.147 23.366 21.06z" class="C"/><path d="M240.443 175.435s34.009-25.071 45.923-15.637c17.567 13.935 14.048 60.96 18.115 67.076s27.058 49.997-10.327 54.468c-37.356 4.443-45.952-19.127-47.654-36.783l-6.057-69.124z" class="F"/><g fill="#ed7d2b"><path d="M285.211 175.118s9.808 54.15-9.605 68.95c-19.443 14.8-29.193-70.624 9.605-68.95zm-19.528-8.655s-.375-6.318-5.942-3.895c-5.597 2.424-15.923 6.059-19.904 4.558-4.01-1.5 6.432 18.522 15.981 11.829 9.49-6.722 9.865-12.492 9.865-12.492z"/></g><path d="M219.557 131.122s15.173 10.876 24.952 7.414 11.914-8.106 11.914-8.106-9.808-.808-17.106-8.8c0 .029-20.308-.173-19.76 9.492z" class="D"/><path d="M193.683 201.717s-7.702 3.347-6.174 12.175 4.587 5.885 4.587 5.885l1.587-18.06z" class="C"/><path d="M221.692 131.41s-1.903 5.972-.778 9.781 5.019 10.616 2.971 11.655c0 0-10.702-7.126-9.837-15.81.923-9.203 7.644-5.626 7.644-5.626z" class="D"/><path d="M208.711 160.433s0 .029 0 0c1.529-4.356 4.846-7.039 10.529-7.356 24.923-1.414 84.894 103.397 89.423 108.821 7.241 8.655 1.644 20.714-27.923 20.425-17.279-.173-24.115-8.452-28.846-15.578-2.164-3.26-17.885-28.244-29.971-53.949-10.125 24.147-31.356 55.997-31.356 55.997-3.144 7.703-17.308-2.568-17.308-2.568l35.452-105.792z" fill="#1c468a"/><path d="M288.009 163.636s8.971 13.847-18.894 26.541-31.154 15.81-36.577 16.935c-8.481 1.76-40.991 1.529-40.991 1.529s-.865-5.164 2.135-6.895c4.789-2.798 32.51-7.328 36.231-8.828 3.75-1.5 43.529-44.284 58.096-29.282z" class="E"/><path d="M280.106 157.692s-14.222.577-43.933 27.927c0 0-4.558 5.51-6.808 5.885s-8.394 1.991-8.509 3.549c-.145 1.558 7.528 21.089 17.307 21.666 9.779.548 56.827-34.245 53.625-45.554s-11.682-13.473-11.682-13.473z" class="F"/><path d="M325.827 11.367c.028-.923.75-10.848 15.894-11.367 0 0-7.442.894-8.741 4.154 0 0 5.077-4.039 9.202-2.741s6.548 8.54 6.577 10.905-2.279 10.04-4.875 10.703c-.98.26-2.134.173-3.173 0 .693 1.096 1.385 2.279 2.019 3.635 6.029 12.405-.201 24.522-5.307 23.166-3.289-.866-4.212 4.731-4.212 4.731l-31.846-25.763s11.712-24.234 24.462-17.425z" fill="#2c3a64"/><path d="M336.471 174.512l.75-6.347c12.375 3.289 45.433-9.174 45.433-9.174s11.971 10.53 10.413 35.802c-.779 12.319-2.163 64.71-3.634 80.203l-1.183 11.222v.029c-.058.49.115.952.346 1.385 2.163 3.664 3.952 7.472 5.423 11.366 14.394 38.342-2.221 85.54-2.221 85.54l-4.298-1.731s-9.433-52.535-17.106-75.731c-1.298-3.923-2.538-7.039-3.692-8.885-3.346-5.395-6.433-14.194-9.231-24.667-5.308-19.791-9.577-45.525-12.433-65.402-.461-.029-8.567-33.61-8.567-33.61z" fill="#2b478b"/><path d="M312.846 97.685c3.894 1.789 8.567 3.029 14.25 3.347 21.26 1.154 26.106-17.483 26.971-29.86-3.058-1.125-5.74-1.01-7.298-.923-1.5.087-3.087.231-4.385.404-2.596-1.356-7.269-7.962-9.98-19.012l-.923.433-15.347 7.212s1.616 4.991 2.827 9.78c.952 3.751 1.616 7.357 1.039 8.367l-1.933.808v.029c-.144.346-3.461 8.857-5.221 19.416z" class="C"/><path d="M316.135 59.286s1.644 4.991 2.827 9.78c8.971-2.51 11.682-11.944 12.519-16.992l-15.346 7.212z" class="E"/><path d="M314.26 64.566s21.461-4.962 18.173-18.291-2.741-22.935-16.587-20.31c-13.846 2.596-15.23 8.338-15.202 13.069-.028 4.703 7.933 26.484 13.616 25.532z" class="C"/><path d="M299.404 31.446c2.308-4.818 5.019-4.558 6.721-3.722 10.067-9.318 26.625-4.645 26.625-4.645 3.808 9.203 5.394 15.896 5.394 15.896s-3.288 3.375-12.865 3.289c-2.914-.029-5.856-1.356-8.539-3.202 5.164 5.193 11.193 8.338 11.193 8.338-11.971-2.279-19.991-16.127-20.798-17.598-1.01 1.5-2.943 4.674-3.116 7.386-.23 3.664 1.039 10.761-1.067 11.021.029 0-7.01-9.521-3.548-16.762z" fill="#2c3a64"/><path d="M299.779 96.127c.779-2.308 5.942-11.338 5.942-11.338.029-.029 3.289-3 12.346-6.578v.029c-.144.519-4.009 14.569-2.596 17.541 1.443 3.058 28.616-6.78 30.116-9.03 1.182-1.789 1.211-11.309 1.182-15.031 0-.923-.028-1.5-.028-1.5s10.153-1.385 15.865.923c0 0-2.25 4.904-3.087 10.299-.086.519-.144 1.039-.202 1.529a20.26 20.26 0 0 0-.086 3.231c.086 1.414.808 2.654 1.961 3.866 1.039 1.125 2.481 2.221 4.097 3.404l3.346 2.423c.086 6.347-.346 16.82.836 27.956.289 2.827 1.241 5.539 2.712 7.933.577.952 1.269 1.876 2.019 2.712 6 6.722 16.615 20.137 14.279 28.475-.173 7.876-63.346 18.002-65.106 9.578 0 0-9.981-48.064-15.346-59.661-.202-.433-.375-.837-.519-1.27-1.731-4.587-1.442-9.289-.866-13.501-3.028-2.135-6.865-1.991-6.865-1.991z" fill="#88b374"/><path d="M341.26 156.423c13.096-.144 24.173-13.732 30.952-24.58-1.472-2.394-2.423-5.106-2.712-7.933-1.183-11.165-.721-21.609-.836-27.956l-3.347-2.423c-1.615-1.183-3.028-2.279-4.096-3.404-10.702 18.089-37.702 66.47-19.961 66.297z" fill="#61844f"/><path d="M366.731 388h34.096s.808-5.193-.952-9.145c-1.702-3.78-4.385-5.511-3.75-10.069-2.163 2.222-5.683 4.731-10.615 4.068-.606.981-3.895 6.231-5.914 7.674-2.25 1.616-12.173 1.039-12.865 7.472z" fill="#233862"/><path d="M260.375 163.405c.231-1.039 2.048-2.712 3.721-2.77 2.279-.057 7.385-1.904 7.385-1.904-1.702-.317-4.529.029-4.731-.807-.087-.375.202-.693.548-.924.433-.288.952-.432 1.5-.403 2.538.028 7.096-.087 8.625 1.182 1.644 1.356 4.846 1.731 4.846 1.731l6.433-2.423 8.365-3.231c7.385-2.914 15.895-6.549 21.808-9.694 3.404-1.817 6-3.462 7.01-4.76 1.557-2.019 3.461-5.251 5.625-9.318 1.125-2.106 2.307-4.443 3.548-6.895l6.49-12.867c4.01-8.021 8.221-16.07 12-22.215 2.452-3.837 4.731-7.01 6.75-8.828 1.587-1.471 3.029-2.164 4.269-1.789.202.087.346.144.491.231 0 0 7.038 3.029 5.105 17.771-.057.808-.23 1.673-.403 2.568-.462 2.568-1.414 5.655-2.625 9.002-2.02 5.625-4.962 12.03-8.452 18.492l-2.943 5.28c-7.355 12.838-16.154 24.551-22.673 28.042a6.8 6.8 0 0 1-.779.404c-2.711 1.24-6.576 2.308-10.99 3.202-6.26 1.212-13.615 2.048-20.163 2.683h-.058l-10.24.75s-.635.058-1.731.115l-5.943.26s-13.298 3.318-17.163 2.221c-4.24-1.269-5.913-3.894-5.625-5.106z" class="C"/><path d="M346.971 92.983c9.865-2.712 21.721 13.559 21.721 13.559 12.116-31.994-6.058-35.341-6.058-35.341-3-1.269-12.115 13.819-15.663 21.781z" fill="#88b374"/><path d="M207.126 285.86h127.215v102.604H207.126V285.86z" fill="#c6601a"/><path d="M143.518 285.86h115.101v102.604H143.518V285.86z" fill="#f1a34f"/><g fill="#b25618"><path d="M321.036 307.638c-.726 0-1.314-.919-1.314-2.054s.588-2.055 1.314-2.055 1.314.92 1.314 2.055-.588 2.054-1.314 2.054zm-47.921 0c-.726 0-1.314-.919-1.314-2.054s.588-2.055 1.314-2.055 1.314.92 1.314 2.055-.589 2.054-1.314 2.054zm47.921 64.636c-.725 0-1.314-.92-1.314-2.054s.589-2.055 1.314-2.055 1.314.92 1.314 2.055-.588 2.054-1.314 2.054zm-47.921 0c-.726 0-1.314-.92-1.314-2.054s.588-2.055 1.314-2.055 1.314.92 1.314 2.055-.589 2.054-1.314 2.054z"/></g><path d="M334.341 286.025s-17.288-15.985-28.704-11.095c-15.029 6.41-50.508 4.643-59.46 2.959-8.952-1.644-78.924 3.287-102.659 7.971l190.823.165z" fill="#d3671e"/><path d="M143.518 361.549v26.915h115.101V285.86h-19.3l-.369.165c-.041 0-10.348 69.566-95.432 75.524z" fill="#e78b37"/><g fill="#d3671e"><path d="M237.349 307.638c-1.157 0-2.094-.919-2.094-2.054s.937-2.055 2.094-2.055 2.094.92 2.094 2.055-.937 2.054-2.094 2.054zm-77.446 0c-1.156 0-2.094-.919-2.094-2.054s.938-2.055 2.094-2.055 2.095.92 2.095 2.055-.938 2.054-2.095 2.054zm77.446 64.636c-1.157 0-2.094-.92-2.094-2.054s.937-2.055 2.094-2.055 2.094.92 2.094 2.055-.937 2.054-2.094 2.054zm-77.446 0c-1.156 0-2.094-.92-2.094-2.054s.938-2.055 2.094-2.055 2.095.92 2.095 2.055-.938 2.054-2.095 2.054z"/></g></g><defs><clipPath id="A"><path fill="#fff" transform="translate(149)" d="M0 0h252v388H0z"/></clipPath><path id="B" d="M369 132.661c8.589-2.398 10.448 4.262 18.812 1.928 8.589-2.398 6.73-9.058 15.093-11.393 8.59-2.397 10.449 4.263 18.812 1.928 8.59-2.397 6.731-9.057 15.094-11.392s10.448 4.263 18.812 1.928"/><path id="C" d="M127.503 81.117c6.577-1.836 8.001 3.264 14.405 1.476 6.577-1.836 5.153-6.936 11.557-8.723 6.577-1.836 8.001 3.264 14.405 1.476 6.577-1.836 5.153-6.936 11.557-8.723s8.001 3.264 14.405 1.476"/></defs></svg>