<svg xmlns="http://www.w3.org/2000/svg" xmlns:xlink="http://www.w3.org/1999/xlink" width="435" height="410" fill="none" xmlns:v="https://vecta.io/nano"><style><![CDATA[.B{stroke-opacity:.3}.C{fill:#d8dee8}]]></style><path d="M39.877 290.412c8.2 19.641 2.05 33.899-4.346 52.677-2.337 6.862-1.927 14.382-.779 21.531 2.624 16.436 9.307 26.38 27.43 26.38h202.303a71.87 71.87 0 0 1 8.406 0h127.638c16.155 0 29.973-11.382 32.679-26.996 0-.082.041-.205.041-.288 5.658-32.953-3.116-53.498-15.991-81.398-9.061-19.6-9.758-36.447-5.084-57.854 5.166-23.627 10.168-53.828-2.214-75.359-10.825-18.86-27.963-32.296-46.291-37.227-23.289-6.287-42.806 3.862-61.462 20.75-25.626 23.175-69.949 42.035-101.521 31.804-27.594-8.958-47.972-38.789-77.042-44.542-20.05-3.985-49.94 2.342-56.419 30.242-1.804 7.725-1.312 14.464-6.519 20.874-4.797 5.917-11.029 9.533-18.246 11.875-8.733 2.876-18.082 4.314-25.913 9.122-43.585 26.708 11.398 70.962 23.002 97.547.082.287.205.575.328.862z" fill="#d2e4ff" fill-opacity=".1"/><g stroke="#77a4e5" stroke-width="2.5" stroke-miterlimit="10" class="B"><use xlink:href="#D"/><path d="M139.057 302.35c-9.126.553-8.697 7.629-17.583 8.168-9.126.553-9.555-6.523-18.44-5.984-9.126.553-8.697 7.629-17.583 8.168-9.126.553-9.555-6.523-18.44-5.984s-8.697 7.629-17.582 8.167"/><use xlink:href="#D" x="260" y="-121"/><use xlink:href="#E"/><use xlink:href="#D" x="16" y="-187"/><use xlink:href="#E" x="-244" y="-66"/></g><g class="C"><path d="M360.969 112.977c-5.275 69.52-23.859 131.454-30.558 200.462l-1.002 11.568-149.899 6.14-20.387.846-10.238.422-6.543.267c-.178-2.358-.512-4.694-.512-7.052l-17.717-222.508c-1.847-21.757 15.224-39.265 38.371-39.91.334-8.765 2.448-16.996 6.098-24.471C180.111 15.049 206.708-.813 238.224.032c34.542 1.913 68.483 25.717 76.451 45.85 2.916 7.408 2.337 14.305-3.027 19.421 4.741.378 9.927 1.98 15.113 4.449 14.489 6.919 28.889 20.711 33.095 34.104v.022c.935 3.115 1.358 6.163 1.113 9.099z"/><path d="M191.841 323.65l-31.849 19.377-54.997 30.9L86.5 356.442v-19.444c0-5.072 5.386-9.388 12.286-9.677l93.055-3.671z"/><path d="M139.694 372.214l-19.72 11.123-31.248 23.492L65 386.118v-19.51c0-5.094 5.742-9.477 12.664-9.788l43.534-1.958 18.496 17.352z"/></g><path d="M362.973 121.809l-15.09 199.439-1.558 20.511-185.776 8.276-18.073-228.649c-1.825-21.668 15.157-39.153 38.104-39.887.512-14.26 5.898-27.23 14.734-37.663 13.665-16.129 35.521-26.139 60.471-25.561 40.463.934 71.667 29.388 72.891 64.759 20.854 1.646 35.922 18.442 34.297 38.775z" fill="#fff"/><path opacity=".3" d="M347.883 321.248l-1.558 20.511-185.776 8.276-18.073-228.649c-1.825-21.668 15.157-39.153 38.104-39.887.512-14.26 5.898-27.23 14.734-37.663-.045 9.432.289 17.464.489 19.243 1.914 16.551 5.386 34.215 13.221 49.031 13.599 25.716 40.284 38.664 60.56 57.217 25.662 23.47 23.414 50.722 17.672 83.046-3.517 19.71-1.024 40.733 17.828 51.256 13.509 7.541 30.514 9.655 42.799 17.619z" fill="url(#A)"/><path d="M159.992 343.027l-55.196 30.9-18.318-17.33.022-.534v-19.065c0-5.072 5.386-9.388 12.286-9.677l43.044-1.713 18.161 17.419z" fill="#bfc8d6"/><path d="M396.115 341.425v18.22l-290.406 14.282v-19.354c0-5.05 5.097-9.388 11.93-9.677l268.037-11.591c6.098-.289 10.439 3.359 10.439 8.12z" class="C"/><path d="M414.565 370.145v9.655c0 6.34-5.075 11.724-11.129 12.08L96.717 409.01c-6.877.378-12.486-4.783-12.486-11.569v-10.233c0-6.785 5.497-12.547 12.397-12.881l306.876-14.994c5.987-.289 11.062 4.539 11.062 10.812z" fill="#fff"/><path opacity=".3" d="M414.565 370.145v9.655c0 6.34-5.075 11.724-11.129 12.08L96.717 409.01c-6.877.378-12.486-4.783-12.486-11.569v-8.876c10.75-2.492 26.374-4.071 42.31 1.557 28.2 9.944 40.953-5.873 73.002-6.34 31.627-.467 58.001 9.344 80.236 4.538 22.034-4.76 37.436-14.66 71.934-9.966 24.437 3.27 47.495-4.939 62.853-8.209z" fill="url(#B)"/><path opacity=".3" d="M396.115 345.719v13.926l-290.406 14.282v-18.153c6.922.178 13.755 1.268 21.166 3.938 28.199 10.122 40.774-5.606 72.824-5.896 31.627-.267 57.89 9.7 80.146 5.028 22.035-4.627 36.835-14.438 71.355-9.544 16.27 2.292 32.629-.511 44.915-3.581z" fill="url(#C)"/><g fill="#bfc8d6"><path d="M262.439 178.893l-13.822.134V89.04l13.822.133v89.72z"/><path d="M229.41 122.632v-14.883l51.48.245v14.727l-51.48-.089z"/></g><path opacity=".3" d="M180.58 81.499L162.463 63.19c.334-8.765 2.47-16.996 6.098-24.471 2.471 16.084 12.019 42.78 12.019 42.78z" class="C"/><defs><linearGradient id="A" x1="142.333" y1="196.944" x2="347.886" y2="196.944" gradientUnits="userSpaceOnUse"><stop stop-color="#fff"/><stop offset="1" stop-color="#d8dee8"/></linearGradient><linearGradient id="B" x1="84.207" y1="389.581" x2="414.562" y2="389.581" gradientUnits="userSpaceOnUse"><stop stop-color="#fff"/><stop offset="1" stop-color="#d8dee8"/></linearGradient><linearGradient id="C" x1="105.72" y1="359.817" x2="396.125" y2="359.817" gradientUnits="userSpaceOnUse"><stop stop-color="#fff"/><stop offset="1" stop-color="#d8dee8"/></linearGradient><path id="D" d="M174.539 286c-9.126.553-8.697 7.629-17.582 8.168-9.126.553-9.555-6.523-18.441-5.984-9.126.553-8.697 7.629-17.582 8.168-9.126.553-9.555-6.523-18.441-5.984s-8.696 7.629-17.582 8.167"/><path id="E" d="M399.057 181.35c-9.126.553-8.697 7.629-17.583 8.168-9.126.553-9.555-6.523-18.44-5.984-9.126.553-8.697 7.629-17.583 8.168-9.125.553-9.554-6.523-18.44-5.984s-8.697 7.629-17.582 8.167"/></defs></svg>