<svg xmlns="http://www.w3.org/2000/svg" xmlns:xlink="http://www.w3.org/1999/xlink" width="334" height="54" fill="none" xmlns:v="https://vecta.io/nano"><g fill="#fff"><path d="M178.253 44.222v-.8c-2.4-.1-3.7-1.3-3.7-3s1.3-3 3.7-3v-.8h1v.8c2.3.1 3.7 1.3 3.7 3s-1.4 2.9-3.7 3v.8h-1zm0-1.7v-4.3c-1.8.1-2.7 1-2.7 2.2 0 1.1.9 2 2.7 2.1zm.9-4.4v4.3c1.7-.1 2.7-1 2.7-2.2 0-1.1-.9-2-2.7-2.1zm4.999.8h.9v3.8l2.4-3.8h1v5.1h-.9v-3.8l-2.4 3.8h-1v-5.1z"/><use xlink:href="#B"/><use xlink:href="#C"/><use xlink:href="#B" x="11.299"/><path d="M209.254 44.122c-1.4 0-2.4-1-2.4-2.7s1.1-2.7 2.4-2.7c.7 0 1.3.2 1.6.5l-.1.9c-.4-.4-.9-.6-1.5-.6-.9 0-1.5.6-1.5 1.8s.6 1.8 1.5 1.8c.5 0 1-.1 1.5-.6l.1.9c-.3.6-.9.7-1.6.7zm4.9 0c-1.4 0-2.3-1-2.3-2.7s1-2.7 2.3-2.7c1.4 0 2.4 1 2.4 2.7s-1 2.7-2.4 2.7zm0-4.5c-.9 0-1.4.8-1.4 1.9 0 1 .5 1.9 1.4 1.9s1.4-.8 1.4-1.9c.1-1.1-.4-1.9-1.4-1.9z"/><use xlink:href="#D"/><use xlink:href="#E"/><path d="M231.152 44.122c-1.3 0-2.4-.8-2.4-2.7 0-1.6 1-2.6 2.2-2.6 1.5 0 2.2 1.1 2.2 2.6v.2h-3.5c0 1.2.6 1.7 1.5 1.7.7 0 1.3-.3 1.8-.7l.1.9c-.4.4-1.1.6-1.9.6zm-1.4-3.2h2.5c-.1-.8-.5-1.3-1.2-1.3s-1.2.4-1.3 1.3z"/><use xlink:href="#E" x="13.199"/><path d="M242.853 39.822c.4-.6 1-.9 1.8-.9 1.3 0 2.2 1 2.2 2.5 0 1.6-1.1 2.7-2.4 2.7-.7 0-1.2-.3-1.6-.6-.5-.5-.8-1.3-.8-2.7 0-2.8.7-3.9 2.6-4.2l1.6-.3.1.9-1.6.3c-1.2.2-1.7.7-1.9 2.3zm1.7-.1c-1 0-1.5.8-1.5 1.8 0 1.1.6 1.8 1.4 1.8.9 0 1.4-.8 1.4-1.9 0-.9-.5-1.7-1.3-1.7zm5.8 4.4a4.44 4.44 0 0 1-1.3-.2v2l-1 .1v-7.1h.8l.1.7c.4-.4.9-.8 1.7-.8 1.1 0 2 .8 2 2.5 0 1.9-1.1 2.8-2.3 2.8zm.1-4.4c-.6 0-1 .4-1.4.9v2.4c.4.2.7.3 1.2.3.8 0 1.4-.7 1.4-1.9 0-1.1-.5-1.7-1.2-1.7zm6.5 4.3l-.1-.7c-.4.4-1 .8-1.8.8-.9 0-1.5-.6-1.5-1.4 0-1.3 1.1-1.8 3.2-2v-.2c0-.6-.4-.9-1-.9s-1.2.2-1.8.4l-.1-.8c.6-.2 1.2-.4 2-.4 1.2 0 1.8.5 1.8 1.6v3.6h-.7zm-.1-2.6c-1.9.2-2.3.7-2.3 1.2 0 .4.3.7.8.7.6 0 1.1-.3 1.5-.7v-1.2zm5.1 0c.6.2 1 .6 1 1.2 0 .9-.7 1.5-2.1 1.5-.7 0-1.4-.2-1.9-.4l.1-.8c.5.3 1 .5 1.8.5s1.1-.3 1.1-.7c0-.5-.4-.8-1.3-.8h-.8l-.1-.8h1c.8 0 1.1-.3 1.1-.7s-.3-.7-1.1-.7c-.5 0-1.1.2-1.6.5l-.1-.8c.5-.3 1.2-.4 1.8-.4 1.3 0 2 .6 2 1.4 0 .4-.4.8-.9 1zm4.4 2.7c-1.4 0-2.3-1-2.3-2.7s1-2.7 2.3-2.7c1.4 0 2.4 1 2.4 2.7s-1.1 2.7-2.4 2.7zm0-4.5c-.9 0-1.4.8-1.4 1.9 0 1 .5 1.9 1.4 1.9s1.4-.8 1.4-1.9-.5-1.9-1.4-1.9z"/><use xlink:href="#D" x="52.099"/><use xlink:href="#C" x="79.599"/><use xlink:href="#B" x="90.799"/><path d="M286.652 38.922h.9v3.8l2.4-3.8h1v5.1h-.9v-3.8l-2.4 3.8h-1v-5.1zm8 5.2c-1.3 0-2.4-.8-2.4-2.7 0-1.6 1-2.6 2.2-2.6 1.5 0 2.2 1.1 2.2 2.6v.2h-3.5c0 1.2.6 1.7 1.5 1.7.7 0 1.3-.3 1.8-.7l.1.9c-.4.4-1 .6-1.9.6zm-1.3-3.2h2.5c-.1-.8-.5-1.3-1.2-1.3s-1.2.4-1.3 1.3z"/><use xlink:href="#E" x="76.801"/><use xlink:href="#B" x="115.799"/><path d="M312.452 40.922l.2-2h3.3v5.1h-1v-4.3h-1.5l-.1 1.3c-.2 2.1-.8 2.9-2.1 3.1l-.1-.9c.9-.1 1.1-.7 1.3-2.3z"/><use xlink:href="#C" x="121.699"/><path d="M322.953 38.922h.9v3.8l2.4-3.8h1v5.1h-.9v-3.8l-2.4 3.8h-1v-5.1zm2.2-.7c-.8 0-1.3-.4-1.5-1.2l.6-.1c.1.4.4.6.9.6s.7-.2.9-.6l.7.1c-.2.7-.7 1.2-1.6 1.2z"/><use xlink:href="#B" x="138.901"/><path d="M179.254 28.722h-4.9v-17h5c3.8 0 5.6 1.7 5.6 4.4 0 1.8-1 2.9-2.5 3.6 1.9.6 3.2 1.8 3.2 4.1 0 3.2-2.4 4.9-6.4 4.9zm-.1-14.6h-1.7v4.5h1.5c1.9 0 2.9-.9 2.9-2.3.1-1.3-.7-2.2-2.7-2.2zm.1 6.9h-1.7v5.2h1.8c2.1 0 3.3-.9 3.3-2.6-.1-1.7-1.3-2.6-3.4-2.6zm12.999 7.7h-4.3v-12h3v3.8h1.7c3.2 0 4.8 1.5 4.8 4 0 2.6-2 4.2-5.2 4.2zm0-6.1h-1.4v3.8h1.4c1.6 0 2.3-.7 2.3-1.9s-.6-1.9-2.3-1.9zm6.9 6.1v-12h3v11.9h-3v.1zm10.901.2c-3.3 0-5.7-2.2-5.7-6.1 0-4.1 2.6-6.3 5.8-6.3 1.6 0 2.8.5 3.7 1l-.4 2.7c-1-.7-1.9-1.1-3.1-1.1-1.8 0-3 1.3-3 3.6 0 2.5 1.4 3.7 3.1 3.7 1 0 2-.3 3.1-1.1l.4 2.5c-1.1.7-2.3 1.1-3.9 1.1zm16.2-12.2v9.5h4.1v-9.5h2.9v11.9h-17v-11.9h3v9.5h4.1v-9.5h2.9zm16.899 12l-.2-1.6c-1 1-2.2 1.8-4 1.8-2 0-3.4-1.2-3.4-3.3 0-2.9 2.4-4.1 7.2-4.6v-.3c0-1.3-.7-1.8-2-1.8-1.4 0-2.7.4-4 1l-.4-2.4c1.4-.5 2.8-1 4.7-1 3.1 0 4.6 1.1 4.6 4v8.2h-2.5zm-.5-6c-3.4.4-4.2 1.4-4.2 2.6 0 .9.5 1.4 1.5 1.4s2-.5 2.8-1.3v-2.7h-.1zm4.8 5.6l3.3-4c-1.4-.6-2.3-1.8-2.3-3.5 0-2.5 1.8-4.1 5.2-4.1h4.8v11.9h-3v-3.9h-1.7l-3.1 4.1-3.2-.5zm6.1-5.7h1.8v-3.7h-1.8c-1.5 0-2.3.7-2.3 1.8 0 1.2.7 1.9 2.3 1.9zm22.601-5.9v9.5h4.1v-9.5h2.9v11.9h-17v-11.9h3v9.5h4.1v-9.5h2.9zm12.899 6.3v5.6h-3v-11.9h3v5.2l3.9-5.2h3.4l-4.5 5.7 4.7 6-3.2.4-4.3-5.8zm13.5 5.9c-3.2 0-5.6-2.3-5.6-6.2s2.4-6.2 5.6-6.2c3.3 0 5.6 2.3 5.6 6.2s-2.4 6.2-5.6 6.2zm0-10c-1.8 0-2.7 1.6-2.7 3.8s1 3.8 2.7 3.8c1.8 0 2.8-1.6 2.8-3.8s-1-3.8-2.8-3.8zm9.701 2.6l.6-4.8h8.3v11.9h-3v-9.5h-2.8l-.3 2.8c-.6 4.9-2 6.6-5.4 7.1l-.4-2.5c2-.5 2.5-1.6 3-5zm18.7 7.2l-.2-1.6c-1 1-2.2 1.8-4 1.8-2 0-3.4-1.2-3.4-3.3 0-2.9 2.4-4.1 7.2-4.6v-.3c0-1.3-.7-1.8-2-1.8-1.4 0-2.7.4-4 1l-.4-2.4c1.4-.5 2.8-1 4.7-1 3.1 0 4.6 1.1 4.6 4v8.2h-2.5zm-.4-6c-3.4.4-4.2 1.4-4.2 2.6 0 .9.5 1.4 1.5 1.4s2-.5 2.8-1.3v-2.7h-.1zm-233.501 10c1.4 0 2.1.6 2.1 1.8 0 1.3-.7 1.9-2.1 1.9h-.5v-3.7h.5zm.3-3h-4.9v13.9h4.1v-4.2h.6c3.5 0 5.9-1.7 5.9-5 .1-3.2-2.1-4.7-5.7-4.7zm-15.5 7c0-2.5.9-4.1 2.6-4.1s2.6 1.6 2.6 4.1-.9 4.1-2.6 4.1c-1.6 0-2.6-1.6-2.6-4.1zm-4.1 0c0 4.3 2.7 7.2 6.7 7.2 4.1 0 6.8-2.9 6.8-7.2s-2.7-7.2-6.7-7.2c-4.1-.1-6.8 2.9-6.8 7.2zm-11.7-3.6h3.7v10.5h4.1v-10.5h3.7v-3.4h-11.5v3.4zm-8.4-3.4h-4.2v13.9h4.1v-6.2l3.8 6.2h4.9l-4.8-7.4 4.5-6.5h-4.6l-3.7 5.8v-5.8zm-6.6 7.3h-9.5v2h1.2v4.6h9.4v-3.2h-5.3v-1.3h4.6l-.4-2.1zm-8.2-2.7h-1.2v1.8h9.3l-.3-1.8h-3.8v-1.4h5.1v-3.3h-9.2v4.7h.1zm-7.6-1.6c1.4 0 2.1.6 2.1 1.8 0 1.3-.7 1.9-2.1 1.9h-.5v-3.7h.5zm.3-3h-4.8v13.9h4.1v-4.2h.6c3.5 0 5.9-1.7 5.9-5-.1-3.2-2.3-4.7-5.8-4.7zm-14.9 0h-4v13.9h3.7l4.5-7.7v7.7h4v-13.9h-4.1l-4.1 7.1v-7.1zm-14.8 10.5c.9-1.4 1.7-3.2 1.9-6.1v-1.2h2.1v7.2h-4v.1zm-4.5.1h-.9v.4 5.9h3.9v-3h7.3v3h3.9v-6.6h-1.6v-10.3h-9.5l-.2 2.9c-.4 3.7-1 5.6-2.9 7.7zm12.3-21.6c0 1.6-.9 2.6-2.7 2.8v-5.6c1.9.2 2.7 1.2 2.7 2.8zm-6.6 2.8c-1.9-.2-2.7-1.2-2.7-2.8 0-1.5.8-2.6 2.7-2.8v5.6zm10.6-2.8c0-3.2-2.3-5.4-6.5-5.7v-1.5h-4.2v1.5c-4.2.3-6.5 2.5-6.5 5.7s2.3 5.4 6.5 5.7v1.5h4.1v-1.5c4.2-.3 6.6-2.5 6.6-5.7zm9 6.9h4v-13.9h-4.1l-4.1 7.1v-7.1h-4v13.9h3.7l4.5-7.7v7.7zm13.7 0h4.1v-13.9h-4.1v5h-3.9v-5h-4.1v13.9h4.1v-5.3h3.9v5.3zm13-5.4h-2.6l1.3-4.4 1.3 4.4zm1.7 5.4h4.4l-4.8-14h-4.6l-4.8 14h4l.7-2.3h4.4l.7 2.3zm13.1 0h4.1v-13.9h-4.1v5h-3.9v-5h-4.1v13.9h4.1v-5.3h3.9v5.3zm9.4-6.9c0-2.4 1.3-3.8 3.2-3.8 1.1 0 2 .4 2.7 1l.6-3.6c-1-.5-2.1-.8-3.6-.8-4.3 0-7 2.9-7 7.2 0 4.4 2.5 7.2 6.8 7.2 1.6 0 2.8-.4 4-.9l-.5-3.4c-1 .6-1.9.9-2.8.9-2 0-3.4-1.4-3.4-3.8zm16.2 0c0 2.5-.9 4.1-2.6 4.1s-2.6-1.6-2.6-4.1.9-4.1 2.6-4.1c1.6 0 2.6 1.6 2.6 4.1zm4.1 0c0-4.3-2.7-7.2-6.7-7.2-4.1 0-6.8 2.9-6.8 7.2s2.7 7.2 6.7 7.2c4.1 0 6.8-3 6.8-7.2zm8 2.6c0 1-.7 1.5-1.8 1.5h-1.1v-3h1.1c1.2 0 1.8.5 1.8 1.5zm-.3-5.5c0 .8-.5 1.4-1.6 1.4h-1v-2.7h1.1c1.1.1 1.5.6 1.5 1.3zm1.6 2.5c1.1-.5 2-1.4 2-3 0-2.3-1.6-3.6-4.8-3.6h-5.3v13.9h5.2c3.4 0 5.4-1.4 5.4-4 0-1.9-1-2.8-2.5-3.3zm10.3 2.4c0 1.3-.7 1.9-2.1 1.9h-.4v-3.7h.4c1.4 0 2.1.6 2.1 1.8zm4 0c0-3.2-2.2-4.8-5.6-4.8h-.8v-4.2h-4.1v13.9h4.7c3.6 0 5.8-1.6 5.8-4.9zm1.1 4.9h4.1v-13.9h-4.1v13.9zm15.4-17.7l-1.9-.3c-.3.8-.7 1.1-1.5 1.1-.7 0-1.1-.3-1.5-1.1l-1.8.3c.3 1.8 1.4 2.9 3.4 2.9 1.9 0 3-1.1 3.3-2.9zm2.8 17.7v-13.9h-4.1l-4.1 7.1v-7.1h-4v13.9h3.7l4.5-7.7v7.7h4zm17.101-24.7h-1v53h1v-53z"/></g><defs ><path id="B" d="M193.353 44.022v-2.2h-2.4v2.2h-1v-5.1h1v2.1h2.4v-2.1h1v5.1h-1z"/><path id="C" d="M198.953 44.022l-.1-.7c-.4.4-1 .8-1.8.8-.9 0-1.5-.6-1.5-1.4 0-1.3 1.1-1.8 3.2-2v-.2c0-.6-.4-.9-1-.9s-1.2.2-1.8.4l-.1-.8c.6-.2 1.2-.4 2-.4 1.2 0 1.8.5 1.8 1.6v3.6h-.7zm-.2-2.6c-1.9.2-2.3.7-2.3 1.2 0 .4.3.7.8.7.6 0 1.1-.3 1.5-.7v-1.2z"/><path id="D" d="M219.954 44.022h-2.1v-5.1h2.2c1.2 0 1.8.5 1.8 1.3 0 .6-.4.9-.8 1.1.6.2 1 .5 1 1.2 0 1-.8 1.5-2.1 1.5zm0-4.3h-1.2v1.3h1.2c.7 0 .9-.2.9-.7.1-.4-.2-.6-.9-.6zm.1 2h-1.2v1.5h1.2c.7 0 1.1-.2 1.1-.7-.1-.5-.4-.8-1.1-.8z"/><path id="E" d="M225.353 44.122c-1.4 0-2.3-1-2.3-2.7s1-2.7 2.3-2.7c1.4 0 2.4 1 2.4 2.7s-1 2.7-2.4 2.7zm0-4.5c-.9 0-1.4.8-1.4 1.9 0 1 .5 1.9 1.4 1.9s1.4-.8 1.4-1.9-.5-1.9-1.4-1.9z"/></defs></svg>