<svg xmlns="http://www.w3.org/2000/svg" width="1440" height="759" fill="none" xmlns:v="https://vecta.io/nano"><style><![CDATA[.B{fill:#a8c7f0}.C{fill:#6a9ad3}.D{fill:#c3dafc}.E{fill:#dae9fe}.F{fill:#1c468a}]]></style><path d="M-13 0H1450V517H-13V0Z" fill="#ecf5fc"/><path d="M-13 441.991c.143-2.006 2.579-1.146 3.869-.859a47.05 47.05 0 0 0 9.028.859c98.593-.716 198.333-6.879 295.924 10.463 42.848 7.596 84.979 18.631 127.254 29.523 40.698 10.462 84.836 25.941 127.111 25.941 54.599 0 109.198 2.149 163.797-1.577 26.081-1.72 53.166-4.013 78.53-10.462 84.837-21.498 173.542-34.683 260.667-46.292 40.27-5.302 80.54-10.175 120.95-13.615 86.85-7.452 172.54-5.446 259.1.573 5.73.43 11.32.144 17.05.144v319.598H-9.704L-13 441.991z" class="C"/><path d="M-9.131 441.132c3.009.573 5.875.859 9.028.859 98.593-.716 198.334-6.879 295.924 10.463 42.848 7.596 84.979 18.631 127.254 29.523 40.698 10.462 84.836 25.94 127.111 25.94 54.599 0 109.198 2.15 163.797-1.576 26.081-1.72 53.166-4.013 78.53-10.462 84.837-21.498 173.542-34.683 260.667-46.292 40.27-5.302 80.54-10.175 120.95-13.615 86.85-7.452 172.54-5.446 259.1.573 5.73.43 11.32.144 17.05.144v99.892c-44.28 5.159-92.43-4.156-135.42-5.303.14-7.452 25.65-13.472 28.95-23.934-3.87-6.879-37.26 16.912-39.41 15.908 6.3-16.481 8.16-35.542 2.86-49.587-4.44 12.898-6.3 25.797-11.03 35.542-19.92-28.806-24.94-18.201-16.05 7.31-52.59-22.645-3.44 9.745-29.67 13.185-156.05-7.883-118.37 22.214-132.98-33.68.86 10.176-2.3 18.918-3.73 25.797-1.72-7.596-4.3-15.335-4.87-18.774 1.29 16.338 3.15 15.621-6.74 14.761-1.43 3.153 3.87 6.45 4.02 9.459-5.31-1.576-8.17-1.289-9.89.144.57 2.436 4.58 3.726 4.44 6.592-68.79-2.723-139.577 2.867-205.927 4.156 2.723-4.299 3.296-7.882 3.869-9.315-4.013 2.006-6.592 5.159-8.312 5.733-2.436-8.456-5.589-10.749-6.162-3.583-5.302 2.579-17.913-10.749-12.324 6.019-95.584-.86-73.228-5.446-76.381-20.494-.143 3.582-3.439 7.165-5.302 7.882-1.433-3.01-1.863-6.306-3.583-9.316-5.875 31.387-16.193-21.354-364.709 19.492 2.722-7.453 6.448-13.042 10.031-16.339-8.885 2.293-14.904 8.169-19.919 11.896-.144-.144 0-.287-.144-.43 1.29-9.316-1.146-18.488-2.006-22.214-1.863 8.742-.573 13.328-2.723 19.061-5.732-6.163-12.611-12.755-17.626-10.462.86 9.315 7.022 10.175 8.312 15.621-8.742 0-6.879 1.147-6.449 6.163-201.199-1.863-166.663 14.475-173.542-31.1-2.293 9.746-3.009 13.758-5.015 19.348-6.163-10.176-26.082-35.83-35.11-32.39 3.296 11.752 13.757 19.778 18.343 28.52-8.168-5.016-18.343-7.309-24.218-5.302 3.152 6.449 11.607 8.169 15.333 11.178-9.888.86-11.178-1.29-15.477 2.437 2.436 2.866 4.873 2.149 4.873 3.869-36.4 15.192-81.541 1.863-118.656 6.736 11.321-8.169 13.614-11.179 15.334-15.478-11.608 4.156-19.489 6.879-27.658 11.035 3.296-6.592 3.869-14.188 4.729-18.344-3.296 5.589-5.159 11.895-8.168 14.331-16.48-14.618-15.477-8.742-12.181 1.29-5.732-1.003-12.181-3.009-15.62.287 1.433 3.296 2.15 2.723 2.436 3.44l-28.231 2.436-1.003-98.459c-.43-1.72 2.15-.86 3.296-.573z" fill="#9fc1f4"/><g class="F"><path d="M-11.328 601.972c145.311 39.125 37.449-27.991 100.503 2.392 1.433-4.729-5.589-12.325-3.726-20.924 7.022-.86 20.492 31.243 19.202-10.319 2.293 3.583 5.733 6.45 4.443 23.218 5.016-10.033 9.601-22.215 14.044-35.543 2.149 14.188 1.289 30.097-2.866 46.865 9.458-3.297 11.034-7.883 23.215-14.045-1.433 9.029-9.602 20.637-20.636 25.653 75.091-4.442 152.476 14.762 228.284 22.071 48.58 7.309 91.428 1.577 139.721 17.772 3.44-5.876-1.719-10.176 12.181-1.72 1.29-4.873 6.592-14.905 6.449-.717 6.162-2.58 6.449-4.873 15.047-12.325.717 4.729-3.583 12.469-7.165 20.351 1.719.43 5.732-5.876 21.066-10.749-1.004 8.456-9.745 12.469-15.621 19.635 17.483 6.592 110.488 35.972 97.877-14.189 6.736 1.147 7.739 14.045 15.62 15.908 1.433-14.045 5.733-18.344 6.879 2.724 3.583-2.867 9.458-8.6 15.047-14.332-.143 5.732-4.156 14.475-8.168 23.647 23.072-3.01 161.647 6.306 148.033-28.663 4.299.86 4.586 4.442 10.031 7.595 4.729-5.589-1.003-13.901 4.013-21.354 3.869 6.02 5.159 14.619 2.293 23.934 4.442-7.452 10.174-16.481 19.059-22.787.143 6.449-3.726 17.771-10.175 23.934 19.49-2.15 40.699-9.173 62.768-11.466-3.296-5.302-8.169-12.898 6.305-12.038-2.293-8.169 2.723-2.15 9.458-3.153-13.04-10.319 14.761-5.016 21.066 1.146 13.041-12.468 30.38-13.758 50.156-15.621.144-11.179-1.433-15.335 14.044-5.303.287-2.007-.86-6.449.573-8.026 3.583.573 4.3 6.306 6.306 10.606 10.171-14.619 15.191-18.488 6.881 4.586 15.04-.43 145.31 14.618 128.54 3.726 30.38.287-17.05-25.224 6.02-26.657 5.3 1.29 11.89 7.453 18.77 10.462-1.43-5.589-11.46-13.328-9.45-22.501 10.17 1.72 11.6 10.033 23.78 14.475.15-8.169-1.43-14.475-3.29-25.51 9.46 12.182 22.78 28.233 22.78 48.155 3.59-5.59 2.87-5.876 16.2-24.508 1.29 7.453.57 19.778-3.01 29.524 49.44 4.872 104.47 6.306 155.63-6.88 5.01-4.012 9.31-18.631 19.77-21.211-1.57 2.294-3.58 5.876-2.72 8.886 9.74-.43 4.44-30.67 18.77-11.465-.72-2.15-1.86-5.16-1.86-7.309 4.87-.144 5.73 6.696 18.77 8.272-.43-2.006-3.01-2.15-5.16-6.306 11.61 15.622 27.52 8.312 45.57-2.436l-1.929 165.061-25.678.006-166.574-.002-163.941-.011-165.936.014-228.791-.004H459.404l-118.274.006h-15.798l-88.65-.003-217.867-.008-20.592.005-9.244.001z"/><path d="M1396.25 659.404c-4.15-.143-2.43-.43-15.47-.287 5.16-6.162 14.33-13.185 21.78-20.924-11.61 5.303-24.22 9.602-34.54 21.784-.14-2.436 2.87-8.599-1.86-19.778-.43 2.867-.43 8.743-4.3 12.612-4.01-4.156-8.88-13.758-11.03.86-3.3-14.045 0-31.673 5.87-48.298-12.9 9.746-22.78 27.087-32.24 42.995 9.31-19.634 8.45-43.425 1.58-65.926-.15 11.179-1.87 28.091-8.89 40.129 1.72-7.309 1.72-15.478.14-25.797-4.3 7.739-10.17 14.189-16.05 20.781 1.01-3.583 5.31-6.736 6.17-20.781-18.2 7.883-21.5 32.533-26.23 53.028 0 3.009 6.45 15.191-5.01 15.191 12.61-.143 93.43-.573 120.08-5.589zm-7.16-131.279c7.88-9.172 19.35-19.205 35.11-19.491-3.44 6.449-10.75 10.462-16.48 19.491 13.61-4.729 30.52 1.577 44.28 11.322-6.59-1.576-16.62-2.006-25.79-.143 4.01 2.293 11.03 3.583 15.04 9.745-1 1.577-1.86-1.719-14.47.86 2.15 3.583 7.16 3.44 12.47 13.186-30.1.573-61.48 25.08-57.04-31.1.29-.287.72-1.29 6.88-3.87zm-334.62 14.905c32.68-1.72 60.05 11.322 34.97-5.589 3.01 0 6.16 1.576 9.31.86-10.89-6.88-14.76-5.303-16.91-8.17 10.18-2.579 20.5-5.016 27.38-6.306-11.9-6.449-24.94-6.019-34.54-3.582 5.59-9.889 12.04-19.062 14.47-22.788-13.47 3.44-24.93 16.052-29.8 25.654v-.86c-4.16 9.889-5.74 14.905-4.88 20.781zm-74.085 2.866c-13.614.144-55.602-3.439-27.371-9.459-13.327-10.318 5.159-10.605 10.175-7.309-17.913-16.051 2.723-10.892 5.159-3.726 2.006-.573-5.732-13.902-5.589-16.195 9.028 1.863 11.751 11.036 15.19 15.622-.143-.287 2.006 4.156 2.866 4.299-1.146 7.023 2.293 13.902-.43 16.768zM374.352 638.48c-47.004 1.433-94.295-10.032-143.735-7.739-3.152-17.628-16.336-38.266-30.38-52.168 1.146 11.179 8.312 22.931 11.608 36.69-28.375-20.065-46.001-23.791-11.751 12.755-5.446-1.003-13.328-2.15-18.487 3.153 1.433 2.15 1.433 2.723 7.309 7.882-4.013-2.15-13.757-10.892-19.346-6.162-1.147-.287-2.723-1.004-4.013 1.146.86 1.147 1.72 1.577 2.723 2.58-5.875.287-14.904 0-22.929 3.583-.429-.43-.143 0 .144-.717 74.231.86 151.472 11.466 228.283 2.437l.574-3.44z"/></g><g class="C"><path d="M1400.7 552.06l3.29 18.774h-31.81l1.43-18.774h18.06 9.03z"/><path d="M1346.39 410.748c21.78.143 41.12 14.618 46.86 35.543 1 3.726 1.72 7.739 2.15 11.895 2.14 23.361-3.73 93.873-3.73 93.873h-18.06-5.3c2.15-28.234 2.87-58.76 2.44-90.72-.29-33.966-23.79-50.734-48.3-50.734v-.144l23.94.287z"/></g><path d="M1373.61 552.06l-1.43 18.774h-128.54l3.43-18.774h10.32 110.92 5.3z" class="B"/><path d="M1370.75 461.339c.28 31.96-.29 62.487-2.44 90.72h-110.92c1.58-28.806 4.16-63.059 10.32-94.589 6.02-31.1 30.95-46.865 54.89-46.865 24.5 0 47.86 16.768 48.15 50.734z" class="D"/><path d="M1275.88 512.504s2.58-.86 4.87-2.867c2.29-1.863 3.58-4.299 3.58-4.299s-2.72.573-5.01 2.58c-2.44 2.006-3.44 4.586-3.44 4.586zm61.05-66.213s3.01-2.436 5.44-6.306c1.29-1.863 2.15-3.869 2.58-5.303.57-1.433.72-2.436.72-2.436s-2.73 2.58-5.3 6.449c-2.44 3.87-3.44 7.596-3.44 7.596zm-50.88-15.048c1.87 3.009 4.02 5.589 5.74 7.166 1.71 1.576 3 2.293 3 2.293l-2.15-3.153c-1.28-1.863-2.86-4.586-4.58-7.596l-2.87-4.873c-.43.43-1 .86-1.43 1.433.57 1.577 1.29 3.153 2.29 4.73zm-9.88 120.816c7.45-7.309 12.61-13.615 12.61-13.615s-7.31 5.446-15.34 13.185c-.14.144-.28.287-.57.43h3.3zm64.91-43.998c3.3 2.866 6.59 4.873 6.59 4.873s-1.57-3.583-5.15-6.593c-1.72-1.576-3.59-2.579-4.88-3.296-1.43-.717-2.29-.86-2.29-.86s2.29 3.01 5.73 5.876zm29.67-44.428l-6.17 5.016c-8.16 6.879-14.61 12.755-14.61 12.755s7.88-4.013 16.05-11.035c1.72-1.434 3.29-2.867 4.73-4.157a7.97 7.97 0 0 0 0-2.579zm-19.78 81.404c-3.58-5.016-7.02-9.316-9.74-12.325-2.73-3.01-4.59-4.587-4.59-4.587l3.73 5.303c2.29 3.297 5.15 8.026 8.74 13.042 1.43 2.007 2.86 3.87 4.3 5.59h2.43c-1.43-2.294-3.15-4.587-4.87-7.023z" class="B"/><path d="M1287.06 428.949c10.46-9.602 24.07-14.618 37.4-14.618v-.143l23.93.143c17.63.143 33.53 9.602 42.13 24.221-7.88-16.768-25.08-27.804-44.14-27.947l-23.93-.144v.144c-13.32 0-26.94 4.873-37.4 14.618-8.45 7.739-14.76 18.488-17.48 32.247-6.02 31.529-8.74 65.782-10.32 94.589h-10.46l-3.3 18.774h2.58l2.72-15.048h10.47l114.07-1.29.14-2.436H1259.4c1.58-28.09 4.3-60.623 10.03-90.863 2.87-13.759 9.32-24.508 17.63-32.247z" class="E"/><path d="M1059.63 436.259l-45.85-25.081-46.005 26.084 9.744 91.723h69.651l12.46-92.726z" class="D"/><path d="M1059.63 540.164l2.44 8.026H956.024l2.006-8.026h7.882 89.708 4.01zm-6.3-11.179l1.72 8.886-88.852.573 1.863-9.459h6.736 72.373 6.16z" class="B"/><g class="C"><path d="M1055.05 537.871l.57 2.293h-89.708l.286-1.72 88.852-.573zm26.94 2.293l2.15 8.026h-22.07l-2.44-8.026h14.62 7.74z"/><path d="M1072.1 528.985l2.15 11.179h-14.62-4.01l-.57-2.293-1.72-8.886h8.74 10.03z"/><path d="M1077.69 436.259l-15.62 92.726h-8.74-6.16l12.46-92.726-49.01-26.801 35.26 3.297 31.81 23.504z"/></g><path d="M988.84 431.099l3.01 9.029 1.433-1.003c0-.144 0-.144-.144-.287-.143-1.146-.143-2.436 0-3.726l.574-4.013c.43-2.723.86-5.446.86-8.026l.143-4.443-1.147.574-.43 3.869c-.143 2.437-.573 5.016-1.146 7.739-.143 1.147-.43 2.293-.43 3.44l-1.433-3.726c-1.146-3.01-2.723-5.303-4.012-7.309l-.717.429c1.003 2.15 2.436 4.587 3.439 7.453zm38.69 31.817c2.15 1.72 4.44 2.723 4.44 2.723s-1.14-2.293-3.43-4.013c-1.15-.86-2.3-1.577-3.3-1.864-.86-.429-1.58-.429-1.58-.429a39.63 39.63 0 0 0 3.87 3.583zm8.89 23.36c-2.3-2.15-4.59-3.869-6.31-4.873-1.86-1.003-3.01-1.433-3.01-1.433s1.01.717 2.58 2.15c1.58 1.29 3.44 3.296 5.73 5.446l2.01 1.72.14-2.007c-.43-.286-.71-.573-1.14-1.003zm18.2-38.122c-2.3-1.147-4.59-1.577-6.17-2.007l-2.57-.573 2.29 1.433c1.43.86 3.58 1.72 5.73 2.723l3.73 1.72.14-1.433c-.86-.716-1.86-1.29-3.15-1.863zm-73.948 41.849l-.287-2.294c-.86-.859-1.863-1.576-2.866-2.436-2.866-1.863-5.732-3.296-7.881-4.443l.143 1.433c1.863 1.434 4.299 2.867 6.735 4.443 1.576 1.004 3.009 2.15 4.156 3.297zm33.528 35.113l-2.14-2.437h-2.15l3 3.583 2.3 2.866h1.86c-.72-1.433-1.86-2.723-2.87-4.012zm30.39-31.387s-1.01-.717-2.58-2.15l-3.16-2.866-.14 1.72 2.72 1.863c2.01 1.146 3.16 1.433 3.16 1.433zm-56.323 1.72s-1.29-1.003-3.153-3.01l-2.722-3.009.286 2.006 2.006 1.576c2.007 1.863 3.583 2.437 3.583 2.437zm18.053 21.498l-3.72-3.01 3.01 3.583 2.86 3.44h1.87l-4.02-4.013zm-12.608-71.803c.717 1.433 1.577 2.58 2.15 3.296 1.863 3.297 3.726 6.163 4.588 8.886.71 2.293 1.43 4.156 2 5.303.58 1.146 1.01 1.72 1.01 1.72s-.43-.574-.86-1.864-.86-3.152-1.44-5.446c-1-4.729-4.868-10.032-7.304-16.481l-1.433 1.147a44.11 44.11 0 0 0 1.289 3.439z" class="B"/><g class="E"><path d="M961.04 542.17h7.738l.43-1.719 1.863-9.459h6.592l-4.873-46.722v-.287l-5.015-46.721 20.636-11.609.573-.286 24.646-13.759 35.11 3.153-2.86-2.006-35.26-3.297-24.646 13.902-.573.287-20.492 11.609 4.872 46.721v.287l5.016 46.721h-6.736l-1.863 9.459-.286 1.72h-7.882l-2.006 8.026h3.439l1.577-6.02z"/><path d="M977.663 530.992l75.807-1.003-.14-1.004h-75.811l.144 2.007zm-8.885 11.178h91.432l-.58-2.006-90.422.287-.43 1.719z"/></g><path d="M1295.37 511.357l-62.2-34.109-63.77 35.542 13.19 125.69h95.72l17.06-127.123z" class="D"/><path d="M1295.51 653.814l3.3 11.036h-145.46l2.87-11.036h10.75 123.1 5.44zm-8.74-15.335l2.58 12.183-121.95.859 2.58-13.042h9.03 99.59 8.17z" class="B"/><g class="C"><path d="M1289.35 650.662l.72 3.153h-123.1l.43-2.293 121.95-.86zm36.97 3.152l2.72 11.036h-30.23l-3.3-11.036h20.06 10.75z"/><path d="M1312.56 638.479l3.01 15.335h-20.06-5.44l-.72-3.153-2.58-12.182h12.04 13.75z"/><path d="M1320.3 511.357l-21.49 127.123h-12.04-8.17l16.91-127.123-67.21-36.833 48.44 4.443 43.56 32.39z"/></g><path d="M1198.35 504.191c1.43 3.726 2.44 8.026 4.16 12.468l1.86-1.433c0-.143-.14-.286-.14-.43v-.143a28 28 0 0 1 0-5.016c.14-1.72.57-3.583.86-5.446.57-3.726 1.14-7.453 1.14-10.892-.14-2.293 0-4.3.15-6.163l-1.58.86c-.29 1.577-.43 3.296-.43 5.303-.14 3.296-.86 6.879-1.58 10.605-.28 1.577-.43 3.153-.57 4.73-.57-1.72-1.15-3.44-1.86-5.016-1.58-4.013-3.87-7.166-5.45-10.033l-1 .574c1.29 2.866 3.15 6.019 4.44 10.032zm53.17 43.712a27.71 27.71 0 0 0 6.16 3.726s-1.58-3.153-4.73-5.589c-1.58-1.29-3.15-2.15-4.44-2.58-1.29-.573-2.01-.716-2.01-.716a31.75 31.75 0 0 0 5.02 5.159zm12.18 32.103c-3.15-2.866-6.31-5.303-8.74-6.593-2.44-1.433-4.16-2.006-4.16-2.006s1.43 1.003 3.44 2.866l7.88 7.453c1 .86 1.86 1.72 2.87 2.436l.14-2.723c-.43-.573-.86-1.003-1.43-1.433zm25.08-52.311c-3.16-1.576-6.31-2.15-8.46-2.723l-3.58-.86s1.14.86 3.15 2.007 4.87 2.293 7.88 3.726l5.02 2.436.29-2.006a21.6 21.6 0 0 0-4.3-2.58zm-101.46 57.327l-.29-3.153c-1.15-1.147-2.44-2.15-4.01-3.296-4.01-2.58-7.88-4.443-10.89-6.02l.14 1.863c2.58 1.863 6.02 3.87 9.31 6.02 2.15 1.576 4.02 3.009 5.74 4.586zm45.85 48.154l-3.01-3.439h-2.86l4.01 4.873 3.3 3.869h2.72l-4.16-5.303zm41.85-42.994s-1.43-1.004-3.44-2.867c-1.29-1.003-2.72-2.436-4.3-4.013l-.14 2.437c1.29 1.003 2.58 1.863 3.72 2.436 2.44 1.577 4.16 2.007 4.16 2.007zm-77.39 2.436s-1.71-1.433-4.29-4.013l-3.87-4.013.28 2.723 2.73 2.15c3.01 2.15 5.15 3.153 5.15 3.153zm24.8 29.38l-5.02-4.013 4.16 4.873 3.87 4.729h2.57c-2-2.293-4.01-4.156-5.58-5.589zm-17.34-98.459c1 2.006 2 3.439 2.86 4.586 2.58 4.586 5.16 8.599 6.16 12.182 1.01 3.009 1.87 5.589 2.73 7.309.86 1.576 1.43 2.436 1.43 2.436s-.57-.86-1.15-2.579c-.57-1.72-1.14-4.3-2-7.453-1.29-6.449-6.59-13.758-10.18-22.5l-2 1.433c.86 1.576 1.57 3.153 2.15 4.586z" class="B"/><g class="E"><path d="M1160.23 656.681h10.75l.43-2.293 2.58-13.042h9.17l-6.73-64.063v-.43l-6.88-64.063 28.23-15.908.72-.43 33.96-19.061 48.01 4.443-3.73-2.867-48.44-4.443-33.82 19.062-.71.43-28.23 15.908 6.73 64.063v.43l6.74 64.063h-9.03l-2.58 13.042-.43 2.293h-10.75l-2.87 11.035h4.88l2-8.169z"/><path d="M1183.16 641.346l103.9-1.433-.29-1.434h-103.89l.28 2.867zm-12.18 15.335h125.39l-.86-2.867-124.1.574-.43 2.293z"/></g><path d="M451.162 560.515c-4.586-13.185-39.552-47.438-15.907-6.879-17.339-18.345-49.869-20.352-1.862 7.022-3.153-2.58-26.942.287 1.003 7.739-13.614.144-6.879 7.596 13.9 4.3.573-2.293 4.013-6.736 3.583-13.185-.144 0-.287 0-.287.143s0 .143-.43.86zm89.279-6.019c2.15-9.173 33.39-39.556 8.742 1.863 9.744-4.73 20.922-6.306 34.106-1.72-6.305 4.443-8.455 5.159-22.785 9.602.86.86 3.009-.43 10.174 5.733-1.003-1.147-38.119 10.892-30.237-15.478z" class="F"/><g class="C"><path d="M439.985 560.658l-2.436 13.615h23.072l-1.146-13.615h-13.041-6.449z"/><path d="M479.251 458.472c-15.764.144-29.664 10.463-33.963 25.654-.717 2.723-1.29 5.59-1.577 8.599-1.576 16.912 2.723 67.933 2.723 67.933h13.041 3.869c-1.576-20.351-2.006-42.422-1.863-65.496.287-24.651 17.197-36.69 34.966-36.69v-.143l-17.196.143z"/></g><g class="D"><path d="M459.475 560.658l1.146 13.615h92.861l-2.436-13.615h-7.452-80.25-3.869z"/><path d="M461.624 495.162c-.286 23.074.287 45.145 1.863 65.496h80.251c-1.147-20.781-3.01-45.575-7.452-68.362-4.299-22.501-22.356-33.823-39.696-33.823-17.769 0-34.679 12.038-34.966 36.689z"/></g><path d="M530.125 532.138s-1.863-.717-3.44-2.007c-1.719-1.433-2.579-3.153-2.579-3.153s2.006.43 3.582 1.863a6.67 6.67 0 0 1 2.437 3.297zM486.13 484.27s-2.15-1.72-4.013-4.586c-.859-1.434-1.576-2.723-1.863-3.87-.43-1.003-.573-1.72-.573-1.72s2.006 1.863 3.869 4.586c1.863 2.867 2.58 5.59 2.58 5.59zm36.829-10.892a20.28 20.28 0 0 1-4.156 5.159c-1.289 1.146-2.149 1.72-2.149 1.72l1.576-2.293 3.296-5.446c.717-1.29 1.433-2.437 2.15-3.44l1.003 1.003-1.72 3.297zm7.022 87.28c-5.302-5.303-9.028-9.889-9.028-9.889s5.302 3.869 11.177 9.459l.43.43h-2.579zm-46.861-31.817c-2.436 2.15-4.872 3.44-4.872 3.44s1.146-2.58 3.726-4.729c1.29-1.147 2.579-1.864 3.582-2.293l1.72-.717s-1.719 2.15-4.156 4.299zm-21.495-32.103l4.442 3.583 10.605 9.172s-5.589-2.866-11.608-7.882l-3.439-3.01v-1.863zm14.33 58.904c2.579-3.583 5.159-6.736 7.022-8.886 2.006-2.15 3.296-3.297 3.296-3.297l-2.723 3.87-6.306 9.459c-1.146 1.433-2.149 2.867-3.009 4.157h-1.863c1.003-1.864 2.293-3.583 3.583-5.303z" class="B"/><path d="M522.099 471.658c-7.595-7.023-17.483-10.463-27.085-10.463v-.143l-17.34.143c-12.754.144-24.218 6.88-30.38 17.485 5.732-12.182 18.056-20.064 31.813-20.208l17.34-.143v.143c9.602 0 19.49 3.583 27.085 10.463 6.019 5.589 10.748 13.328 12.611 23.36 4.442 22.788 6.305 47.582 7.451 68.363h7.452l2.436 13.615h-1.863l-1.862-10.892h-7.452l-82.544-.86-.143-1.72h82.543c-1.146-20.208-3.009-43.855-7.308-65.639-2.006-10.176-6.735-17.915-12.754-23.504z" class="E"/><path d="M374.925 639.34c8.168-1.29 17.053-2.437 26.798-8.456-4.443-4.013-14.618-3.583-20.78 3.153 11.465-10.892 24.935-29.237 25.222-48.441-9.601 10.175-17.197 22.357-27.514 36.259 3.152-10.319 5.875-25.511 3.869-39.269-3.726 9.746-7.595 21.641-14.187 34.253-25.365-19.205-19.49.86-6.306 23.074 3.583-1.003 5.303-.43 12.898-.573z" class="F"/><path d="M231.191 523.968l10.891 117.234h132.27l-1.576-116.66-22.786-3.583-3.725-.144.573-12.755c-3.726-4.873-5.589-14.761-2.58-21.784-10.748-15.765-32.96-32.103-58.611-31.387-14.044 3.583-27.515 12.469-38.406 27.231 8.599 8.026 9.172 17.055 4.586 26.657l.717 11.609-21.353 3.582z" class="D"/><g class="B"><path d="M295.964 480.687c4.73 2.723 8.599 5.876 11.322 8.026l4.442 3.726s-2.006-.86-5.159-2.58-7.308-4.156-11.894-6.879c-3.583-2.15-6.592-4.586-9.028-6.593l2.579-.429c2.436 1.289 5.016 3.009 7.738 4.729zm-26.081 40.845c-.286-.143-.573-.286-.716-.43l.86-2.149c.286.143.573.286.716.286 1.147.43 2.293 1.003 3.439 1.577 4.586 2.58 8.026 5.733 10.462 8.026s4.012 3.583 4.012 3.583-1.863-.86-4.729-2.58-6.592-4.443-10.891-6.736c-1.146-.43-2.15-1.003-3.153-1.577zm31.957 91.294l3.726 1.72s-1.576-.144-3.869-.574l-9.315-1.29c-3.726-.716-7.022-1.72-9.315-2.723s-3.582-2.006-3.582-2.006l3.869.716 9.315 1.434c3.439.716 6.735 1.719 9.171 2.723zm43.135-.43l-18.057-6.02c-5.589-1.863-10.461-4.013-14.474-6.162s-6.878-4.3-8.884-5.876c-1.004-.717-1.72-1.434-2.15-1.864l-.716-.716a6.54 6.54 0 0 0 .859.573c.574.43 1.29 1.003 2.293 1.72 2.006 1.433 5.159 3.153 9.172 5.016s8.885 3.583 14.473 5.159c3.153 1.004 6.592 2.007 10.175 3.01-2.723-1.863-5.589-4.013-8.742-6.592-3.869-3.153-8.025-6.593-12.754-9.603-9.458-6.162-18.486-11.179-24.648-15.621-3.009-2.15-5.446-4.157-7.022-5.59s-2.436-2.293-2.436-2.293l2.58 1.863c1.719 1.147 4.155 2.867 7.451 4.73 6.306 3.869 15.62 8.312 25.222 14.618 4.872 3.153 9.028 6.879 12.754 10.176s7.022 6.162 10.031 8.455c.573.43 1.003.717 1.577 1.147l3.869 1.29c1.719.573 3.439 1.29 5.015 1.863v2.723c-1.719-.717-3.582-1.433-5.588-2.006zm-11.608-55.894c1.72 1.146 3.296 2.436 4.156 3.583 1.003 1.146 1.29 1.863 1.29 1.863s-.86-.287-2.15-.86-3.009-1.29-4.729-2.437-3.296-2.436-4.156-3.582l-1.29-1.863s.86.286 2.15.859l4.729 2.437zm-65.634-38.552l-.859 2.006h-.144l-4.872-3.153-4.586-2.866s2.007.429 5.159 1.719c1.577.574 3.296 1.434 5.302 2.294zm75.952 120.386c-4.299-3.726-8.025-7.023-11.034-9.172-.86-.717-1.72-1.147-2.437-1.72h1.863c.43.143.86.43 1.147.573 3.439 1.72 7.738 4.73 12.037 8.313l6.019 4.872h-3.726c-1.433-.86-2.723-1.719-3.869-2.866zm-108.481-70.368c1.576 0 3.439.286 5.302.716 3.009.717 5.732 1.29 7.738 2.15a6.93 6.93 0 0 1 2.15 1.433c.43.43.573.717.573.717s-1.146-.717-3.009-1.003c-1.863-.144-4.729-.144-7.882-.86-1.72-.287-3.296-.717-4.729-1.147l-.143-2.006zm47.72-93.73c-2.436-1.72-4.299-2.437-4.299-2.437l1.433.287c1.003.287 2.293.716 4.012 1.433.144.143.43.143.574.287l-1.72.43zm90.998 150.913c-3.296-2.006-7.165-4.013-11.464-5.876-2.866-1.29-6.019-2.58-9.172-3.87v-2.579c3.583 1.433 7.022 2.866 10.031 4.443 4.013 2.006 7.452 4.156 10.605 6.162v1.72z"/><path d="M344.115 486.133c-1.576 3.296-1.863 8.599-1.003 13.328-25.365-25.51-55.602-19.491-88.992 2.006 2.293-9.602-4.442-17.484-7.022-19.634 12.038-14.905 24.935-25.94 40.125-27.66 25.222.573 43.852 11.752 56.892 31.96zm-146.17 28.377l25.078.143 28.804-6.163-21.782.287-32.1 5.733zm14.473-30.384l22.642-4.586c15.334-23.361 33.247-40.559 57.609-43.568l-38.119 3.009c-20.779 5.733-38.119 25.368-42.132 45.145z"/></g><path d="M235.061 479.54l-22.643 4.586 9.315 6.02 5.159-1.147 18.2-4.156-10.031-5.303zm-37.116 34.97l1.433 9.745 8.598.144 17.053.716-2.006-10.462-25.078-.143z" class="C"/><path d="M225.029 525.115l-17.053-.716 12.611 116.947h21.352l-10.748-117.377-6.162 1.146z" fill="#5d8dc6"/><path d="M346.695 508.06l-.574 12.756 3.726.143.573-13.615-3.725.716zm-101.604-23.217l-18.199 4.156c3.869 5.16 5.589 13.329 3.296 19.778l21.639-.286c4.586-9.603 4.012-18.632-4.586-26.658-.86 1.004-1.576 2.007-2.15 3.01zm40.413-30.097c25.651-.716 47.864 15.765 58.611 31.387l10.032-1.29c-17.054-25.941-43.708-36.546-68.643-30.097z" class="C"/><path d="M223.023 514.653l2.006 10.462 6.162-1.146 21.209-3.87-.573-11.609-28.804 6.163zm127.397-7.309l-.573 13.615 22.786 3.726 4.872.717 2.149-13.759-29.234-4.299zM235.06 479.54l10.032 5.303 2.149-3.01c10.891-14.618 24.362-23.647 38.406-27.23 24.935-6.449 51.589 4.299 68.643 30.097l9.458-6.45c-14.761-21.927-34.25-37.979-65.347-42.852l-5.732.43c-24.362 3.297-42.275 20.351-57.609 43.712z" class="D"/><path d="M372.633 524.685l-22.786-3.726-3.726-.144.43 8.169 26.225 3.87-.143-8.169zm-123.242-4.013l.43 9.889-17.626 4.443-1.004-11.035 18.2-3.297z" class="B"/><path d="M295.249 439.268l-5.733.43-38.119 3.01c-10.747 3.01-20.635 9.745-28.231 18.345 7.882-10.319 18.917-18.775 31.241-22.071l38.119-3.01 5.732-.43c31.097 5.016 50.586 20.924 65.347 42.852l-3.869 2.58c-14.618-21.355-33.964-36.833-64.487-41.706zm81.253 76.102l-29.091-4.299-3.726.573c-1.72-2.293-3.153-5.876-3.726-9.602 0-.287-.143-.43-.143-.717-.143-.717-.144-1.433-.144-2.15v-1.146c0-.86.001-1.577.144-2.437v-.286c.143-1.863.573-3.87 1.433-5.59l2.006-.286c-.143.716-.287 1.29-.287 2.006v.287c0 .86-.143 1.576-.143 2.436v1.147c0 .716.143 1.433.143 2.149 0 .287.144.43.144.717.573 3.726 2.006 7.309 3.726 9.602l3.726-.573 29.09 4.299-2.149 13.759-2.436-.43 1.433-9.459zm-5.589 113.507v-1.719l-1.29-98.746 3.153.43 1.147 94.589v1.72l.286 16.195h-3.153l-.143-12.469z" class="E"/><path d="M912.459 506.484c-.143 0-.143 0-.287.143 2.58-6.736 10.891-10.175 19.346-14.618-2.292 3.583-3.869 9.602-9.744 14.905 0 1.29 5.732-5.303 19.776.86-1.72.86-.287-1.29-10.175 1.433 1.003.287 2.293.287 3.153.86.43.286.716.573 1.29.716 1.433.43 3.009.144 4.585 0 3.726-.286 7.595-.716 11.178.43-1.29.86-3.009 1.147-4.442 1.434-4.013.859-8.025 1.003-12.038 1.003 1.433-.144 6.879 4.729 6.449 5.016-.287.143-.43 0-.573 0-.574-.143-1.147-.287-1.72-.287-.86 0-1.72-.143-2.58 0-.43.144-.859.287-1.433.43.43-.143 1.29.573 1.577.86-.43.86-2.436 1.003-3.153 1.003l-36.256.574h-19.203l-18.486-.574-16.05-1.003c-1.29-.143-2.58-.143-3.869-.287-.574 0-1.147-.143-1.72-.143-.43 0-1.29-.286-1.576-.143 23.215-7.166 49.296-4.3 75.951-12.612z" class="F"/><path d="M893.973 458.903v-5.876c-2.579-4.873-2.579-9.315 1.576-13.328-5.875-7.31-12.897-11.896-20.062-13.615-12.898-.287-23.645 7.882-28.518 15.764 1.72 3.583 1.003 8.456-.716 11.036l.573 6.449-1.863.144-11.321 1.863 2.436 58.473h66.35l2.15-58.903-10.605-2.007z" class="D"/><g class="B"><path d="M871.045 439.126c-2.293 1.433-4.156 2.866-5.446 4.012l-2.15 1.863s1.004-.429 2.437-1.289l5.732-3.44c1.719-1.146 3.153-2.293 4.299-3.296-.43-.143-.86-.143-1.29-.143-1.003.573-2.293 1.433-3.582 2.293zm14.187 20.637c.144 0 .287-.143.43-.143-.143-.286-.286-.716-.573-1.146-.143 0-.287.143-.43.143l-1.72.86c-2.149 1.29-3.869 2.866-5.015 4.013l-1.863 1.863 2.293-1.29 5.302-3.44c.573-.43 1.146-.716 1.576-.86zm-13.47 45.719c-1.147.43-1.72.86-1.72.86s.716-.144 2.006-.287l4.729-.573c1.863-.287 3.439-.86 4.586-1.433s1.72-1.004 1.72-1.004l-2.007.43-4.585.717c-1.863.287-3.583.717-4.729 1.29zm-21.64-.287l8.885-3.01c2.723-1.003 5.159-2.006 7.022-3.009s3.296-2.15 4.299-2.867c.43-.43.86-.716 1.003-1.003l.287-.287s-.143.144-.43.287-.573.43-1.147.86c-1.003.716-2.436 1.576-4.442 2.436s-4.442 1.72-7.165 2.58l-5.016 1.576c1.29-.859 2.723-2.006 4.156-3.296l6.162-4.873c4.586-3.153 9.028-5.589 11.894-7.882 1.433-1.147 2.58-2.006 3.296-2.723l1.147-1.147s-.43.287-1.29 1.004c-.86.573-2.006 1.433-3.583 2.436-3.009 2.006-7.595 4.156-12.324 7.309-2.293 1.577-4.299 3.44-6.162 5.016-1.719 1.577-3.296 3.153-4.729 4.156-.286.144-.43.43-.716.574-.574.143-1.29.43-1.863.716-.86.287-1.72.574-2.436.86l.143 1.29c1.146-.287 2.006-.573 3.009-1.003zm4.3-27.947c-.86.574-1.577 1.29-2.006 1.72-.43.574-.574 1.003-.574 1.003s.43-.143 1.003-.43 1.433-.573 2.293-1.146 1.577-1.29 2.007-1.72c.429-.573.573-1.003.573-1.003s-.43.143-1.003.43c-.574.143-1.433.573-2.293 1.146zm31.813-19.348c.144.287.287.717.43 1.003l2.436-1.576c1.29-1.003 2.15-1.433 2.15-1.433s-1.003.143-2.436.86l-2.58 1.146zm-34.68 60.337l5.302-4.586c.43-.287.86-.573 1.147-.86h-1.003c-.144.143-.43.143-.573.287-1.72.86-3.726 2.436-5.733 4.156l-2.866 2.436h1.863c.573-.43 1.29-.86 1.863-1.433zm52.45-35.256c-.86 0-1.72.143-2.58.287-1.433.286-2.866.573-3.869 1.003l-1.003.716c-.143.287-.287.43-.287.43s.574-.43 1.433-.43c.86-.143 2.437-.143 3.87-.43.859-.143 1.719-.429 2.293-.573l.143-1.003zm-26.511-47.008c1.146-.86 2.006-1.29 2.006-1.29s-.287 0-.717.143l-2.006.717c-.143 0-.143.143-.286.143.286.143.573.143 1.003.287zm-41.559 75.671c1.577-1.003 3.44-2.006 5.589-3.01 1.433-.716 2.866-1.289 4.586-1.863l-.143-1.29-4.873 2.294-5.159 3.009v.86z"/><path d="M846.97 441.848c.859 1.576 1.146 4.299.859 6.736 12.038-12.755 27.372-9.746 44.711 1.003-1.433-4.873 1.72-8.742 3.01-9.889-6.449-7.452-13.328-13.042-20.923-13.902-12.61.287-21.639 6.02-27.657 16.052z"/></g><g class="C"><path d="M921.201 456.18H908.59l-14.617-3.01 10.891.144 16.337 2.866zm-8.168-15.335l-11.465-2.293c-8.311-11.752-17.913-20.351-30.094-21.927l19.203 1.576c10.605 2.866 19.776 12.755 22.356 22.644z"/><path d="M901.568 438.552l11.465 2.293-4.443 3.01-2.579-.574-9.315-2.006 4.872-2.723zm19.633 17.628l-.573 4.873h-4.156l-8.598.43.716-5.303h12.611z"/><path d="M907.874 461.483l8.598-.43-3.153 58.76h-10.747l2.149-58.903 3.153.573zm-61.477-8.599l.573 6.449h-1.863l-.717-6.736 2.007.287zm50.299-11.609l9.171 2.15c-1.863 2.579-2.436 6.592-1.003 9.888l-10.891-.143c-2.58-4.873-2.58-9.315 1.576-13.328.43.43.86.86 1.147 1.433zm-21.209-15.191c-12.897-.287-23.645 7.882-28.517 15.765l-5.016-.717c7.882-12.899 20.923-18.201 33.533-15.048z"/></g><path d="M908.59 456.18l-.716 5.303-3.153-.574-10.748-2.006v-5.733l14.617 3.01zm-64.2-3.583l.716 6.736-11.321 1.863-2.436.43-1.433-6.879 14.474-2.15zm57.178-14.045l-4.872 2.58c-.43-.574-.716-1.003-1.146-1.433-5.876-7.31-12.898-11.896-20.063-13.616-12.611-3.153-25.795 2.15-33.533 15.192l-5.016-3.153c6.735-11.035 16.193-19.061 31.527-21.497l2.866.286c12.324 1.433 21.926 9.889 30.237 21.641z" class="D"/><path d="M833.786 461.196l11.321-1.863h1.863v4.156l-13.041 1.864-.143-4.157zm61.764-2.006v5.016l9.028 2.15.143-5.446-9.171-1.72z" class="C"/><path d="M870.185 418.344l2.866.287 19.203 1.576c5.445 1.433 10.604 4.873 14.617 9.172-4.156-5.159-10.032-9.458-16.337-11.035l-19.203-1.576-2.866-.287c-15.477 2.436-24.792 10.462-31.527 21.498l2.006 1.289c6.879-10.605 16.194-18.488 31.241-20.924zm-38.549 38.266l14.474-2.15 1.862.287c.86-1.147 1.434-3.01 1.577-4.873v-.43-1.147-.573c0-.43 0-.86-.143-1.146v-.144c-.144-1.003-.43-1.863-.86-2.723l-1.003-.143c.143.287.143.716.286 1.003v.143c0 .43.143.86.143 1.147v.573 1.147.43c-.143 1.863-.716 3.726-1.576 4.872l-1.863-.286-14.473 2.15 1.433 6.879 1.146-.144-1.003-4.872zm5.875 56.897v-.86l-2.006-49.588-1.576.287 2.006 47.438v.86l.286 8.169h1.577l-.287-6.306z" class="E"/></svg>