<svg xmlns="http://www.w3.org/2000/svg" width="125" height="115" fill="none" xmlns:v="https://vecta.io/nano"><circle cx="73" cy="63" r="51.5" stroke="#0085ff" stroke-opacity=".6"/><g filter="url(#A)"><circle cx="38.5" cy="23.5" r="18.5" fill="#0085ff"/></g><path d="M44.02 28.8V31H33.7v-1.74l5.56-5.28c.627-.6 1.047-1.12 1.26-1.56.227-.453.34-.9.34-1.34 0-.653-.22-1.153-.66-1.5s-1.087-.52-1.94-.52c-1.427 0-2.52.487-3.28 1.46l-1.82-1.4c.547-.733 1.28-1.3 2.2-1.7.933-.413 1.973-.62 3.12-.62 1.52 0 2.733.36 3.64 1.08s1.36 1.7 1.36 2.94a4.88 4.88 0 0 1-.48 2.14c-.32.667-.933 1.427-1.84 2.28l-3.74 3.56h6.6z" fill="#fff"/><g fill="#0085ff"><path d="M66.742 68.129a1.94 1.94 0 0 0-1.075.326c-.318.212-.566.515-.713.869a1.93 1.93 0 0 0-.11 1.118 1.94 1.94 0 0 0 .53.991c.271.271.615.455.991.53s.765.036 1.118-.11a1.94 1.94 0 0 0 .869-.713 1.93 1.93 0 0 0 .326-1.075 1.94 1.94 0 0 0-1.936-1.936zm0 2.581a.64.64 0 0 1-.358-.109.65.65 0 0 1-.238-.29c-.049-.118-.062-.248-.037-.373a.64.64 0 0 1 .177-.33.65.65 0 0 1 .33-.177c.125-.025.255-.012.373.037a.65.65 0 0 1 .29.238c.071.106.109.231.109.358 0 .171-.068.335-.189.456s-.285.189-.456.189zm24.516-2.581a1.94 1.94 0 0 0-1.075.326c-.318.212-.566.515-.713.869a1.93 1.93 0 0 0-.11 1.118 1.94 1.94 0 0 0 1.521 1.521c.375.075.765.036 1.118-.11a1.94 1.94 0 0 0 .869-.713 1.93 1.93 0 0 0 .326-1.075 1.94 1.94 0 0 0-1.936-1.935zm0 2.581a.64.64 0 0 1-.358-.109.65.65 0 0 1-.238-.29c-.049-.118-.062-.248-.037-.373a.64.64 0 0 1 .177-.33.65.65 0 0 1 .33-.177c.125-.025.255-.012.373.037a.65.65 0 0 1 .29.238c.071.106.109.231.109.358 0 .171-.068.335-.189.456s-.285.189-.456.189z"/><path d="M97.71 66.839v-3.871c-.001-1.026-.409-2.01-1.135-2.736s-1.71-1.134-2.736-1.135h-5.36l-1.774-4.732A3.47 3.47 0 0 0 83.411 52H71.258a3.47 3.47 0 0 0-3.284 2.336l-2.284 4.761h-1.529c-1.026.001-2.01.409-2.736 1.135s-1.134 1.71-1.135 2.736v3.871a1.29 1.29 0 0 0-1.29 1.29v1.29a1.29 1.29 0 0 0 1.29 1.29h1.982c.155 1.075.692 2.058 1.513 2.769s1.87 1.102 2.956 1.102 2.135-.391 2.956-1.102 1.358-1.694 1.513-2.769h15.577c.155 1.075.692 2.058 1.513 2.769s1.87 1.102 2.956 1.102 2.135-.391 2.956-1.102 1.358-1.694 1.513-2.769h1.982a1.3 1.3 0 0 0 .912-.378 1.29 1.29 0 0 0 .378-.912v-1.29a1.29 1.29 0 0 0-1.29-1.29zm-10.608-7.742H79v-3.871h6.65l1.452 3.871zm-25.521 4.516h1.29v.645h-1.29v-.645zm.692 5.806H60.29v-1.29h2.372c-.194.408-.326.843-.39 1.29zm4.469 3.871a3.22 3.22 0 0 1-1.792-.544 3.23 3.23 0 0 1-1.372-3.312c.124-.626.432-1.2.883-1.652s1.026-.758 1.652-.883 1.274-.061 1.864.184 1.093.658 1.448 1.188a3.22 3.22 0 0 1 .544 1.792 3.23 3.23 0 0 1-3.226 3.226zm20.047-3.871H71.211a4.48 4.48 0 0 0-.389-1.29h16.356a4.48 4.48 0 0 0-.389 1.29zm4.469 3.871a3.22 3.22 0 0 1-1.792-.544 3.23 3.23 0 0 1-1.372-3.312c.124-.626.432-1.2.883-1.652s1.026-.758 1.652-.883 1.274-.061 1.864.184 1.093.658 1.448 1.188a3.22 3.22 0 0 1 .544 1.792 3.23 3.23 0 0 1-3.226 3.226zm3.226-6.452c-.022 0-.044.001-.065.004-.843-.829-1.977-1.294-3.16-1.294s-2.317.464-3.16 1.293a.61.61 0 0 0-.066-.003H69.968a.61.61 0 0 0-.066.003 4.5 4.5 0 0 0-3.16-1.293 4.51 4.51 0 0 0-3.16 1.294l-.065-.004h-1.936v-1.29h1.936c.171 0 .335-.068.456-.189s.189-.285.189-.456v-1.935c0-.171-.068-.335-.189-.456s-.285-.189-.456-.189h-1.854c.144-.554.467-1.044.919-1.394a2.58 2.58 0 0 1 1.58-.541h1.936a.64.64 0 0 0 .343-.099c.102-.065.185-.157.238-.267l2.477-5.161a.49.49 0 0 0 .03-.075c.145-.435.423-.814.795-1.082s.819-.412 1.278-.412h12.153a2.18 2.18 0 0 1 1.55.645H71.258c-.171 0-.335.068-.456.189s-.189.285-.189.456v5.161c0 .171.068.335.189.456s.285.189.456.189h22.581a2.59 2.59 0 0 1 1.58.541 2.58 2.58 0 0 1 .919 1.394h-1.854c-.171 0-.335.068-.456.189s-.189.285-.189.456v1.935c0 .171.068.335.189.456s.285.189.456.189h1.935v1.29h-1.935zM77.71 55.226v3.871h-5.806v-3.871h5.807zm18.71 8.387v.645h-1.29v-.645h1.29zm1.29 5.806h-1.982c-.064-.447-.195-.882-.389-1.29h2.372v1.29zM79 62.323h3.226c.171 0 .335-.068.456-.189s.189-.285.189-.456-.068-.335-.189-.456-.285-.189-.456-.189H79c-.171 0-.335.068-.456.189s-.189.285-.189.456.068.335.189.456.285.189.456.189z"/></g><path d="M62 52.5H52m7 3H46m9 18H45m11-7h-6" stroke="#0085ff"/><defs><filter id="A" x="0" y="0" width="77" height="77" filterUnits="userSpaceOnUse" color-interpolation-filters="sRGB"><feFlood flood-opacity="0" result="A"/><feColorMatrix in="SourceAlpha" values="0 0 0 0 0 0 0 0 0 0 0 0 0 0 0 0 0 0 127 0"/><feOffset dy="15"/><feGaussianBlur stdDeviation="10"/><feColorMatrix values="0 0 0 0 0.129412 0 0 0 0 0.588235 0 0 0 0 0.952941 0 0 0 0.2 0"/><feBlend in2="A"/><feBlend in="SourceGraphic"/></filter></defs></svg>