<svg xmlns="http://www.w3.org/2000/svg" xmlns:xlink="http://www.w3.org/1999/xlink" width="125" height="115" fill="none" xmlns:v="https://vecta.io/nano"><circle cx="73" cy="63" r="51.5" stroke="#0085ff" stroke-opacity=".6"/><g filter="url(#A)"><circle cx="38.5" cy="23.5" r="18.5" fill="#0085ff"/></g><path d="M45.36 27.82h-2.48V31h-2.52v-3.18h-7.68v-1.8l6.9-9.02h2.78l-6.5 8.62h4.58V22.8h2.44v2.82h2.48v2.2z" fill="#fff"/><g fill="#d2e4ff"><path d="M82.188 47.626v2.632H63.806v-2.632c0-1.089.886-1.969 1.975-1.969h14.438c1.089 0 1.969.879 1.969 1.969z"/><path d="M63.819 54.851v-1.326l-.013-.014v-.866-2.389h18.382v1.201c-.007.033-.007.072-.007.112v1.956 1.326c0 .04 0 .079.007.119v5.125h-5.25-1.312-.656-3.937-.656-6.569v-5.007c.013-.079.013-.157.013-.236z"/></g><g fill="#0085ff"><use xlink:href="#B"/><use xlink:href="#B" x="-3.941"/><path d="M84.805 60.76h-7.868c-.363 0-.656-.293-.656-.656s.293-.656.656-.656h7.868c.363 0 .656.293.656.656s-.293.656-.656.656z"/><use xlink:href="#C"/><use xlink:href="#D"/><use xlink:href="#D" x="7.875"/><use xlink:href="#E"/><use xlink:href="#F"/><use xlink:href="#G"/><path d="M93.344 63.387c-.363 0-.656-.293-.656-.656 0-1.087-.884-1.971-1.97-1.971-.363 0-.656-.293-.656-.656s.293-.656.656-.656A3.29 3.29 0 0 1 94 62.731c0 .362-.293.656-.656.656z"/><use xlink:href="#H"/><path d="M92.031 71.255a1.97 1.97 0 0 1-1.969-1.969c0-.363.293-.656.656-.656s.656.293.656.656.294.656.656.656.656-.294.656-.656.293-.656.656-.656.656.293.656.656a1.97 1.97 0 0 1-1.969 1.969zm-17.062-7.877A1.97 1.97 0 0 1 73 61.409a1.97 1.97 0 0 1 1.969-1.969c.363 0 .656.293.656.656s-.293.656-.656.656-.656.294-.656.656.294.656.656.656.656.293.656.656-.293.656-.656.656z"/><use xlink:href="#I"/><path d="M90.687 80.438c-.363 0-.656-.293-.656-.656a1.3 1.3 0 0 0-1.297-1.297 1.3 1.3 0 0 0-1.299 1.297c0 .363-.293.656-.656.656s-.656-.293-.656-.656c0-1.439 1.171-2.61 2.611-2.61s2.61 1.171 2.61 2.61c0 .363-.293.656-.656.656zm-3.908-20.336a5.26 5.26 0 0 1-5.253-5.253c0-.363.293-.656.656-.656s.656.293.656.656c0 2.173 1.767 3.94 3.94 3.94s3.94-1.768 3.94-3.94c0-.363.293-.656.656-.656s.656.293.656.656a5.26 5.26 0 0 1-5.253 5.253z"/><path d="M82.182 55.507c-.363 0-.656-.293-.656-.656v-3.279c0-.363.293-.656.656-.656s.656.293.656.656v3.279c0 .363-.293.656-.656.656zm9.192 0c-.363 0-.656-.293-.656-.656V52.21c0-.363.293-.656.656-.656s.656.293.656.656v2.641c0 .363-.293.656-.656.656z"/><use xlink:href="#J"/><use xlink:href="#J" x="0.003" y="-11.154"/><use xlink:href="#K"/><use xlink:href="#L"/><path d="M85.468 62.065c-.241 0-.473-.133-.588-.363-.162-.324-.031-.719.293-.881l1.311-.656c.325-.161.718-.031.881.293s.031.719-.293.881l-1.311.656a.65.65 0 0 1-.293.07z"/><path d="M88.088 62.066c-.1 0-.202-.022-.296-.071-.323-.163-.452-.559-.288-.882l.663-1.307c.163-.324.559-.454.882-.288s.452.559.288.882l-.663 1.307c-.115.228-.347.359-.586.359z"/><path d="M88.088 62.066a.66.66 0 0 1-.293-.069l-1.311-.656c-.324-.162-.455-.557-.293-.881a.66.66 0 0 1 .881-.293l1.311.656c.324.162.456.557.293.881-.115.23-.347.362-.588.362zm-5.916-7.874c-.169 0-.339-.065-.467-.195-.255-.258-.253-.673.005-.928l1.326-1.312c.257-.255.673-.253.928.005s.253.673-.005.928l-1.326 1.313a.66.66 0 0 1-.461.19zm9.188 0c-.169 0-.339-.065-.467-.195l-1.299-1.312c-.255-.258-.253-.673.005-.928s.673-.253.928.005l1.299 1.313c.255.258.253.673-.005.928-.128.126-.295.19-.461.19z"/><path d="M86.768 53.545a9.93 9.93 0 0 1-3.528-.721c-.333-.143-.486-.528-.343-.862a.66.66 0 0 1 .862-.344c.014.007 1.452.614 3.01.614 1.571 0 3.023-.608 3.038-.615a.66.66 0 0 1 .861.348c.142.334-.014.719-.348.861-.071.029-1.717.719-3.552.719zm-4.586-1.317c-.363 0-.656-.293-.656-.656a3.95 3.95 0 0 1 3.945-3.945c.363 0 .656.293.656.656s-.293.656-.656.656c-1.452 0-2.633 1.18-2.633 2.632 0 .362-.293.656-.656.656z"/><path d="M88.747 48.94h-3.276c-.363 0-.656-.293-.656-.656s.293-.656.656-.656h3.276c.363 0 .656.293.656.656s-.293.656-.656.656z"/><path d="M88.747 50.254c-.363 0-.656-.293-.656-.656v-1.315c0-.363.293-.656.656-.656s.656.293.656.656v1.315c0 .363-.293.656-.656.656z"/><path d="M91.36 52.866c-.363 0-.656-.293-.656-.656 0-1.078-.877-1.955-1.955-1.955-.363 0-.656-.293-.656-.656s.293-.656.656-.656a3.27 3.27 0 0 1 3.267 3.267c0 .363-.294.656-.656.656z"/><use xlink:href="#B" x="-31.492"/><path d="M61.195 60.759c-.363 0-.656-.293-.656-.656v-1.065c0-.363.293-.656.656-.656s.656.293.656.656v1.065c0 .362-.294.656-.656.656z"/><path d="M63.809 60.76h-2.613c-.363 0-.656-.293-.656-.656s.293-.656.656-.656h2.613c.363 0 .656.293.656.656s-.293.656-.656.656z"/><use xlink:href="#C" x="-33.464"/><use xlink:href="#D" x="-19.682"/><use xlink:href="#D" x="-27.557"/><use xlink:href="#E" x="-19.682"/><use xlink:href="#F" x="-35.432"/><use xlink:href="#G" x="-27.558"/><path d="M52.656 63.387c-.363 0-.656-.293-.656-.656a3.29 3.29 0 0 1 3.283-3.284c.363 0 .656.293.656.656s-.293.656-.656.656c-1.086 0-1.97.884-1.97 1.971 0 .362-.293.656-.656.656z"/><use xlink:href="#H" x="-40.688"/><path d="M53.969 71.255A1.97 1.97 0 0 1 52 69.286c0-.363.293-.656.656-.656s.656.293.656.656.294.656.656.656.656-.294.656-.656.293-.656.656-.656.656.293.656.656a1.97 1.97 0 0 1-1.969 1.969z"/><use xlink:href="#I" x="-23.62"/><path d="M59.221 80.438c-.363 0-.656-.293-.656-.656a1.3 1.3 0 0 0-1.299-1.297 1.3 1.3 0 0 0-1.297 1.297c0 .363-.293.656-.656.656s-.656-.293-.656-.656c0-1.439 1.171-2.61 2.61-2.61s2.611 1.171 2.611 2.61c0 .363-.293.656-.656.656zm0-20.336a5.26 5.26 0 0 1-5.253-5.253c0-.363.293-.656.656-.656s.656.293.656.656c0 2.173 1.767 3.94 3.94 3.94s3.94-1.767 3.94-3.94c0-.363.293-.656.656-.656s.656.293.656.656a5.26 5.26 0 0 1-5.253 5.253zm4.597-6.567c-.363 0-.656-.293-.656-.656 0-2.173-1.767-3.94-3.94-3.94s-3.94 1.767-3.94 3.94c0 .363-.293.656-.656.656s-.656-.293-.656-.656a5.26 5.26 0 0 1 5.253-5.253 5.26 5.26 0 0 1 5.253 5.253c0 .363-.293.656-.656.656z"/><path d="M63.818 55.508c-.363 0-.656-.293-.656-.656V52.88c0-.363.293-.656.656-.656s.656.293.656.656v1.971c0 .363-.293.656-.656.656zm-9.192-.001c-.363 0-.656-.293-.656-.656v-1.984c0-.363.293-.656.656-.656s.656.293.656.656v1.984c0 .363-.293.656-.656.656z"/><use xlink:href="#J" x="-27.557"/><use xlink:href="#J" x="-27.56" y="-11.154"/><use xlink:href="#K" x="-38.063"/><path d="M60.532 62.066c-.1 0-.201-.022-.296-.071-.323-.163-.452-.559-.288-.882l.663-1.307c.163-.324.559-.454.882-.288s.452.559.288.882l-.663 1.307c-.116.228-.346.359-.586.359z"/><path d="M60.532 62.066a.66.66 0 0 1-.293-.069l-1.311-.656c-.324-.162-.455-.557-.293-.881a.66.66 0 0 1 .881-.293l1.311.656c.324.162.455.557.293.881-.116.23-.347.362-.588.362z"/><use xlink:href="#L" x="-27.556"/><path d="M57.912 62.065c-.241 0-.473-.133-.588-.363-.162-.324-.031-.719.293-.881l1.311-.656a.66.66 0 0 1 .881.293c.162.324.031.719-.293.881l-1.311.656a.65.65 0 0 1-.293.07zm5.916-7.873c-.167 0-.334-.064-.461-.19l-1.326-1.312c-.258-.255-.26-.67-.005-.928s.67-.26.928-.005l1.326 1.313c.258.255.26.67.005.928a.65.65 0 0 1-.467.195zm-9.188 0c-.167 0-.334-.064-.461-.19-.258-.255-.26-.67-.005-.928l1.299-1.312c.255-.259.671-.26.928-.005s.26.67.005.928l-1.299 1.313a.65.65 0 0 1-.467.195z"/><path d="M59.233 53.546c-1.835 0-3.481-.69-3.55-.719-.333-.142-.489-.526-.348-.86s.526-.49.86-.349c.014.006 1.478.615 3.038.615 1.568 0 2.995-.607 3.009-.613.33-.143.719.009.862.343s-.01.719-.343.862c-.068.03-1.693.721-3.529.721z"/><path d="M82.189 60.754h-18.38c-.363 0-.656-.293-.656-.656v-9.842c0-.363.293-.656.656-.656h18.38c.363 0 .656.293.656.656v9.842c0 .363-.293.656-.656.656zm-17.724-1.312h17.068v-8.53H64.465v8.53zm18.376 3.938h-7.872c-.363 0-.656-.293-.656-.656s.293-.656.656-.656h7.872c.363 0 .656.293.656.656s-.293.656-.656.656z"/><use xlink:href="#M"/><use xlink:href="#N"/><path d="M71.029 63.378c-.363 0-.656-.293-.656-.656s.293-.656.656-.656.656-.294.656-.656-.294-.656-.656-.656-.656-.293-.656-.656.293-.656.656-.656a1.97 1.97 0 0 1 1.969 1.969 1.97 1.97 0 0 1-1.969 1.969z"/><path d="M71.029 63.38h-7.874c-.363 0-.656-.293-.656-.656s.293-.656.656-.656h7.874c.363 0 .656.293.656.656s-.293.656-.656.656z"/><use xlink:href="#M" x="-5.25"/><use xlink:href="#N" x="-5.91"/><path d="M63.809 48.284c-.363 0-.656-.293-.656-.656A2.63 2.63 0 0 1 65.78 45c.363 0 .656.293.656.656s-.293.656-.656.656a1.32 1.32 0 0 0-1.315 1.315c0 .363-.293.656-.656.656z"/><use xlink:href="#O"/><path d="M82.189 48.284c-.363 0-.656-.293-.656-.656 0-.724-.59-1.315-1.315-1.315-.363 0-.656-.293-.656-.656s.293-.656.656-.656a2.63 2.63 0 0 1 2.628 2.628c0 .363-.293.656-.656.656z"/><use xlink:href="#O" x="18.38"/><path d="M80.217 46.313H65.78c-.363 0-.656-.293-.656-.656s.293-.656.656-.656h14.438c.363 0 .656.293.656.656s-.293.656-.656.656zm-1.312 9.192H67.092c-.363 0-.656-.293-.656-.656s.293-.656.656-.656h11.813c.363 0 .656.293.656.656s-.293.656-.656.656z"/><use xlink:href="#P"/><use xlink:href="#P" x="11.813"/></g><defs><filter id="A" x="0" y="0" width="77" height="77" filterUnits="userSpaceOnUse" color-interpolation-filters="sRGB"><feFlood flood-opacity="0" result="A"/><feColorMatrix in="SourceAlpha" values="0 0 0 0 0 0 0 0 0 0 0 0 0 0 0 0 0 0 127 0"/><feOffset dy="15"/><feGaussianBlur stdDeviation="10"/><feColorMatrix values="0 0 0 0 0.129412 0 0 0 0 0.588235 0 0 0 0 0.952941 0 0 0 0.2 0"/><feBlend in2="A"/><feBlend in="SourceGraphic"/></filter><path id="B" d="M88.746 60.759c-.363 0-.656-.293-.656-.656v-1.065c0-.363.293-.656.656-.656s.656.293.656.656v1.065c0 .362-.293.656-.656.656z"/><path id="C" d="M90.718 60.759h-1.971c-.363 0-.656-.293-.656-.656s.293-.656.656-.656h1.971c.363 0 .656.293.656.656s-.293.656-.656.656z"/><path id="D" d="M82.841 80.438c-.363 0-.656-.293-.656-.656v-11.81c0-.363.293-.656.656-.656s.656.293.656.656v11.81c0 .363-.293.656-.656.656z"/><path id="E" d="M82.841 69.942c-.363 0-.656-.293-.656-.656v-6.562c0-.363.293-.656.656-.656s.656.293.656.656v6.562c0 .363-.293.656-.656.656z"/><path id="F" d="M90.716 69.943c-.363 0-.656-.293-.656-.656v-4.591c0-.363.293-.656.656-.656s.656.293.656.656v4.591c0 .363-.293.656-.656.656z"/><path id="G" d="M86.779 80.439c-.363 0-.656-.293-.656-.656v-8.529c0-.363.293-.656.656-.656s.656.293.656.656v8.529c0 .363-.293.656-.656.656z"/><path id="H" d="M93.344 69.942c-.363 0-.656-.293-.656-.656v-6.555c0-.363.293-.656.656-.656s.656.293.656.656v6.555c0 .363-.293.656-.656.656z"/><path id="I" d="M86.779 80.439c-.363 0-.656-.293-.656-.656 0-.724-.589-1.312-1.312-1.312s-1.312.589-1.312 1.313c0 .363-.293.656-.656.656s-.656-.293-.656-.656a2.63 2.63 0 0 1 2.625-2.625 2.63 2.63 0 0 1 2.625 2.625c0 .363-.293.656-.656.656z"/><path id="J" d="M90.716 80.439h-7.875c-.363 0-.656-.293-.656-.656s.293-.656.656-.656h7.875c.363 0 .656.293.656.656s-.293.656-.656.656z"/><path id="K" d="M93.344 69.285h-2.625c-.363 0-.656-.293-.656-.656s.293-.656.656-.656h2.625c.363 0 .656.293.656.656s-.293.656-.656.656z"/><path id="L" d="M85.468 62.066c-.24 0-.471-.131-.586-.36l-.663-1.307c-.164-.323-.035-.719.288-.882s.718-.035.882.288l.663 1.307c.164.323.035.719-.288.882a.64.64 0 0 1-.296.072z"/><path id="M" d="M75.624 63.38c-.363 0-.656-.293-.656-.656v-2.626c0-.363.293-.656.656-.656s.656.293.656.656v2.626c0 .363-.293.656-.656.656z"/><path id="N" d="M76.281 63.378h-.656c-.363 0-.656-.293-.656-.656s.293-.656.656-.656h.656c.363 0 .656.293.656.656s-.293.656-.656.656z"/><path id="O" d="M63.809 50.912c-.363 0-.656-.293-.656-.656v-2.628c0-.363.293-.656.656-.656s.656.293.656.656v2.628c0 .363-.293.656-.656.656z"/><path id="P" d="M67.092 55.505c-.363 0-.656-.293-.656-.656v-.658c0-.363.293-.656.656-.656s.656.293.656.656v.658c0 .363-.293.656-.656.656z"/></defs></svg>