<svg xmlns="http://www.w3.org/2000/svg" xmlns:xlink="http://www.w3.org/1999/xlink" width="125" height="115" fill="none" xmlns:v="https://vecta.io/nano"><circle cx="73" cy="63" r="51.5" stroke="#0085ff" stroke-opacity=".6"/><g filter="url(#A)"><circle cx="38.5" cy="23.5" r="18.5" fill="#0085ff"/></g><path d="M38.84 22.78c1.293.16 2.28.6 2.96 1.32s1.02 1.62 1.02 2.7a4.13 4.13 0 0 1-.62 2.22c-.413.667-1.04 1.2-1.88 1.6-.827.387-1.84.58-3.04.58-1 0-1.967-.14-2.9-.42-.92-.293-1.707-.693-2.36-1.2l1.12-2.02c.507.427 1.12.767 1.84 1.02a7.22 7.22 0 0 0 2.26.36c.92 0 1.64-.187 2.16-.56.533-.387.8-.907.8-1.56s-.253-1.16-.76-1.52c-.493-.373-1.253-.56-2.28-.56h-1.28v-1.78l3.18-3.78H32.7V17h9.54v1.74l-3.4 4.04z" fill="#fff"/><path d="M74.938 51.755a3.05 3.05 0 0 1-3.047-3.047c0-1.688 1.365-6.1 3.047-6.1s3.047 4.412 3.047 6.1a3.05 3.05 0 0 1-3.047 3.047zm1.828 15.838l2.431-.372 9.342-1.42v-.006c.134-.018.274-.031.414-.031a2.44 2.44 0 0 1 2.438 2.438c0 .902-.488 1.688-1.219 2.108l-16.453 8.86-13.406-1.828V63.327h4.875l5.484 1.067 4.077.798a2.43 2.43 0 0 1 2.017 2.401z" fill="#d2e4ff"/><g fill="#0085ff"><path d="M55.455 77.342a.61.61 0 0 1-.612-.609c0-.337.269-.609.606-.609h.007a.61.61 0 0 1 .609.609.61.61 0 0 1-.609.609zm34.718-6.42c-.211 0-.416-.109-.528-.304a.61.61 0 0 1 .222-.832c.564-.326.914-.933.914-1.584a1.83 1.83 0 0 0-1.828-1.828.61.61 0 0 1-.609-.609.61.61 0 0 1 .609-.609A3.05 3.05 0 0 1 92 68.201a3.06 3.06 0 0 1-1.522 2.639.6.6 0 0 1-.305.082z"/><path d="M73.719 79.779a.61.61 0 0 1-.289-1.146l16.453-8.859a.61.61 0 0 1 .825.248.61.61 0 0 1-.248.825l-16.453 8.858c-.091.049-.19.073-.288.073z"/><path d="M73.719 79.779c-.027 0-.055-.002-.083-.006l-13.406-1.828a.61.61 0 0 1-.522-.686.61.61 0 0 1 .686-.522l13.406 1.828a.61.61 0 0 1 .522.686.61.61 0 0 1-.603.527z"/><path d="M60.313 78.559h-1.824a.61.61 0 0 1-.609-.609.61.61 0 0 1 .609-.609h1.215V63.326h-1.215a.61.61 0 0 1-.609-.609.61.61 0 0 1 .609-.609h1.824a.61.61 0 0 1 .609.609V77.95a.61.61 0 0 1-.609.609zm16.452-10.358a.61.61 0 0 1-.091-1.212l11.771-1.792a.61.61 0 0 1 .694.511.61.61 0 0 1-.511.694l-11.772 1.792a.56.56 0 0 1-.092.007z"/><path d="M74.328 70.639a.61.61 0 0 1-.609-.609.61.61 0 0 1 .609-.609 1.83 1.83 0 0 0 1.828-1.828 1.82 1.82 0 0 0-1.513-1.801.61.61 0 0 1-.497-.704.61.61 0 0 1 .704-.497c1.463.251 2.525 1.514 2.525 3.002a3.05 3.05 0 0 1-3.047 3.047z"/><path d="M74.747 65.8a.59.59 0 0 1-.117-.012l-9.56-1.864a.61.61 0 0 1-.481-.715.61.61 0 0 1 .715-.481l9.56 1.864a.61.61 0 0 1-.116 1.208z"/><path d="M65.188 63.936h-4.874a.61.61 0 0 1-.609-.609.61.61 0 0 1 .609-.609h4.874a.61.61 0 0 1 .609.609.61.61 0 0 1-.609.609zm8.884 6.689a.64.64 0 0 1-.047-.002l-7.665-.595a.61.61 0 0 1-.561-.654.61.61 0 0 1 .654-.561l7.665.595a.61.61 0 0 1 .561.654.61.61 0 0 1-.607.562z"/><path d="M88.536 66.408a.61.61 0 0 1-.6-.509.61.61 0 0 1 .5-.701c.17-.029.344-.043.517-.043a.61.61 0 0 1 .609.609.61.61 0 0 1-.609.609 1.93 1.93 0 0 0-.316.026.63.63 0 0 1-.101.008zm-14.208 4.231a2.83 2.83 0 0 1-.324-.018.61.61 0 0 1-.537-.673c.038-.335.335-.58.673-.537a1.66 1.66 0 0 0 .187.01.61.61 0 0 1 .609.609.61.61 0 0 1-.609.609zm-15.843 9.14h-4.876A.61.61 0 0 1 53 79.17a.61.61 0 0 1 .609-.609h4.266V62.107h-4.266a.61.61 0 0 1-.609-.609.61.61 0 0 1 .609-.609h4.876a.61.61 0 0 1 .609.609V79.17a.61.61 0 0 1-.609.609zm13.404-23.152a1.83 1.83 0 0 1-1.828-1.828 1.83 1.83 0 0 1 1.828-1.828.61.61 0 0 1 .609.609.61.61 0 0 1-.609.609.61.61 0 0 0-.609.609.61.61 0 0 0 .609.609.61.61 0 0 1 .609.609.61.61 0 0 1-.609.609zm6.092 0a.61.61 0 0 1-.609-.609.61.61 0 0 1 .609-.609.61.61 0 0 0 .609-.609.61.61 0 0 0-.609-.609.61.61 0 0 1-.609-.609.61.61 0 0 1 .609-.609 1.83 1.83 0 0 1 1.828 1.828 1.83 1.83 0 0 1-1.828 1.828z"/><use xlink:href="#B"/><use xlink:href="#B" y="2.437"/><path d="M79.2 67.83a.61.61 0 0 1-.609-.609V54.799a.61.61 0 0 1 .609-.609.61.61 0 0 1 .609.609v12.422a.61.61 0 0 1-.609.609zm-8.529-2.827a.61.61 0 0 1-.609-.609v-9.595a.61.61 0 0 1 .609-.609.61.61 0 0 1 .609.609v9.595a.61.61 0 0 1-.609.609zm4.267-9.594a.61.61 0 0 1-.609-.609v-6.096a.61.61 0 0 1 .609-.609.61.61 0 0 1 .609.609V54.8a.61.61 0 0 1-.609.609z"/><path d="M74.938 52.362a3.66 3.66 0 0 1-3.656-3.656c0-1.617 1.337-6.706 3.656-6.706s3.656 5.089 3.656 6.706a3.66 3.66 0 0 1-3.656 3.656zm0-9.143c-1.047 0-2.437 3.765-2.437 5.487a2.44 2.44 0 0 0 2.438 2.438 2.44 2.44 0 0 0 2.438-2.437c0-1.722-1.391-5.487-2.437-5.487z"/></g><defs><filter id="A" x="0" y="0" width="77" height="77" filterUnits="userSpaceOnUse" color-interpolation-filters="sRGB"><feFlood flood-opacity="0" result="A"/><feColorMatrix in="SourceAlpha" values="0 0 0 0 0 0 0 0 0 0 0 0 0 0 0 0 0 0 127 0"/><feOffset dy="15"/><feGaussianBlur stdDeviation="10"/><feColorMatrix values="0 0 0 0 0.129412 0 0 0 0 0.588235 0 0 0 0 0.952941 0 0 0 0.2 0"/><feBlend in2="A"/><feBlend in="SourceGraphic"/></filter><path id="B" d="M77.981 54.19h-6.091a.61.61 0 0 1-.609-.609.61.61 0 0 1 .609-.609h6.091a.61.61 0 0 1 .609.609.61.61 0 0 1-.609.609z"/></defs></svg>