<svg xmlns="http://www.w3.org/2000/svg" xmlns:xlink="http://www.w3.org/1999/xlink" width="125" height="115" fill="none" xmlns:v="https://vecta.io/nano"><circle cx="73" cy="63" r="51.5" stroke="#0085ff" stroke-opacity=".6"/><g filter="url(#A)"><circle cx="38.5" cy="23.5" r="18.5" fill="#0085ff"/></g><path d="M39.72 17v14h-2.6V19.18h-2.96V17h5.56z" fill="#fff"/><g fill="#d2e4ff"><path d="M87.153 83.421H59.847a1.23 1.23 0 0 1-1.232-1.232V45.543a1.23 1.23 0 0 1 1.232-1.232h27.306a1.23 1.23 0 0 1 1.232 1.232v36.646a1.23 1.23 0 0 1-1.232 1.232z"/><path d="M87.154 44.311h-.821v35.828a1.23 1.23 0 0 1-1.231 1.231H58.615v.821a1.23 1.23 0 0 0 1.231 1.231h27.308a1.23 1.23 0 0 0 1.231-1.231V45.542a1.23 1.23 0 0 0-1.231-1.231zM75.473 46.73h-3.946v-2.143c0-1.09.883-1.973 1.973-1.973s1.973.883 1.973 1.973v2.143z"/><path d="M73.5 42.615a1.97 1.97 0 0 0-.615.098c.788.259 1.358 1 1.358 1.874v2.143h1.231v-2.143c0-1.09-.883-1.973-1.973-1.973z"/></g><g fill="#fff"><path d="M67.758 79.752h16.578a1.23 1.23 0 0 0 1.23-1.231V49.904a1.23 1.23 0 0 0-1.23-1.231H62.664a1.23 1.23 0 0 0-1.231 1.231v23.525a.41.41 0 0 0 .12.29l5.914 5.914a.41.41 0 0 0 .29.12z"/><path d="M84.336 48.673h-1.527v27.091a1.23 1.23 0 0 1-1.231 1.231H65a.41.41 0 0 1-.29-.12l2.757 2.758a.41.41 0 0 0 .29.12h16.578a1.23 1.23 0 0 0 1.231-1.231V49.904a1.23 1.23 0 0 0-1.231-1.231z"/><path d="M66.801 73.631c.416 0 .754.337.754.754v5.312c-.031-.018-.061-.038-.087-.064l-5.914-5.914c-.026-.026-.046-.056-.064-.087h5.312z"/><path d="M66.801 73.631H64.68c.416 0 .754.337.754.754v3.213l2.034 2.034c.026.026.056.046.087.064v-5.312c0-.416-.337-.754-.754-.754z"/></g><g fill="#d2e4ff"><path d="M78.76 50.351l-.909.583a.46.46 0 0 1-.496 0l-.873-.559a.46.46 0 0 0-.496 0l-.872.559a.46.46 0 0 1-.496 0l-.873-.559a.46.46 0 0 0-.496 0l-.872.559a.46.46 0 0 1-.496 0l-.872-.559a.46.46 0 0 0-.496 0l-.872.559a.46.46 0 0 1-.496 0l-.909-.582a.46.46 0 0 1-.211-.387v-2.721a.82.82 0 0 1 .82-.82h9.303a.82.82 0 0 1 .82.82v2.721a.46.46 0 0 1-.212.387z"/><path d="M78.151 46.423h-1.875a.82.82 0 0 1 .82.82v2.721a.46.46 0 0 1-.211.387l-.219.14.69.442a.46.46 0 0 0 .496 0l.909-.583a.46.46 0 0 0 .212-.387v-2.721a.82.82 0 0 0-.82-.82z"/></g><g fill="#0085ff"><path d="M76.537 82.806H59.846c-.339 0-.615-.276-.615-.615V52.778c0-.34-.275-.615-.615-.615s-.615.275-.615.615v29.413a1.85 1.85 0 0 0 1.846 1.846h16.692c.34 0 .615-.275.615-.615s-.275-.615-.615-.615zm10.617-39.109H75.93C75.566 42.707 74.614 42 73.5 42s-2.066.707-2.43 1.697H59.846A1.85 1.85 0 0 0 58 45.542v4.419c0 .34.275.615.615.615s.615-.275.615-.615v-4.419c0-.339.276-.615.615-.615h11.066v.881h-2.064a1.44 1.44 0 0 0-1.436 1.436v.814h-4.748a1.85 1.85 0 0 0-1.846 1.846v23.524a1.03 1.03 0 0 0 .3.725l5.914 5.914a1.03 1.03 0 0 0 .725.3h16.578a1.85 1.85 0 0 0 1.846-1.846V49.904a1.85 1.85 0 0 0-1.846-1.846h-4.749v-.814a1.44 1.44 0 0 0-1.436-1.436h-2.063v-.881h11.066c.339 0 .615.276.615.615v36.649c0 .339-.276.615-.615.615h-7.66c-.34 0-.615.275-.615.615s.276.615.615.615h7.66A1.85 1.85 0 0 0 89 82.191V45.542a1.85 1.85 0 0 0-1.846-1.846zm-24.202 30.55h3.849c.076 0 .138.062.138.138v3.849l-3.987-3.987zm21.384-24.958c.339 0 .615.276.615.615v28.618c0 .339-.276.615-.615.615H68.17v-4.752a1.37 1.37 0 0 0-1.369-1.369h-4.752V49.904c0-.339.276-.615.615-.615h4.748v.676a1.07 1.07 0 0 0 .495.905l.909.582a1.08 1.08 0 0 0 1.16 0l.788-.505.788.505c.352.226.808.226 1.16 0l.788-.505.788.505c.352.226.807.226 1.16 0l.788-.505.788.505c.176.113.378.169.58.169s.404-.056.58-.169l.909-.583a1.07 1.07 0 0 0 .495-.905v-.676h4.749zm-5.98-2.045v2.454a.33.33 0 0 1-.152.278l-.601.385-.788-.505c-.176-.113-.378-.169-.58-.169s-.404.056-.58.169l-.788.505-.788-.505c-.352-.226-.807-.226-1.159 0l-.788.505-.788-.505a1.08 1.08 0 0 0-1.16 0l-.788.505-.6-.385a.33.33 0 0 1-.152-.278v-2.454c0-.113.092-.205.205-.205h9.303c.114 0 .205.092.205.205zm-6.213-1.436v-1.22a1.36 1.36 0 0 1 1.358-1.358 1.36 1.36 0 0 1 1.357 1.358v1.22h-2.715 0zm-6.269 10.417a.902.902 0 1 0-.69-1.666.902.902 0 1 0 .69 1.666zm.002 5.666a.901.901 0 0 0-.69-1.665.901.901 0 0 0 .69 1.665zm.002 5.689a.902.902 0 0 0-.69-1.666.902.902 0 0 0 .69 1.666zm2.523-12.187c0 .34.276.615.615.615h11.283c.34 0 .615-.275.615-.615s-.275-.615-.615-.615H69.016c-.34 0-.615.276-.615.615zm.615 3.448h8.998c.34 0 .615-.276.615-.615s-.275-.615-.615-.615h-8.998c-.34 0-.615.275-.615.615s.275.615.615.615z"/><use xlink:href="#B"/><path d="M80.299 66.109H69.016c-.34 0-.615.276-.615.615s.276.615.615.615h11.283c.34 0 .615-.275.615-.615s-.275-.615-.615-.615z"/><use xlink:href="#B" y="8.498"/><path d="M78.014 71.775h-8.998c-.34 0-.615.275-.615.615s.276.615.615.615h8.998c.34 0 .615-.275.615-.615s-.275-.615-.615-.615z"/></g><defs><filter id="A" x="0" y="0" width="77" height="77" filterUnits="userSpaceOnUse" color-interpolation-filters="sRGB"><feFlood flood-opacity="0" result="A"/><feColorMatrix in="SourceAlpha" values="0 0 0 0 0 0 0 0 0 0 0 0 0 0 0 0 0 0 127 0"/><feOffset dy="15"/><feGaussianBlur stdDeviation="10"/><feColorMatrix values="0 0 0 0 0.129412 0 0 0 0 0.588235 0 0 0 0 0.952941 0 0 0 0.2 0"/><feBlend in2="A"/><feBlend in="SourceGraphic"/></filter><path id="B" d="M80.299 60.444H69.016c-.34 0-.615.275-.615.615s.276.615.615.615h11.283c.34 0 .615-.275.615-.615s-.275-.615-.615-.615z"/></defs></svg>