<svg xmlns="http://www.w3.org/2000/svg" width="23" height="23" fill="#0085ff" xmlns:v="https://vecta.io/nano"><path d="M18.177 14.248c-.471-.49-1.039-.752-1.641-.752s-1.17.257-1.66.748l-1.534 1.529-.374-.194-.481-.257c-1.437-.913-2.743-2.102-3.995-3.641-.607-.767-1.015-1.413-1.311-2.068l1.126-1.107.408-.413c1.019-1.019 1.019-2.34 0-3.359L7.391 3.408l-.451-.461-.913-.903c-.471-.466-1.034-.714-1.626-.714s-1.165.248-1.65.714L1.09 3.719A3.55 3.55 0 0 0 .037 5.976C-.08 7.393.338 8.714.658 9.578c.786 2.121 1.961 4.087 3.714 6.194 2.126 2.539 4.684 4.544 7.607 5.956 1.117.529 2.607 1.155 4.272 1.262l.306.01c1.121 0 2.063-.403 2.801-1.204.005-.01.015-.015.019-.024.252-.306.544-.582.849-.879l.631-.626c.481-.5.733-1.082.733-1.68s-.257-1.18-.748-1.665l-2.665-2.675zm1.738 5.112l-.592.592-.937.971c-.49.524-1.068.772-1.825.772-.073 0-.15 0-.223-.005-1.442-.092-2.781-.655-3.786-1.136a21.55 21.55 0 0 1-7.165-5.612c-1.655-1.995-2.762-3.84-3.495-5.82-.451-1.209-.616-2.15-.544-3.039a2.23 2.23 0 0 1 .67-1.442l1.655-1.655c.238-.223.49-.345.738-.345.306 0 .553.184.709.34l.015.015.874.869.461.471L7.794 5.66c.515.515.515.99 0 1.505l-.417.417-1.218 1.184c-.01.01-.019.015-.024.024-.417.417-.34.825-.252 1.102l.015.044c.345.835.83 1.621 1.568 2.558l.005.005c1.34 1.65 2.752 2.937 4.311 3.922.199.126.403.228.597.325l.481.257.058.034c.165.082.32.121.48.121.403 0 .655-.252.738-.335l1.66-1.66c.165-.165.427-.364.733-.364.301 0 .548.189.699.354l2.684 2.684c.5.495.5 1.005.005 1.519zM12.43 5.471c1.272.214 2.427.816 3.35 1.738a6.19 6.19 0 0 1 1.738 3.35.65.65 0 0 0 .646.544c.039 0 .073-.005.112-.01.359-.058.597-.398.539-.757a7.48 7.48 0 0 0-2.102-4.053c-1.112-1.111-2.515-1.84-4.053-2.102a.66.66 0 0 0-.757.534.65.65 0 0 0 .529.757zm10.543 4.675c-.432-2.534-1.626-4.84-3.461-6.675S15.371.442 12.837.01c-.354-.063-.689.18-.753.534a.66.66 0 0 0 .539.757c2.262.383 4.325 1.456 5.966 3.092s2.709 3.704 3.092 5.966a.65.65 0 0 0 .646.544c.039 0 .073-.005.112-.01.354-.053.597-.393.534-.748z"/></svg>