<svg xmlns="http://www.w3.org/2000/svg" width="76" height="57" fill="none" xmlns:v="https://vecta.io/nano"><g fill="#77a4e5"><path d="M72.992 43.267c-.145-.126-.192-.33-.115-.506.355-.816.531-1.729.475-2.688a5.91 5.91 0 0 0-5.374-5.511c-.541-.045-1.067-.015-1.57.078a.44.44 0 0 1-.519-.455l.013-.422a7.53 7.53 0 0 0-7.828-7.524 7.44 7.44 0 0 0-3.42.984A13.32 13.32 0 0 1 48.027 29h-8.371c-7.279 0-13.196-5.871-13.252-13.15a7.53 7.53 0 0 0-7.987-7.901c-3.754.226-6.797 3.252-7.046 7.004-.058.875.034 1.721.253 2.514a.44.44 0 0 1-.451.554c-.097-.005-.194-.008-.292-.008a5.88 5.88 0 0 0-2.454 11.226.44.44 0 0 1 .19.623c-.536.93-.88 1.985-.976 3.11l-.003.037a.87.87 0 0 1-.65.778l-.006.002a7.72 7.72 0 0 0-5.762 7.466v4.608A7.78 7.78 0 0 0 9 53.643h2.678 56.109s.998.02 1.871-.106c2.636-.379 5.359-2.596 5.359-5.832 0-1.772-.785-3.361-2.025-4.439z"/><path d="M72.992 43.268a.44.44 0 0 1-.115-.506c.355-.816.531-1.729.475-2.688a5.91 5.91 0 0 0-5.374-5.511 5.88 5.88 0 0 0-1.57.078.44.44 0 0 1-.519-.455l.013-.422a7.53 7.53 0 0 0-7.828-7.524 7.44 7.44 0 0 0-3.42.984l-.504.274a7.53 7.53 0 0 1 6.798 7.492l-.013.422a.44.44 0 0 0 .519.455c.504-.094 1.03-.123 1.57-.078a5.91 5.91 0 0 1 5.374 5.511c.056.959-.12 1.871-.475 2.688-.076.176-.029.38.115.506 1.24 1.078 2.025 2.666 2.025 4.438 0 2.048-1.091 3.688-2.561 4.712h.285s.998.02 1.871-.105c2.636-.379 5.359-2.596 5.359-5.832 0-1.773-.785-3.361-2.025-4.439z"/></g><g fill="#1c468a"><path d="M55.675 17.023H53.99a1.57 1.57 0 0 1-1.569-1.569c0-7.927-6.426-14.352-14.352-14.352S23.717 7.528 23.717 15.454a1.57 1.57 0 0 1-1.569 1.569h-1.685a2.94 2.94 0 0 0-2.937 2.937v28.079h41.086V19.96a2.94 2.94 0 0 0-2.937-2.937z"/><path d="M55.676 17.023h-1.685a1.57 1.57 0 0 1-1.569-1.569c0-7.927-6.426-14.352-14.352-14.352-2.43 0-4.719.605-6.725 1.671l.42-.007c7.927 0 14.352 6.426 14.352 14.352a1.57 1.57 0 0 0 1.569 1.569h1.685a2.94 2.94 0 0 1 2.937 2.937v26.415h6.305V19.96a2.94 2.94 0 0 0-2.937-2.937z"/></g><path d="M46.163 21.416h-5.175a.44.44 0 0 1-.441-.441v-6.856a.44.44 0 0 0-.441-.441h-4.075a.44.44 0 0 0-.441.441v6.856a.44.44 0 0 1-.441.441h-5.175a.44.44 0 0 0-.441.441v4.075a.44.44 0 0 0 .441.441h5.175a.44.44 0 0 1 .441.441v9.156a.44.44 0 0 0 .441.441h4.075a.44.44 0 0 0 .441-.441v-9.156a.44.44 0 0 1 .441-.441h5.175a.44.44 0 0 0 .441-.441v-4.075a.44.44 0 0 0-.441-.441z" fill="#77a4e5"/><g fill="#1c468a"><path d="M63.719 53.644H12.421c-.41 0-.742-.332-.742-.742v-6.565c0-.41.332-.742.742-.742h51.298c.41 0 .742.332.742.742v6.565c0 .41-.332.742-.742.742z"/><path d="M63.727 45.595h-2.451v4.129c0 .406-.329.734-.734.734H11.679v2.451c0 .406.329.734.734.734h51.314c.406 0 .734-.329.734-.734v-6.581c0-.405-.329-.734-.735-.734z"/></g><g fill="#77a4e5"><path d="M39.169 47.1c-.653-.075-1.287-.042-1.887.083-.325.068-.636-.148-.689-.476-.454-2.796-2.88-4.931-5.804-4.931a5.88 5.88 0 0 0-5.881 5.881v1.518a.58.58 0 0 1-.474.567c-2.44.488-4.334 2.485-4.668 4.977-.047.35.23.66.584.66h23.088c.242 0 .463-.147.548-.374.298-.793.43-1.666.352-2.579-.237-2.76-2.415-5.007-5.168-5.326z"/><path d="M44.336 52.425c-.237-2.761-2.416-5.008-5.168-5.326-.653-.075-1.287-.042-1.887.083a.58.58 0 0 1-.689-.476c-.454-2.796-2.88-4.931-5.804-4.931-1.765 0-3.347.778-4.425 2.009l.129-.003c2.924 0 5.35 2.134 5.804 4.93a.58.58 0 0 0 .69.476 5.91 5.91 0 0 1 1.887-.083c2.752.318 4.931 2.565 5.168 5.326.028.321.028.637.005.947h3.39c.242 0 .463-.147.548-.374.298-.792.43-1.666.352-2.579z"/></g><path d="M73.943 42.759c.314-.879.445-1.802.39-2.749a7.01 7.01 0 0 0-6.382-6.544 7.03 7.03 0 0 0-1.073-.008 8.67 8.67 0 0 0-7.282-8.218v-5.28c0-2.227-1.812-4.038-4.038-4.038h-1.685a.47.47 0 0 1-.467-.467C53.405 6.932 46.472 0 37.951 0c-6.084 0-11.358 3.535-13.877 8.659-1.646-1.288-3.708-1.938-5.841-1.809-.354.021-.711.065-1.061.131a1.101 1.101 0 1 0 .406 2.165 6.31 6.31 0 0 1 .787-.097 6.41 6.41 0 0 1 4.842 1.772c-.461 1.463-.71 3.02-.71 4.633a.47.47 0 0 1-.467.467h-1.685c-2.227 0-4.038 1.812-4.038 4.038v14.322a1.101 1.101 0 1 0 2.203 0V19.959a1.84 1.84 0 0 1 1.835-1.836h1.685c1.472 0 2.67-1.198 2.67-2.67a13.27 13.27 0 0 1 13.251-13.25 13.27 13.27 0 0 1 13.251 13.251c0 1.472 1.198 2.67 2.67 2.67h1.685a1.84 1.84 0 0 1 1.836 1.836v24.534H46.259a1.102 1.102 0 1 0 0 2.203H63.24v5.847H45.328l-.012-.211a6.99 6.99 0 0 0-6.139-6.326 7.03 7.03 0 0 0-1.719.011 6.95 6.95 0 0 0-6.789-5.342c-2.712 0-5.065 1.555-6.221 3.819h-5.939v-4.746a1.101 1.101 0 1 0-2.203 0v4.746h-4.013a1.84 1.84 0 0 0-1.835 1.835v6.214H8.881a6.69 6.69 0 0 1-6.679-6.678v-4.608c0-3.009 2.031-5.641 4.928-6.398.835-.216 1.426-.925 1.487-1.771l.002-.022a6.35 6.35 0 0 1 .832-2.653c.218-.378.268-.832.136-1.247s-.429-.747-.819-.927c-1.692-.778-2.786-2.483-2.786-4.345 0-2.635 2.144-4.779 4.779-4.779 1.096.187 2.132-.843 1.805-1.94a6.46 6.46 0 0 1-.216-2.148 6.36 6.36 0 0 1 1.329-3.485 1.101 1.101 0 1 0-1.741-1.349 8.55 8.55 0 0 0-1.785 4.688 8.69 8.69 0 0 0 .105 2.05c-3.616.259-6.479 3.284-6.479 6.964a7.01 7.01 0 0 0 3.447 6.021 8.52 8.52 0 0 0-.791 2.85A8.82 8.82 0 0 0 0 41.256v4.608c0 4.897 3.984 8.881 8.881 8.881h9.659a1.68 1.68 0 0 0 .416 1.157 1.69 1.69 0 0 0 1.274.578h23.088a1.69 1.69 0 0 0 1.579-1.088c.08-.213.147-.429.206-.646h22.81c.487-.004 1.043-.022 1.529-.07C73.08 54.312 76 51.405 76 47.706a6.98 6.98 0 0 0-2.057-4.947zm-61.282 3.937h11.094a7 7 0 0 0-.068.961v1.099a6.98 6.98 0 0 0-4.537 3.786h-6.489v-5.846zm30.287 7.581H20.854a4.77 4.77 0 0 1 3.676-3.456 1.69 1.69 0 0 0 1.36-1.647v-1.518c0-2.635 2.144-4.779 4.779-4.779 2.356 0 4.34 1.685 4.717 4.006a1.69 1.69 0 0 0 2 1.378 4.82 4.82 0 0 1 1.536-.067h0a4.78 4.78 0 0 1 4.197 4.326c.051.601-.007 1.191-.172 1.758zm26.084-1.742l-.563.008h-3.026v-6.214a1.84 1.84 0 0 0-1.836-1.836h-4.012V27.478c2.912.622 5.085 3.232 5.085 6.286-.211 1.08.667 2.197 1.81 1.96a4.8 4.8 0 0 1 1.277-.064c2.353.197 4.23 2.122 4.367 4.477a4.74 4.74 0 0 1-.385 2.185c-.269.619-.107 1.332.403 1.776a4.78 4.78 0 0 1 1.646 3.607c0 2.619-2.146 4.813-4.765 4.828zM40.107 12.577h-4.075c-.85 0-1.542.692-1.542 1.542v6.195h-4.514c-.85 0-1.542.692-1.542 1.542v4.075c0 .85.692 1.542 1.542 1.542h4.514v8.495c0 .85.692 1.542 1.542 1.542h4.075c.85 0 1.542-.692 1.542-1.542v-8.495h4.514c.85 0 1.542-.692 1.542-1.542v-4.075c0-.85-.692-1.542-1.542-1.542h-4.514v-6.195c0-.85-.692-1.542-1.542-1.542zm5.396 9.94v2.754h-4.514c-.85 0-1.542.692-1.542 1.542v8.495h-2.754v-8.495c0-.85-.692-1.542-1.542-1.542h-4.514v-2.754h4.514c.85 0 1.542-.692 1.542-1.542V14.78h2.754v6.195c0 .85.692 1.542 1.542 1.542h4.514z" fill="#fff"/></svg>