<svg xmlns="http://www.w3.org/2000/svg" xmlns:xlink="http://www.w3.org/1999/xlink" width="46" height="62" fill="none" xmlns:v="https://vecta.io/nano"><g fill="#77a4e5"><path d="M35.16 59.075c-1.194-2.898-4.432-5.308-4.432-5.308L23 50.707l-7.728 3.059s-3.238 2.41-4.432 5.308a1.46 1.46 0 0 0 1.344 2.017h21.632a1.46 1.46 0 0 0 1.344-2.017z"/><path d="M15.684 59.075c1.194-2.898 4.432-5.308 4.432-5.308l5.306-2.1L23 50.707l-7.728 3.059s-3.238 2.41-4.432 5.308a1.46 1.46 0 0 0 1.344 2.017h4.844a1.46 1.46 0 0 1-1.344-2.017z"/><path d="M3.91 19.11v3.073S3.437 38.31 15.271 53.766h15.457C42.562 38.31 42.089 22.183 42.089 22.183V19.11L23 13.711 3.91 19.11z"/><path d="M8.754 22.183V19.11l16.668-4.713L23 13.711 3.91 19.11v3.073S3.437 38.31 15.271 53.766h4.844C8.281 38.309 8.754 22.183 8.754 22.183z"/></g><g fill="#1c468a"><path d="M19.597 20.139c.752-1.997-.194-4.308-2.175-5.061-.262-.097-.553-.174-.849-.228.229-.198.441-.41.613-.625 1.33-1.661 1.233-3.956-.427-5.286s-3.922-.924-5.252.737c-.172.215-.332.468-.475.735-.117-.277-.256-.544-.408-.778-1.168-1.769-3.63-2.187-5.414-1.017s-2.273 3.561-1.103 5.345c.151.234.341.456.554.684-.303.026-.596.074-.863.143a3.86 3.86 0 0 0-2.707 4.738c.558 2.072 2.526 3.125 4.567 2.57.274-.077.544-.186.82-.318-.069.298-.116.585-.131.869-.094 2.128 1.377 3.8 3.505 3.895a3.85 3.85 0 0 0 4.033-3.677c.009-.276-.008-.572-.05-.873a4.93 4.93 0 0 0 .788.391c1.997.752 4.223-.247 4.975-2.244zm6.806 0c-.752-1.997.194-4.308 2.175-5.061a5.1 5.1 0 0 1 .849-.228c-.229-.198-.441-.41-.613-.625-1.33-1.661-1.233-3.956.428-5.286s3.922-.924 5.252.737c.172.215.333.468.476.735.117-.277.256-.544.408-.778 1.168-1.769 3.63-2.187 5.414-1.017s2.273 3.561 1.103 5.345a4.94 4.94 0 0 1-.554.684c.303.026.596.074.863.143a3.86 3.86 0 0 1 2.707 4.738c-.558 2.072-2.526 3.125-4.566 2.57-.274-.077-.544-.186-.82-.318.069.298.116.585.131.869.094 2.128-1.377 3.8-3.505 3.895a3.85 3.85 0 0 1-4.032-3.677 5.26 5.26 0 0 1 .049-.873c-.268.159-.527.295-.788.391-1.997.752-4.223-.247-4.975-2.244z"/><path d="M32.558 8.134c-.686-2.104-2.95-3.361-5.042-2.687-.274.092-.56.217-.835.366a5.04 5.04 0 0 0 .092-.903c0-2.207-1.566-4.002-3.773-4.002s-3.773 1.795-3.773 4.002a5.05 5.05 0 0 0 .091.903c-.274-.149-.56-.274-.835-.366-2.092-.674-4.356.583-5.042 2.687a4 4 0 0 0 2.573 5.042 5.12 5.12 0 0 0 .892.194 5.47 5.47 0 0 0-.606.675c-1.303 1.795-.903 4.287.88 5.591 1.795 1.315 4.071.892 5.363-.88.172-.24.32-.503.457-.789a5.27 5.27 0 0 0 .457.789c1.303 1.784 3.579 2.184 5.362.88 1.795-1.303 2.184-3.796.88-5.591-.172-.229-.377-.457-.606-.675.32-.046.617-.103.892-.194a4 4 0 0 0 2.572-5.042z"/><path d="M23 13.711c1.394 0 2.524-1.13 2.524-2.524S24.394 8.664 23 8.664s-2.524 1.13-2.524 2.524 1.13 2.524 2.524 2.524z"/><use xlink:href="#B"/><use xlink:href="#B" x="24.874"/><path d="M28.895 30.274h-3.782v-4.061c0-.521-.422-.943-.943-.943h-2.34c-.521 0-.943.422-.943.943v4.061h-3.782c-.521 0-.943.422-.943.943v2.34c0 .521.422.943.943.943h3.782v10.099c0 .521.422.943.943.943h2.34c.521 0 .943-.422.943-.943V34.5h3.782c.521 0 .943-.422.943-.943v-2.34c0-.521-.422-.943-.943-.943z"/></g><path d="M23 14.62a3.44 3.44 0 0 0 3.432-3.432c0-1.892-1.539-3.432-3.432-3.432s-3.432 1.539-3.432 3.432S21.108 14.62 23 14.62zm0-5.047a1.62 1.62 0 0 1 1.615 1.615A1.62 1.62 0 0 1 23 12.803a1.62 1.62 0 0 1-1.615-1.615A1.62 1.62 0 0 1 23 9.572zm-9.841 9.182c.537-.667.826-1.536.726-2.446a3.38 3.38 0 0 0-3.32-2.974 3.38 3.38 0 0 0-3.323 3.709 3.38 3.38 0 0 0 3.32 2.975 3.34 3.34 0 0 0 2.597-1.263zm-4.111-1.911c-.099-.891.623-1.693 1.517-1.693a1.54 1.54 0 0 1 1.514 1.358 1.54 1.54 0 0 1-1.517 1.693 1.54 1.54 0 0 1-1.514-1.358zm26.388-3.509c-2.754 0-4.32 3.291-2.607 5.431a3.33 3.33 0 0 0 2.61 1.253 3.38 3.38 0 0 0 3.32-2.975c.216-1.954-1.361-3.709-3.323-3.709zm1.517 3.509a1.54 1.54 0 0 1-1.514 1.357c-1.982 0-1.924-3.05-.003-3.05a1.54 1.54 0 0 1 1.517 1.693zM24.17 24.36h-2.34c-1.021 0-1.852.831-1.852 1.852v3.153h-2.874c-1.021 0-1.851.831-1.851 1.852v2.34c0 1.021.83 1.852 1.851 1.852h2.874V44.6c0 1.021.831 1.852 1.852 1.852h2.34c1.021 0 1.851-.831 1.851-1.852v-9.191h2.874c1.021 0 1.852-.831 1.852-1.852v-2.34c0-1.021-.831-1.852-1.852-1.852h-2.874v-3.153c0-1.021-.831-1.852-1.851-1.852zm4.725 6.821c.019 0 .035.016.035.035v2.34c0 .019-.016.035-.035.035h-3.782a.91.91 0 0 0-.908.908v10.099c0 .019-.016.035-.035.035h-2.34c-.019 0-.035-.016-.035-.035V34.499a.91.91 0 0 0-.908-.908h-3.782c-.019 0-.035-.016-.035-.035v-2.34c0-.019.016-.035.035-.035h3.782a.91.91 0 0 0 .908-.908v-4.061c0-.019.016-.035.035-.035h2.34c.019 0 .035.016.035.035v4.061a.91.91 0 0 0 .908.908h3.782zM10 58.728C9.368 60.262 10.527 62 12.184 62h21.632c1.657 0 2.815-1.741 2.184-3.272-.927-2.25-2.943-4.189-4.02-5.114a56.72 56.72 0 0 0 3.331-5.036.91.91 0 0 0-.323-1.243.91.91 0 0 0-1.243.323 54.95 54.95 0 0 1-3.466 5.2H15.723c-4.307-5.72-7.42-12.157-9.255-19.139a.91.91 0 0 0-1.109-.648.91.91 0 0 0-.647 1.109c1.859 7.074 4.99 13.607 9.31 19.432-1.077.923-3.09 2.858-4.02 5.115zm20.414-4.054c.729.59 3 2.546 3.906 4.746.148.359-.116.763-.505.763H12.184c-.39 0-.651-.407-.504-.764.906-2.2 3.178-4.157 3.906-4.746h14.829zm6.885-9.788c5.112-10.399 5.655-19.428 5.699-22.006 1.349-.488 2.381-1.606 2.788-3.116.645-2.38-.641-4.842-2.897-5.705 1.128-2.148.464-4.848-1.601-6.202-.806-.528-1.743-.807-2.712-.807-1.453 0-2.796.629-3.681 1.709a5 5 0 0 0-1.54-1.099c-.727-1.955-2.621-3.303-4.676-3.303a4.67 4.67 0 0 0-1.015.111C27.457 1.929 25.483 0 23 0s-4.457 1.929-4.664 4.467c-.333-.074-.673-.111-1.015-.111-2.055 0-3.949 1.348-4.676 3.303a5 5 0 0 0-1.54 1.098c-.882-1.077-2.227-1.709-3.682-1.709-3.552 0-5.985 3.833-4.313 7.009-2.256.864-3.541 3.325-2.897 5.704.407 1.511 1.44 2.629 2.79 3.117.024 1.229.164 3.946.867 7.609a.91.91 0 0 0 1.063.721.91.91 0 0 0 .721-1.063c-.621-3.235-.785-5.728-.825-7.001a10.25 10.25 0 0 0 .609-.07c.05 1.094.45 2.106 1.149 2.888.865.968 2.161 1.492 3.45 1.492 2.386 0 4.371-1.757 4.708-4.078.121.033.244.053.366.082 1.842.433 3.875-.542 4.88-2.098l.057-.089c.089-.012.176-.029.264-.044.963-.171 1.854-.706 2.524-1.41.055-.058.11-.117.164-.18a8.51 8.51 0 0 0 .162.178c.671.706 1.546 1.214 2.504 1.405a4.56 4.56 0 0 0 .285.049 4.89 4.89 0 0 0 .84 1.013c.874.8 2.034 1.259 3.221 1.259a4.78 4.78 0 0 0 1.243-.165c.133.922.527 1.773 1.14 2.467.952 1.065 2.373 1.674 3.795 1.606 1.221-.058 2.403-.569 3.223-1.487.709-.794 1.099-1.829 1.148-2.888a14.02 14.02 0 0 0 .608.07c-.094 2.771-.779 11.335-5.501 20.94a.91.91 0 0 0 .415 1.216c.445.219.997.031 1.216-.414zM17.322 6.173c.556 0 1.079.177 1.564.439a.92.92 0 0 0 1.326-.964c-.341-1.839.757-3.831 2.789-3.831 2.011 0 3.125 2.016 2.789 3.831a.92.92 0 0 0 1.326.964c.486-.263 1.006-.439 1.564-.439 1.346 0 2.586.922 3.017 2.243.638 1.957-.804 3.781-2.729 4.056a.92.92 0 0 0-.497 1.558 4.54 4.54 0 0 1 .501.555c1.13 1.5.535 3.717-1.094 4.574-1.602.843-3.32-.051-4.056-1.585a.93.93 0 0 0-.819-.515.91.91 0 0 0-.819.515c-.799 1.664-2.882 2.486-4.465 1.329-1.356-.991-1.67-2.956-.686-4.318a4.06 4.06 0 0 1 .501-.556c.527-.501.231-1.453-.497-1.558-1.934-.276-3.37-2.091-2.729-4.056.431-1.321 1.671-2.243 3.017-2.243zM9.603 25.609c-1.441-.198-2.414-1.469-2.351-2.911.017-.393.216-.831.083-1.217a.92.92 0 0 0-1.251-.521 3.65 3.65 0 0 1-1.055.341c-1.374.201-2.699-.676-3.061-2.012-.424-1.567.501-3.191 2.064-3.623a4.32 4.32 0 0 1 .706-.115.92.92 0 0 0 .586-1.526c-.21-.224-.35-.395-.457-.56-1.285-1.988.225-4.598 2.557-4.598 1.005 0 1.918.474 2.437 1.26a4.21 4.21 0 0 1 .334.639.92.92 0 0 0 1.637.076 3.94 3.94 0 0 1 .384-.596 3.45 3.45 0 0 1 .167-.193 4.92 4.92 0 0 0 1.249 2.637c.467.51 1.043.92 1.679 1.193-1.274 2.155-.727 4.982 1.334 6.488.375.274 1.233.663 1.238.665a2.95 2.95 0 0 1-.311.227c-.567.358-1.251.521-1.935.441-.478-.056-.928-.248-1.34-.491a.92.92 0 0 0-1.362.905c.046.341.063.686.009 1.027-.249 1.572-1.77 2.682-3.34 2.467zm29.015-3.881c-.006.083 0 .169.02.256.142.61.157 1.233-.043 1.834-.379 1.136-1.461 1.825-2.641 1.821-1.865-.001-3.128-1.768-2.888-3.524.099-.729-.731-1.277-1.362-.904-1.021.603-2.235.702-3.265.056-.112-.07-.22-.148-.322-.233a5.08 5.08 0 0 0 1.237-.663 4.87 4.87 0 0 0 1.966-3.205c.138-.881.035-1.765-.289-2.576a4.94 4.94 0 0 0-.349-.706 4.95 4.95 0 0 0 1.685-1.195 4.92 4.92 0 0 0 1.251-2.638 3.45 3.45 0 0 1 .167.193 3.92 3.92 0 0 1 .384.596.92.92 0 0 0 1.637-.076c.097-.23.212-.451.329-.631.883-1.368 2.841-1.622 4.158-.758 1.358.89 1.736 2.724.839 4.093-.104.16-.244.332-.454.555a.92.92 0 0 0 .586 1.526 4.32 4.32 0 0 1 .706.115c1.563.432 2.489 2.056 2.064 3.624-.292 1.084-1.073 1.813-2.093 1.997-.703.126-1.396-.026-2.023-.328-.577-.277-1.253.173-1.298.768z" fill="#fff"/><defs ><path id="B" d="M10.563 19.109c1.344 0 2.433-1.089 2.433-2.433s-1.089-2.433-2.433-2.433-2.433 1.089-2.433 2.433 1.089 2.433 2.433 2.433z"/></defs></svg>