<svg xmlns="http://www.w3.org/2000/svg" xmlns:xlink="http://www.w3.org/1999/xlink" width="95" height="47" fill="none" xmlns:v="https://vecta.io/nano"><g fill="#77a4e5"><path d="M39.993.855l-7.784 5.641 7.784 5.641c3.114 0 5.641 2.527 5.641 5.641v11.281c0 3.114-2.527 5.641-5.641 5.641l-7.784 5.641 7.784 5.641c9.33 0 16.922-7.592 16.922-16.922V17.777c0-9.33-7.592-16.922-16.922-16.922zm37.136 0l-7.784 5.641 7.784 5.641c3.114 0 5.641 2.527 5.641 5.641v11.281c0 3.114-2.527 5.641-5.641 5.641l-7.784 5.641 7.784 5.641c9.33 0 16.922-7.592 16.922-16.922V17.777c0-9.33-7.593-16.922-16.922-16.922z"/><path d="M39.994 34.699c-3.114 0-5.641-2.527-5.641-5.641V17.777c0-3.114 2.527-5.641 5.641-5.641a7.98 7.98 0 0 1 0-11.281c-9.33 0-16.922 7.592-16.922 16.922v11.281c0 9.33 7.592 16.922 16.922 16.922a7.98 7.98 0 0 1 0-11.281zm37.135 0c-3.114 0-5.641-2.527-5.641-5.641V17.777c0-3.114 2.527-5.641 5.641-5.641a7.98 7.98 0 0 1 0-11.281c-9.33 0-16.923 7.592-16.923 16.922v11.281c0 9.33 7.593 16.922 16.923 16.922a7.98 7.98 0 0 1 0-11.281zM17.577 2.288h-6.803v37.647l5.494 5.494c1.895-.914 3.193-2.843 3.193-5.088V6.496a5.67 5.67 0 0 0-1.884-4.208z"/><path d="M13.82 10.309a10.4 10.4 0 0 1 3.757-8.021c-.474-.417-1.015-.767-1.624-1.015a5.62 5.62 0 0 0-6.16 1.286l-7.333 7.525c-2.177 2.234-2.132 5.799.102 7.976a5.64 5.64 0 0 0 5.629 1.343V40.34c0 3.114 2.527 5.641 5.641 5.641a5.73 5.73 0 0 0 2.448-.553 10.43 10.43 0 0 1-2.448-6.712V10.309h-.011z"/></g><g fill="#fff"><path d="M39.993.009a17.8 17.8 0 0 0-17.768 17.768v11.282c0 9.804 7.976 17.769 17.768 17.769 3.542 0 6.961-1.049 9.894-3.023a.85.85 0 0 0 .226-1.173.85.85 0 0 0-1.173-.226c-2.651 1.782-5.754 2.73-8.958 2.73-8.856.011-16.065-7.209-16.065-16.076V17.777c0-8.867 7.209-16.076 16.076-16.076s16.076 7.22 16.076 16.076v11.282a15.98 15.98 0 0 1-4.648 11.304.846.846 0 1 0 1.207 1.185c3.305-3.351 5.133-7.784 5.133-12.489V17.777A17.8 17.8 0 0 0 39.993.009zm37.239 0a17.8 17.8 0 0 0-17.768 17.768v11.282c0 9.804 7.976 17.769 17.768 17.769 3.542 0 6.961-1.049 9.894-3.023a.85.85 0 0 0 .226-1.173.85.85 0 0 0-1.173-.226 16.01 16.01 0 0 1-8.957 2.73c-8.856.011-16.065-7.209-16.065-16.076V17.777c0-8.867 7.209-16.076 16.076-16.076s16.076 7.22 16.076 16.076v11.282a15.98 15.98 0 0 1-4.648 11.304.846.846 0 1 0 1.207 1.185C93.173 38.197 95 33.763 95 29.059V17.777A17.8 17.8 0 0 0 77.232.009zM9.172 1.972L6.024 5.21a.85.85 0 0 0 .011 1.196.85.85 0 0 0 1.196-.011l3.148-3.227c2.99-3.069 8.224-.981 8.224 3.351v33.844a4.81 4.81 0 0 1-4.795 4.795 4.81 4.81 0 0 1-4.795-4.795V19.752l.564-.564a.85.85 0 0 0 0-1.196.85.85 0 0 0-1.196 0l-.654.654c-3.046.824-6.036-1.478-6.036-4.625 0-1.252.485-2.448 1.365-3.351l1.816-1.861a.85.85 0 0 0-.011-1.196.85.85 0 0 0-1.196.011L1.85 9.485A6.46 6.46 0 0 0 0 14.021a6.49 6.49 0 0 0 7.333 6.431V40.34a6.5 6.5 0 0 0 6.487 6.487 6.5 6.5 0 0 0 6.487-6.487V6.496c0-5.776-7.051-8.709-11.135-4.524z"/><use xlink:href="#B"/><use xlink:href="#B" x="37.239"/></g><defs ><path id="B" d="M39.993 35.545c3.576 0 6.487-2.911 6.487-6.487V17.777c0-3.576-2.911-6.487-6.487-6.487s-6.487 2.911-6.487 6.487v11.281c0 3.576 2.911 6.487 6.487 6.487zm-4.795-17.768c0-2.64 2.155-4.795 4.795-4.795s4.795 2.155 4.795 4.795v11.281c0 2.64-2.155 4.795-4.795 4.795s-4.795-2.155-4.795-4.795V17.777z"/></defs></svg>