<svg xmlns="http://www.w3.org/2000/svg" width="517" height="334" fill="none" xmlns:v="https://vecta.io/nano"><style><![CDATA[.B{fill:#163560}.C{fill:#f99746}.D{fill:#ffb27d}.E{fill:#1c468a}.F{fill:#eb996e}.G{fill:#fe7062}.H{fill:#aa6550}]]></style><path d="M47.394 214.04c9.746 23.301 2.437 40.217-5.165 62.495-2.778 8.141-2.29 17.062-.926 25.544 3.119 19.5 11.062 31.297 32.601 31.297h240.438a85.37 85.37 0 0 1 9.99 0h151.699c19.2 0 35.623-13.503 38.839-32.028 0-.097.049-.244.049-.341 6.725-39.096-3.704-63.471-19.005-96.571-10.77-23.253-11.598-43.24-6.043-68.638 6.14-28.03 12.085-63.86-2.631-89.404-12.865-22.376-33.235-38.316-55.018-44.166-27.679-7.458-50.875 4.582-73.047 24.618-30.457 27.494-83.135 49.87-120.658 37.731-32.796-10.627-57.015-46.018-91.565-52.843-23.83-4.729-59.355 2.779-67.054 35.879-2.144 9.165-1.559 17.159-7.748 24.764-5.702 7.02-13.109 11.31-21.685 14.088-10.38 3.412-21.49 5.119-30.798 10.822-51.801 31.687 13.547 84.189 27.338 115.729.097.341.244.682.39 1.024z" fill="#d2e4ff"/><path d="M357.443 89.727c7.656-2.137 9.313 3.799 16.768 1.718 7.657-2.137 6-8.074 13.455-10.155 7.656-2.137 9.313 3.799 16.768 1.718 7.656-2.137 5.999-8.074 13.454-10.155s9.314 3.799 16.769 1.718m-105.738 31.2c7.656-2.137 9.313 3.8 16.768 1.719 7.657-2.137 6-8.074 13.455-10.155 7.656-2.137 9.313 3.8 16.768 1.718 7.656-2.137 5.999-8.074 13.454-10.155s9.314 3.799 16.769 1.718m27.077 210.367c7.656-2.137 9.313 3.8 16.768 1.719 7.657-2.137 6-8.074 13.455-10.155 7.656-2.137 9.313 3.8 16.768 1.719 7.656-2.137 5.999-8.074 13.454-10.155s9.314 3.799 16.769 1.719m-105.738 31.198c7.656-2.137 9.314 3.8 16.768 1.719 7.657-2.137 6-8.074 13.455-10.155 7.656-2.137 9.313 3.8 16.768 1.719 7.657-2.138 5.999-8.074 13.454-10.155s9.314 3.799 16.769 1.718M113.653 59.827c5.863-1.636 7.132 2.909 12.84 1.316 5.863-1.636 4.594-6.182 10.302-7.776 5.863-1.637 7.132 2.909 12.84 1.316 5.863-1.637 4.594-6.182 10.303-7.776s7.131 2.909 12.84 1.316m-80.966 23.89c5.863-1.636 7.132 2.909 12.84 1.316 5.863-1.636 4.594-6.182 10.302-7.776 5.863-1.636 7.132 2.909 12.84 1.316 5.863-1.636 4.594-6.182 10.302-7.776s7.132 2.909 12.84 1.316m-19.012 119.247c7.656-2.137 9.313 3.799 16.768 1.718 7.657-2.137 6-8.073 13.454-10.154 7.657-2.137 9.314 3.799 16.769 1.718 7.656-2.137 5.999-8.074 13.454-10.154s9.314 3.799 16.769 1.718M103.4 195.801c7.656-2.137 9.313 3.799 16.768 1.718 7.657-2.137 6-8.073 13.455-10.154 7.656-2.138 9.313 3.799 16.768 1.718 7.656-2.137 5.999-8.074 13.454-10.155s9.314 3.8 16.769 1.719" stroke-opacity=".6" stroke="#9fc1f4" stroke-width="2.5" stroke-miterlimit="10"/><g clip-path="url(#A)"><path d="M411.206 237.37c.817-.163 7.514 30.405 6.616 42.257s-6.616 53.209-6.616 53.209h-27.444l-4.983-58.44.899 58.44h-36.919s-8.577-40.131-7.025-52.31 9.638-44.137 9.638-44.137l65.834.981z" class="B"/><g class="E"><path d="M381.556 244.399s.082.409.082 1.145v3.106c-.082 2.615-.245 6.293-.572 10.217-.327 4.005-.817 7.601-1.143 10.216-.164 1.308-.327 2.371-.49 3.106l-.245 1.145s0-.409.081-1.145c.082-.817.245-1.88.327-3.106.327-2.615.735-6.211 1.062-10.216s.571-7.602.653-10.217c.082-1.226.082-2.289.164-3.106 0-.736.081-1.145.081-1.145zm4.983 2.452s.245-.081.571 0c.409.082.981.327 1.389.899.245.246.408.654.572 1.063a2.74 2.74 0 0 1-.082 1.389c-.327.899-1.307 1.717-2.45 1.717s-2.124-.899-2.369-1.798c-.163-.491-.163-.981-.082-1.39.164-.408.327-.735.572-1.062.49-.491 1.144-.736 1.552-.736s.572.082.572.163c0 0-.245 0-.572.082s-.898.245-1.307.736-.735 1.308-.408 2.043c.245.736 1.062 1.553 2.042 1.553s1.797-.654 2.123-1.471.082-1.553-.326-2.125c-.409-.491-.899-.818-1.226-.899-.408-.082-.571-.082-.571-.164zM415.29 252s-.245.164-.735.246c-.49.163-1.144.327-2.042.408-1.797.164-4.329 0-6.78-1.226a13.24 13.24 0 0 1-5.227-4.495c-.49-.736-.817-1.39-.98-1.88l-.245-.736c.081 0 .49.981 1.47 2.371s2.777 3.187 5.146 4.25c2.368 1.144 4.819 1.389 6.616 1.308 1.715 0 2.777-.327 2.777-.246z"/></g><g class="B"><path d="M352.479 105.531c-2.042 7.602-5.228 13.65-8.332 16.756-3.103 3.024-6.371 6.62-6.289 10.952.082 1.717.572 3.515-.163 5.068-.98 1.962-3.512 2.452-5.473 3.515-2.859 1.634-4.41 4.985-4.329 8.255s1.797 6.375 4.084 8.664c2.369 2.37 6.208 4.086 9.148 2.452 1.797-.981 2.777-2.943 3.757-4.741a383.95 383.95 0 0 0 12.742-29.179m14.049-54.19c5.309-5.885 14.294-8.01 21.645-5.149s12.497 10.544 12.416 18.39c-.082 5.068-2.042 10.38 0 15.039 1.388 3.27 4.737 5.803 5.145 9.4.49 4.168-3.022 7.846-2.858 12.015.081 2.697 1.797 5.149 3.757 7.029s4.247 3.433 6.044 5.476c4.983 5.64 5.309 14.631 1.552 21.17s-11.027 10.625-18.541 11.524-15.193-1.144-21.809-4.822c-4.329-2.37-8.413-5.476-10.945-9.645-2.613-4.168-3.43-9.645-1.388-14.14"/></g><path d="M387.601 136.345s16.907 4.986 18.623 7.684c1.633 2.697 6.943 34.165 6.943 34.165l-10.374 37.108s8.577 13.894 9.067 20.842c-19.195 12.424-40.922 8.909-63.629-.981l-1.633-36.29-2.124-57.95 13.967-4.904 29.16.326z" class="G"/><g class="C"><path d="M406.469 222.821h-.654c-.408 0-1.061-.081-1.797-.081l-6.534-.491-21.563-1.88-21.564-2.043-6.534-.654-1.797-.164c-.408-.081-.653-.081-.653-.081h.653l1.797.081 6.534.491 21.564 1.88 21.563 2.043 6.534.654 1.797.164c.409 0 .654.081.654.081zm-36.511-40.622c9.203 0 16.663-.11 16.663-.245s-7.46-.246-16.663-.246-16.663.11-16.663.246 7.461.245 16.663.245zm38.961-25.175l-1.307.164-3.594.245-11.843.736c-4.656.327-8.821.735-11.844 1.062-1.47.164-2.695.245-3.593.327-.817.082-1.307.082-1.307.082s.49-.082 1.307-.245 2.042-.327 3.593-.491c3.023-.408 7.188-.817 11.844-1.144s8.821-.572 11.925-.654c1.552-.082 2.777-.082 3.594-.082h1.225z"/></g><path d="M406.224 144.029l16.989 46.18 11.435-22.722 14.947 3.024-8.658 35.882c-.898 6.375-5.717 11.443-12.006 12.75-5.228 1.063-10.7-.654-14.294-4.659l-5.31-5.885-3.103-64.57z" class="G"/><g class="C"><path d="M422.886 219.388s-.081-.408-.163-1.144-.082-1.798-.163-3.188c-.082-2.697-.164-6.375 0-10.462.081-4.086.408-7.764.653-10.462.163-1.308.245-2.37.327-3.187.081-.736.163-1.145.163-1.145v1.145c-.082.817-.082 1.879-.163 3.187-.164 2.698-.409 6.376-.49 10.462l-.082 10.462v3.188c-.082.736-.082 1.144-.082 1.144zm21.887-28.152c.048-.127-4.05-1.802-9.152-3.742l-9.326-3.282c-.048.126 4.049 1.801 9.152 3.741l9.326 3.283z"/></g><path d="M453.108 165.28l-7.106 5.231-8.005-1.962 1.96-2.043 13.151-1.226z" class="D"/><path d="M479 101.036l-57.91 25.093.326 16.755-6.616 6.866 22.135 19.78 6.453-7.193 17.234-2.452L479 101.036z" fill="#fafafa"/><g class="B"><path d="M479 101.036l-18.214 58.931v.082h-.082l-17.234 2.452.163-.082-6.453 7.275-.163.163-.163-.163-11.272-10.136-10.863-9.726-.164-.164.164-.163 6.534-6.866-.082.164-.245-16.756v-.163l.082-.082L479 101.036l-57.829 25.256.082-.163.327 16.755v.082l-.082.082-6.534 6.866v-.327l10.863 9.644 11.272 10.136h-.327l6.453-7.193.081-.082h.082l17.234-2.37-.163.163L479 101.036zm-23.528 41.118a9.08 9.08 0 0 0-.718-12.81c-3.733-3.34-9.465-3.018-12.801.718a9.08 9.08 0 0 0 .718 12.811c3.733 3.339 9.465 3.017 12.801-.719z"/><path d="M464.043 118.691l14.922-17.666c-.102-.088-6.949 7.677-15.293 17.345l-14.923 17.666c.102.089 6.95-7.677 15.294-17.345z"/></g><g class="C"><path d="M300.612 301.205c-5.962-5.313-6.452-14.385-1.225-20.352l108.879-123.256 21.563 19.289-108.715 123.093c-5.309 6.048-14.457 6.539-20.502 1.226zm113.875-154.073l-7.892 8.836 25.395 22.714 7.893-8.837-25.396-22.713z"/></g><path opacity=".3" d="M408.266 157.515l21.645 19.371-2.941 3.27-19.684-21.415.98-1.226z" fill="#000"/><path opacity=".5" d="M421.416 153.428v15.448l3.104 3.188v-15.857l-3.104-2.779z" fill="#fff"/><path d="M447.308 146.235l7.923 3.188 1.715 6.375-3.838 9.482-13.968 2.043 4.084-4.168-.49-3.679s-3.92-1.226-4.002-1.798.49-2.615 1.062-2.697 4.656 1.389 4.656 1.389-4.82-3.841-4.738-4.495c.163-.654.654-2.207 1.634-2.37s8.821 3.514 8.821 3.514l1.307 2.861 1.143-4.659c-.081.082-7.024-1.88-5.309-4.986z" class="D"/><g class="F"><path d="M446.328 161.193c.082 0 .163-.245.245-.818.082-.49 0-1.226-.245-1.961a3.64 3.64 0 0 0-1.144-1.635c-.408-.327-.653-.49-.735-.409s.98.818 1.471 2.207c.571 1.308.245 2.616.408 2.616zm3.757-1.39c.082 0-.245-.735-.326-2.043-.082-.654-.082-1.471-.409-2.289-.163-.408-.408-.899-.735-1.226-.326-.408-.817-.653-1.307-.817l-4.819-1.635-2.042-.572c0 .082.735.409 1.961.818l4.819 1.716c.49.163.898.409 1.143.736.327.327.49.654.654 1.062.326.818.326 1.553.49 2.207.081 1.308.49 2.043.571 2.043zm1.796-1.426c.133-.022.128-.726-.012-1.572s-.361-1.514-.495-1.492-.128.725.012 1.572.361 1.514.495 1.492z"/></g><path d="M392.502 214.975l12.987-4.496c.326-.163 8.984-4.168 8.249-6.539 0 0 2.451-1.961 1.716-3.024l-3.513 1.471s4.901-3.187 4.084-6.048c0 0 .49-.981 0-1.553s-3.104 1.226-4.982 2.37l-3.676 1.472c-1.633.653-3.349.735-4.982.245-.817-.245-1.307-1.063-1.062-1.88.408-1.798.898-4.577-.245-8.582 0 0-.899.327-1.552 2.288-.817 2.534-3.349 4.414-4.247 6.13-.49.981-1.389 2.452-1.961 3.597-.49.899-1.388 1.634-2.368 1.88l.898 6.62.654 6.049z" class="D"/><g class="F"><path d="M406.224 203.041s.163 0 .408-.163a9.34 9.34 0 0 0 1.144-.491 20.19 20.19 0 0 0 3.593-1.961c1.389-.899 2.533-1.798 3.268-2.534.408-.327.735-.654.898-.899l.327-.327s-.164.082-.327.327c-.245.163-.572.49-.98.817l-3.267 2.452c-1.307.899-2.614 1.553-3.594 2.044l-1.144.572c-.163 0-.326.082-.326.163zm.245 2.452s.408-.082.898-.327c.572-.245 1.307-.572 2.124-1.062l1.96-1.308.735-.654c0-.082-1.225.817-2.777 1.798l-2.042 1.144-.898.409zm-.163 3.106s.49-.163 1.225-.49 1.715-.817 2.695-1.471l2.532-1.798.98-.9s-.408.246-1.061.736-1.471 1.144-2.532 1.716c-.981.654-1.961 1.145-2.696 1.553-.653.409-1.143.573-1.143.654z"/></g><path d="M392.502 214.975l-47.129 14.221c-10.864-4.904-17.48-16.265-16.418-28.116l4.002-44.137c.981-9.155 11.517-15.939 11.517-15.939 14.457.981 11.272 29.588 11.272 29.588l-5.799 32.94 41.003-1.635 1.552 13.078z" class="G"/><g class="B"><path d="M349.865 203.45s0-.49.081-1.308l.327-3.596c.409-3.024.98-7.111 1.879-11.688.817-4.577 1.715-8.664 2.368-11.607.327-1.471.572-2.697.817-3.514s.327-1.308.327-1.226c0 0-.082.49-.163 1.308l-.654 3.514-2.205 11.607-1.96 11.688c-.164 1.471-.409 2.615-.491 3.514-.245.818-.326 1.308-.326 1.308z"/><path d="M390.868 201.815s-.163 0-.408.082c-.327 0-.735.082-1.307.082l-4.737.327c-4.003.245-9.475.409-15.601.572l-15.601.409-4.737.163h-1.307-.49s.163 0 .408-.082c.327 0 .735-.081 1.307-.081l4.737-.327c4.003-.245 9.475-.409 15.601-.572l15.601-.409 4.737-.164h1.307.49z"/></g><g class="C"><path d="M351.662 190.944h-.899c-.653-.081-1.47-.081-2.368-.163l-7.76-.491-7.759-.163h-2.369c-.572 0-.899 0-.899-.082 0 0 .327-.081.899-.081.572-.082 1.388-.082 2.369-.082 1.96-.082 4.737-.082 7.759.082l7.76.572c.98.081 1.797.245 2.368.327a4.12 4.12 0 0 1 .899.081zm3.953-22.681c.006-.136-5.324-.469-11.904-.745s-11.919-.39-11.925-.255 5.324.469 11.904.745 11.919.39 11.925.255zm-22.331 50.063l.49-.736 1.389-1.962c1.225-1.634 3.104-3.678 5.391-5.803s4.574-3.76 6.289-4.822c.817-.572 1.552-.981 2.042-1.226l.817-.409c0 .082-1.062.736-2.696 1.88s-3.839 2.861-6.126 4.904-4.165 4.169-5.472 5.64l-2.124 2.534zm33.839 4.446c.134-.021-.46-4.484-1.326-9.968s-1.677-9.913-1.811-9.892.46 4.484 1.327 9.968 1.676 9.913 1.81 9.892z"/></g><g opacity=".3"><path opacity=".3" d="M345.046 229.196l52.765-16.02c-3.921 5.231-11.681 10.054-17.48 13.078s-12.007 5.149-18.214 7.193c-3.349 1.144-6.78 2.288-10.374 2.288s-7.024-1.062-8.903-4.087l2.206-2.452z" fill="#000"/></g><path d="M354.112 93.353c.98-2.289.082-5.231-1.96-6.621s-5.064-1.226-7.025.327-2.695 4.414-2.042 6.784c.899 2.861 3.839 4.904 6.861 4.741 3.023-.245 5.636-2.697 6.126-5.64" class="B"/><path d="M362.035 79.539v3.841l-.817 57.786c-.082 6.703 5.554 12.097 12.742 12.179 7.27.082 13.314-5.395 13.477-12.179l.572-14.63s9.23-1.308 11.435-13.159c1.144-5.885 1.062-15.694.817-23.622-.245-7.193-6.453-12.751-13.559-12.178l-24.667 1.962z" class="D"/><path d="M388.009 126.619s-8.086.327-15.846-4.741c0 0 3.676 8.337 15.683 7.52l.163-2.779z" class="F"/><path d="M377.064 75.78c3.185 4.25-.163 10.299-3.839 14.058-3.676 3.842-8.168 8.255-7.188 13.486 1.144 6.049 9.393 9.89 8.168 15.939-.408 2.207-2.205 4.086-2.205 6.293 0 4.087 5.227 6.049 6.779 9.809 2.042 5.149-3.594 10.298-3.675 15.856-.082 3.188 1.715 6.13 1.797 9.236.163 6.457-7.433 11.198-13.723 9.645s-10.536-7.683-11.925-14.058c-1.388-6.294.735-15.203 1.716-21.579l-10.864 2.534c-2.042-1.961.735-4.005 1.225-6.702 1.144-6.947 5.718-12.751 7.842-19.453 1.878-5.803 1.878-12.097 2.695-18.145s2.695-12.424 7.351-16.429 12.66-4.495 16.418.327" class="B"/><g class="E"><path d="M352.724 95.396c0-.082 1.797.49 4.819.164 2.94-.327 6.942-1.798 10.373-4.741 3.512-2.942 5.881-6.294 7.596-8.746l1.961-2.943c.49-.654.735-1.062.735-1.062s-.164.409-.654 1.144c-.408.736-1.062 1.717-1.878 3.024-1.634 2.452-4.003 5.967-7.597 8.909-3.512 2.942-7.596 4.414-10.618 4.659-1.47.163-2.695 0-3.594-.082-.408-.082-.735-.163-.98-.245-.082 0-.163-.082-.163-.082zm14.13 1.635s-.572.572-1.715 1.226-2.859 1.308-4.901 1.635-3.839.163-5.146-.163c-1.307-.245-2.042-.654-2.042-.654 0-.082.817.163 2.042.409 1.307.163 3.104.327 4.983 0 1.96-.327 3.675-.899 4.819-1.471 1.225-.572 1.878-1.062 1.96-.981zm38.798-8.01c0 .082-1.797.163-3.758-.981-1.878-1.144-2.777-2.779-2.695-2.779.082-.082 1.062 1.389 2.859 2.452 1.878.981 3.675 1.144 3.594 1.308zm-.736 4.005c0 .082-.98.409-2.287.082-1.225-.327-2.041-1.062-1.96-1.144s.899.409 2.124.736c1.143.245 2.123.163 2.123.327z"/></g><path d="M353.622 98.012c-.082 0-.572-1.716-.327-3.923.163-2.207.898-3.923 1.062-3.842.082.082-.409 1.716-.572 3.842-.327 2.125-.082 3.923-.163 3.923z" class="C"/><path d="M240.66 235.981c-.817-.164-7.433 30.814-6.535 42.829s6.535 53.945 6.535 53.945h67.712s8.494-40.786 6.943-53.128c-1.471-12.342-9.557-44.791-9.557-44.791l-65.098 1.145z" class="B"/><g class="D"><path d="M232.002 177.458l-9.639-43.646-.571-7.193-2.206-17.737c0-1.798-.898-2.288-1.552-2.207-1.061.082-1.797 1.39-1.797 2.943l.164 9.073s-.409-.736-1.716-2.289-4.247-2.452-7.351-2.37c-3.022.163-3.92.408-3.92 1.634 0 .491.245.818.571 1.145.572.49 1.307.654 2.042.654 4.901-.164 6.208 2.452 6.208 2.452l.082.98s-3.022-2.125-5.309-1.144c-.409.164-.654.327-.899.572-1.307 0-2.532.736-3.267 1.88-.653 1.144-.735 2.697 0 3.842.327.572.898 1.062 1.552.981.327-.082.572-.327.898-.573.164-.081.245-.245.409-.327l.572 2.616s1.633 5.803 2.041 8.419l2.614 43.238c.327 5.966 5.554 10.543 11.517 10.053 6.453-.49 11.027-6.702 9.557-12.996z"/><path d="M220.975 133.239c-.899.246-1.797-.408-2.287-1.144-.49-.817-.735-1.716-1.144-2.534-1.307-2.452-4.41-3.596-5.554-6.13-.163-.327-.245-.817.082-1.062.245-.246.653-.082.98.081l8.086 4.414"/></g><g class="F"><path d="M221.056 126.782s-.245-.245-.816-.572l-2.369-1.389-3.512-1.962c-.327-.163-.654-.409-.981-.572s-.735-.49-1.306-.327c-.327.082-.49.409-.49.736 0 .245.081.49.163.735.163.409.408.818.735 1.145 1.144 1.471 2.614 2.37 3.594 3.351.572.49.98 1.062 1.307 1.634s.49 1.145.735 1.717c.408 1.062 1.225 1.798 1.879 1.962s1.061 0 .98-.082c0-.082-.409.082-.98-.164s-1.226-.899-1.634-1.961c-.245-.491-.408-1.145-.735-1.799s-.817-1.226-1.307-1.798c-1.062-1.144-2.532-2.043-3.594-3.351-.245-.327-.49-.654-.653-1.062-.164-.327-.164-.736.081-.736.245-.082.572.163.899.327l1.062.572 3.594 1.88 2.45 1.226c.572.409.898.572.898.49zm-8.576-5.885c-.081 0 0-.735-.571-1.634a3.43 3.43 0 0 0-1.471-1.063c-.653-.245-1.47-.327-2.287-.327s-1.715 0-2.45-.163-1.389-.491-1.797-.899-.572-.981-.49-1.226c.082-.327.163-.491.163-.491v.491c0 .327.082.735.49 1.062s.981.572 1.716.736 1.47.163 2.368.163c.817 0 1.716.082 2.451.327s1.307.736 1.633 1.226a2.39 2.39 0 0 1 .409 1.308c-.082.327-.164.49-.164.49zm3.676-11.933c.081 0 .081.654.081 1.716v4.087l.082 4.087v1.716c-.082 0-.163-.654-.245-1.716l-.163-4.087.081-4.087.164-1.716zm-5.554 13.895s-.164-.082-.49-.163-.817-.327-1.307-.082c-.245.082-.409.408-.409.735s0 .736.082 1.145.082.899-.163 1.307-.817.654-1.307.654-.98-.245-1.307-.572-.572-.735-.654-1.144c-.163-.817-.081-1.553 0-2.207s.245-1.144.409-1.389c.163-.327.327-.409.327-.409l-.245.49c-.164.327-.246.818-.327 1.39s-.082 1.308.081 2.125c.164.736.817 1.471 1.634 1.471.408 0 .817-.245 1.062-.572s.245-.736.163-1.144-.081-.818-.081-1.145c0-.408.245-.735.571-.899.654-.245 1.226 0 1.471.164l.49.245z"/><path d="M205.701 125.638s.081.164-.082.491c-.082.327-.408.735-.98.899s-1.307 0-1.879-.572-.817-1.39-.898-2.207c0-.899.245-1.717.735-2.289.408-.654.98-.981 1.552-1.226.49-.245.98-.327 1.307-.327s.49 0 .49.082-.735 0-1.634.49c-.49.246-.98.654-1.388 1.226s-.654 1.308-.654 2.126.245 1.552.735 2.043 1.144.654 1.634.572a1.22 1.22 0 0 0 .898-.736c.164-.327.164-.572.164-.572zm5.963 5.721s.326-.081.816 0 1.226.409 1.797 1.063l-.326.082c0-.327.081-.736.163-1.145.49-2.207 1.634-3.678 1.715-3.596s-.98 1.553-1.388 3.678c-.082.409-.164.736-.164 1.144l-.081.409-.245-.327c-.49-.572-1.144-.899-1.634-1.062-.327-.246-.653-.246-.653-.246zm-.328-14.63c.082 0-.245.654-.98.981s-1.388.163-1.388.082.572-.082 1.225-.409c.653-.245 1.062-.654 1.143-.654z"/></g><path d="M309.679 140.351c3.512 0 12.088 10.053 13.558 25.419.654 7.029 4.166 35.718 5.881 49.532.654 4.985-1.551 9.89-5.635 12.832-9.149 6.702-27.526 17.164-51.949 16.837l-14.784-12.423 48.028-20.271v-1.062l2.124-2.289-5.963-36.78s-5.636-31.795 8.74-31.795z" class="C"/><g class="B"><path d="M297.182 75.698c.163 4.986 6.779 8.01 6.698 12.996 0 2.125-1.389 4.087-1.634 6.212-.327 2.861 1.225 5.558 1.797 8.337 1.225 5.803-2.124 11.933-7.106 15.039-4.983 3.188-11.272 3.76-17.153 2.943m-22.625-46.753c.163 2.697-1.552 5.067-3.349 7.029s-3.757 4.087-4.166 6.702c-.653 4.659 3.921 9.073 2.941 13.731-.49 2.452-2.532 4.496-2.941 7.029-.326 2.452.98 4.823 2.532 6.703 1.634 1.88 3.513 1.553 4.901 3.596 1.47 2.125 3.921 4.25 6.208 5.476 5.146 2.861 11.353-1.226 13.804-1.961"/><path d="M298.162 78.559c.082-2.452-2.205-4.332-4.411-5.149-2.287-.899-4.737-1.226-6.779-2.534-1.797-1.226-2.941-3.106-4.493-4.577-3.675-3.76-9.474-5.313-14.538-3.923s-9.23 5.64-10.537 10.789c-.899 3.433-.245 7.52 2.45 9.808 3.186 2.697 7.842 2.043 11.844 1.226s8.576-1.635 12.007.736c2.042 1.471 3.185 3.76 4.41 5.885s2.777 4.332 5.146 5.149 5.554-.572 5.636-3.106"/></g><path d="M265.98 134.956l-.081-10.953s-8.822-1.471-10.619-12.995c-.898-5.722-.571-15.121-.081-22.804.49-6.948 5.064-15.366 11.925-14.631l21.482 5.476c2.123.245 3.675 2.043 3.593 4.087l-1.96 52.147c-.245 6.62-5.717 11.851-12.333 11.688-6.616-.082-11.844-5.395-11.926-12.015z" class="D"/><path d="M265.898 124.003s7.76.491 15.438-4.086c-.164 0-4.248 8.01-15.274 6.784l-.164-2.698z" class="F"/><g class="B"><path d="M293.506 117.628c-3.185.654-3.43-.98-5.799-3.187s-3.594-5.558-3.185-8.746c.326-2.861 1.878-5.721.898-8.419-1.307-3.515-6.289-4.659-7.596-8.174-.735-2.043-.082-4.495-.98-6.457-.817-1.88-2.777-2.942-4.738-3.678s-4.002-1.144-5.636-2.452c-1.633-1.226-2.613-3.678-1.551-5.395 8.576 1.063 17.071 3.106 25.157 6.13 1.878.736 3.839 1.553 4.982 3.188 1.144 1.798 1.144 4.087.98 6.212l-1.47 31.059m6.126-23.62c.327-3.76 3.43-7.193 7.188-7.847s7.841 1.389 9.556 4.822c1.634 3.269 1.062 7.193-.408 10.544-1.797 3.923-5.391 7.52-9.72 7.356-4.084-.163-7.27-3.76-8.495-7.601-1.143-3.923-.735-8.01-.245-12.097"/></g><g class="E"><path d="M302.981 109.864s.245-.164.572-.654a6.07 6.07 0 0 0 .898-2.289c.164-1.062.164-2.288-.081-3.678s-.654-2.779-1.062-4.25c-.327-1.471-.49-2.942-.245-4.25s.816-2.37 1.143-3.351.245-1.88.082-2.452-.409-.817-.409-.817.164.327.245.817a4.75 4.75 0 0 1-.245 2.289c-.326.981-.898 2.043-1.225 3.433s-.163 2.942.245 4.495l1.062 4.251c.245 1.307.327 2.533.245 3.514-.327 1.962-1.307 2.861-1.225 2.943z"/><path d="M303.145 96.05s.49.817 1.796 1.716c1.226.899 3.268 1.798 5.636 1.88 2.369 0 4.493-.817 5.718-1.635 1.307-.817 1.878-1.635 1.797-1.635-.082-.082-.735.654-2.042 1.389s-3.267 1.471-5.554 1.471c-2.287-.082-4.248-.817-5.473-1.635l-1.878-1.553zm.571 1.799c-.082 0 .245.736.98 1.798s1.96 2.37 3.676 3.351 3.43 1.471 4.655 1.634c1.307.164 2.042.082 2.042 0s-.816-.081-1.96-.326c-1.225-.246-2.859-.818-4.492-1.717-1.634-.981-2.859-2.207-3.676-3.106-.735-.981-1.143-1.716-1.225-1.635zm-2.859 15.856l.164-.164c.081-.081.163-.245.326-.49.245-.409.572-1.063.736-2.044.163-.899.163-2.125-.164-3.432s-1.225-2.698-2.695-3.597c-1.389-.981-3.186-1.634-4.248-3.187-.571-.736-.816-1.717-.653-2.698s.572-1.962.98-3.024c.899-2.043.899-4.659-.163-6.866-.49-1.144-1.307-2.125-2.369-2.942s-2.287-1.144-3.512-1.471l-3.676-.817c-1.143-.327-2.287-.899-3.022-1.635-.817-.817-1.143-1.88-1.307-3.024s-.245-2.289-.571-3.351c-.572-2.125-1.634-4.087-3.104-5.476s-3.186-2.207-4.901-2.452-3.267.082-4.411.654c-1.225.572-2.042 1.471-2.614 2.207-.571.817-.816 1.471-.898 1.962s-.082.736-.082.736c.082 0 .082-1.062 1.144-2.615.572-.736 1.388-1.553 2.532-2.125s2.695-.817 4.247-.572c1.634.245 3.267 1.063 4.656 2.37s2.45 3.188 2.94 5.231c.245 1.063.327 2.125.491 3.269s.571 2.37 1.47 3.269 2.042 1.471 3.267 1.798l3.675.817c1.226.245 2.369.654 3.349 1.39s1.716 1.635 2.206 2.697c.98 2.125.98 4.495.163 6.539-.408.981-.817 2.043-.98 3.106s.082 2.207.735 3.025c1.225 1.634 3.104 2.288 4.411 3.187 1.388.899 2.205 2.125 2.613 3.433a6.61 6.61 0 0 1 .245 3.27c-.326 2.206-1.061 3.024-.98 3.024z"/><path d="M300.04 81.583s.082-.163.164-.572c0-.327 0-.899-.409-1.553-.326-.572-.98-1.226-1.96-1.553s-2.124-.327-3.267-.082c-1.225.245-2.45.736-3.839.981-1.307.245-2.941.327-4.166-.654-1.225-.899-1.797-2.534-2.45-4.169s-1.47-3.269-2.695-4.741c-2.369-2.942-5.555-4.904-8.74-5.64-1.634-.327-3.186-.327-4.574.082a6.91 6.91 0 0 0-3.349 2.207c-.817.981-1.225 2.043-1.307 3.024s.082 1.798.408 2.452c.245.654.572 1.063.899 1.308.245.245.408.327.408.327.082-.082-.653-.49-1.143-1.716-.245-.654-.409-1.471-.245-2.37.081-.899.49-1.962 1.225-2.861s1.879-1.635 3.185-2.043 2.859-.409 4.411-.082c3.022.736 6.126 2.697 8.413 5.476 1.144 1.389 1.96 3.024 2.614 4.577s1.307 3.269 2.614 4.332c.653.49 1.47.817 2.287.817.816.082 1.552 0 2.287-.163 1.388-.327 2.613-.817 3.839-1.063 1.143-.245 2.287-.245 3.103 0 .899.327 1.471.899 1.879 1.471s.49 1.063.408 1.389c.082.572 0 .817 0 .817z"/></g><path d="M310.659 140.514l-20.42-5.231h-24.34s-12.579.736-19.603 6.948c-.164.163-2.369 2.125-3.839 6.293l-10.782 24.766-5.554-31.059-19.44 2.779 3.104 53.454c1.143 11.362 9.475 20.679 20.665 23.05l11.027-12.424 2.532 18.717c.245-.245 60.524-3.923 60.524-3.923l-6.126-20.597 12.252-62.773z" class="C"/><g class="B"><path d="M243.763 187.839s-.245-.245-.653-.736c-.327-.49-.817-1.308-1.062-2.452-.653-2.207-.572-5.394.49-8.664s2.532-5.967 3.349-8.01l.898-2.452c.164-.572.327-.899.327-.899s0 .327-.163.981l-.817 2.534-3.185 8.091c-1.062 3.188-1.144 6.294-.654 8.419.654 2.043 1.634 3.106 1.47 3.188zm56.441-21.088s.081.163.081.409l.245 1.226.817 4.495 2.532 14.876c.98 5.803 1.715 11.116 2.287 14.957.245 1.88.49 3.433.572 4.578.082.49.082.899.082 1.226v.408s-.082-.163-.082-.408c-.082-.327-.082-.736-.163-1.226-.164-1.145-.409-2.698-.736-4.496l-2.368-14.876-2.369-14.875c-.327-1.88-.49-3.433-.735-4.496-.082-.49-.163-.899-.163-1.226v-.572z"/><path d="M231.103 188.656c-.082 0 0-.899.163-2.288l.327-5.477v-5.476c-.082-1.389-.082-2.289 0-2.289s.163.818.327 2.289c.163 1.39.245 3.351.163 5.476l-.408 5.477-.572 2.288zm82.986 25.665c-.081 0-.163-.572-.571-1.308-.409-.817-1.062-1.798-2.124-2.616s-2.287-1.144-3.186-1.307-1.47-.082-1.47-.164.572-.163 1.47-.163c.899.081 2.206.408 3.349 1.226s1.879 1.961 2.206 2.86c.408.9.408 1.472.326 1.472zm-4.492 2.452c-.082.082-.735-1.39-2.124-2.697s-2.859-1.798-2.859-1.88 1.634.245 3.104 1.553c1.552 1.389 1.96 3.024 1.879 3.024z"/><path d="M294.568 216.773c-.082-.082 2.287-1.063 5.064-2.289l5.146-2.207c.082.082-2.124 1.39-4.983 2.616-2.777 1.226-5.227 1.962-5.227 1.88z"/></g><path d="M215.176 182.362l11.762 55.171c0-.653 59.217 2.534 69.754 3.025l2.205-.572 16.744-15.367-19.194-1.553-6.861-39.314-74.41-1.39z" class="G"/><g class="E"><path d="M298.87 239.94c.133-.022-1.863-12.637-4.46-28.176l-4.944-28.096c-.133.022 1.864 12.637 4.46 28.176l4.944 28.096z"/><path d="M289.668 183.752l-.409.408c-.245.246-.735.573-1.225 1.145-.245.245-.49.654-.327 1.062l.245 1.472.654 3.514 3.43 20.352 3.349 20.352.98 6.212.245 1.716c.082.409.082.573.082.573s-.082-.164-.163-.573-.164-.98-.327-1.634l-1.062-6.13-3.43-20.352-3.349-20.352-.572-3.515-.245-1.471c-.163-.491.163-.899.408-1.226.49-.572.981-.899 1.307-1.145.245-.326.409-.49.409-.408z"/><path d="M287.544 185.713h-.735-2.124c-1.879 0-4.492-.081-7.678-.081l-25.402-.409-25.402-.409-7.678-.081c-.899 0-1.552 0-2.124-.082-.49 0-.735 0-.735-.082 0 0 .245 0 .735-.082h2.124 7.678l25.402.327 25.402.572 7.678.246 2.124.081h.735zm8.739 38.906h1.144c.817 0 1.878.082 3.104.164l10.373.572h.49l-.408.327c-.246.163-.491.408-.736.654l-8.413 7.111-2.613 2.125-.98.735.898-.817 2.532-2.207 8.331-7.193c.245-.245.49-.408.735-.654l.164.409-10.373-.735-3.104-.246-1.144-.245z"/></g><path d="M244.825 239.168l-.735-9.073s3.022-.408 3.268 2.943v-5.64s3.43-.735 4.247 3.76c.735 4.577 1.878 7.029 1.878 7.029l1.879.981-1.715-10.544s3.675.327 4.329 3.76 1.633 5.885 1.633 5.885l5.8 1.635s-3.349-2.943-3.022-3.924.081-.899.735-1.062 2.123.327 3.103.817l7.188 4.169v4.495s-14.294 1.063-17.479.409l-6.208-1.471c-2.368-.327-4.165-1.962-4.901-4.169z" class="D"/><path d="M255.279 214.334c2.136-.355 3.544-2.592 3.145-4.997s-2.454-4.066-4.59-3.711-3.544 2.592-3.145 4.997 2.454 4.066 4.59 3.711z" fill="#fafafa"/><g opacity=".4"><path opacity=".4" d="M306.82 208.681c2.45-.736 5.146-.817 7.433.245s4.165 3.188 4.492 5.722c.082.572.082 1.226-.163 1.716-.164.572-.654 1.063-1.226 1.226-.898.245-1.878-.327-2.368-1.144s-.735-1.717-1.062-2.616c-1.144-2.942-4.247-5.067-7.351-5.149.163 0 .245.082.408.082" fill="#000"/></g><path d="M263.856 138.389c.491-1.553.082-3.188-.245-4.741-.245-1.553-.326-3.433.736-4.577 1.061-1.226 2.858-1.308 4.492-1.39l19.766-.899c1.389-.081 2.941 0 3.758 1.063.571.654.898 1.635.735 2.452-.98 3.76-.735 6.947.816 9.563" class="C"/><g class="B"><path d="M290.647 136.509l-.898.735c-.572.409-1.47 1.063-2.614 1.635-2.287 1.226-5.717 2.616-9.72 2.943-1.96.163-3.92.163-5.636-.082s-3.185-.736-4.329-1.39-1.96-1.389-2.368-1.961c-.245-.245-.409-.491-.49-.654s-.164-.245-.164-.245c.082-.082.817 1.471 3.186 2.615 1.143.572 2.613 1.063 4.247 1.308 1.715.245 3.594.245 5.473.082 3.92-.327 7.269-1.635 9.556-2.779 2.45-1.226 3.757-2.289 3.757-2.207z"/><path d="M277.17 141.903c-.081 0-.245-.817-.49-2.206l-.98-5.313-.49-2.943c-.163-.899-.163-1.798.082-2.452s.653-1.144 1.062-1.307c.326-.164.571-.164.571-.164s-.245.082-.49.327c-.326.245-.653.654-.817 1.308s-.163 1.471 0 2.288l.491 2.943.816 5.313c.245 1.389.327 2.206.245 2.206zm10.292-3.105c-.082 0-.164-.654-.409-1.798l-.571-4.414-.49-4.332c-.082-.572-.409-.899-.654-1.063s-.408-.163-.408-.245c0 0 .163-.082.49.082s.653.572.817 1.144c.245 1.145.408 2.697.653 4.414l.49 4.414.082 1.798zm-18.868-11.116c0 .081-.654.245-1.307 1.144-.327.409-.572.981-.735 1.716s-.164 1.472-.082 2.289l.327 4.332c.081 1.144.081 1.798 0 1.798s-.164-.654-.327-1.798l-.49-4.332c-.082-.817-.082-1.716.082-2.452s.49-1.39.898-1.798c.899-.899 1.715-.981 1.634-.899z"/></g><path d="M188.058 248.159c0 4.169 2.45 84.841 2.45 84.841l-34.305-.163-5.963-35.882-1.551 35.882h-33.081l3.594-88.519 68.856 3.841z" class="E"/><path d="M86.858 214.73l-17.561-26.155 12.987-10.544 21.972 20.434s9.475-53.128 18.786-56.316l-.735 82.389c-12.497 5.967-27.607 1.798-35.448-9.808z" class="B"/><path d="M51 91.555l3.757 50.921 61.015 117.126 35.367-20.433-60.198-114.511L51 91.555z" class="C"/><g opacity=".7"><path opacity=".7" d="M91.513 124.903c-.98 1.798-3.676 2.289-5.228 1.063.898 3.678-.735 7.846-3.921 9.808-3.186 2.043-7.678 1.798-10.537-.572-.49 3.678-3.104 7.029-6.534 8.418s-7.678.818-10.537-1.553L51 91.555l40.513 33.348z" fill="#fff"/></g><path d="M52.47 112.071s8.25 5.231 14.866-6.948L51 91.555l1.47 20.516z" class="C"/><g fill="#fff"><path d="M129.249 250.039c-.082.082-13.069-25.583-28.996-57.296l-28.588-57.46c.082-.081 13.069 25.583 28.996 57.297l28.588 57.459zm14.702-8.745c-.081.082-13.068-25.583-28.996-57.296l-28.588-57.46c.082-.082 13.069 25.583 28.996 57.296l28.588 57.46z"/></g><path d="M72.155 159.804l-7.923 3.187-1.715 6.376 2.695 10.625 6.371 6.784 4.329-3.596.245-6.539.49-3.678s3.921-1.226 4.002-1.798-.49-2.616-1.062-2.697-4.656 1.389-4.656 1.389 4.819-3.841 4.737-4.495c-.163-.654-.654-2.207-1.634-2.371s-8.821 3.515-8.821 3.515l-1.307 2.861-1.143-4.659c.163.163 7.106-1.798 5.391-4.904z" class="D"/><g class="H"><path d="M73.135 174.761c-.082 0-.163-.245-.245-.817-.082-.491 0-1.226.245-1.962a3.65 3.65 0 0 1 1.144-1.635c.408-.326.653-.49.735-.408s-.98.817-1.47 2.207c-.572 1.307-.327 2.615-.408 2.615zm-3.757-1.389c-.082 0 .245-.736.327-2.044.082-.653.082-1.471.408-2.288.163-.409.408-.899.735-1.226.327-.409.817-.654 1.307-.818l4.819-1.634 2.042-.572c0 .081-.735.408-1.96.817l-4.819 1.716c-.49.164-.898.409-1.144.736-.327.327-.49.654-.653 1.063-.327.817-.327 1.553-.49 2.206-.163 1.308-.49 2.044-.572 2.044zm-1.305-2.949c.14-.846.145-1.55.011-1.572s-.355.646-.495 1.492-.144 1.55-.011 1.572.355-.646.495-1.492z"/></g><path d="M174.663 126.864l-6.943-2.37-25.974 5.967-2.287 1.88-13.722 127.261c5.881 6.049 24.504 7.275 35.04 5.476l13.886-138.214z" class="C"/><g class="B"><path d="M175.153 127.11l-3.349-1.635s-7.351 32.367-7.351 53.782-4.656 98.981-4.656 98.981l35.04-.899v-85.74l-19.684-64.489zm-49.417 152.354l-13.232-3.924 4.656-62.69-.898-45.445 6.942-25.338 16.5-10.217c-.082 0-13.069 140.094-13.968 147.614z"/></g><path d="M153.426 142.476c-6.616-.572-11.681-6.13-11.681-12.751l.082-11.361s-10.537-1.634-10.618-12.178 1.715-34.656 1.715-34.656c12.17-5.231 26.219-3.433 36.674 4.577l1.552 1.226-3.839 53.292c-.572 7.192-6.779 12.505-13.885 11.851z" class="D"/><path d="M141.746 118.201s6.616.572 13.722-3.924c0 0-3.267 7.602-13.722 6.621v-2.697z" class="H"/><path d="M169.761 88.204c.164-.082 7.188-2.125 7.025 5.067-.245 7.192-7.433 5.476-7.433 5.231 0-.163.408-10.299.408-10.299z" class="D"/><path d="M171.64 95.887s.082.082.327.163a1.54 1.54 0 0 0 .898.082c.735-.245 1.471-1.471 1.552-2.697 0-.654-.081-1.308-.326-1.798-.164-.572-.491-.899-.899-.981s-.653.082-.735.327c-.082.163-.082.327-.082.327s-.163-.163-.081-.409c0-.163.163-.327.326-.409.164-.163.409-.163.735-.163.572.082 1.062.572 1.307 1.144a5.36 5.36 0 0 1 .409 2.043c-.082 1.471-.899 2.779-1.961 3.024a1.6 1.6 0 0 1-1.143-.245c-.327-.245-.327-.409-.327-.409z" class="H"/><path d="M127.697 64.909c-.082-1.308.408-2.697 1.47-3.433 1.062-.817 2.695-.736 3.512.245-.49-1.716.98-3.76 2.777-3.923 1.716-.082 3.186 1.226 4.819 1.635s3.349.082 4.901-.572l4.574-2.043c3.267-1.226 7.025-1.062 10.21.409s5.718 4.25 6.943 7.52c2.287-.736 4.901.409 6.289 2.37s1.797 4.495 1.47 6.866c-.163 1.635-.653 3.188-1.225 4.741v.409c-.081 5.803-.735 12.587-3.267 12.587-4.329.082-3.267-8.01-3.267-8.01-5.309-2.043-3.349-9.972-4.656-11.116-1.307-1.226-4.084-4.005-15.111 1.635-4.247 2.207-9.964 2.125-13.068 1.39-.082 0-.164 0-.245-.082h-.082-.082c-.98-.245-1.96-.654-2.858-1.226-.981-.654-1.879-1.471-2.369-2.616-.409-1.144-.245-2.452.572-3.269-.49-.981-1.144-2.207-1.307-3.515z" class="B"/><g class="E"><path d="M162.819 71.53s.081-.49 0-1.308-.572-1.962-1.634-2.942-2.777-1.635-4.737-1.553c-1.961 0-4.003.654-6.126 1.389l-3.186.899c-1.062.245-2.123.327-3.104.409-1.96.082-3.757-.245-5.145-.654a16.23 16.23 0 0 1-3.268-1.389c-.326-.163-.653-.409-.816-.49-.164-.163-.245-.163-.245-.163a11.61 11.61 0 0 0 1.143.572c.735.409 1.797.899 3.267 1.308 1.389.409 3.186.654 5.146.572.98 0 1.96-.164 3.022-.409l3.186-.899c2.123-.736 4.247-1.39 6.207-1.39s3.839.654 4.901 1.717c1.144 1.063 1.552 2.289 1.634 3.106 0 .817-.245 1.226-.245 1.226zm8.168 17.818s-.082-.082-.163-.245-.164-.409-.327-.654c-.245-.572-.572-1.471-.817-2.615s-.408-2.534-.245-4.087c.082-1.553.572-3.188.899-4.904.408-1.716.49-3.433 0-4.822-.245-.736-.572-1.308-.981-1.798s-.98-.817-1.47-.981c-1.062-.409-2.042-.245-2.614.082s-.816.572-.816.572.163-.327.735-.654 1.552-.572 2.695-.163a3.33 3.33 0 0 1 1.634 1.063c.49.49.817 1.144 1.062 1.88.49 1.471.408 3.269 0 4.986l-.981 4.822c-.163 1.471 0 2.861.164 4.005.245 1.144.49 2.043.735 2.615.408.572.572.899.49.899zm-7.106-18.635v-.409c0-.327 0-.736.082-1.226 0-1.062.081-2.615-.491-4.332-.245-.899-.735-1.798-1.388-2.616s-1.634-1.553-2.777-1.88-2.451-.245-3.757.163c-1.307.327-2.532.981-3.758 1.716s-2.45 1.39-3.757 1.88-2.614.736-3.839.736a15.87 15.87 0 0 1-3.512-.409 18.93 18.93 0 0 1-2.859-1.144c-1.633-.981-2.695-2.043-3.349-2.861-.326-.409-.571-.736-.653-.981-.164-.245-.245-.327-.164-.409 0 0 .082.082.246.327a14.77 14.77 0 0 0 .735.981c.653.817 1.797 1.88 3.43 2.779a21.84 21.84 0 0 0 2.777 1.144c1.062.245 2.206.409 3.431.409s2.532-.327 3.757-.736c1.225-.49 2.45-1.226 3.676-1.88 1.225-.736 2.532-1.39 3.839-1.717s2.695-.49 3.92-.163 2.206 1.063 2.941 1.962 1.143 1.88 1.388 2.779c.49 1.798.409 3.351.409 4.414 0 .49-.082.899-.082 1.226-.245.082-.245.245-.245.245z"/></g><path d="M175.153 127.11s25.075 8.01 26.709 12.342c1.225 3.269 14.375 42.829 17.234 68.576 1.144 10.462-6.616 19.861-17.153 20.842-16.989 1.553-41.574 3.596-41.574 2.207v-21.415l31.936-4.74-11.843-34.738-5.309-43.074z" class="B"/><path d="M142.971 226.745c3.267.817 17.398.817 17.398.817v-16.755s-6.126-2.616-7.841-4.169-6.535-10.544-6.535-10.544-2.94 1.635-2.205 5.15c.817 3.678 2.287 4.168 2.45 5.639l.164.409c.326 2.043-1.634 3.841-1.634 3.841.082 0-1.634-1.062-2.124-1.062-2.94-.327-6.534 1.798-6.534 2.942 0 0-.082 3.188 0 3.678s1.634 1.145 1.634 1.145-.49 2.125 0 3.106 2.042 1.634 2.042 1.634 1.388 3.678 3.185 4.169z" class="D"/><g class="H"><path d="M146.402 224.047c0 .082-1.552.246-3.431-.163s-3.185-1.144-3.185-1.226c.081-.082 1.47.409 3.267.817l3.349.572zm-.817-5.067c0 .082-1.715.491-3.839.164-2.124-.246-3.757-1.145-3.676-1.226s1.634.49 3.758.817c2.042.327 3.757.163 3.757.245zm-.49-14.385c.082 0 .572.735 1.143 2.043.164.327.245.736.327 1.144s.163.981 0 1.472c-.245.98-1.062 1.88-2.042 2.452-.49.327-1.062.49-1.552.654l-1.552.163h-2.532c-1.47 0-2.287.245-2.368.163 0-.081.816-.408 2.287-.49l2.532-.163c.49 0 .98-.082 1.47-.164s.98-.327 1.47-.572c.899-.572 1.634-1.308 1.879-2.207.163-.409.081-.817.081-1.226-.081-.409-.163-.817-.326-1.144-.409-1.308-.899-2.125-.817-2.125z"/></g><g class="E"><path d="M192.714 204.922l-1.226.245-3.43.572-11.435 1.798-11.435 1.635-4.738.49c.327-.082.735-.082 1.225-.245l3.431-.572 11.435-1.798 11.435-1.635 3.431-.49c.816 0 1.307-.082 1.307 0z"/><path d="M206.273 201.734c0 .082-.981.082-2.532 0l-6.045-.327c-1.143-.082-2.287-.164-3.267 0-.98.245-1.715.736-2.124 1.389s-.408 1.308-.326 1.635c.081.409.245.572.245.654 0 0-.245-.163-.409-.572s-.163-1.144.164-1.88c.408-.736 1.225-1.308 2.287-1.553s2.205-.163 3.349-.082l6.044.491 2.614.245z"/><path d="M201.031 207.582c.039-.13-1.929-.827-4.394-1.557s-4.496-1.217-4.534-1.087 1.929.827 4.395 1.557 4.495 1.217 4.533 1.087zm-8.73-5.374c.129-.039-2.249-8.228-5.311-18.289l-5.78-18.146c-.13.039 2.248 8.228 5.311 18.289l5.78 18.146zm7.6-62.184c0 .082-1.47.327-3.675 1.144s-5.146 2.452-7.76 5.068c-2.532 2.615-4.165 5.558-4.982 7.765s-1.062 3.759-1.144 3.678c0 0 0-.409.082-1.063s.327-1.635.735-2.779c.735-2.288 2.369-5.313 4.983-8.01 2.613-2.615 5.635-4.25 7.922-5.067 1.144-.409 2.124-.654 2.778-.736.735.082 1.061 0 1.061 0zm-83.394 17.491s0 .164.082.572c0 .409 0 .981.081 1.635l.082 5.967.245 19.78.082 19.779v5.967 1.635.572s0-.164-.082-.572c0-.409 0-.981-.082-1.635l-.081-5.967-.245-19.779-.082-19.78v-5.967-1.635-.572z"/></g><path d="M156.039 331.774l-.163-.572-.408-1.798-1.389-6.539c-1.143-5.558-2.532-13.241-3.92-21.741s-2.369-16.266-3.023-21.905l-.735-6.621c-.081-.736-.163-1.389-.163-1.798s-.082-.654 0-.654c0 0 .082.245.082.654.081.49.163 1.062.245 1.798l.898 6.621c.735 5.639 1.797 13.322 3.186 21.823l3.757 21.741 1.225 6.539c.163.736.245 1.308.327 1.798a3.74 3.74 0 0 1 .081.654z" class="B"/><path d="M181.451 230.415l20.603-1.605c-.009-.135-9.247.364-20.635 1.115l-20.604 1.605c.009.135 9.248-.364 20.636-1.115z" class="E"/></g><defs><clipPath id="A"><path fill="#fff" transform="translate(51 56)" d="M0 0h428v277H0z"/></clipPath></defs></svg>