<svg xmlns="http://www.w3.org/2000/svg" width="507" height="507" fill="#fff" opacity=".3" xmlns:v="https://vecta.io/nano"><path d="M259.946 0l3.352.419a198.58 198.58 0 0 1 24.935 2.2c17.182 2.41 34.049 6.496 50.392 12.467 39.602 14.353 73.546 37.192 101.833 68.308 29.125 32.058 48.612 69.25 58.879 111.262 2.305 9.429 4.086 18.857 5.238 28.496 1.572 13.305 2.095 26.715 1.572 40.125-1.048 25.04-5.553 49.45-13.934 73.232-7.124 20.429-16.763 39.602-28.811 57.621-17.391 25.773-38.659 47.774-64.012 65.689-27.344 19.382-57.307 32.792-89.89 40.335-12.467 2.828-25.144 4.714-37.925 5.657-7.648.629-15.191.21-22.839.419-10.791.21-21.582-.838-32.268-2.409-18.963-2.724-37.297-7.648-55.107-14.563-25.039-9.743-47.983-23.258-68.727-40.335-30.382-25.144-53.85-55.526-70.193-91.461-7.753-17.077-13.515-34.887-17.286-53.326-2.305-11.419-3.876-22.839-4.61-34.468-.629-9.953-.733-20.01-.21-29.963.629-11.419 2.095-22.734 4.191-33.944 6.81-36.354 21.163-69.355 42.64-99.319s48.192-54.164 80.041-72.498c22.001-12.677 45.469-21.896 70.298-27.449 9.325-2.095 18.858-3.772 28.392-4.61 5.972-.524 11.943-.838 17.915-1.257l2.514-.314C250.936 0 255.441 0 259.946 0zm-7.019 503.821c138.815.104 250.181-112.834 250.705-249.553C504.051 116.71 392.685 3.248 253.87 2.724 116.731 2.2 2.745 113.462 2.535 252.801c-.21 138.605 112.205 250.915 250.392 251.02z"/><path d="M494.936 253.534c-.21 133.158-107.909 241.696-241.8 241.591-135.044 0-241.905-109.69-241.905-242.01.105-132.319 107.386-242.114 242.743-241.695 133.472.419 240.962 108.747 240.962 242.114zM130.14 94.395c2.829.943 5.657-.943 5.762-3.876.105-1.467-.314-2.933-.628-4.295-.315-1.572-.943-3.038-1.258-4.61s-.209-3.143 1.153-4.191c.943-.733 1.99-1.362 3.038-2.095l5.553 8.277c.524.838.419 1.467-.419 2.095-.524.419-1.048.733-1.467 1.152.209.314.419.629.524.943l9.429-6.391c-.838-.733-.838-.733-1.677-.314-1.781.943-1.885.943-3.038-.629-.209-.314-.419-.524-.524-.838l-6.809-10.058-3.877-5.762c-.838-1.362-.733-1.676.524-2.619.419-.314.838-.629 1.152-.943-.523-1.152-1.152-.524-1.676-.209-3.352 2.2-6.705 4.4-9.953 6.81-1.257.838-2.409 1.991-3.247 3.143-1.991 2.514-1.991 5.343-.315 7.753 1.572 2.305 4.296 3.143 7.229 2.41.629-.21 1.153-.314 2.096-.524-1.677 3.038-1.467 5.762-.524 8.591.419 1.152.838 2.41 1.047 3.667.105.419 0 1.362-.209 1.362-.524.21-1.153.105-1.676-.105s-.839-.838-1.362-1.152c-.21-.105-.734 0-1.048 0 0 .105-.105.314-.105.419.838.524 1.572 1.257 2.305 1.991-1.467 1.467-2.933 1.362-4.714.419l-20.849-10.581c-1.781-.943-1.781-.943-3.248.733.629 1.467 1.258 3.038 1.781 4.61l7.544 18.753c.628 1.572.733 2.934-.524 4.296-.105.105-.105.314-.105.524.524.838.943.419 1.362 0l3.981-3.667c.419-.419 1.257-.734.629-1.362s-1.048.209-1.467.524c-1.257.838-1.781.838-2.41-.629-.733-1.676-1.362-3.352-1.99-4.819.104-.314.209-.419.209-.524l4.4-4.086c.943-.838 1.886-2.2 2.934-2.305 1.152-.105 2.41.838 3.562 1.467l3.038 1.676c-.838 1.048-1.467 1.781-2.095 2.515.628.943 1.048.419 1.467 0 1.99-1.781 3.876-3.667 5.971-5.343.943-.943.943-1.467.524-2.2zm122.891 341.329c100.994 0 182.293-81.927 182.502-181.979.21-99.842-80.146-182.084-181.035-182.922-100.995-.838-183.341 80.461-183.865 181.455-.524 102.147 82.137 183.55 182.398 183.446zM314.005 42.64c-.105.524-.105.838-.105 1.152l-3.667 14.143c-.209.838-.524 1.886-1.152 2.41-.419.314-1.467 0-2.305-.105-.733-.105-.943.21-.838 1.048l6.181 1.571 3.876.943c.734.21 1.048-.105.943-.943-.314-.105-.524-.209-.838-.314-2.095-.733-2.2-.943-1.676-3.143l1.362-5.448 3.457-13.305c.524-1.99.733-2.095 2.619-1.676.21 0 .524.209.734.209.314-.105.523-.419.942-.943l-2.514-.733-7.334-1.886c-.628-.105-1.362-.419-1.571.733.524.209.943.419 1.467.524 1.676.524 2.095 1.991.838 3.353-.314.314-.629.524-.943.733l-13.41 10.162c-.419.314-.838.524-1.572 1.048l1.781-7.124 2.2-8.696c.524-1.886.734-1.991 2.62-1.676.209 0 .419.21.628.105a3.12 3.12 0 0 0 .838-.419c-.209-.314-.314-.733-.628-.838l-9.429-2.41c-.315-.105-.629.209-1.153.419.419.314.629.629.943.733 2.41.943 2.41.943 1.781 3.457l-2.724 10.686-2.095 8.172c-.524 1.781-.629 1.886-2.514 1.572-.524-.105-1.258-.419-1.467.629.314.209.629.419.943.524 2.933.838 5.971 1.572 8.905 2.305.314.105 1.048-.105 1.152-.314.315-.733-.419-.733-.943-.943-.209-.105-.523-.209-.733-.209-.943-.314-1.152-.838-1.048-1.886.21-.943.629-1.676 1.467-2.305l13.829-10.477c.21-.314.629-.419 1.153-.838zM30.507 294.812c1.048-.838 1.048-.838 1.048-1.676 0-1.991.105-2.095 2.095-2.41l15.715-1.886c1.572-.209 3.143-.314 4.819-.419.943-.104 1.467.419 1.676 1.362l.314 1.781c.21 0 .314 0 .524.105.209-.314.419-.628.419-1.048 0-.838-.21-1.676-.314-2.619-.314-2.2-.524-4.505-.838-6.705-.105-.628-.209-1.152-1.257-.838v1.153c.105 2.2-1.467 3.143-3.457 2.095-.209-.105-.314-.21-.524-.314l-14.667-9.01c-.314-.21-.629-.524-1.048-.838.419-.105.524-.21.733-.315l9.953-1.152 5.553-.629c1.991-.209 2.2-.104 2.619 1.991.105.314.209.628.314 1.362.419-.524.838-.838.838-1.153-.314-3.247-.733-6.495-1.152-9.743 0-.314-.419-.628-.733-.943-.209.315-.314.419-.314.524 0 .314-.105.629 0 .943.314 1.991-.314 2.095-1.991 2.41-.314.104-.629.104-.943.104l-11.943 1.467c-2.305.314-4.61.629-6.914.838-1.467.21-1.886-.105-2.2-1.571-.105-.524-.209-.943-.419-1.467-.943-.105-.943.419-.838 1.048l1.048 9.114c.105.524 0 1.153 1.152 1.048 0-.524.105-1.048.105-1.676 0-1.677 1.153-2.515 2.724-1.886a2.28 2.28 0 0 1 .838.524l14.667 9.01c.314.209.629.523 1.152.943-.524.104-.733.209-.943.209l-9.743 1.153c-1.781.209-3.562.419-5.343.523s-1.886 0-2.305-1.676c-.105-.524-.314-.943-.524-1.571-.314.314-.733.419-.733.628-.314 3.667.21 7.229.838 11.21zm412.151-104.033c.942-.838.942-.838.733-1.571-.629-2.2-.629-2.305 1.467-3.143l17.391-7.124c.838-.315 1.886-.734 2.619-.524.524.105.838 1.152 1.257 1.886s.734.524 1.362.104c-1.362-3.143-2.619-6.285-3.876-9.428 0-.105-.105-.315-.21-.315-.314-.105-.524-.209-.838-.209-.105 0-.314.419-.209.628 0 .315.209.629.314.943.524 1.572-.21 2.619-1.781 2.619a3.22 3.22 0 0 1-1.362-.314l-16.553-4.714c-.419-.105-.838-.315-1.572-.629 1.677-.733 3.039-1.362 4.401-1.886l10.686-4.4c1.886-.733 2.095-.629 2.933 1.152.21.419.419.734.734 1.258.314-.315.628-.629.523-.734-1.152-3.457-2.619-6.914-4.19-10.372-.734.943-.734.943-.315 2.096.419 1.362.315 1.571-.838 2.2-.314.105-.628.314-.943.419l-17.705 7.334c-2.095.838-2.095.838-3.248-1.153-.314-.524-.524-1.152-1.467-.314 1.362 3.248 2.62 6.495 4.086 9.638.105.21.629.21 1.153.419-.21-.733-.21-1.152-.419-1.571-.524-1.781.104-2.829 1.885-2.934.524 0 1.153.105 1.782.315l16.133 4.609c.42.105.943.315 1.677.629-.838.419-1.362.629-1.781.838l-12.782 5.238c-.838.315-1.781.734-2.619.629-.524-.105-.838-1.152-1.257-1.886-.419-.628-.733-.628-1.362-.105l4.191 10.372zm-22.106-45.363c.419.838.733 1.466 1.152 2.095l4.086 6.705c.315.524.629 1.362 1.572.524-.315-.943-1.048-1.991-.943-2.934.105-1.047 1.362-1.466 2.2-1.676 1.676 1.676 2.933 3.353 4.61 4.715 3.038 2.409 6.495 2.619 9.952.628 3.353-1.99 5.029-4.924 4.505-8.905-.209-1.676-.943-3.353-1.466-4.924-.21-.524-.524-1.048-.734-1.571 1.991-1.467 2.096-1.467 3.458.419.419.523.733.942 1.466.314-.209-.419-.314-.838-.524-1.257l-4.504-7.334c-.315-.524-.629-1.257-1.677-.524.315.629.629 1.153.943 1.676.524.734.314 1.362-.419 1.886l-1.257.629c-.524-.629-.943-1.257-1.362-1.781-1.362-1.676-2.829-3.143-4.819-4.086-5.658-2.619-12.467 1.781-12.677 7.962 0 2.305.524 4.296 1.467 6.391.314.629.524 1.152.838 1.781a20.93 20.93 0 0 1-1.048.733c-1.467.838-1.781.734-2.829-.628-.209-.315-.419-.734-.733-.943-.314-.105-.628 0-1.257.105zm-68.936 303.717h-.419l-7.648-14.248c-.105-.21-.21-.524-.314-.734-.42-.838-.21-1.571.628-1.99l1.572-.943c-.419-.943-.839-.838-1.362-.524l-8.486 4.61c-.21.104-.315.419-.629.628.314.21.629.524.838.524.419-.105.838-.314 1.257-.524 1.257-.524 1.572-.419 2.305.629.21.314.419.733.629 1.047l8.8 16.344.629 1.257c.419.838.209 1.572-.629 1.991l-1.571.943c.628 1.047 1.152.628 1.676.419l5.657-3.039c.838-.419 1.676-.942 2.41-1.361.628-.315.733-.734.105-1.362l-1.572.628c-1.152.524-1.886.314-2.305-.943-.209-.733-.209-1.571-.104-2.305l2.828-16.553c.105-.419.314-.838.524-1.571l7.962 14.667c.105.105.105.21.105.419.419.734.21 1.257-.524 1.676-.419.315-.943.524-1.362.839-.209.209-.105.628-.209 1.047 2.2-.628 9.01-4.4 9.848-5.552-.419-.839-.943-.315-1.467-.105-1.781.733-1.991.733-3.038-.943-.105-.21-.21-.314-.315-.524l-8.8-16.343-.628-1.258c-.315-.838-.21-1.571.733-1.99.524-.314.943-.629 1.886-1.153-.734-.209-1.153-.523-1.467-.419l-8.8 4.715c-.734.419-.419.838.104 1.257.419-.209.943-.419 1.467-.629 1.257-.523 1.467-.419 2.305.734.733 1.047.524 1.99.314 3.038l-1.571 9.219c-.315 2.829-.838 5.658-1.362 8.382zm40.23-341.014c-.524-.524-.838-.838-1.152-1.048-1.362-1.257-1.467-1.467-.315-2.933.21-.21.315-.419.524-.629l11.839-14.353c1.676-1.991 1.676-1.991 3.771-.629.105.105.21.209.315.209.523.314.838.105.942-.733-1.152-1.048-2.514-2.095-3.771-3.143l-4.191-3.457c-.524-.419-.943-.314-1.152.524.314.314.733.629 1.152 1.048.838.838.943 1.467.21 2.41-.419.419-1.048.838-1.677.943-1.571.419-3.247.733-4.923 1.048l-13.725 2.829v-.524l10.162-12.362c1.048-1.257 1.362-1.257 2.829-.21.314.314.733.524 1.048.733.943-.629.419-1.048-.105-1.467l-7.229-5.972c-.209-.21-.524-.21-.943-.314 0 1.048 0 1.048.629 1.676 1.048 1.048 1.152 1.467.209 2.724-.104.21-.314.419-.523.629l-11.839 14.353c-1.676 1.99-1.676 1.99-3.981.629-.524-.314-.943-.419-1.153.628l8.801 7.229c.105-.733.314-1.152.105-1.362-.21-.314-.524-.524-.839-.838-.942-.943-1.047-1.467-.209-2.514.419-.524 1.152-.943 1.781-1.152 2.2-.524 4.4-.943 6.6-1.467l12.048-2.514c-.209.419-.314.733-.419.838L386.608 101.1c-.419.523-.943.838-1.258 1.047-1.466.105-1.885-1.99-3.562-.838 2.934 2.514 5.658 4.819 8.591 7.019.419.315.838 0 1.467-.209zM76.5 346.567c-.733 1.047-.733 1.047-.524 1.571 1.048 2.2 1.048 2.2-1.048 3.562l-9.219 5.658-7.438 4.609c-1.467.838-1.781.734-2.829-.628-.209-.315-.314-.629-.629-.734-.209-.104-.629 0-1.257.105.629 1.152 1.257 1.991 1.781 2.934l3.667 5.971c.419.629.838 1.048 1.467.105l-.629-1.257c-.733-1.362-.733-1.677.524-2.515 2.41-1.571 4.924-3.143 7.648-4.714 2.095 3.457 4.191 6.705 6.391 10.162-2.2 1.362-4.191 2.724-6.286 3.877-.838.523-1.781 1.047-2.724 1.047-.524 0-1.048-1.047-1.572-1.571-.209-.21-.524-.21-.838-.315 0 .315-.21.734-.105 1.048 1.676 2.829 3.457 5.553 5.133 8.277.419.628.838.524 1.257-.105-.209-.419-.524-.943-.733-1.362-.629-1.257-.524-1.572.524-2.305.314-.209.629-.419 1.048-.629l15.505-9.638c.733-.524 1.676-1.152 2.514-1.152.629 0 1.153 1.152 1.676 1.781s.838.419 1.257-.315c-1.362-2.305-2.829-4.609-4.295-6.914-.419-.629-.838-1.362-1.257-1.991-.524-.628-.838-.314-1.152.314.21.315.419.629.524.839 1.048 1.571.943 1.781-.629 2.828l-3.352 2.096c-1.572 1.047-3.248 1.99-4.924 3.143l-6.286-10.058c.419-.314.733-.629 1.048-.838 2.41-1.467 4.714-3.038 7.124-4.4 1.676-1.048 1.886-.943 3.038.733.209.314.419.629.733.838 1.048-.314.838-.733.524-1.362-.943-1.362-1.781-2.828-2.619-4.295-1.048-1.362-1.99-2.829-3.038-4.4zM44.651 212.78l8.486 1.362c2.829.524 2.829.524 2.829 3.248 0 .629.21.838 1.048.733.629-3.667 1.467-7.333 1.781-11-1.152-.419-1.152.419-1.257.943-.629 2.2-.629 2.2-2.933 1.781l-11.001-1.781-8.276-1.362c-1.886-.314-1.886-.419-1.886-2.305 0-.419-.105-.943-.209-1.886-.524.629-.838.943-.943 1.257-.21.629-.21 1.258-.314 1.991l-1.257 7.334c-.105.628-.105 1.257.943 1.152.105-.314.209-.733.314-1.048.524-1.99.733-2.2 2.724-1.885l7.124 1.152c.314.105.733.314 1.152.524-.733 3.876-1.048 7.648-1.991 11.315h-1.257c-1.991-.315-4.086-.629-6.077-1.048-.838-.105-1.781-.21-2.41-.734-.943-.628-.209-1.676-.314-2.619 0-.314-.419-.628-.838-1.257-.838 4.191-1.467 7.858-1.886 11.734 1.467.105 1.257-.838 1.467-1.467.419-1.362.629-1.676 2.095-1.466 1.257.104 2.514.419 3.772.628l15.925 2.619c2.2.419 2.2.419 2.095 2.619 0 .524-.209 1.153.629 1.258.105-.105.419-.21.419-.419l1.781-10.268c0-.209-.419-.419-.838-.838-.21.524-.314.838-.314 1.153-.524 2.095-.629 2.2-2.829 1.886l-5.762-.943c-1.152-.21-2.305-.419-3.562-.734.314-3.876.943-7.543 1.572-11.629zm27.554-94.499c.209 0 .419.105.524.105.314-.419.733-.733 1.048-1.153.943-.942 1.362-.942 2.41-.209.314.209.524.419.733.629l14.353 12.152c.21.21.524.42.733.629 1.048 1.048 1.048 1.362.209 2.514l-.943 1.258c.733 1.047 1.152.314 1.572-.105l5.867-6.915c.105-.104.314-.314.314-.524.105-.209.105-.628 0-.733-.21-.105-.629-.105-.838-.105s-.314.315-.419.419c-1.572 1.572-1.676 1.572-3.457.105-2.095-1.676-4.086-3.457-6.076-5.133-.314-.315-.629-.629-.943-1.048l7.753-9.01 6.705 5.657c2.096 1.781 2.096 1.781.629 4.086-.419.629-.314.943.629 1.258a247.09 247.09 0 0 1 7.333-8.591c-.628-.21-1.047-.419-1.257-.315-.419.21-.629.629-.943.943-.628.838-1.362.943-2.2.21-.419-.314-.838-.629-1.257-1.048l-14.039-11.943c-.209-.21-.524-.419-.733-.629-1.048-1.047-1.048-1.362-.21-2.514.314-.419.629-.943 1.048-1.572-.524-.105-.838-.314-1.048-.209-.838.419-6.6 7.543-7.019 8.591.943.733 1.257-.21 1.676-.629 1.048-1.048 1.362-1.152 2.41-.314 2.305 1.886 4.61 3.876 6.914 5.867-2.619 3.143-5.238 6.076-7.857 9.114l-6.81-5.867c-1.048-.943-1.048-1.257-.21-2.409l.943-1.257c-.314-.734-.733-.839-1.257-.315l-6.286 7.543c-.105.629 0 1.153 0 1.467zm298.374-57.307c0 .209-.104.314-.104.524.524.314.943.733 1.466 1.048.839.524 1.048 1.152.524 1.991-.105.209-.209.524-.419.733l-10.372 17.391c-.314.524-.733.943-1.152 1.467-1.153-.733-2.2-1.257-3.248-1.886l-5.343-3.143c-1.257-.838-1.362-1.048-.629-2.41.105-.21.21-.314.315-.524l9.848-16.553c.105-.209.314-.419.419-.733.943-1.362 1.152-1.362 2.619-.733.419.209.943.419 1.362.629.629-.838.105-1.153-.419-1.467l-5.972-3.562c-.733-.419-1.466-.943-2.305-1.257-.628-.314-.838 0-.942.733.314.209.733.524 1.047.733 1.257.838 1.362 1.257.629 2.619-.105.209-.315.419-.419.733l-9.639 16.134c-.209.419-.524.838-.733 1.153-.524.733-1.153.838-1.886.419-.524-.314-1.152-.629-2.095-1.048.209.733.104 1.257.314 1.467.419.314.838.629 1.362.838l17.391 10.372c2.2 1.362 2.619 2.41 1.991 4.819-.21.943-.524 1.781-.838 2.619-.21.524-.21 1.048.733 1.257 1.257-2.095 2.41-4.4 3.457-6.705-.105-.21-.209-.419-.314-.524-.314-.21-.524-.314-.838-.524-1.781-1.153-1.781-1.257-.838-2.933l10.267-17.182c.943-1.572 1.257-1.676 2.828-.838.42.21.839.419 1.153.524.733-.629.524-1.048 0-1.362-2.724-1.676-5.448-3.352-8.277-4.924-.104 0-.628.105-.943.105zm108.329 188.055c-.105 0-.315.105-.419.105-.105.524-.21 1.048-.21 1.572-.209 1.362-.419 1.571-1.676 1.676h-1.048l-18.334-.734c-.524 0-1.048-.104-1.571-.104-1.362-.21-1.572-.419-1.677-1.781 0-.524-.104-1.048-.104-1.677-.629.21-.943.42-.943.734-.21 3.248-.315 6.495-.419 9.743 0 .314.419.629.838 1.048.209-.629.314-.838.314-1.153.314-2.514.419-2.619 2.933-2.514l7.229.314c.524 0 1.153.105 1.886.21l-.524 11.629h-6.39c-1.153 0-2.41-.105-3.562-.21-1.572-.209-1.781-.419-1.886-1.99 0-.524.314-1.258-.629-1.467-.105.209-.419.419-.419.629-.209 3.352-.314 6.809-.419 10.162 0 .209.419.419.838.733.105-.628.21-1.047.314-1.362.42-2.2.524-2.305 2.724-2.2l19.173.838c2.2.105 2.304.315 2.409 2.41 0 .629 0 1.257 1.153 1.152.209-3.771.733-7.438.314-11.21-1.152 0-.943.629-1.048 1.153-.314 2.095-.524 2.305-2.619 2.2l-6.391-.314c-.523 0-1.047-.105-1.781-.21l.524-11.629h4.505c1.467 0 2.934 0 4.4.21 1.467.104 1.677.419 1.781 1.885 0 .524.105 1.048.21 2.096.524-.629.943-.943.943-1.153.209-3.247.314-6.495.419-9.743-.21-.524-.629-.733-.838-1.048zm-27.868-29.753l-.314-1.781c-.21-.943.104-1.572 1.047-1.781.419-.105.734-.21 1.153-.315l18.439-4.505c.733-.209 1.571-.209 2.409-.314.21.734.524 1.257.629 1.781.209.629.209 1.362 1.466.838-.209-.943-.523-1.99-.733-3.038-.524-2.305-1.152-4.505-1.676-6.81-.21-.733-.419-1.047-1.362-.733 0 .314.105.629.105.943.419 2.095.314 2.305-1.886 2.829l-5.029 1.257-2.933.628-2.724-11.524 8.695-2.095c1.362-.315 1.677 0 2.096 1.466.209.629.104 1.362 1.362 1.153-.105-.524-.105-1.153-.21-1.676l-1.467-6.182-.628-2.514c-.21-.629-.629-.629-1.153-.21.105.42.105.839.21 1.258.209 1.676 0 1.99-1.572 2.409-.943.315-1.99.419-2.933.734l-16.344 3.981c-2.095.524-2.2.419-2.933-1.467-.105-.314-.21-.629-.419-.943-.105-.105-.419-.105-.943-.105l.629 3.248 1.571 6.6c.105.629.21 1.362 1.362.943 0-.419 0-.733-.105-1.152-.314-2.095-.314-2.2 1.781-2.724l7.543-1.886c.524-.105 1.048-.105 1.677-.209l2.724 11.419-8.696 2.095c-2.514.629-2.514.629-3.562-1.885-.314-.629-.629-.838-1.362-.21.733 3.248 1.572 6.496 2.41 9.848.523.629.733 1.048 1.676.629zM64.766 320.689c-.21-1.047-.419-1.885-.629-2.724l-5.238-18.648c-.733-2.619-.314-3.562 1.886-5.029.733-.524 1.676-.943 2.41-1.362.524-.314.733-.733.21-1.466l-7.229 2.514c.21.838.21 1.467.419 2.095.314.943 0 1.572-.943 1.886-.419.105-.733.21-1.152.314l-18.124 5.134c-2.514.733-2.514.733-3.562-1.781-.209-.629-.629-.838-1.362-.314 1.048 3.457 1.781 7.124 3.143 10.686 1.153-.21.838-.838.733-1.362-.314-1.991-.314-2.2 1.572-2.724l19.591-5.448c1.572-.419 1.781-.314 2.2 1.362l2.2 7.858.314 1.676c-.733.209-1.257.524-1.886.628l-18.229 5.134c-2.619.733-2.619.733-3.772-1.781-.314-.629-.629-.733-1.362-.105.943 3.248 1.886 6.6 2.724 9.953.209.733.629.838 1.257.314 0-.209 0-.524-.105-.733-.733-1.991-.419-2.515 1.781-3.143l18.858-5.238c1.781-.524 1.991-.42 2.619 1.362.419.523.419 1.152 1.676.942zM286.975 55.631c-.524-.21-.629-.314-.733-.314-.21 0-.419-.105-.629-.105-2.2-.209-2.41-.524-2.2-2.619l1.886-18.858c.209-2.619.314-2.724 2.933-2.829.315 0 .629-.314 1.048-.419 0-.21-.105-.314-.105-.524-3.562-.524-7.019-.838-10.581-1.048-.21 0-.419.419-.734.733.419.105.524.314.734.314 2.305.105 2.724.629 2.409 3.248l-1.466 14.667c-.21 2.095-.524 4.191-.734 6.286-.628 0-.943.105-1.257.105l-9.324-.838c-1.048-.105-1.257-.524-1.153-1.886l1.048-10.896 1.048-9.324c.209-2.095.314-2.095 2.409-2.095.524 0 1.153.209 1.258-.524-1.048-.733-9.325-1.781-11.106-1.362.315.838.315.838 1.467 1.048 1.362.209 1.676.419 1.572 1.781 0 1.362-.21 2.619-.315 3.981l-1.676 16.553c-.209 1.676-.524 1.99-2.305 1.99-.524 0-1.257-.314-1.362.943.838.105 1.781.314 2.619.419l20.116 1.99c1.571.105 2.619.943 3.038 2.41.209.838.314 1.676.524 2.514.209.733 0 1.572.733 2.305.209-.209.524-.314.629-.419 0-2.41.104-4.819.209-7.229zm125.929 58.774c-1.991 1.886-3.981 3.667-5.972 5.448-.733.628-1.571 1.466-2.409 1.676-.524.105-1.362-.943-1.991-1.467s-.943-.209-1.257.419c1.991 2.096 3.876 4.296 5.867 6.391.419.524.838 1.048 1.362 1.467.209.209.733 0 1.362 0-.419-.629-.524-.838-.734-1.153-1.362-1.781-1.362-1.99.21-3.457l3.981-3.667 10.581-9.743c1.362-1.257 1.572-1.257 2.934.105.314.314.733.628 1.048.943 1.047-.629.419-1.153 0-1.572-2.829-3.038-5.553-6.181-8.486-9.115-1.258-1.257-2.829-2.304-4.401-3.038-2.2-1.048-4.4-.629-6.286 1.048-2.304 1.99-2.933 4.714-1.781 7.543.315.733.629 1.362 1.048 2.41-2.2-1.048-4.086-1.048-5.867-.419-1.362.419-2.724 1.152-4.086 1.676-.838.314-1.571.838-2.409 1.048-.419.104-1.153.104-1.258-.105-.209-.419-.314-1.048-.209-1.467.209-.629.733-1.048 1.048-1.676.104-.21-.105-.629-.21-1.467-.838 1.048-1.467 1.676-1.991 2.41-.733 1.152-.628 2.305.21 3.352 1.152 1.467 2.514 2.41 4.4 2.096 1.257-.21 2.619-.629 3.772-1.153 1.466-.524 2.933-1.362 4.4-1.886 2.095-.838 3.876-.524 5.343 1.362.629.734 1.152 1.257 1.781 1.991zM161.465 430.903c-.209-.209-.524-.523-.838-.733l-11.419-6.705c-1.153-.629-2.62-1.048-3.982-1.257-2.933-.524-5.447.838-6.914 3.248s-1.153 4.924.733 7.438c.419.524.943 1.048 1.572 1.781-.838-.105-1.467-.105-2.096-.105-2.619-.105-4.714.838-5.867 3.248-1.152 2.514-.733 4.819 1.153 6.81 1.048 1.047 2.2 1.99 3.352 2.724l9.744 5.867c.314.209.733.209 1.047.314.524-1.153-.524-1.257-1.047-1.676-1.048-.838-1.153-1.153-.629-2.305.21-.314.419-.734.629-1.048l9.533-16.134c1.258-2.095 1.258-2.095 3.458-1.047.838.314 1.257.523 1.571-.42zm300.679-93.661l-.838 1.677c-.629 1.152-1.048 1.362-2.41.838-.419-.105-.733-.314-1.047-.524l-16.658-7.648c-2.41-1.048-2.41-1.152-1.572-3.667.21-.628.105-1.047-.733-1.152-.105.209-.314.524-.524.733l-5.448 11.944c-.419.942-.733 1.99-.838 3.038-.524 3.248.838 6.076 3.667 7.543 2.724 1.362 5.343.838 7.753-1.572.419-.419.838-.942 1.571-1.571 0 1.152-.105 1.781 0 2.514.21 2.305 1.362 4.191 3.562 5.029 2.305.943 4.505.629 6.286-1.152 1.153-1.153 2.2-2.515 2.934-3.981 1.676-3.353 3.143-6.705 4.714-10.163.105-.314.419-.628.314-.943a4.76 4.76 0 0 1-.733-.943zM261.517 458.981c1.152.314 1.362-.105 1.362-.734.105-.838 0-1.676.209-2.409.21-.524.734-1.362 1.153-1.362.419-.105 1.047.628 1.467 1.047.419.629.628 1.467.942 2.201.629 1.362 1.153 2.828 1.886 4.19 1.257 2.096 3.038 3.562 5.448 3.877.21 0 .419.209.629.314v.524l-5.553 9.01c-.838 1.362-2.095 2.409-3.876 2.619-.315 0-.629.419-.943.628.105.21.105.315.209.524 3.039-.209 6.077-.419 9.115-1.047-.629-1.782-2.514 0-3.038-1.572 0-.105 0-.314.105-.524l5.762-9.743c.209-.314.628-.524.943-.629l3.247-.314.838 9.219c.105 1.362-.104 1.467-1.466 1.781-.524.105-1.048.315-1.886.524.314.419.524.734.629.734 3.666 0 7.333-.524 11.105-.943-.105-1.362-.838-1.048-1.467-.943-1.676.105-1.991-.21-2.305-1.781 0-.21 0-.419-.105-.629l-1.571-14.457c-.21-1.677-.419-3.458-.524-5.134-.105-1.781 0-1.886 1.676-2.305.524-.105 1.258 0 1.467-1.048-.524-.104-.943-.209-1.467-.209l-5.971.629-2.934.314c-.524.105-1.047.314-.733 1.047.209 0 .314.105.524.105 2.619 0 2.619 0 3.038 2.829 0 .105.105.209.105.419.314 2.724.524 5.553.838 8.486l-2.724.314c-2.305.315-3.876-.733-4.819-2.724-.629-1.362-1.153-2.828-1.781-4.295-.524-1.152-.943-2.41-1.572-3.457-.943-1.572-2.41-2.305-4.295-1.991s-3.248 1.257-3.562 3.248c0 1.152 0 2.41-.105 3.667zm101.204-37.402c.629-.524 1.257-.838 1.781-1.257.838-.524 1.467-.419 2.095.314.315.315.629.734.838 1.153l11.106 14.877c.209.314.524.628.733.942.629 1.048.629 1.362-.314 2.201-.419.419-.838.733-1.362 1.152.733 1.152 1.257.419 1.781 0l15.4-11.524c.42-.315.734-.524 1.048-.629-.524-1.257-1.048-.838-1.571-.524-1.991 1.257-2.305 1.257-3.562-.628-2.305-3.458-4.61-6.81-6.705-10.372-1.048-1.781-1.677-3.772-2.305-5.762-.734-2.2-.629-4.191 1.676-5.553.105-.105.105-.209.314-.524-1.152-1.886-2.409-3.771-3.667-5.657-.209-.419-.628-.838-1.047-.419-.21.209-.21.733-.105 1.047.419 1.153.943 2.201 1.362 3.353.629 1.571.209 2.933-1.152 3.876l-12.991 9.744c-1.258.942-2.62.942-3.877.104l-2.829-2.2c-.523-.419-.942-.733-1.571.105.21.314.314.629.629.943 1.362 1.781 2.828 3.457 4.295 5.238zm-180.617 25.039c-.105-.733-.209-1.781-.419-2.933-1.676-7.334-12.781-12.153-19.591-5.343-3.038 2.933-4.61 6.6-5.239 10.791-.733 5.343 1.572 9.953 6.496 12.362 5.029 2.41 10.162 1.572 13.934-2.409 3.038-3.458 4.61-7.439 4.819-12.468zm272.287-142.063c-4.19 0-7.752 1.362-10.162 5.029-3.562 5.448-3.352 12.782 3.667 17.182 2.724 1.676 5.867 2.619 9.115 2.829 5.762.314 10.371-2.724 12.152-8.172 1.886-5.658.105-10.686-4.924-13.829-3.038-1.991-6.286-2.934-9.848-3.039zM40.46 236.248c-2.724.105-5.448.524-7.962 1.886-4.086 2.305-5.867 5.867-5.867 10.372s1.886 8.066 5.972 10.162c4.924 2.514 10.162 2.724 15.191.419 4.505-1.991 6.6-5.762 6.705-10.477.105-4.609-1.886-8.276-6.076-10.476-2.41-1.258-5.134-1.677-7.962-1.886zM231.868 40.545c0 2.724.629 5.762 1.676 7.962 2.305 4.505 6.077 6.6 11.001 6.391s8.695-2.514 10.476-7.229c1.886-4.819 1.677-9.638-.733-14.353-2.305-4.505-6.181-6.391-11.21-6.181-4.714.314-8.172 2.619-10.058 6.915-.733 2.095-1.047 4.191-1.152 6.496zM208.4 464.533c.21 1.467.315 3.039.734 4.505 1.362 4.82 4.714 7.543 9.638 8.172 4.82.733 8.801-.943 11.525-5.133 2.409-3.667 3.038-7.753 2.619-12.049-.629-5.343-3.981-9.114-9.324-10.162-5.448-1.152-10.058.943-12.782 5.553-1.571 2.933-2.305 5.867-2.41 9.114zM44.86 165.112c.733 0 1.152.104 1.362 0 .314-.315.419-.839.733-1.153.733-1.257 1.152-1.467 2.41-.838 5.343 2.41 10.581 5.029 15.296 8.696a14.26 14.26 0 0 1 2.514 2.514c.629.733.943 1.572.419 2.619-.419-.419-.629-.733-.943-.943-.733-.733-1.676-.838-2.619-.419-.838.419-1.152 1.048-1.257 1.886 0 1.048.419 1.781 1.362 2.305 1.781.943 3.772.314 4.715-1.572.838-1.781.629-3.457-.524-4.924-1.152-1.257-2.305-2.619-3.772-3.562-4.191-2.514-8.381-4.819-12.677-7.229-.838-.419-1.676-.838-2.514-1.361-.524-.315-.943-.839-.524-1.572.943-2.095 1.991-4.191 3.038-6.391.943.419 1.676.629 2.41.943l16.972 8.067c2.619 1.257 2.619 1.257 1.467 3.981v.419c.629.629 1.048.21 1.257-.419l4.191-8.905c.105-.209 0-.419 0-.733-.314 0-.838 0-1.048.105-.314.314-.419.838-.629 1.257-.524.943-1.152 1.257-2.095.733-.314-.209-.733-.314-1.048-.524l-16.972-7.962c-.314-.209-.733-.314-1.048-.524-1.048-.628-1.152-.943-.733-2.095.105-.419.419-.733.419-1.048s-.314-.628-.629-1.466c-3.352 6.809-6.391 13.305-9.534 20.115zm250.601 301.307c-.105.105-.314.105-.419.21-.209 1.257 1.257 6.495 2.305 8.381.105 0 .314.105.419 0l18.334-4.295c.314-.105.524-.419.838-.734-.838-.733-1.467-.314-2.2-.209-.943.209-1.467-.21-1.676-.943-.21-.524-.314-1.048-.419-1.572l-3.353-14.038c-.419-1.572-.838-3.143-1.152-4.715-.314-1.781-.105-2.514 1.676-2.724.419 0 .733-.419 1.362-.733-.524-.314-.733-.524-1.048-.524-1.362 0-19.172 4.61-20.115 5.238l1.572 9.325c1.257.209 1.152-.629 1.152-1.258v-5.552c.105-1.572.943-2.515 2.515-2.934l6.39-1.571c.943-.21 1.572.105 1.781 1.047.21.734.419 1.467.524 2.096l1.991 8.067c-1.467.314-2.724.733-3.981.943-1.467.209-2.096-.105-2.724-1.467-.315-.733-.629-1.676-.943-2.41-.21-.628-.629-.628-1.153-.209.105.419.105.838.21 1.257l2.095 8.696c.105.419.21.838.419 1.152.105.21.524.105.943.21-.105-1.258-.209-2.41-.209-3.563 0-1.466.419-1.99 1.885-2.409 1.153-.314 2.41-.629 3.772-.943l2.2 9.429c.21.838-.314 1.362-1.152 1.571l-6.077 1.362c-1.466.315-2.514-.209-3.247-1.362s-1.258-2.304-1.886-3.457c0-.209-.315-.838-.629-1.362zm37.611-29.963c-2.514.419-9.429 3.143-10.476 4.086.628.629.628.629 1.571.314 1.572-.524 1.886-.419 2.514.943 1.048 2.619 1.991 5.238 2.934 7.962l-4.505 1.781c-1.886.734-3.667 1.677-4.924 3.248-1.886 2.2-2.2 4.61-1.152 7.334 1.047 2.619 3.038 4.19 5.866 4.4 1.886.209 3.772-.105 5.448-.733l10.686-3.982c.419-.209.839-.419 1.258-.733-.419-1.048-1.048-.628-1.572-.419-1.781.524-1.99.419-2.724-1.362l-6.914-18.334c-.734-1.991-.629-2.305 1.257-3.248.628-.209 1.152-.314.733-1.257zm118.386-73.232c-.838 0-1.152-.104-1.362 0a7.38 7.38 0 0 0-.838 1.048c-.629.943-1.362 1.048-2.2.419-.419-.314-.943-.524-1.362-.838l-10.686-7.019c-1.677-1.153-3.458-2.2-5.134-3.458-1.571-1.047-1.571-1.362-.733-2.933.209-.419.419-.838.628-1.152-.943-.734-1.257 0-1.571.523l-6.6 10.058c-.629 1.048-1.153 2.095-1.467 3.248-.943 3.352.105 6.286 2.829 8.067s5.866 1.676 8.486-.524c1.362-1.153 2.409-2.619 3.562-4.086.733-.943 1.362-1.991 2.095-3.038l7.334 4.819c1.257.838 1.257 1.257.523 2.514-.314.524-.628 1.153-.942 1.572.523.628.838.629 1.257.105l6.181-9.325zm-53.64 29.23l1.362-1.676c.209-.314.104-.733.104-1.048-.314.105-.838.105-1.047.315l-6.601 7.228c-.209.21-.419.839-.209 1.048.314.524.838.21 1.152-.105 1.153-1.257 2.515-1.257 4.086-.943l3.772.629 9.324 1.676c.733 3.143 1.362 6.182 2.2 9.22.629 2.095.629 4.086-1.152 5.762-.105.105 0 .209 0 .524.209.105.523.314.628.209l5.762-5.867c-1.676-1.362-1.885 1.258-3.352.629l-2.514-10.162c3.771.838 7.124.943 10.476 2.095-1.257 2.514-1.257 2.514-.733 3.143l7.229-7.962c.104-.105 0-.419 0-.629-.21-.105-.315-.105-.315-.105-.209 0-.419 0-.523.105-1.258 1.467-2.724 1.362-4.401 1.048-3.247-.629-6.6-1.153-9.848-1.677-1.152-.209-1.676-.733-1.99-1.885l-2.305-9.534c-.524-1.991-.419-3.772 1.152-5.343.105-.105 0-.21.105-.524-.209-.105-.524-.314-.629-.314l-5.866 5.971c1.781 1.362 1.99-1.257 3.457-.733 1.048 3.562 1.886 7.334 2.829 11.105-2.305.21-10.687-1.362-12.153-2.2zm-195.913 80.67l-.419-.419c-.105-.105-.105-.209-.21-.314l-.943-.314c-1.676-.629-1.885-.839-1.362-2.62l5.448-18.962c.629-1.991.838-2.096 2.829-1.677.524.105 1.257.419 1.362-.628-.419-.21-.733-.419-1.152-.524l-4.61-1.257c-1.362-.419-2.829-.838-4.191-1.153-.628-.209-1.048 0-1.048.839.524.209 1.048.419 1.677.523.943.21 1.362.943 1.047 1.781-.733 2.829-1.571 5.553-2.409 8.591-1.467-.419-2.724-.943-3.981-1.152-1.781-.315-3.667-.629-5.553-.629-3.143.105-5.238 1.886-6.181 4.819s-.419 5.658 1.99 7.544c1.362 1.047 3.039 1.99 4.715 2.514 3.562 1.152 7.229 2.095 10.896 3.143.419.105.733.209 1.152.209s.629-.209.943-.314zM78.7 154.425c1.152.524 1.362-.209 1.572-.628l6.496-10.162c.524-.943 1.048-1.886 1.257-2.934.629-2.2.524-4.4-.838-6.286-2.514-3.667-7.438-4.295-10.791-1.152-1.467 1.362-2.619 3.247-3.771 4.819-.524.629-.943 1.362-1.467 2.095l-7.229-4.714c-1.362-.943-1.362-1.257-.524-2.724.314-.524.524-1.048.838-1.467-.838-.838-1.152-.209-1.467.314l-4.191 6.601c-.419.628-.838 1.257-1.152 1.886-.105.209.209.628.419 1.257l1.152-1.572c.838-1.047 1.153-1.152 2.305-.524a9.21 9.21 0 0 0 1.048.629l15.715 10.058c.21.104.419.314.629.419 1.257.943 1.362 1.257.629 2.619-.21.419-.419.943-.629 1.466zM65.709 343.214l-4.191-9.534c1.781-1.676 3.457-3.457 5.238-4.924 1.781 1.991 2.2 2.305 2.933 2.2l-4.191-9.114c-.105-.105-.419-.21-.629-.21l-.21.21c0 .105-.105.314-.105.314.524 1.781-.419 2.934-1.676 4.191l-16.343 15.924c-.524.524-.943 1.048-1.572 1.572l1.048 1.781h1.781l17.601-1.048 5.972-.314c1.571-.105 2.933.209 3.667 1.781.105.105.314.209.629.419.21-.314.524-.629.419-.733-.943-2.201-1.781-4.296-2.829-6.391-.105-.21-.628-.105-1.152-.21.21.629.314.943.419 1.362.524 1.676.314 2.096-1.467 2.305s-3.457.21-5.343.419zm394.34-106.442c-2.2 1.047-4.191 2.305-6.391 3.038-1.152-.838-.209-2.41-1.781-3.143-.105.733-.21 1.257-.105 1.781l.629 5.972c.105.733.105 1.466.314 2.2.105.628.524.628 1.153.209-.419-1.886.942-2.724 2.514-3.457l18.439-9.115c1.362-.628 2.724-1.362 4.19-2.095a78.67 78.67 0 0 0-.314-1.991c-.524-.209-1.047-.314-1.467-.419l-11.943-3.247-10.581-2.829c-1.572-.419-3.039-1.048-3.458-2.934 0-.209-.419-.419-.628-.628-.419 1.152-.21 6.81.209 7.753.105.209.524.209.943.419.105-.524.21-.943.105-1.258-.21-1.781.314-2.304 2.2-1.885 1.572.314 3.248.838 4.819 1.257.105.314.315.524.315.838l.838 9.534zM161.046 75.746c2.305-.209 6.496-2.2 7.229-3.352-.524-.733-1.048-.21-1.572-.105-1.466.314-2.095.105-2.2-1.362-.104-1.886 0-3.667 0-5.657 3.039-1.362 6.182-2.724 9.325-3.981 1.676 1.886 3.562 3.352 4.924 5.238-2.201 1.886-2.41 2.095-2.305 2.619 2.305-.524 8.486-3.248 9.429-4.295-.105-.105-.105-.209-.21-.314s-.209-.21-.314-.21c-2.095.733-3.248-.629-4.4-1.886l-15.715-16.239c-.419-.524-.943-.943-1.467-1.467-.629.314-1.257.629-1.781.838l.419 8.486.838 16.553c.105 1.572-.105 3.038-1.676 3.981-.419.314-.419.733-.524 1.152zm88.947 402.302c-.105-.838-.21-1.467-.21-2.2l.314-14.039c.105-2.095.105-4.295.315-6.39.104-1.467.314-1.677 1.885-1.781.524 0 1.048-.105 1.572-.21-.21-.628-.419-.838-.629-.943-1.885-.419-9.429-.314-10.686.105.105.838.734.733 1.257.838 1.991.314 2.096.314 2.096 2.41l-.315 11.21c-.104 2.619 0 5.343-.209 7.962-.105 2.829-.21 2.829-3.038 2.724-2.934-.105-3.562-.524-4.296-3.457-.314-1.467-.524-2.829-.838-4.296-.105-.628-.314-1.047-1.362-.628l.524 9.429 11.105.419c3.667 0 7.439.314 11.21.104.21-3.352.838-6.39.734-9.638-1.258.105-1.153.943-1.258 1.467-.523 1.676-.838 3.352-1.466 5.028-.419 1.258-1.362 1.886-2.724 1.886h-3.981zm93.242-404.083c-2.305-.943-2.62-2.41-2.515-4.191l.838-23.782v-.838c-.105-.943-1.362-1.467-2.095-.943-.419.314-.733.733-1.153 1.152L322.7 62.022c-1.152 1.257-2.305 2.2-4.19 1.676-.21-.105-.629.314-1.258.629a38.1 38.1 0 0 0 7.229 3.038c.105 0 .419-.314.734-.629-.524-.314-.838-.524-1.153-.629-1.676-.524-1.571-1.886-.524-2.934 1.258-1.257 2.41-2.514 3.562-3.772l9.639 4.086c-.105 2.305-.21 4.296-.419 6.391 0 .21-.21.524-.21.524-1.152 1.048-2.409-1.257-3.666.524l9.114 3.772c.419-.105.838-.419 1.677-.733zM36.374 185.855c.733.629 1.257 1.048 1.781 1.467l17.81 13.934c1.362 1.048 2.41 2.095 2.095 3.981 0 .314.314.629.524.943 1.048-1.257 2.41-5.553 2.514-7.438-.943 0-.943 0-1.362.838-.733 1.571-1.257 1.781-2.724.733l-4.191-3.248c.943-3.143 1.886-6.181 2.934-9.219.105-.314.524-.733.838-.733 2.2-.21 4.295-.42 6.705-.21-.105.733-.105 1.362-.314 1.886-.21.628-.419 1.257.733 1.571a118.84 118.84 0 0 0 3.143-10.267c-.733.314-1.152.314-1.257.524-.524 1.572-1.781 1.781-3.143 1.886-.733.105-1.467.105-2.2.105l-22.734 1.257c-.21 0-.419.105-.629.209 0 .734-.21 1.153-.524 1.781zM226.839 38.659c-.419-3.457-1.362-6.705-2.2-10.058-1.886.524-.628 2.305-1.571 3.143-1.781-1.152-3.772-1.991-5.972-1.781-4.61.419-7.857 2.829-9.638 7.019-1.258 3.143-1.362 6.391-.629 9.639.838 3.876 2.514 7.124 5.972 9.324 5.343 3.352 15.505 1.99 16.238-8.381 0-.524.315-1.362-.523-1.467-.943-.105-.629.838-.734 1.362-.524 1.572-.733 3.248-1.571 4.714-2.305 4.191-8.801 5.238-12.048.629-.524-.838-1.048-1.676-1.467-2.619-1.676-3.876-2.2-7.962-1.781-12.153.209-2.41 1.047-4.61 3.248-5.972 2.933-1.886 6.39-1.257 8.8 1.572 1.048 1.257 1.676 2.724 2.41 4.086.314.524.314 1.257 1.466.943zM471.783 300.47c.523-.42.942-.839 1.466-1.258 1.362-1.362 2.305-2.933 2.619-4.819.629-4.714-.838-8.591-4.819-11.315-4.19-2.828-8.905-3.876-13.934-2.828-6.076 1.257-9.952 7.333-8.59 13.305.838 3.667 4.19 6.915 7.752 7.334.105-.943.105-.943-.524-1.362-1.152-.734-2.409-1.362-3.457-2.305-2.2-1.991-2.933-4.61-2.2-7.439s2.829-4.4 5.553-5.133c2.828-.734 5.657-.419 8.486.209 2.514.524 5.028 1.258 7.229 2.724 1.781 1.257 3.038 2.829 3.143 5.029.209 3.143-1.153 5.553-4.086 6.705-1.677.629-3.458.838-5.239 1.153-.523.104-1.257 0-1.257.838 1.362.838 8.486 1.571 10.372 1.152-.21-1.362-1.781-1.048-2.514-1.99zM204.105 50.602c-.943.419-.943.419-.943.943-.105 1.048 0 1.991-.105 3.038-.524 3.248-2.305 5.657-5.657 6.6-3.248.838-5.762-.419-7.753-2.933-.628-.838-1.152-1.676-1.571-2.514-1.362-2.619-2.2-5.448-2.515-8.381-.209-1.676-.209-3.353.105-4.924.838-4.714 5.972-6.81 10.058-4.191 1.571 1.048 2.724 2.514 3.667 4.191.314.524.733 1.048 1.047 1.572 1.153-.419.838-1.048.629-1.572l-2.829-7.648c-.105-.314-.314-.524-.524-.838-1.571.733-.209 2.305-.943 3.248-.628-.21-1.152-.524-1.676-.733-1.467-.524-2.933-.838-4.505-.524-4.4 1.048-7.543 3.562-8.591 7.962-1.466 5.867-.209 11.315 3.877 15.82 2.933 3.248 6.6 4.295 10.895 3.352 5.553-1.467 8.801-6.915 7.334-12.467zm227.971 341.014c.21 0 .315 0 .524.105.733-1.048 1.467-2.095 2.095-3.143.734-1.153 1.572-2.2 2.2-3.353.629-1.047 1.677-1.781 1.572-3.666-.629.523-1.048.838-1.257 1.152-1.257 1.467-1.467 1.571-3.143.524s-3.353-2.2-5.029-3.248l-11.524-7.543c-1.677-1.153-1.677-1.362-.734-3.038.21-.419.315-.838.419-1.153l-.314-.314c-.314.209-.733.314-.943.524-.628.838-1.152 1.676-1.676 2.514l-3.667 5.553c-.524.733-.209 1.047.629 1.152.209-.314.419-.524.628-.838 1.153-1.676 1.362-1.676 3.039-.629.209.105.314.21.523.315l15.715 10.372c.419.209.734.523 1.153.838.733.524.943 1.152.419 1.886-.21.419-.524.733-.734 1.152-.104.105.105.524.105.838zm-179.15 38.344c-98.794-.314-177.369-80.774-176.531-178.416.943-96.071 79.204-174.646 176.007-174.855 98.795-.314 177.579 80.146 177.265 177.264-.314 96.071-78.47 175.798-176.741 176.007zm.21-2.723c95.756 0 174.016-78.156 173.912-173.808 0-96.07-77.842-173.911-173.703-174.121-96.28-.105-173.807 77.841-174.226 173.179-.419 97.013 78.051 174.645 174.017 174.75zm190.675-286.641c2.305 2.934 2.305 6.496-.314 8.905-1.258 1.153-2.724 2.2-4.296 2.934-3.876 1.781-6.914.628-9.324-3.353l13.934-8.486zm-2.305-3.876l-13.829 8.381c-2.305-2.933-2.2-6.6.419-9.01 1.258-1.152 2.724-2.095 4.296-2.828 3.667-1.677 7.333-.21 9.114 3.457z"/><path d="M413.848 113.462l-3.667-4.296c-1.153-1.676-1.153-3.457 0-5.238.838-1.362 1.885-2.41 3.352-3.038 1.886-.838 3.877-.629 5.343.733l2.41 2.619c.838.943.838 1.572-.105 2.41-2.305 2.305-4.714 4.505-7.333 6.81zm-282.66-48.821l6.496 9.429c-1.781 1.467-3.353 2.724-5.448 3.457-1.572.524-3.143.314-4.505-.838-1.153-1.048-2.096-2.305-2.515-3.772-.733-2.095-.104-3.981 1.677-5.343 1.257-1.048 2.619-1.886 4.295-2.933zm16.763 373.491l-4.505-2.828c-1.991-1.467-2.62-3.772-1.886-6.077.733-2.409 3.038-4.61 5.238-4.714.838 0 1.886.209 2.724.628 1.048.419 1.991 1.048 2.934 1.677 1.257.838 1.466 1.257.733 2.619l-3.143 5.343c-.629 1.152-1.362 2.2-2.095 3.352zm-.524 1.048c-1.886 3.143-3.458 6.286-5.553 9.219-1.886-.629-3.457-1.467-4.61-2.829-1.152-1.152-1.571-2.619-.943-4.19.524-1.153 1.048-2.305 1.886-3.248 1.676-1.886 3.667-2.095 5.972-.838 1.047.524 2.095 1.257 3.248 1.886zm300.05-99.738l-2.2 4.61c-1.362 2.305-3.353 3.143-5.972 2.724-2.515-.419-4.819-2.41-5.238-4.61-.105-.733-.105-1.571.209-2.305.524-1.362 1.153-2.723 1.781-3.981.314-.838 1.048-1.152 1.781-.733 3.143 1.257 6.286 2.724 9.639 4.295zm1.152.419l8.696 4.086c.943.419 1.152 1.048.733 1.991-.209.628-.524 1.257-.838 1.781-.943 1.886-2.305 3.352-4.61 3.143-2.409-.21-4.505-1.257-5.657-3.457-.629-1.153-.524-2.305-.105-3.458.419-1.362 1.048-2.514 1.781-4.086zm-68.832 69.041c.105 5.029 2.41 9.01 4.82 12.886 1.466 2.515 3.247 4.82 4.924 7.229 1.152 1.676 1.152 1.991-.524 3.248l-5.029 3.772c-.628-.734-1.152-1.153-1.571-1.781l-11.734-15.715c-.21-.21-.314-.419-.524-.629-.733-1.048-.629-1.362.314-2.2 1.048-.838 2.096-1.572 3.143-2.41 1.991-1.257 3.981-2.724 6.181-4.4zm-219.169 44.107c.629-5.134 2.515-10.163 6.6-14.144 1.991-1.99 4.401-2.619 7.125-1.466 2.409.942 3.666 2.933 3.771 5.447a16.34 16.34 0 0 1-.314 4.505c-.629 3.562-2.095 6.705-4.296 9.534a18.06 18.06 0 0 1-2.828 2.829c-1.991 1.571-4.296 1.781-6.601.733s-3.352-2.933-3.562-5.343c.105-.629.105-1.152.105-2.095zm300.05-127.5c-4.715-.315-9.115-1.362-12.886-3.982a13.23 13.23 0 0 1-3.248-3.143c-2.305-3.457-.629-7.857 3.352-9.219 1.886-.629 3.772-.629 5.762-.419 4.191.524 8.067 1.781 11.42 4.4 1.467 1.153 2.619 2.514 3.038 4.296.733 3.457-.943 6.495-4.295 7.438-1.153.419-2.305.524-3.143.629zM39.832 240.857c2.724.105 5.657.21 8.381 1.467 1.153.524 2.305 1.153 3.143 1.991 2.619 2.514 2.41 6.705-.314 9.01-.733.628-1.676 1.257-2.514 1.571-5.343 1.781-10.686 1.781-16.029-.209-.838-.315-1.571-.839-2.2-1.362-3.352-2.724-3.248-7.439.21-9.953 1.781-1.257 3.772-1.886 5.972-2.2 1.048-.21 2.095-.21 3.352-.315zM251.67 41.278c0 3.248-.209 5.972-1.467 8.486-1.362 2.724-3.457 3.981-6.39 3.772-1.781-.105-3.143-.943-4.296-2.305-.628-.838-1.257-1.781-1.571-2.724-1.677-4.715-1.991-9.638-.629-14.458.21-.838.629-1.781 1.153-2.514 2.514-4.086 7.857-4.295 10.686-.419 1.571 2.2 2.095 4.714 2.409 7.334 0 1.152.105 2.305.105 2.829zm-38.869 424.931c.209-3.248.524-6.495 1.99-9.638.629-1.362 1.467-2.724 2.515-3.772 2.933-3.038 7.752-2.305 9.848 1.362.943 1.781 1.362 3.667 1.362 5.553.104 3.771-.419 7.438-1.991 10.895-.524 1.153-1.257 2.41-2.2 3.353-3.143 3.352-8.276 2.619-10.372-1.467-.838-1.886-1.047-4.086-1.152-6.286zm117.233-15.191l3.772 10.267c.419 1.362.209 1.781-1.152 2.305-.524.21-.943.419-1.467.524-2.41.838-4.61.629-6.496-1.257s-2.619-4.191-1.885-6.81c.419-1.467 1.361-2.619 2.723-3.352l4.505-1.677zm105.709-87.898l-2.409 3.562c-1.572 1.885-3.562 2.409-5.867 1.781-1.886-.524-3.353-1.572-4.4-3.248s-1.153-3.457-.105-5.238l1.362-2.2c.838-1.153 1.362-1.362 2.724-.524 1.467.838 2.933 1.886 4.4 2.828l3.981 2.62c.105.104.105.209.314.419zM197.61 457.933l-3.038 10.686c-.419 1.362-.838 1.467-2.2 1.152l-2.305-.628c-3.143-1.257-4.4-4.086-3.562-7.543.733-3.039 3.457-5.029 6.496-4.715 1.362.105 2.828.629 4.609 1.048zM72.414 140.806l2.514-3.877c1.152-1.571 2.829-2.2 4.714-1.99 2.514.419 4.505 1.676 5.657 3.981.838 1.571.838 3.038 0 4.61-.314.628-.733 1.152-1.048 1.676-1.362 2.095-1.676 2.095-3.772.733l-6.705-4.295c-.419-.105-.838-.419-1.362-.838z"/><path d="M51.147 343.528l9.01-8.8 3.667 8.381c-4.295.524-8.486.629-12.572.838 0-.104 0-.314-.105-.419zm410.474-107.804c-.105-.419-.21-.838-.21-1.362l-.733-7.438c4.295.838 8.276 2.095 12.362 3.038-1.047 1.257-9.324 5.343-11.419 5.762zM164.086 63.907l-.629-12.677c.105-.105.314-.105.419-.209l8.8 9.115-8.59 3.772zm-47.565 31.011l-6.914 6.286-5.029-12.362c4.191 1.991 7.753 4.086 11.943 6.076zm220.218-33.315l-8.591-3.562c2.934-3.248 5.763-6.181 8.906-9.534.314 4.505-.21 8.591-.315 13.096zM41.717 188.055l12.782-.628-2.829 8.8c-3.562-2.619-6.81-5.238-10.162-7.753.105-.105.209-.209.209-.419zm185.122-38.554c-11.629-.628-20.534-8.171-28.81-12.886 11 2.619 19.486 10.058 31.429 12.572 4.086.314-1.466.419-2.619.314zm-37.192-12.153c-.838-.733-4.505-1.571-2.619-2.828 1.676-1.153 4.295 0 5.553 0-.629-.629-2.934-1.572-2.41-2.305 1.467-1.781 4.61 0 5.867-.21-1.048-.733-4.086-1.257-2.619-1.885.733-.21 1.467-.315 2.828-.315 5.239.21 17.706 8.486 19.277 9.324s15.506 8.382 23.049 6.391c1.467-.419 3.248-1.467 3.772-2.305-1.362 1.048-3.353 1.991-5.239 1.991-15.715-.629-26.401-14.353-39.916-15.925 0 0-1.676-.209-3.666.21s-9.115 6.181-15.192 8.172c3.353-.838 8.382-.943 11.315-.315zm38.449 14.249c-14.248-2.305-20.324-9.115-32.163-12.153 8.696 5.552 18.439 13.305 32.163 12.153zm-13.2-11.839c-2.305-1.048-13.934-5.448-13.934-5.448 10.267 4.924 17.81 13.934 32.582 13.41-7.962-1.152-16.343-6.914-18.648-7.962zm147.72 209.428c-.419-.629-1.467 1.571-1.467 1.571.105 1.362 3.667 1.467 3.772.734s-1.886-1.677-2.305-2.305zm-208.065 1.466c-.315-.419-.629-.943-.629-.943.314-.523-3.248 1.886-3.143 2.201.209.209 4.086-.839 3.772-1.258zm-43.374-134.624l.943-.943-13.2-10.162 12.257 11.105zm-1.99 1.781l1.047-.838-14.876-14.039 13.829 14.877zm82.66 133.472c-3.038 3.352-9.848 9.743-20.429 11.42-10.372 1.571-21.372 4.295-26.401 8.695 5.029-2.829 18.439-6.391 26.401-7.753 8.276-1.362 16.343-4.505 21.791-10.895 5.553-6.496 3.458-9.848 3.458-9.848.209 2.095-2.096 5.238-4.82 8.381zm1.257-9.115c-4.714 11.21-15.505 16.239-21.162 17.811-7.543 2.095-18.23 2.828-25.878 7.647 7.963-3.038 18.544-4.609 26.192-6.809 22.63-6.182 20.848-18.649 20.848-18.649zm-3.981 1.362c-4.609 6.391-9.219 8.905-12.781 11.734 9.534-2.933 12.781-11.734 12.781-11.734zm129.072-.524s-2.305 3.877 6.391 11.734c7.019 6.496 19.487 8.905 26.925 10.582s14.143 3.457 17.077 4.819c-.734-1.467-8.381-3.981-15.925-5.762-6.809-1.677-29.544-5.658-34.468-21.373zm23.363 16.344c-8.486-2.41-16.867-8.905-21.267-17.391 0 0-2.2 5.867 11.105 14.038 11 6.81 25.353 6.601 36.563 11.629-1.886-3.562-8.486-3.352-26.401-8.276zm-3.667-3.038c-.628-.943-8.59-8.277-14.772-14.144 0 0 3.562 9.325 14.772 14.144zm-168.987-47.04c-1.258-.21-2.41-.315-2.829-1.153-.314-.733-.105-1.466.628-1.885.943-.42 1.467 0 2.305.942l.315-.209c-.419-.838-.734-1.676-1.048-1.781s-1.048 0-1.781.419c-1.362.629-2.095 1.99-1.467 3.248.629 1.362 2.095 1.466 3.353 1.676 1.152.209 1.885.524 2.305 1.257.314.734.209 1.676-.839 2.2s-1.885-.105-2.724-1.047l-.314.209c.629 1.048.943 1.991 1.257 2.095s1.258-.104 1.991-.523c1.571-.734 2.41-2.41 1.781-3.772-.524-.943-1.676-1.362-2.933-1.676zm10.476.314c-2.095.838-3.876-.209-4.714-2.514s.314-4.296 1.781-4.82c1.571-.628 2.724.21 3.352 1.153l.419-.21c-.628-1.047-.838-2.095-1.047-2.2-.315-.105-1.677.105-2.724.524-2.305.838-3.877 3.667-2.829 6.6.838 2.305 3.248 3.562 5.762 2.619 1.676-.628 2.724-2.2 2.619-3.457l-.314-.105c-.21.734-.838 1.781-2.305 2.41zm7.753-2.2l-2.41-7.753.943-.314-.209-.524-3.143.943.209.524.943-.314 2.41 7.752-.943.315.209.523 3.143-.943-.209-.523-.943.314zm10.791-4.924h-.419c-.105 1.257-.524 2.2-2.41 2.619l-1.676.419-.943-3.771 1.362-.315c1.257-.314 1.571 0 1.781.629l.314-.105c-.105-.628-.419-1.676-.524-2.619l-.419.105c0 .628 0 1.152-1.257 1.466l-1.362.42-.943-3.667 1.676-.419c1.258-.315 2.096-.21 2.62.733l.314-.21c-.21-.628-.524-1.781-.838-1.676l-6.286 1.572.105.524.943-.21 1.99 7.857-.943.21.105.524 6.495-1.676c.42.104.315-1.572.315-2.41zm9.848-8.067c0-.21.209-.419.524-.419l.419-.105-.105-.524-2.934.524.105.524.524-.105c.314-.105.524.105.629.419.209.629.838 3.458 1.257 5.972l-6.915-5.972-2.2.419.105.524 1.152-.209c.629 2.933 1.362 6.6 1.362 7.752 0 .21-.314.419-.628.419l-.419.105.104.524 2.934-.524-.105-.524-.524.105c-.314.105-.524-.105-.733-.314-.21-.629-.838-3.772-1.257-6.391v-.105l7.438 6.391.524-.21c-.314-2.514-1.467-7.228-1.257-8.276zm11.838-2.619l-8.59 1.152c-.21 0-.105 1.572-.105 2.515h.419c.209-1.153.419-2.096 2.095-2.305l1.257-.21 1.153 8.067-1.153.21.105.524 3.562-.524-.105-.524-1.152.209-1.152-8.067 1.257-.209c1.676-.21 2.2.629 2.724 1.676l.419-.105c-.21-.943-.419-2.409-.734-2.409zm6.077 8.172l-.838-8.067.943-.105-.105-.524-3.248.314.105.524.943-.105.838 8.067-.943.105.105.524 3.247-.314-.104-.524-.943.105zm12.153-1.048v.524l-3.248.209-.105-.524.943-.104-1.362-2.934-3.038.21c-.419 1.362-.734 2.409-.734 2.724 0 .209.21.314.42.314h.523v.524l-3.038.209v-.524h.419c.315 0 .419-.104.629-.314.628-1.047 2.305-6.705 2.829-8.591l.838-.104c.104.314.209.523.314.838l3.562 7.648 1.048-.105zm-3.981-3.248l-1.467-3.248h-.105c-.314.839-.733 2.2-1.152 3.458l2.724-.21zm15.086-3.352c.105 1.885-2.095 3.038-4.086 3.038h-.105l.105 3.248h1.152v.523l-3.352.105v-.524h.943l-.21-8.171h-.943v-.524l3.039-.105c1.99 0 3.457.733 3.457 2.41zm-1.467.209c0-1.257-.838-2.095-2.409-1.99h-.315l.105 4.4c1.571-.21 2.619-.943 2.619-2.41zm14.144 1.467c0 3.038-2.41 5.238-5.343 5.238-2.515 0-4.61-1.676-4.61-4.505 0-3.038 2.514-5.133 5.238-5.133 2.619.104 4.715 1.781 4.715 4.4zm-1.572.733c0-2.514-1.362-4.4-3.562-4.4-1.886 0-3.352 1.572-3.352 3.876 0 2.62 1.466 4.401 3.562 4.401 1.885 0 3.352-1.467 3.352-3.877zm12.886-4.4l-8.59-.419c-.21 0-.315 1.467-.524 2.514l.419.105c.419-1.152.838-1.99 2.514-1.886l1.257.105-.419 8.172-1.152-.105v.524l3.562.209v-.523l-1.153-.105.42-8.172 1.257.105c1.676.105 2.095.943 2.305 2.095h.419c-.105-1.047-.105-2.514-.315-2.619zm6.077 9.219l-1.676-.104.314-3.877 1.362.105c1.257.105 1.466.524 1.466 1.257h.42c.104-.524.104-1.676.314-2.619l-.419-.105c-.21.629-.419 1.048-1.676.943l-1.467-.104.314-3.772 1.781.21c1.257.104 1.991.523 2.2 1.571h.419c0-.733.105-1.886-.209-1.886l-6.391-.524-.105.524.943.105-.733 8.067-.943-.105v.524l6.6.629c.21 0 .629-1.572.943-2.41l-.419-.105c-.419 1.153-1.048 1.886-3.038 1.676zm13.41-6.6l.524.105c.314.105.524.209.524.629.104.628-.315 3.457-.734 6.076l-4.61-7.857-2.2-.315-.104.524 1.152.105c-.314 2.933-.838 6.705-1.152 7.753-.105.209-.419.209-.734.209h-.314l-.105.524 2.934.419.104-.524-.523-.105a.49.49 0 0 1-.524-.523c0-.629.419-3.877.838-6.496h.105l5.028 8.381h.629c.314-2.619.838-7.333 1.257-8.276.105-.21.314-.21.629-.21l.419.105.105-.524-2.934-.419-.314.419zm5.657.315c-.209 0-.524 1.466-.838 2.409l.419.105c.524-1.048 1.153-1.886 2.829-1.572l1.257.21-1.571 7.962-1.048-.209-.105.523 3.457.629.105-.524-1.152-.209 1.571-7.963 1.257.21c1.677.314 1.886 1.257 1.991 2.41h.419c0-.943.314-2.515 0-2.515l-8.591-1.466zm14.353 3.562l.105-.524-3.143-.734-.105.524.943.21-1.886 7.962-.943-.21-.104.524 3.143.734.104-.524-.942-.21 1.885-7.962.943.21zm7.962 10.686l.839.209-.105.524-3.143-.943.105-.524.838.21-.21-3.248-2.933-.838c-.838 1.048-1.467 1.991-1.572 2.305-.105.209.105.314.315.419l.523.105-.104.524-2.934-.839.105-.523.419.104c.314.105.419 0 .629-.104.942-.734 4.504-5.448 5.657-7.125l.838.21v.838l.733 8.696zm-1.676-4.296l-.209-3.562h-.105c-.524.734-1.467 1.781-2.2 2.829l2.514.733zm10.162-2.095l-.209.524.943.314-2.934 7.648-.943-.314-.209.524 6.286 2.409c.209.105 1.048-1.362 1.467-1.99l-.315-.21c-.733.943-1.676 1.467-3.457.838l-1.676-.628 1.362-3.667 1.362.524c1.152.523 1.257.943 1.047 1.571l.419.105c.21-.524.629-1.572 1.048-2.41l-.419-.209c-.314.524-.629.943-1.886.524l-1.362-.524 1.362-3.458 1.677.629c1.257.419 1.781 1.048 1.781 2.095l.419.105c.209-.733.523-1.781.314-1.886l-6.077-2.514zm12.782 5.029c-1.362-.629-2.829-.315-3.457.943-.629 1.362.209 2.619.838 3.666.524.943.838 1.781.524 2.515s-1.153 1.152-2.2.733c-1.048-.524-1.153-1.467-.943-2.828l-.419-.105c-.419 1.152-.943 1.99-.839 2.305s.943.943 1.677 1.257c1.571.733 3.352.314 3.981-1.048.419-.943.105-2.095-.524-3.248s-1.257-2.095-.838-2.828c.314-.734 1.047-1.048 1.781-.629.943.419.943 1.153.733 2.41l.419.104c.315-.942.838-1.571.734-1.885-.105-.524-.734-1.048-1.467-1.362zm4.924 2.619c-.21-.105-1.048 1.152-1.676 1.886l.314.209c.838-.838 1.676-1.362 3.143-.524l1.048.629-4.191 7.019-.943-.628-.314.419 3.038 1.781.314-.419-.943-.629 4.191-7.019 1.048.628c1.466.839 1.362 1.781 1.047 3.039l.419.104c.42-.942 1.153-2.2.943-2.409l-7.438-4.086zm-28.392-94.918a155.71 155.71 0 0 0-9.848.628c-4.609.419-9.114.943-13.619 1.677-3.143.523-6.286 1.152-9.22 1.781-8.905 1.885-14.877 3.771-18.229 5.028-.105 0-.21.21-.419.419v1.991c2.933-1.257 5.972-2.305 9.01-3.248s6.181-1.781 9.324-2.514c4.191-1.048 8.172-1.991 12.153-2.724a195.98 195.98 0 0 1 14.143-1.886l7.648-.524c11.001-.628 19.068-.104 20.639 0 .419 0 .734-.209.629-.419-3.667-.104-11.839-.628-22.211-.209zm-.419-5.134c-1.152.105-2.2.105-3.352.21-2.096.104-4.296.314-6.391.419-4.505.419-9.115.943-13.515 1.676l-3.562.629c-1.886.314-3.771.733-5.657 1.152-8.486 1.886-14.563 3.667-18.125 5.029-.105.105-.314.209-.419.419 0 .524-.105 1.362 0 1.886 2.829-1.257 5.762-2.2 8.696-3.143a124.46 124.46 0 0 1 8.905-2.515c3.667-.943 7.333-1.781 11-2.409.419-.105.838-.21 1.258-.21 4.924-.838 9.743-1.467 14.248-1.886 1.885-.209 3.667-.314 5.343-.419.733 0 1.571-.104 2.305-.104 11.105-.524 19.172 0 20.743.104.419 0 .734-.209.629-.419-3.562-.209-11.629-.733-22.106-.419zm3.248 28.706l-10.372.733c-4.924.524-9.743 1.153-14.248 1.886-3.457.629-6.6 1.257-9.743 1.991-10.582 2.409-16.972 4.61-19.173 5.552-.104.105-.209.21-.314.629 0 .524-.105 1.467 0 1.991 6.81-2.934 14.144-5.029 21.477-6.81 4.191-1.048 8.277-1.886 12.363-2.619 4.924-.838 9.743-1.467 14.248-1.991 2.724-.314 5.238-.419 7.753-.629 11.524-.733 19.8-.314 20.848-.209.314 0 .524-.314.419-.629-5.552-.104-13.829-.314-23.258.105zm-2.095-18.124a163.31 163.31 0 0 0-9.953.628c-4.715.419-9.324 1.048-13.829 1.781-3.248.524-6.391 1.153-9.324 1.781-9.325 1.991-15.506 3.981-18.544 5.134-.105 0-.21.209-.314.524v1.99c6.181-2.619 12.781-4.4 19.277-6.076 4.086-1.048 8.171-1.886 12.153-2.619 4.924-.839 9.638-1.467 14.143-1.886l7.648-.524c11.105-.629 19.277-.21 20.639-.105.419 0 .733-.209.524-.419-4.296-.209-12.468-.628-22.42-.209zm.628 5.762l-10.162.733c-4.715.419-9.429 1.048-13.934 1.886l-9.429 1.886c-9.534 2.095-15.61 4.086-18.648 5.343-.105.105-.21.314-.419.524 0 .523-.105 1.466 0 1.99 6.286-2.724 12.886-4.61 19.486-6.286 4.191-1.047 8.277-1.99 12.363-2.724 4.924-.943 9.848-1.571 14.248-1.99 2.724-.315 5.343-.419 7.752-.629 11.315-.629 19.382-.209 20.849-.105.314 0 .733-.209.524-.419-4.296-.209-12.467-.628-22.63-.209zm.734 5.971l-10.267.734c-4.82.419-9.534 1.152-14.144 1.886l-9.638 1.885c-10.058 2.305-16.239 4.401-18.963 5.448-.105 0-.21.21-.314.524 0 .524-.105 1.362 0 1.991 6.6-2.829 13.514-4.924 20.429-6.601 4.191-1.047 8.277-1.99 12.362-2.724 5.029-.838 9.848-1.466 14.249-1.99l7.752-.629c11.42-.628 19.487-.314 20.744-.209.314 0 .629-.315.524-.524-4.819.105-12.991-.21-22.734.209zm-3.039-27.239c-1.152 0-2.2.105-3.352.105-2.095.105-4.191.209-6.391.419-4.505.314-9.01.838-13.41 1.572l-3.457.628c-1.886.314-3.772.733-5.658 1.048-8.276 1.781-14.143 3.562-17.915 4.924-.104.105-.314.209-.419.419 0 .524-.104 1.362 0 1.886 2.724-1.153 5.553-2.096 8.382-3.039l8.486-2.409c3.667-.943 7.333-1.781 11-2.41.419-.105.838-.105 1.257-.209 4.924-.838 9.744-1.467 14.249-1.781 1.885-.21 3.666-.315 5.447-.419.734 0 1.572-.105 2.305-.105 11.21-.524 19.382 0 20.849.105.314 0 .628-.21.524-.315-3.143-.209-11.315-.838-21.897-.419zm-2.514-22.21c-1.048 0-2.095 0-3.248.105l-6.076.314c-4.191.314-8.486.628-12.886 1.257-1.153.21-2.305.314-3.353.524l-5.343.943c-6.6 1.362-12.467 2.828-17.182 4.609-.104.105-.314.21-.523.315-.105.419-.105 1.362 0 1.781 2.095-.943 4.295-1.781 6.495-2.41 2.2-.733 4.4-1.362 6.705-1.99a114.08 114.08 0 0 1 11.21-2.515c.419-.105.838-.209 1.362-.209 5.029-.838 9.953-1.362 14.563-1.781l5.447-.315c.838 0 1.572-.104 2.41-.104 11.734-.419 20.22.419 21.163.419.105-.105.209-.21.209-.315-1.466-.104-9.743-.838-20.953-.628zm-.524-3.877c-1.047 0-2.095 0-3.248.105-1.99.105-3.981.105-5.971.314a135.27 135.27 0 0 0-12.782 1.258c-1.152.209-2.2.314-3.352.523l-5.343.943c-6.286 1.258-12.048 2.724-17.077 4.61-.21.105-.314.21-.524.21-.105.419-.105 1.257 0 1.781 1.991-.838 4.086-1.572 6.076-2.305 2.096-.734 4.191-1.362 6.286-1.886 3.772-1.048 7.544-1.886 11.21-2.514.419-.105.943-.21 1.362-.21 5.029-.838 9.953-1.362 14.563-1.676l5.552-.314c.839 0 1.572-.105 2.41-.105 11.839-.315 20.429.524 21.268.524.104-.21.209-.21.104-.315-.838-.314-9.114-1.047-20.534-.943zm1.048 7.858c-1.048 0-2.2.105-3.248.105l-6.181.314c-4.295.314-8.591.733-12.991 1.362-1.153.209-2.305.314-3.457.524l-5.448.943c-7.02 1.362-12.782 3.038-17.391 4.714-.21.105-.315.21-.524.314-.105.419-.105 1.362 0 1.781 2.2-.942 4.505-1.781 6.81-2.619 2.304-.733 4.714-1.466 7.019-2.095 3.771-1.048 7.438-1.886 11.21-2.514.419-.105.838-.21 1.362-.21 5.029-.838 9.848-1.362 14.458-1.781l5.447-.314c.839 0 1.572-.105 2.305-.105 11.629-.419 20.011.314 21.058.419.21-.105.315-.21.21-.314-1.362 0-9.534-.734-20.639-.524zm1.467 13.41c-1.153 0-2.2.105-3.353.105-2.095.104-4.191.209-6.286.419-4.4.419-8.905.838-13.305 1.571-1.153.21-2.305.419-3.457.524-1.886.314-3.772.733-5.553 1.048-7.858 1.676-13.829 3.352-17.81 4.924-.105.105-.315.209-.419.419 0 .419-.105 1.362 0 1.886 2.619-1.048 5.238-2.096 7.962-2.934s5.448-1.676 8.172-2.305c3.666-.943 7.438-1.781 11-2.409.419-.105.838-.21 1.257-.21 4.924-.838 9.848-1.467 14.353-1.781 1.886-.105 3.667-.314 5.448-.419.838 0 1.572-.105 2.305-.105 11.315-.524 19.591.105 20.848.21.315 0 .524-.21.419-.314-2.619-.315-10.79-.943-21.581-.629zm-.524-4.61c-1.048 0-2.2.105-3.353.105l-6.286.419c-4.4.314-8.8.838-13.2 1.467-1.153.209-2.305.314-3.458.524-1.885.314-3.666.628-5.552 1.047-7.543 1.572-13.515 3.248-17.601 4.82-.105 0-.314.209-.419.314 0 .419-.105 1.362 0 1.886 2.514-1.048 5.029-1.991 7.648-2.829s5.134-1.572 7.753-2.2c3.667-.943 7.438-1.781 11.105-2.515.419-.104.838-.104 1.257-.209 4.924-.838 9.848-1.467 14.353-1.781 1.886-.105 3.667-.314 5.448-.314.838 0 1.571-.105 2.305-.105 11.419-.419 19.696.209 20.953.209.314 0 .524-.209.419-.314-2.305-.209-10.477-.838-21.372-.524zm-.419-4.505c-1.048 0-2.2.105-3.248.105l-6.181.314c-4.296.315-8.696.734-13.096 1.362-1.152.21-2.305.315-3.457.524-1.886.314-3.667.629-5.448 1.048-7.334 1.467-13.096 3.143-17.496 4.714-.105.105-.314.21-.524.315-.105.523-.105 1.362 0 1.781 2.41-1.048 4.715-1.886 7.229-2.724 2.41-.838 4.924-1.467 7.438-2.2 3.772-1.048 7.439-1.781 11.106-2.515.419-.105.838-.105 1.257-.209 5.029-.838 9.848-1.362 14.457-1.781 1.886-.105 3.667-.315 5.448-.315.838 0 1.572-.104 2.305-.104 11.524-.419 19.906.209 21.058.314.21-.105.419-.21.314-.314-1.99.104-10.162-.629-21.162-.315zm-144.997 19.487l-4.295.209 19.905-38.973c1.362-.104 2.201-.104 3.667-.209 3.143 13.2 6.81 26.61 10.686 39.706-1.885-.209-2.828-.209-4.714-.419-.838-3.562-2.724-10.477-3.667-14.248-3.876-.314-11.419-.21-14.772 0l-6.81 13.934zm8.696-17.391c4.819-.21 7.019-.21 12.048-.105l-3.772-15.82h-.419c-1.99 3.772-4.819 9.848-7.857 15.925zM321.862 244l-10.476.734c-5.029.524-9.848 1.152-14.458 1.99-3.457.629-6.705 1.258-9.848 1.991-11.105 2.514-17.601 4.924-19.487 5.762-.105 0-.209.314-.209.629 0 .523-.105 1.466 0 2.095 7.124-3.038 14.772-5.238 22.42-7.124 4.19-1.048 8.276-1.886 12.362-2.619 4.924-.838 9.743-1.467 14.248-1.886 2.724-.314 5.239-.419 7.753-.629 11.629-.733 19.906-.314 20.848-.314.21 0 .524-.314.315-.629-6.077-.314-14.458-.523-23.468 0zm-135.043-29.648c2.409.104 5.028.314 7.647.523a195.93 195.93 0 0 1 14.144 1.886c3.981.734 8.067 1.676 12.153 2.619 6.181 1.572 12.362 3.353 18.334 5.867.105-.524 0-1.466 0-1.99-.105-.21-.21-.419-.419-.524-3.353-1.257-9.429-3.143-18.23-5.029-3.038-.629-6.076-1.257-9.324-1.781-4.505-.733-9.01-1.362-13.619-1.676a160.86 160.86 0 0 0-9.848-.629c-10.372-.419-18.439.105-22.211.315-.105.209.21.419.629.419 1.676-.105 9.743-.524 20.744 0zm136.719 43.058c-3.666.21-7.228.524-10.686.839-5.238.523-10.162 1.257-14.772 2.095-3.667.629-7.019 1.362-10.057 2.095-12.153 2.829-18.963 5.448-20.011 5.972l-.209.629c0 .523-.105 1.361 0 2.095 7.752-3.248 16.134-5.762 24.41-7.648 4.191-.943 8.277-1.781 12.363-2.514 4.924-.839 9.743-1.467 14.248-1.886l7.753-.629c11.838-.733 20.22-.314 20.743-.314.105 0 .419-.419.21-.838-7.334-.21-15.506-.315-23.992.104zm-.838-6.705c-3.562.21-7.124.42-10.581.839-5.134.523-10.058 1.257-14.667 1.99-3.562.629-6.81 1.362-9.953 1.991-11.629 2.724-18.229 5.238-19.801 5.867 0 0-.21.523-.21.942 0 .524 0 1.153.105 1.782 7.439-3.143 15.506-5.553 23.468-7.439 4.191-.943 8.276-1.886 12.362-2.514 4.924-.838 9.744-1.467 14.248-1.886 2.724-.314 5.239-.419 7.753-.629 11.734-.733 20.115-.314 20.744-.314.209 0 .419-.314.209-.733-6.6-.21-14.876-.315-23.677.104zm1.677 13.934c-3.772.21-7.334.524-10.791.838-5.343.524-10.372 1.258-14.982 2.096-3.667.628-7.124 1.362-10.162 2.095-12.782 2.934-19.592 5.762-20.325 6.077 0 0-.105.523-.209.942 0 .524 0 1.153.104 1.781 8.067-3.352 16.763-5.971 25.459-7.962 4.19-.943 8.381-1.781 12.362-2.409 5.029-.839 9.848-1.362 14.353-1.781l7.753-.629c12.048-.733 20.429-.314 20.743-.21.105 0 .315-.419.105-.838a237.16 237.16 0 0 0-24.41 0zm-116.186-85.698c1.571.209 4.924.523 9.114 1.257l1.572.314c2.305.419 4.819 1.048 7.438 1.676.839.21 1.781.524 2.62.734 1.781.524 3.457 1.047 5.238 1.781.105 0 .209.105.314.105 1.886.733 3.772 1.571 5.553 2.409a4.5 4.5 0 0 0 0-1.676c-.21-.105-.419-.21-.734-.314-3.143-1.258-6.495-2.305-9.848-3.248-.104 0-.209 0-.209-.105-3.562-.943-7.02-1.571-10.058-2.095-6.181-.943-10.686-1.257-11.105-1.362-.105.105-.105.105 0 .314-.105.105 0 .21.105.21zm-47.25 65.688c.838-.105 9.22-.419 20.849.314a110.15 110.15 0 0 1 7.752.629 191.03 191.03 0 0 1 14.249 1.886c4.086.733 8.171 1.571 12.362 2.619 7.648 1.781 15.296 4.086 22.42 7.124.105-.629 0-1.572 0-2.095-.105-.315-.209-.524-.209-.629-1.886-.733-8.382-3.143-19.487-5.762-3.038-.733-6.391-1.362-9.848-1.991-4.505-.838-9.429-1.466-14.458-1.99-3.457-.315-6.914-.629-10.476-.734-9.115-.523-17.392-.314-23.468 0-.21.315.105.629.314.629zm1.153-6.6c1.047-.105 9.324-.419 20.848.209 2.41.105 5.029.315 7.753.629 4.505.419 9.324 1.048 14.248 1.99 3.981.734 8.172 1.572 12.258 2.62 7.333 1.781 14.562 3.876 21.477 6.809.105-.628 0-1.571 0-1.99-.105-.314-.21-.524-.314-.629-2.305-.943-8.696-3.143-19.173-5.552-3.038-.734-6.286-1.362-9.638-1.991-4.505-.838-9.324-1.467-14.248-1.886-3.353-.314-6.81-.628-10.267-.733-9.429-.524-17.706-.21-23.154 0-.314.314-.105.524.21.524zm-3.458 20.115c.524 0 8.906-.419 20.744.314a109.58 109.58 0 0 1 7.753.629c4.505.419 9.324 1.047 14.248 1.886 4.086.628 8.172 1.571 12.362 2.514 8.277 1.886 16.763 4.4 24.516 7.648.104-.629.104-1.572 0-2.095-.105-.42-.105-.629-.21-.629-1.152-.419-7.857-3.143-20.01-5.972-3.143-.733-6.496-1.466-10.058-2.095-4.609-.838-9.533-1.467-14.772-2.095l-10.686-.839c-8.486-.419-16.762-.419-23.991-.104-.315.524 0 .838.104.838zm1.153-6.705c.733 0 9.01-.419 20.744.314 2.409.105 5.028.314 7.752.629 4.505.419 9.324 1.047 14.248 1.885 3.982.734 8.172 1.572 12.363 2.515 7.962 1.886 16.029 4.295 23.468 7.438.104-.628.104-1.257.104-1.781-.105-.419-.209-.943-.314-.943-1.467-.628-8.172-3.143-19.801-5.867-3.038-.733-6.391-1.361-9.953-1.99-4.609-.838-9.429-1.467-14.562-1.991l-10.582-.838c-8.8-.524-17.076-.314-23.781 0-.105.21.104.629.314.629zm5.343-31.535c1.362-.105 9.534-.524 20.639.105 2.409.105 5.029.314 7.648.524a195.42 195.42 0 0 1 14.143 1.886c3.981.733 8.067 1.571 12.153 2.619 6.496 1.571 13.096 3.457 19.277 6.076.105-.628 0-1.467 0-1.99-.105-.315-.209-.524-.419-.524-3.038-1.153-9.115-3.038-18.439-5.134l-9.324-1.781c-4.505-.733-9.115-1.362-13.829-1.781a163.36 163.36 0 0 0-9.953-.628c-9.953-.419-18.124 0-22.42.209-.105.21.21.419.524.419zm-1.886 11.734c1.257-.105 9.429-.524 20.744.21a109.6 109.6 0 0 1 7.753.628c4.504.419 9.324 1.048 14.248 1.991 3.981.733 8.172 1.676 12.257 2.724 7.02 1.676 13.934 3.771 20.43 6.6.105-.629.105-1.572 0-1.991-.105-.314-.21-.524-.314-.524-2.62-1.047-8.906-3.247-18.963-5.447-3.038-.734-6.286-1.362-9.534-1.886-4.505-.734-9.219-1.467-14.143-1.886-3.353-.314-6.81-.524-10.267-.733-9.744-.419-17.915-.105-22.839.104 0-.104.314.21.628.21zm1.048-5.972c1.467-.104 9.534-.524 20.848.105a109.58 109.58 0 0 1 7.753.629c4.505.419 9.324 1.047 14.353 1.99 3.981.734 8.172 1.677 12.362 2.724 6.601 1.676 13.201 3.562 19.487 6.286.105-.628 0-1.467 0-1.99-.105-.315-.21-.419-.314-.524-3.039-1.153-9.22-3.143-18.649-5.343a117.86 117.86 0 0 0-9.534-1.886c-4.504-.733-9.219-1.362-13.933-1.886-3.353-.314-6.81-.524-10.163-.733-10.162-.524-18.229 0-22.629.104-.315.315 0 .524.419.524zm-6.915 39.811c.315 0 8.696-.419 20.744.21a109.58 109.58 0 0 1 7.753.629c4.505.419 9.324 1.047 14.353 1.781 3.981.628 8.171 1.466 12.362 2.409 8.696 1.991 17.391 4.61 25.458 7.962.105-.628.105-1.361.105-1.781-.105-.419-.21-.942-.21-.942-.733-.315-7.648-3.143-20.324-6.077-3.143-.733-6.496-1.467-10.163-2.095-4.609-.838-9.638-1.572-14.981-2.096l-10.791-.838c-8.172-.419-16.448-.419-24.306-.104-.314.523-.105.942 0 .942zm50.393-82.555c1.781.209 5.133.628 9.219 1.362l1.572.314c2.409.524 4.924 1.048 7.438 1.781.838.21 1.781.524 2.619.733 1.781.524 3.562 1.153 5.239 1.781.104 0 .209.105.314.105 1.99.734 3.876 1.572 5.657 2.41a4.5 4.5 0 0 0 0-1.676c-.209-.105-.419-.315-.628-.42-3.143-1.257-6.496-2.304-9.848-3.247-.105 0-.21 0-.315-.105-3.562-.943-7.019-1.572-10.057-2.095-6.181-1.048-10.896-1.362-11.315-1.362 0 .104-.105.104 0 .314-.105 0 0 0 .105.105zm11.629-10.058c2.933.524 6.286 1.257 9.848 2.41 1.781.524 3.562 1.152 5.343 1.886s3.667 1.466 5.448 2.409a4.5 4.5 0 0 0 0-1.676c-3.458-1.467-7.124-2.619-10.686-3.562s-7.02-1.572-9.953-1.991c-5.972-.943-10.372-1.152-10.791-1.152 0 .105-.105.105 0 .314.628.105 4.819.315 10.791 1.362zm-10.791 2.305c1.362.105 4.714.419 9.01 1.152.524.105.943.21 1.571.315 2.305.419 4.715.943 7.334 1.676.838.21 1.781.524 2.619.733 1.676.524 3.457 1.048 5.134 1.781.104 0 .209.105.314.105 1.886.734 3.771 1.572 5.448 2.41a4.5 4.5 0 0 0 0-1.676c-.21-.105-.419-.21-.734-.315-3.143-1.257-6.495-2.305-9.743-3.143-.105 0-.209 0-.209-.105-3.562-.942-7.02-1.571-10.058-2.095-6.076-.943-10.581-1.257-11-1.257 0 .105-.105.105 0 .314 0 .105.104.105.314.105zm6.6 37.297c3.248.733 6.496 1.467 9.429 2.305 3.038.838 5.867 1.676 8.381 2.514s4.61 1.676 6.286 2.514c.105-.523.105-1.362 0-1.781-.209-.209-.419-.419-.628-.523-3.038-1.258-6.496-2.305-10.163-3.248-3.562-.943-7.333-1.676-10.581-2.305-6.705-1.257-11.943-1.781-12.362-1.886-.105.21-.21.524-.105.734 3.248.419 6.495.942 9.743 1.676zm73.127-40.126c-7.648 1.153-15.401 2.829-22.525 5.553a4.5 4.5 0 0 0 0 1.676c3.562-1.571 7.229-2.828 11.001-3.876a109.55 109.55 0 0 1 11.314-2.515c7.544-1.361 14.982-1.885 21.582-2.2 13.201-.419 23.049.629 23.782.629.105-.21.105-.21 0-.314-.419.104-10.162-.943-23.467-.734-6.601.21-14.039.629-21.687 1.781zm25.458 1.677c-1.048 0-2.095 0-3.248.104-1.885 0-3.876.105-5.971.21-4.086.209-8.382.628-12.677 1.152-1.152.105-2.2.315-3.353.419-1.781.315-3.562.524-5.238.943-5.971 1.153-11.734 2.619-16.867 4.505-.21.105-.314.105-.524.21a4.5 4.5 0 0 0 0 1.676c1.886-.838 3.772-1.571 5.762-2.2l5.972-1.886c3.771-1.048 7.543-1.886 11.315-2.514.419-.105.942-.105 1.362-.21 5.028-.838 9.952-1.362 14.667-1.676l5.552-.314c.839 0 1.572-.105 2.41-.105 11.943-.314 20.534.628 21.268.628.104-.209.104-.209 0-.314-.734.105-9.01-.733-20.43-.628zm-98.271 33.525l1.677.314c2.619.524 5.238 1.152 7.752 1.886.943.209 1.886.524 2.724.838 1.991.524 3.772 1.152 5.448 1.676.105 0 .21.105.314.105 2.305.838 4.296 1.572 5.867 2.41.105-.419.105-1.362 0-1.781-.209-.21-.419-.419-.628-.524-3.038-1.257-6.496-2.305-10.058-3.248-.105 0-.209 0-.314-.105-3.457-.838-7.019-1.571-10.267-2.2-6.6-1.152-11.734-1.676-12.153-1.781-.105.105-.105.21-.105.314s0 .21.105.42c2.933.419 6.181 1.047 9.638 1.676zm.315-4.819l1.571.314c2.619.524 5.134 1.152 7.648 1.886.943.209 1.886.523 2.724.733 1.886.524 3.772 1.152 5.448 1.781.105 0 .209.105.314.105 2.2.838 4.191 1.571 5.867 2.409.105-.419.105-1.257 0-1.781-.209-.209-.419-.314-.628-.419-3.039-1.257-6.496-2.305-10.058-3.247-.105 0-.21-.105-.314-.105-3.562-.943-7.02-1.572-10.267-2.2-6.496-1.153-11.525-1.677-11.944-1.677 0 .105-.104.21-.104.315s0 .209.104.314c2.829.314 6.077.838 9.639 1.572zm.209-4.924l1.572.314c2.514.524 5.133 1.152 7.648 1.781.943.209 1.886.524 2.724.733 1.885.524 3.666 1.153 5.447 1.781.105 0 .21.105.315.105 2.2.733 4.19 1.571 5.762 2.41.105-.419.105-1.258 0-1.781-.21-.21-.419-.315-.629-.419-3.038-1.258-6.495-2.305-10.057-3.248-.105 0-.21-.105-.315-.105-3.562-.838-7.019-1.571-10.162-2.095-6.391-1.153-11.419-1.572-11.838-1.677-.105.105-.105.21-.105.315s.105.209.105.314l9.533 1.572zm-9.01-6.182c2.305.315 5.553.734 9.325 1.467l1.571.314c2.514.524 5.029 1.048 7.543 1.781.943.21 1.781.524 2.724.734 1.781.524 3.667 1.152 5.343 1.781.105 0 .21.105.315.105 2.095.733 4.085 1.571 5.762 2.409.104-.419.104-1.257 0-1.676-.21-.21-.419-.314-.629-.419-3.143-1.257-6.495-2.305-9.953-3.248-.104 0-.209-.105-.314-.105-3.562-.838-7.019-1.571-10.162-2.095-6.391-1.048-11.21-1.467-11.629-1.572-.105.105-.105.21-.105.315.105 0 .105.105.209.209zm.419-4.4c1.991.21 5.344.629 9.22 1.362l1.571.314c2.41.524 4.924 1.048 7.544 1.781.942.21 1.781.524 2.723.734 1.781.524 3.563 1.152 5.239 1.781.105 0 .209.105.314.105 1.991.733 3.981 1.571 5.657 2.409a4.5 4.5 0 0 0 0-1.676c-.209-.21-.419-.314-.628-.419-3.143-1.257-6.496-2.305-9.953-3.248-.105 0-.209 0-.314-.105-3.562-.943-7.02-1.571-10.163-2.095-6.286-1.048-11.105-1.467-11.524-1.467 0 .105-.105.105-.105.315.21 0 .315.104.419.209zm205.761 13.41l-.209-.209s-3.353 2.305-5.343 5.552c-2.515 3.981-2.724 7.124-2.724 7.124l-.105.943.314-.838c.629-1.886 1.467-3.562 2.724-5.867 1.362-2.2 3.143-4.505 5.343-6.705zm12.363 60.555c-.734 3.353-2.305 7.753-3.772 11.21-1.362 3.353-2.619 7.334-4.505 9.743-5.972 7.543-20.534 13.829-31.011 14.039l5.867 27.449c.419 1.885.21 2.2-1.152 2.305l-19.277 1.571c-.314 3.143-1.257 6.286-2.724 9.429l18.858 8.277c.314.104.419.419.419.628 0 .314-.21.524-.419.629l-5.972 1.99 4.924.838-18.229 6.286c1.676 4.924 4.714 14.668 4.714 18.963 0 .21-.104.419-.314.629-.105.104-.209.104-.419.104-.105 0-.21 0-.314-.104l-2.515-1.048.734 3.876s-11.42-8.171-20.115-10.476c-.21 0-.42-.105-.629-.105-.105 0-.943-.21-2.2-.419-.314 0-.524 0-.838-.105-6.391-.314-20.849-4.924-28.287-13.724-15.506-1.781-23.677-9.639-37.506-10.372-8.382-.524-17.182 3.143-15.82 12.048 1.362 9.115 11.315 11.42 22.106 8.8-2.201 2.62-3.877 4.715-6.706 7.544-1.047 1.047-3.771 3.771-5.028 4.085-10.582 2.934-20.115-3.457-20.639-11.629-.105-8.276 3.248-12.781 7.124-16.448-2.2 1.362-4.191 2.305-7.543 2.305-2.829 0-4.715-.524-6.391-1.257 3.352 3.457 5.972 7.857 5.972 15.296-.524 8.171-10.058 14.562-20.639 11.629-1.257-.315-3.981-3.039-5.029-4.086-2.829-2.829-4.61-4.924-6.705-7.543 10.791 2.514 20.744.209 22.106-8.906 1.257-8.8-7.439-12.571-15.82-12.048-11.524.734-19.172 6.286-30.382 9.115-1.886 2.41-4.296 4.61-7.02 6.496l-1.152.838c-.838.524-1.676 1.047-2.619 1.571-5.239 3.038-10.791 5.029-14.353 5.134h-.21l-5.867 1.362c-8.905 3.038-20.115 10.267-20.115 10.267l-.314-3.562c-1.676.628-2.724 1.152-2.829 1.152s-.209.105-.314.105-.314 0-.419-.105c-.21-.105-.314-.314-.314-.628 0-4.296 3.038-14.144 4.714-19.068l-17.915-6.181 4.61-.838-5.972-1.991c-.314-.105-.419-.314-.524-.628 0-.315.105-.524.419-.629 4.086-1.991 14.458-6.391 18.125-7.962-1.676-3.143-3.248-6.601-4.086-10.267l-21.058-1.991c-1.257-.209-1.467-.524-1.362-1.781.733-4.4 2.514-14.143 4.924-26.82-9.219-.314-21.896-4.924-28.182-11.21-5.553-5.448-9.01-14.667-11.21-23.258-2.2-8.696 2.619-18.334 11.629-20.22.419-.105.838-.105 1.257-.21l-17.391-16.134s0-.104.419-.314.629-.209.629-.209c.419 0 25.458 6.6 26.401 6.809l25.982 14.039c.209-1.362.524-2.724.733-4.086l-26.191-20.01-.315-1.257-14.667-17.182s-.314-.314-.419-.838c-.105-.314 0-.524 0-.629a11.38 11.38 0 0 1-1.467-2.409c-.314-.733 0-.734.419-.629 1.572.419 2.724.943 3.038 1.153.419 0 .838.209.838.209l19.905 9.219h1.153l20.429 14.563-14.353-15.82-12.991-26.086s-.105-.105.314-.42c.315-.314.629-.209.629-.209.419.209 21.163 14.667 22.001 15.191l8.8 10.058 8.172-42.116c.105-.315.105-.419.419-.524.629-.315 2.2-.838 4.924-1.362.105-.629.21-1.048.21-1.048.628-.419 2.095-.943 2.933-1.257.105-.419.105-.733.105-.838.628-.524 2.2-.943 2.933-1.153.21-.838.21-1.257.21-1.257s2.305-.943 8.067-1.886c-.105-2.304-.105-5.028 0-6.705.943-9.743 10.267-11.105 21.372-7.019 1.991.733 11.21 4.4 13.515 5.238 6.705 2.619 9.01 6.391 17.496 7.02 12.467.943 24.306-4.82 24.306-17.077 0-14.772-9.01-19.172-23.258-16.344-.315-.733 1.362-2.095 2.304-3.143 3.039-3.143 8.172-9.533 13.934-9.429 7.02.105 13.306 4.296 15.401 10.582.209 1.152.419 2.095.524 3.143 0-.524.105-.943.209-1.362.734-3.353 3.772-13.306 18.334-11.944 3.353.629 13.62 11.315 13.725 12.153s-13.934-5.029-20.011 4.505c-2.095 2.724-6.286 13.515 1.677 18.544 5.448 3.457 11.943.105 16.238-1.886 4.191-1.991 17.811-9.219 19.382-9.638 1.153-.315 5.553-2.096 8.067-2.305 2.41-.21 3.562-.734 6.391.838s5.448 4.086 7.438 5.133 9.325 3.877 11.106 5.239 4.4 4.924 4.924 8.067c.419 2.724-.105 4.819-.315 5.762 2.41.419 3.458.838 3.458.838l.209 1.257c.733.105 2.2.21 3.248.733 0 0 .105.315.209.839.629 0 2.096.209 3.248.733l.314 1.571c.629 0 3.248.21 4.191.42.629.104.629.209.838.733l8.591 40.335c2.829-3.248 7.648-9.324 9.324-11.734.105-.209.314-.419.419-.629.943-1.362 2.2-3.247 3.562-4.504 2.305-2.201 4.82-2.515 7.439-1.048 2.2 1.467 3.247 4.505 2.2 7.229-.419 1.257-1.257 2.305-2.096 3.352-.209.21-.314.524-.523.734l-6.81 8.695-10.267 13.201c.209.733.314 1.466.524 2.305l20.953-18.439c1.047-.943 1.676-.419 1.676-.315v.105l.105.105.105.105c.104-.105.314-.21.419-.315h.104l.105.105s.21.315.524.629c1.362.105 4.505.105 8.277-1.467 4.819-1.99 8.276-4.819 8.276-4.819l.105-.105.105.105.419.419 3.038-2.305s.419-.314.733-.314c.21 0 .315.209.419.419.105.314.419.943.734 1.781.524 1.047 1.047 2.305 1.362 3.038.209.629-.315 1.152-.315 1.152l-1.676 1.677.524.628-.105.105s-3.352 2.619-6.181 7.438c-2.2 3.667-2.829 6.601-3.038 7.858.314.314.419.524.524.629v.104.105s-.21.21-.419.524l.209.314s.419.524-.314 1.153c-.21.209-7.753 5.657-15.61 11.314l21.267-9.01h.105v.105c.838.838 10.057 16.972 10.581 19.068-.314.733-.838 1.781-.838 1.781h-.105l-2.619 1.152 1.257 1.257c3.458 3.353 6.496 8.486 4.82 15.82zm-31.744-26.296l-.524.314-.105-.105-1.781-3.457-.629.314 1.572 3.667-.524.314-1.781-3.562-.629.315 1.572 3.666-.629.315-1.781-3.562-.628.314 1.99 4.505-.628.314v-.105l-2.201-4.295-.628.314 1.571 3.667-.523.21-.105-.105-1.781-3.457-.629.314 1.572 3.667-.524.314-1.781-3.562-.629.314 1.467 3.667-.524.314-.105-.104-1.676-3.458-.629.315 1.467 3.667-.524.314-1.781-3.562-.628.314 2.305 5.238-.524.21-.105-.105-2.514-5.029-.629.315 1.467 3.666-.524.315-1.781-3.562-.629.314 1.467 3.667-.524.314-1.676-3.562c-.21.105-.419.21-.629.21l1.467 3.666-.838-.628-1.676-3.562-.629.314 1.467 3.667-.524.209-1.257-2.619c.419 2.2.943 4.4 1.362 6.496l11.524-4.296-11.315 5.448.315 1.467 17.181-6.705-16.867 7.962c.105.314.209.734.209 1.048l24.306-9.639-24.096 10.791.314 1.467 29.754-12.048-29.439 13.305c.104.419.209.734.209 1.153l33.944-13.83-33.734 15.087.314 1.466 43.059-18.857c-.315-1.048-1.572-3.667-4.4-8.801-2.515-4.609-4.715-8.381-5.134-8.905-.209.105-1.048.419-2.305.943l2.515 5.238-.524.315-.105-.105-2.724-5.029-.629.314 1.677 3.562-.524.315-.105-.105-1.886-3.457-.628.314 1.676 3.562-.524.314-1.99-3.562-.629.315 1.676 3.666-.524.315-1.99-3.562-.629.314 1.677 3.667-.629.314v-.105l-1.886-3.457-.628.314 2.095 4.505-.524.315-.105-.105-2.305-4.296-.628.315 1.676 3.666-.524.315-.104-.105-1.886-3.457-.629.314 1.676 3.667-.523.314-1.886-3.562-.629.314 1.572 3.667-.524.314-1.886-3.562-.629.315 1.572 3.562-.524.314-1.886-3.562c-.209.105-.419.21-.628.21l2.409 5.238-.628.314v-.105l-2.619-5.028-.629.314 1.571 3.667-.523.314v-.105l-1.781-3.457-.629.314 1.572 2.934zm-25.249-21.896c1.257-1.677 3.457-4.505 5.552-7.02l3.982-4.924.209-.209c.419-.629 1.048-1.362 1.257-1.991.315-.838.629-2.305-.733-3.248-1.257-.838-2.619-.628-3.772.524-.733.734-1.571 1.991-2.2 2.724l-.209.314c-.943 1.258-4.086 5.239-5.553 6.915.524 2.095.943 4.505 1.467 6.915zm43.164-16.868l3.038 3.772 1.571-1.676v-.105c-.105-.105-1.362-2.934-1.886-4.191l-2.723 2.2zm-16.973 5.972l10.687 13.096c.209-1.153.942-3.458 3.038-7.124 1.99-3.562 5.238-6.705 5.762-7.229l-3.876-4.715c-.629.524-4.61 3.248-8.486 4.61-3.667 1.362-5.867 1.467-7.125 1.362zm-24.41 18.858l1.781 8.591 9.219-6.81-9.01 7.857c.105.629.315 1.258.42 1.991l13.619-10.267-13.41 11.315.314 1.571 20.115-15.086-19.905 16.134c.105.314.105.524.209.838l25.878-18.858-25.249 19.591c.733-.314 1.991-.838 3.562-1.571l24.934-18.23-21.581 16.763c.733-.314 1.676-.733 2.514-1.048l21.268-15.505c.419-.314.209-.629.209-.629l-12.572-15.505-.105-.105s-.209-.209-.419 0c-.524.314-19.277 16.763-21.791 18.963zm-3.772-17.601c.105.419.21.838.21 1.257.209-.209.314-.314.524-.628 1.676-1.991 3.666-4.505 4.295-5.448.105-.105.21-.314.314-.419.629-.943 1.467-2.2 2.41-3.038 1.571-1.467 3.248-1.781 5.029-.734 1.467.943 1.99 2.829 1.257 4.715-.314.838-.838 1.571-1.467 2.305-.105.209-.209.314-.314.419-.943 1.257-2.724 3.457-4.505 5.762-1.991 2.409-3.981 4.924-5.448 6.81.105.419.21.838.21 1.152l10.581-13.724 6.181-7.858c.105-.209.315-.419.419-.628.629-.839 1.362-1.781 1.781-2.724.734-2.096.105-4.505-1.676-5.658-2.095-1.152-3.981-.943-5.867.838-1.152 1.048-2.2 2.62-2.933 3.667-.105.21-.315.419-.419.524-1.467 2.095-7.648 9.953-10.582 13.41zm-22.315-47.354s-22.525-4.505-51.231-1.676c-27.658 2.619-38.239 11.419-39.182 12.257l.105 113.043h3.666c6.077.105 12.363.209 18.754.629 3.247-.943 7.438-2.096 12.467-3.353 3.143-.733 6.6-1.467 10.372-2.095a177.86 177.86 0 0 1 15.191-2.096c3.457-.314 7.124-.628 11-.838 7.858-.419 16.134-.419 24.62 0 .315.419 0 .943 0 .943-.209 0-8.591-.524-20.848.21-2.41.104-5.029.314-7.753.523-4.505.42-9.324.943-14.353 1.781-4.086.629-8.172 1.467-12.362 2.41-3.981.838-7.963 1.886-11.839 3.038 4.819.419 9.743.943 14.772 1.677 5.134-.943 11.001-1.781 17.496-2.515 12.048-1.152 23.887-1.152 36.04-.838.314.524.104.943.104.943-9.533-.419-19.172 0-28.601.629-5.971.419-12.572 1.257-19.486 2.514 17.181 3.038 35.201 8.486 53.64 18.753.314.21 7.753 3.981 12.048 11.524 2.934-.209 4.61-.209 4.61-.209l-29.23-157.254zm-20.953-14.144c-8.591 2.62-15.296 7.648-21.372 9.744-1.153.419-2.515.838-4.086 1.257 19.905-1.153 32.896-.105 40.125.943.734-2.096.419-4.505.419-4.505-.105-5.762-6.391-10.163-15.086-7.439zm-56.993.839c7.438 10.057 23.153.733 25.458-.315-11 7.648-14.038 5.762-20.115 5.762 10.582 3.772 22.42-2.724 23.363-3.038-9.953 5.658-12.886 5.029-18.753 5.657 7.857 1.153 16.658-.942 19.905-2.304-8.486 4.4-12.781 3.666-15.191 4.19 13.725 1.781 26.611-5.448 29.754-7.543 8.067-5.448 16.029-7.438 18.648-7.648-13.934-.524-19.696 4.924-20.743 5.239 7.228-5.867 14.981-6.391 16.448-7.02-11.524-.943-18.229 3.877-19.487 4.505 9.325-6.914 14.668-6.81 16.553-7.124-9.848-1.362-17.286 2.933-19.696 4.4 4.82-3.667 11.315-6.076 16.658-6.6-9.429-.524-20.429 2.41-32.268 10.896-8.591 6.076-14.772 5.447-20.534.943zm-10.581-16.449s1.466-6.391 3.876-8.486c-2.933 5.762-2.41 10.686-1.991 12.886.42-2.095.734-7.543 4.505-11.21-1.885 2.201-3.562 11.001-2.514 13.62.314-3.038 3.353-10.477 4.819-11.315-1.886 3.353-4.086 11.629-2.409 15.401 2.2-18.858 12.362-19.277 22.629-19.801-8.172-2.2-14.981-.838-17.286 1.048 1.257-2.096 7.648-4.505 14.143-4.086-8.695-2.829-15.191.838-15.924 1.362 2.724-2.305 5.552-3.562 12.991-4.296-12.048-1.152-16.553 3.143-15.715 2.41 4.714-4.295 10.267-3.772 12.886-4.295-17.286-2.515-20.534 7.333-20.01 16.762zm-6.81 9.953c.419-6.81-.943-15.401-8.277-18.544 7.648 3.039 9.22 6.601 10.477 14.458.105-9.534-4.4-14.353-9.429-16.867 5.029.943 9.534 6.495 11.315 12.048-1.257-8.8-5.029-12.258-9.744-14.772 5.029 1.048 8.382 5.657 10.791 10.267-1.047-6.915-5.133-11.001-9.324-12.991-3.562-1.572-7.962-1.153-9.114-.314-1.886 1.362 1.047 1.047 2.828 1.781-2.095-.21-4.295-.943-5.657.523-1.048 1.153 1.571 1.048 2.829 1.886-1.781-.419-3.877-1.257-5.134.21-1.571 1.571 2.305 1.152 2.933 1.886-1.676-.21-4.19-1.153-5.762.314-2.305 2.2 7.334 2.41 8.801 2.933 6.39 2.305 11.105 3.981 12.467 17.182zm-18.544 19.172c-.209 0-.419.105-.628.105 13.515 2.933 20.534 7.438 22.943 9.429 1.572-1.048 11.001-7.229 28.916-10.372-2.514-.314-5.029-.943-7.334-2.095-6.39-3.143-7.752-6.077-9.219-8.067-1.572-2.2-8.591-13.725-9.115-14.458-.314-.419-.733-2.2-.943-4.191-.104 1.886-.419 3.248-.524 3.562-1.257 3.772-3.981 6.601-6.181 10.477-4.295 7.543-8.276 14.143-17.915 15.61zm-57.726-.838c6.81-.943 17.182-1.676 32.059-1.571 2.409 0 4.714.104 7.019.209a73.45 73.45 0 0 1-5.134-2.933c-3.876-2.41-34.258-17.601-34.468-1.677 0 2.829.21 4.401.524 5.972zm-46.516 165.007a334.06 334.06 0 0 1 14.458.943c0-.629 0-1.257.104-1.886-7.333-.419-11.733-.419-11.733-.419l14.248-79.203 14.458-77.527c-1.048.209-1.677.628-1.677.628l-29.858 157.464zm4.505-123.205c.524 1.886.524 4.505.524 4.505s-3.143-.315-5.658 0c-.104.524.105 1.257.105 3.038l13.201 15.086c.209-.733.314-1.466.419-2.305l-5.553-6.705 5.657 5.972.315-1.781-7.334-9.01 7.543 8.172.315-1.572-8.172-9.952 8.276 9.01.629-3.039-9.219-10.476c.104-.105-.315-.419-1.048-.943zm-16.344-7.229c.315 0 .524.105.838.105.105-.943.524-1.991.524-1.991s.315.21.629.314c.105-.314.209-.733.314-1.047l-5.657-3.981c.628 1.152 1.886 3.562 3.352 6.6zm7.439 14.143c.419.105 1.362.21 2.409.524l-5.447-9.638 6.181 8.695c0-1.676-.105-2.724-.105-2.724s3.143-.419 5.657-.104c0-1.258-.314-3.248-.838-4.401-2.828-2.095-7.962-5.657-12.153-8.59l-.628 1.676s-.419-.105-.734-.314c-.104.209-.314 1.152-.209 1.571h-1.048c2.095 4.191 4.715 9.219 6.915 13.305zm16.343 19.592c0-.21.105-.524.105-.734l-13.934-15.924 14.039 15.191c.105-.314.105-.629.209-.943l-13.619-15.401c-1.048-.419-2.2-.628-2.934-.733.524.943.943 1.886 1.362 2.619l14.772 15.925zm-44.525-21.477c.314-.21.629-.524.629-.839-.419-.209-1.048-.523-1.676-.733.21.419.629 1.152 1.048 1.572zm15.715 18.438c1.676-.942 6.286-4.19 6.181-9.219l-20.325-9.743c-.105.209-.21.419-.419.733-.314.419-.629.629-.838.733l15.401 17.496zm25.563 20.325l.314-1.676-22.734-17.601 23.048 16.344.314-1.886-19.172-15.087 19.382 13.725.314-1.886-15.924-12.572 16.134 11.42 1.047-5.448-20.639-14.772c0 5.971-5.343 9.533-7.019 10.476l24.935 18.963zm-29.125-7.753c.942 1.677 2.933 4.296 2.933 4.296s-.629.838-5.657 1.047c.104.524.419 1.781.942 3.667l27.764 14.877.314-1.886-13.305-7.543 13.514 6.6c.105-.419.105-.733.21-1.152l-20.849-11.629 21.058 10.686c0-.314.105-.733.21-1.048l-23.468-13.095 23.677 12.152c.105-.733.315-1.571.42-2.304l-26.087-13.934c0-.21-.629-.419-1.676-.734zm-.21 12.258l25.877 13.305c0-.209.105-.314.105-.524l-27.658-14.876c-1.153 0-2.305.209-3.038.314.733.733 1.571 1.362 2.2 1.991l28.182 14.457c0-.209.104-.314.104-.419l-25.772-14.248zm-17.182-12.991c.419-.105.838-.105 1.048-.105-.105-.628-.419-1.676-.419-1.676s.629-.105.838-.105c0-.524 0-1.257-.105-1.676l-7.438-1.991c.943.943 3.248 3.039 6.076 5.553zm11.629 10.477a11.91 11.91 0 0 1 2.724-.315l-11.21-8.905 11.42 7.753c-.629-1.886-.838-3.562-.838-3.562s3.771 0 5.552-.629c-.628-.733-2.2-2.933-2.828-4.295l-14.039-3.877v.524l12.781 5.658-12.781-4.61v.838h-.733c.105.629.419 1.781.419 1.781s-.629-.105-1.257 0l10.791 9.639zm-15.191 16.553c1.572-8.277 7.334-12.887 14.039-15.61-8.486.104-14.667 6.495-14.039 15.61zm1.048 3.981c1.572-8.486 6.077-14.563 15.715-17.287-12.048-.419-16.134 8.172-15.715 17.287zm1.362 5.343c1.152-10.791 7.124-18.439 17.496-20.325-12.363-1.152-18.229 6.077-17.496 20.325zm1.572 3.981c.733-11.21 6.495-18.648 18.439-22.106-13.305-1.047-19.905 8.277-18.439 22.106zm35.935 19.487c-13.724-1.782-27.449-6.915-32.477-16.449 7.229 7.543 20.324 13.201 33.315 11.21-9.324-1.152-21.477-3.562-27.553-8.276-2.514-1.886-5.762-4.924-5.972-8.486 5.343 9.324 20.849 14.353 34.887 11.419l3.877-20.325-10.896-5.552c-4.191-1.886-7.229-2.515-9.429-2.724-5.029-.419-11.734 1.676-14.877 4.505-4.191 3.771-7.648 14.877-3.457 22.106 1.467 2.514 5.238 5.552 7.858 7.019 5.867 3.248 17.601 7.124 24.725 5.553zm16.239 33.315l-.314-2.829-16.03-1.152 29.964-156.835c-.734.105-1.991.419-2.724.733-.315.105-.315.105-.419.419l-29.964 156.731c-.209.943-.209 1.152.734 1.152 2.724.21 9.848.838 18.753 1.781zm.419-9.953l-8.067-.419 12.781-74.908 14.668-80.25c-1.048.209-1.781.419-1.781.419l-14.668 79.203-13.933 77.736 10.371.315c.21-.524.419-1.362.629-2.096zm.314-1.152c1.991-5.867 6.496-10.686 13.62-14.458 9.429-5.657 26.296-11.838 49.135-15.715-7.438-1.362-14.667-2.305-21.058-2.828-9.429-.734-19.067-1.048-28.601-.629 0 0-.209-.524.105-.943 12.048-.314 23.991-.419 36.039.838 7.229.734 13.62 1.676 19.173 2.829 4.505-.629 9.219-1.257 14.038-1.676-4.19-1.258-8.486-2.305-12.781-3.248-4.191-.943-8.381-1.676-12.363-2.41-5.028-.733-9.848-1.362-14.353-1.781l-7.752-.524c-12.153-.733-20.639-.209-20.849-.209 0 0-.314-.419 0-.943 8.486-.419 16.763-.419 24.62 0 3.772.21 7.439.524 11.001.838 5.448.524 10.581 1.257 15.191 2.095 3.771.629 7.229 1.362 10.372 2.096 5.448 1.257 9.848 2.514 13.095 3.562 5.553-.419 11.42-.629 17.496-.734-1.571-1.152-3.562-2.2-6.181-2.933 2.724 0 5.448 1.362 7.439 1.991.733.209 1.257.419 1.781.419-1.572-1.886-4.401-4.296-9.115-5.763 2.724 0 5.448 1.362 7.438 1.991.734.21 1.258.419 1.781.419-1.571-1.886-4.4-4.295-9.114-5.762 2.724.105 5.448 1.362 7.333 1.99.734.21 1.258.42 1.781.42-1.571-1.886-4.4-4.296-9.114-5.763 2.619 0 5.448 1.362 7.333 1.991.734.21 1.258.419 1.677.419-1.572-1.886-4.401-4.295-9.01-5.657 2.619.104 5.343 1.362 7.333 1.99.734.21 1.258.419 1.677.419-1.572-1.885-4.296-4.295-9.01-5.657 2.619.105 5.343 1.362 7.229 1.99.733.21 1.257.42 1.676.42-1.572-1.886-4.296-4.296-8.905-5.658 2.619.105 5.343 1.362 7.229 1.991.733.209 1.257.419 1.676.419-1.572-1.886-4.296-4.191-8.905-5.658 2.619.105 5.343 1.362 7.229 1.991.733.21 1.257.314 1.676.419-1.467-1.886-4.296-4.191-8.905-5.657 2.619.104 5.238 1.362 7.124 1.99.733.21 1.257.419 1.676.419-1.467-1.781-4.295-4.19-8.8-5.657 2.619.105 5.238 1.257 7.124 1.99.733.21 1.257.315 1.676.42-1.467-1.781-4.191-4.191-8.8-5.658 2.619.105 5.238 1.257 7.124 1.991.733.209 1.257.314 1.676.419-1.467-1.781-4.191-4.191-8.695-5.553 2.619.105 5.133 1.257 7.019 1.886.733.21 1.257.314 1.676.419-1.467-1.886-4.191-4.191-8.695-5.553 2.619.105 5.133 1.258 7.019 1.886.733.21 1.257.315 1.676.419-1.467-1.781-4.191-4.19-8.695-5.552 2.619.104 5.133 1.257 7.019 1.885.733.21 1.257.315 1.676.42-1.467-1.781-4.191-4.191-8.591-5.553 2.515.105 5.134 1.257 6.915 1.886.733.209 1.257.419 1.676.419-1.467-1.781-4.191-4.086-8.591-5.553 2.619.105 5.134 1.257 6.915 1.886.628.209 1.257.314 1.676.419-1.467-1.781-4.086-4.086-8.591-5.553 2.619.105 5.029 1.258 6.915 1.886.733.21 1.257.315 1.676.419-1.467-1.781-4.086-4.086-8.486-5.552 2.514.104 5.029 1.257 6.81 1.885.733.21 1.257.315 1.676.42-1.467-1.781-4.086-4.086-8.486-5.553 2.514.105 5.029 1.257 6.81 1.886.628.209 1.257.314 1.676.419-1.467-1.781-4.086-4.086-8.486-5.448 2.514.105 4.924 1.257 6.81 1.886.628.209 1.257.314 1.676.419-1.467-1.781-4.086-4.086-8.381-5.448 2.514.105 4.924 1.257 6.705 1.781.628.21 1.257.314 1.676.419-1.467-1.781-4.086-4.086-8.381-5.448 2.514.105 4.924 1.257 6.705 1.781.628.21 1.257.315 1.676.419-1.467-1.781-4.086-4.086-8.276-5.448 2.514.105 4.819 1.258 6.705 1.781.628.21 1.257.315 1.676.42-1.467-1.781-4.086-4.086-8.277-5.448 2.515.104 4.82 1.152 6.601 1.781.628.209 1.257.314 1.676.419-1.467-1.781-3.981-3.981-8.277-5.448 2.515.105 4.82 1.152 6.601 1.781.628.21 1.257.314 1.676.419-1.467-1.781-3.981-3.981-8.172-5.448 2.515.105 4.819 1.153 6.6 1.781.629.21 1.153.315 1.677.419-1.467-1.781-3.981-3.981-8.172-5.448 2.514.105 4.714 1.153 6.495 1.781.629.21 1.153.315 1.572.42-1.467-1.781-3.981-3.982-8.172-5.344 2.515.105 4.715 1.153 6.496 1.781.628.21 1.152.315 1.676.42-1.467-1.781-3.981-3.982-8.067-5.344 2.514.21 4.714 1.153 6.495 1.781.629.21 1.153.315 1.572.42-1.467-1.781-3.876-3.982-8.067-5.344 2.514.105 4.714 1.153 6.391 1.677.628.209 1.152.314 1.571.419-1.467-1.781-3.876-3.981-7.962-5.343 2.514.209 4.61 1.152 6.391 1.676.628.21 1.152.314 1.571.419-1.467-1.676-3.876-3.876-7.962-5.343 2.514.21 4.61 1.152 6.391 1.676.733.21 1.362.315 1.781.419-2.096-2.095-6.915-5.448-18.544-8.695 8.172 1.571 15.715 4.714 18.648 5.971-2.095-2.2-7.543-6.39-21.058-10.371 12.677 2.723 18.963 6.286 21.268 7.857-3.038-5.238-18.02-10.372-24.201-11.839 14.353 2.829 21.687 6.705 24.201 8.277-1.991-2.305-6.915-6.6-18.858-9.953 8.381 1.362 13.934 4.715 17.601 6.077.628.209 1.152.314 1.571.419-2.933-2.41-15.505-11.106-46.202-12.048-31.325-.943-43.373 3.457-43.373 3.457l-14.562 81.194-12.782 74.384s2.829 0 7.124.314zm56.155 34.258c-.105 0-.314.105-.419.105l.314-.628c.105-.105.315-.105.419-.105a6.79 6.79 0 0 0 .734-3.038c0-1.362-.734-2.41-2.096-3.143-4.819-2.829-9.429 1.885-14.876 7.333-1.677 1.677-3.458 3.458-5.239 5.029-5.238 4.61-8.486 6.915-11.734 6.391-.209 0-.523-.105-.733-.21-.105 0-.105 0-.209-.104-.21-.105-.42-.105-.524-.21-1.572.419-13.829 3.457-16.134 4.4 1.885-1.781 12.467-5.029 14.248-5.552 0 0-.105 0-.105-.105-.209-.105-.419-.315-.628-.524-.105-.105-.315-.21-.42-.314-.104-.21-.314-.315-.419-.419l-.209-.21c-1.362.314-10.791 2.305-11.734 3.038 1.467-1.362 9.115-3.981 10.477-4.4l-.105-.105c-.105-.209-.314-.314-.419-.524-.21-.209-.314-.419-.524-.628-.105-.105-.21-.21-.314-.419l-7.648 2.2c1.571-.943 5.448-3.353 6.391-3.981-.21-.315-.524-.734-.734-1.048l-.209-.209c-.524-.629-.943-1.362-1.467-2.2-.21-.21-.314-.42-.524-.629-.733.314-4.924 2.41-6.6 2.514 1.781-1.152 4.19-3.038 5.343-3.981-.314-.419-.734-.838-1.048-1.362-.943.419-5.133 2.41-9.429 3.458 2.096-1.258 6.81-3.877 8.382-5.029-.21-.21-.315-.419-.524-.734-1.572.629-7.858 3.248-11.525 4.401 1.991-1.677 5.763-2.934 10.268-6.182-.105-.209-.21-.314-.315-.523-2.095.942-11.419 5.133-13.619 5.657.104-.838 10.371-6.077 12.676-7.124-.104-.21-.209-.315-.314-.524l-16.658 7.229 19.068 6.495c.209 0 .314.21.419.315.104.209.104.314 0 .523-.105.105-5.029 14.144-5.553 20.325.629-.314 1.676-.628 2.829-1.152.209 0 .314-.105.524-.21s.419-.209.628-.209c.21-.105.315-.105.524-.21s.524-.209.733-.314.315-.105.629-.21.524-.209.838-.314c.21-.105.314-.105.524-.21.419-.209.943-.314 1.362-.523h.105c.419-.21.943-.315 1.466-.524.105 0 .315-.105.419-.21.315-.105.734-.209 1.048-.419.21-.105.314-.105.524-.209a13.15 13.15 0 0 1 1.048-.315c.209-.104.314-.104.523-.209a5.13 5.13 0 0 0 1.153-.419c.105 0 .209-.105.314-.105.524-.21.943-.314 1.467-.419.105 0 .209-.105.314-.105.315-.105.734-.209 1.048-.314.105 0 .314-.105.419-.105.314-.105.629-.105.838-.209.105 0 .314-.105.419-.105.314-.105.524-.105.838-.21.105 0 .21-.105.315-.105.314-.104.733-.104 1.047-.209.105 0 16.134-3.038 23.258-7.962 3.039-1.886 7.229-5.972 9.115-9.744zm16.867-9.743c-3.562-.419-9.114.943-15.715 2.41l1.886 1.781c4.924-1.572 9.534-3.457 13.829-4.191zm-13.619 5.343c-.105 1.048-.315 1.991-.629 3.038 9.115-3.247 11.839-5.552 21.687-7.228-4.715-.419-12.258 1.781-21.058 4.19zm6.81-6.81c-3.982.21-7.963.629-11.839 1.153l1.781 1.676 10.058-2.829zm1.99-1.466c-5.657-.943-12.258-1.886-19.696-2.829l4.715 4.4c2.828-.524 5.657-1.047 8.276-1.257.105.105 3.248-.419 6.705-.314zm-23.048-3.248c-1.048-.943-1.991-1.886-2.934-2.619-1.257-1.153-2.305-1.991-2.724-2.2-2.409-1.257-3.981-.315-6.914 1.047-.315.105-.629.315-1.048.419-.419.21-.943.42-1.362.629 0 0-.105 0-.105.105-.419.209-.838.419-1.257.733-5.448 3.353-9.848 9.953-12.467 12.572.733-.524 11.105-7.648 14.562-9.115.838.629-6.495 6.706-14.143 14.353 3.771-1.466 15.82-9.848 18.334-11.838.21 1.152-8.696 9.848-15.191 14.877 7.438-3.353 18.02-11.106 21.058-13.096.628-.419-18.229 16.448-17.601 17.705 4.086-.943 18.229-11 23.468-15.61 2.305-1.99 4.609-.733 4.19-1.99-.419-.734-3.143-3.353-5.866-5.972zm40.544 8.591c-8.172-.314-16.553 4.086-25.249 6.181-.628.21-1.362.419-2.095.629a17.14 17.14 0 0 1-1.99 3.562c1.676-.419 3.142-.838 4.295-1.362 6.391-2.724 17.077-7.543 25.039-9.01zm19.172 10.896c-.105-.734-.943-3.143-1.99-4.191 3.247 12.153-5.553 19.486-17.496 19.277 12.781 3.981 20.534-3.667 19.486-15.086zm6.077 7.438c-1.886 10.581-8.486 13.934-16.868 15.61 12.153 1.572 17.706-4.714 16.868-15.61zm-1.781-4.4c-.105 11-9.744 16.972-18.125 17.705 13.201 2.305 18.753-4.924 18.125-17.705zm-20.744 15.4c11.105 1.467 20.115-1.99 18.334-18.334-.524 13.201-10.686 17.391-18.334 18.334zm42.849 4.715c-8.381-1.676-14.876-5.029-16.867-15.61-.733 10.895 4.714 17.181 16.867 15.61zm3.143-2.305c-8.381-.733-18.019-6.705-18.124-17.706-.629 12.782 4.819 20.011 18.124 17.706zm2.619-2.305c-7.647-.943-17.81-5.029-18.334-18.229-1.676 16.134 7.125 19.696 18.334 18.229zm-14.562-22.525c-.943 1.048-1.886 3.458-1.991 4.191-1.047 11.42 6.705 19.067 19.382 15.086-11.734.105-20.639-7.228-17.391-19.277zm8.277-7.333c-4.086 0-12.258 4.295-18.02 4.295s-11.525-3.143-16.868-3.667c6.286 1.362 7.858 6.182 16.763 6.182 9.01.104 11.839-5.553 18.125-6.81zm39.601-8.801c5.762-.838 11.943-1.571 18.649-2.409l3.771-2.829c-53.535 5.657-71.765 11.839-74.279 12.782-.105-.105-.21-.315-.314-.419 14.876-5.972 45.468-10.582 72.498-13.725-1.677-.838-3.353-1.571-5.134-2.305-52.069 5.553-67.364 13.515-68.936 14.353-.105-.105-.314-.209-.419-.314 12.572-7.438 40.335-12.362 66.107-15.401l-5.552-1.885c-52.383 6.181-61.288 16.134-61.707 16.657-.419-.314-1.572-.628-3.039-.628v-.105c-.419 0-1.152.105-1.885.419-12.887-8.276-38.973-13.41-63.489-16.553-1.676.524-3.247 1.048-4.819 1.676 32.373 4.191 56.888 10.686 66.736 15.715-21.477-7.333-47.354-11.838-69.669-14.458-.42.105-.734.315-1.153.524l2.41 2.2c29.858 3.981 54.373 9.22 66.526 13.41-20.743-5.238-44.002-9.009-64.64-11.733l3.562 3.352 2.409.314c38.973 5.134 59.193 11.106 59.193 11.106s1.153-4.296 5.238-4.086c4.086.105 4.82 4.295 4.82 4.295s18.543-4.924 53.116-9.953zm-71.241-20.534c-2.514.105-4.924.21-7.334.419 6.286 1.677 11.21 3.877 14.563 5.029.838.314 1.676.524 2.305.838-2.724-2.724-5.972-4.714-9.534-6.286zm7.229 1.781a39.11 39.11 0 0 1 3.038 1.153c-.733-.838-1.99-1.886-3.876-3.143-1.467 0-2.934.104-4.4.104 2.095.734 3.771 1.467 5.238 1.886zm-15.61-1.257c-15.401 1.153-29.23 3.457-40.859 6.915 23.572 3.038 48.192 7.857 59.612 15.191-4.505-6.496-14.877-10.058-23.363-12.572 8.067 1.362 16.029 4.819 20.22 6.286l2.305.838c-5.867-5.762-14.667-8.486-22.42-10.686 8.8 1.571 15.924 4.819 20.115 6.286.838.314 1.571.524 2.2.838-5.867-5.658-14.667-8.486-22.315-10.686 8.8 1.676 15.82 4.819 20.115 6.286.838.314 1.571.523 2.2.838-4.61-4.819-11.315-7.543-17.81-9.534zm21.582 22.839c7.962-7.753 34.572-12.886 60.659-16.134-15.296-4.505-34.677-7.438-57.831-7.543h-2.828v23.677zm89.156 2.934c4.819 3.771 8.905 8.171 11.419 10.057-.838-4.191-11.105-15.715-15.086-16.343l-2.724-.839c-.21-.104-.419-.104-.629-.209h-.209c-.105 0-.314-.105-.419-.105s-.21 0-.21-.105h-.314-.21-.314-.209c-.105 0-.315.105-.42.105-.838.419-1.571.943-2.619 1.781l-.104.105s-.105 0-.105.105c-1.048.838-6.286 4.819-7.124 5.657-.838.733-.419 1.257.314 1.572.419.209.838.314 1.152.523.524.21.943.419 1.467.629 8.591 4.295 16.553 15.191 22.525 17.601-5.762-5.762-11.42-12.363-13.096-15.087 4.086 2.41 13.62 12.782 15.086 11.629-5.447-6.705-9.324-10.162-11.629-14.353 4.715 3.458 8.906 7.439 14.039 10.896-5.553-6.076-7.753-9.01-10.581-13.619zm-56.469 2.304c11.105 1.781 13.095 4.505 25.563 8.486 1.047.21 2.095.42 3.143.524-.524-1.047-.838-2.095-1.153-3.143-11.419-2.828-21.686-6.286-27.553-5.867zm27.448 5.134l-.314-2.514v-.315c-8.381-1.676-15.505-3.771-19.801-3.352 6.077 1.047 12.887 4.19 20.115 6.181zm2.41-4.924c.419-.314.838-.629 1.362-.943-5.553-.838-11.21-1.676-16.867-1.886 2.828.734 7.962 2.41 14.038 3.877.315-.21.838-.629 1.467-1.048zm2.305-1.676c2.2-1.572 4.924-3.667 7.753-5.867l-25.773 3.352c3.038 0 4.819.21 4.819.21 3.981.524 8.591 1.467 13.201 2.305zm-1.257 14.248c-.734-.943-1.362-1.991-1.886-3.038-3.038-.629-6.076-1.362-9.115-2.305-8.695-2.096-17.077-6.391-25.248-6.181 7.962 1.362 18.753 6.286 24.934 8.905 2.514 1.152 6.705 2.095 11.315 2.619zm50.916-13.934l-.419.629v.104c1.991.838 11.524 5.239 12.467 6.915-2.514-1.257-10.895-3.981-13.515-5.029-.209.419-.419.733-.733 1.153 1.781.733 8.591 3.876 9.219 5.028-1.257-.838-8.486-3.143-10.371-3.143-.315.419-.629.838-.943 1.362l6.181 4.086s-5.867-2.409-7.543-2.095l-3.458 5.029 6.391 3.981-7.543-2.305-1.362 1.676c1.572.629 7.543 3.143 9.743 4.4-2.095 0-9.114-2.095-11.21-2.724-.628.629-1.257 1.153-1.885 1.572 1.676.524 7.228 2.2 14.143 4.714-1.048.839-15.296-2.828-16.867-3.457-.105 0-.21 0-.315.105-3.247.419-6.495-1.781-11.734-6.391-1.885-1.571-3.562-3.352-5.238-5.029-4.295-4.295-8.172-8.171-11.943-8.171-.943 0-1.991.209-2.934.838-1.362.733-1.99 1.781-2.095 3.143-.209 4.4 5.972 10.791 10.477 13.934 7.019 5.028 23.048 7.962 23.258 7.962 5.552.838 18.02 5.867 21.686 7.438-.628-6.181-5.552-20.22-5.552-20.324-.105-.21-.105-.419 0-.524.105-.21.209-.315.419-.315l19.067-6.495c-5.343-2.933-14.981-7.124-17.391-8.067zm-3.352-19.801c2.304.943 3.771 2.41 4.505 3.562 0-.314-.105-.524-.105-.838-2.096-11.524-13.725-17.496-13.829-17.601-35.307-19.696-69.251-21.686-98.271-22.105-49.869-.629-85.699 10.057-101.204 19.381-8.172 4.296-12.677 9.953-13.515 16.973 0 .209-.105.523-.105.733.524-1.048 1.467-2.305 2.724-3.562-2.095 6.076-2.514 6.914-2.409 9.743.104.419.209.943.314 1.362.314-2.41 1.257-6.181 4.819-8.8-1.781 2.619-3.876 8.591-3.562 12.781.314.838.629 1.676 1.048 2.515-.105-2.41.314-9.534 7.857-14.144-3.038 2.619-6.495 9.115-6.286 17.287.314.523.629 1.152.943 1.676.21-2.724 1.781-12.048 10.581-16.448-3.771 2.409-9.009 11.105-8.8 19.381.21.315.314.524.524.838s.314.524.524.734c.105-.943.943-7.962 6.495-12.886-2.933 3.247-4.4 9.848-4.086 16.238.315.419.629.838.943 1.153.105-4.819 1.991-9.324 5.762-13.41 13.306-14.877 49.555-24.411 93.033-24.411h3.771c37.821.21 61.917 7.648 75.642 13.934 15.505 7.124 25.353 16.448 26.924 25.353l1.572-1.885c1.362-5.762-1.467-10.267-5.657-15.296 7.438 5.238 8.59 9.743 8.695 11.105l1.572-2.514c.523-4.82-2.515-8.905-5.553-12.363 4.505 2.2 7.019 6.6 7.753 8.172.104-.314.314-.629.419-.943.628-4.4-2.934-8.172-5.448-11 3.143 1.257 5.867 4.4 7.019 5.867 0-.21.105-.42.105-.629-.733-4.295-.943-4.61-4.714-9.953zm5.447-1.362l7.963-.419-30.697-158.825c-.733-.105-1.362-.21-1.781-.21l29.963 157.568c-2.095.105-4.086.105-6.076.21.209.629.419 1.152.628 1.676zm12.782 2.934l-32.268-160.607c-.733-.105-1.362-.105-1.781-.105l31.43 159.245-9.639.524c.21.628.315 1.257.419 1.886l11.839-.943zm5.657 2.2c-2.724-16.029-31.43-151.073-33.42-159.769-.105-.524-.21-.524-.524-.628-.524-.105-1.676-.21-2.095-.21l32.792 159.978-13.934 1.048c.104.733.104 1.467.104 2.2l16.344-1.257c1.048 0 .943-.21.733-1.362zm29.754-58.984c-1.362-5.133-5.029-8.8-10.477-10.476-1.466-.419-5.238-.943-7.648-.838l-21.686 9.429 3.981 18.962c16.239 2.934 29.858-2.828 34.677-10.476-5.028 10.267-19.277 14.772-33.525 15.4 10.477 2.305 25.249-1.885 31.011-7.438-7.753 9.115-17.705 10.791-29.754 13.62v.104c9.534.629 26.716-4.4 31.745-11.524 2.724-3.876 3.038-11.524 1.676-16.763zm-6.391-11.943c-1.571-.838-3.667-1.571-6.286-1.781l-1.047.419c2.409.314 5.447 1.781 6.809 2.724 5.658 3.876 9.953 9.115 9.115 19.591 2.305-7.543-.21-16.658-8.591-20.953zm2.829-1.676c-1.257-.838-3.248-1.572-5.029-1.886l-.733.314c1.676.629 3.247 1.467 4.505 2.41 5.552 3.981 8.276 8.486 9.219 15.505.733-4.4-1.362-12.048-7.962-16.343zm9.219 11.105c-.105-3.562-2.619-9.848-6.495-12.886-1.153-.943-2.515-1.467-4.191-1.572l-.943.419a11.67 11.67 0 0 1 3.667 1.677c4.086 3.143 6.705 7.752 7.962 12.362zm-3.771-14.562c-.734-.734-1.572-1.362-2.829-1.677l-1.257.524c3.248 1.676 6.705 5.867 8.486 11.943.314-3.562-2.095-8.486-4.4-10.79z"/></svg>