<svg xmlns="http://www.w3.org/2000/svg" xmlns:xlink="http://www.w3.org/1999/xlink" width="31" height="42" xmlns:v="https://vecta.io/nano"><g fill="#d2e4ff"><path d="M29.158 41.42H1.852c-.68 0-1.232-.552-1.232-1.232V3.542c0-.68.552-1.232 1.232-1.232h27.306a1.23 1.23 0 0 1 1.231 1.232v36.646a1.23 1.23 0 0 1-1.231 1.232z"/><path d="M29.159 2.31h-.82v35.828a1.23 1.23 0 0 1-1.231 1.23H.62v.821a1.23 1.23 0 0 0 1.23 1.23h27.31a1.23 1.23 0 0 0 1.23-1.23V3.541a1.23 1.23 0 0 0-1.23-1.231zM17.475 4.726H13.53V2.583a1.973 1.973 0 0 1 3.945 0z"/><path d="M15.495.61a1.97 1.97 0 0 0-.615.098c.788.259 1.357 1 1.357 1.875v2.143h1.231V2.583c0-1.09-.883-1.973-1.973-1.973z"/></g><g fill="#fff"><path d="M9.754 37.75h16.579c.68 0 1.23-.552 1.23-1.231V7.9c0-.68-.55-1.231-1.23-1.231H4.66c-.68 0-1.231.55-1.231 1.23v23.525a.41.41 0 0 0 .12.29l5.914 5.914a.41.41 0 0 0 .29.12z"/><path d="M26.336 6.67h-1.527v27.091c0 .68-.551 1.23-1.23 1.23H7a.41.41 0 0 1-.29-.12l2.757 2.758a.41.41 0 0 0 .29.12h16.579c.68 0 1.23-.55 1.23-1.23V7.9c0-.68-.55-1.231-1.23-1.231z"/><path d="M8.802 31.63c.416 0 .753.337.753.754v5.311a.409.409 0 0 1-.087-.064l-5.914-5.914a.406.406 0 0 1-.064-.087z"/><path d="M8.801 31.63H6.68c.416 0 .754.337.754.754v3.213l2.034 2.034a.409.409 0 0 0 .087.064v-5.311a.754.754 0 0 0-.754-.754z"/></g><g fill="#d2e4ff"><path d="M20.762 8.348l-.909.582a.46.46 0 0 1-.495 0l-.873-.56a.46.46 0 0 0-.495 0l-.873.56a.46.46 0 0 1-.495 0l-.873-.56a.46.46 0 0 0-.495 0l-.873.56a.46.46 0 0 1-.495 0l-.873-.56a.46.46 0 0 0-.495 0l-.872.56a.46.46 0 0 1-.496 0l-.909-.582a.46.46 0 0 1-.211-.387V5.24a.82.82 0 0 1 .82-.821h9.304a.82.82 0 0 1 .82.82V7.96a.46.46 0 0 1-.212.387z"/><path d="M20.155 4.42H18.28a.82.82 0 0 1 .82.82v2.721a.46.46 0 0 1-.211.387l-.22.14.69.442a.46.46 0 0 0 .496 0l.91-.582a.46.46 0 0 0 .21-.387V5.24a.82.82 0 0 0-.82-.821z"/></g><g fill="#0085ff"><path d="M18.537 40.803H1.846a.616.616 0 0 1-.615-.615V10.775a.616.616 0 1 0-1.231 0v29.413a1.85 1.85 0 0 0 1.846 1.846h16.691a.616.616 0 1 0 0-1.231zM29.154 1.697A1.85 1.85 0 0 1 31 3.542v36.649a1.848 1.848 0 0 1-1.846 1.846h-7.66a.615.615 0 0 1 0-1.23h7.66c.34 0 .615-.277.615-.616V3.542a.616.616 0 0 0-.615-.615H18.088v.881h2.063a1.44 1.44 0 0 1 1.435 1.436v.814h4.75a1.85 1.85 0 0 1 1.846 1.846v28.618a1.848 1.848 0 0 1-1.846 1.846H9.758a1.03 1.03 0 0 1-.725-.3l-5.915-5.915a1.03 1.03 0 0 1-.3-.725V7.904a1.85 1.85 0 0 1 1.846-1.846h4.748v-.814a1.44 1.44 0 0 1 1.436-1.436h2.064v-.88H1.846a.616.616 0 0 0-.615.614v4.42a.616.616 0 1 1-1.231 0v-4.42a1.85 1.85 0 0 1 1.846-1.845H13.07A2.593 2.593 0 0 1 15.5 0c1.114 0 2.066.707 2.43 1.697zM8.94 36.234v-3.849a.139.139 0 0 0-.138-.138h-3.85zM21.587 7.288v.676a1.07 1.07 0 0 1-.495.905l-.91.582a1.074 1.074 0 0 1-1.159 0l-.788-.505-.788.505a1.077 1.077 0 0 1-1.16 0l-.788-.505-.788.505a1.077 1.077 0 0 1-1.16 0l-.788-.505-.788.505a1.077 1.077 0 0 1-1.16 0l-.908-.582a1.07 1.07 0 0 1-.495-.905V7.29H4.664a.616.616 0 0 0-.615.615v23.112H8.8a1.37 1.37 0 0 1 1.37 1.369v4.752h16.165c.34 0 .615-.276.615-.615V7.904a.616.616 0 0 0-.615-.616zm-1.231-2.044a.205.205 0 0 0-.205-.205h-9.303a.205.205 0 0 0-.206.205v2.454a.33.33 0 0 0 .153.278l.6.385.788-.505a1.077 1.077 0 0 1 1.16 0l.788.505.788-.505a1.077 1.077 0 0 1 1.16 0l.788.505.788-.505a1.075 1.075 0 0 1 1.16 0l.788.505.6-.385a.33.33 0 0 0 .153-.278zm-6.213-1.436h2.714v-1.22A1.36 1.36 0 0 0 15.5 1.231a1.36 1.36 0 0 0-1.357 1.357zM7.874 14.222a.9.9 0 1 0-1.177-.488.9.9 0 0 0 1.178.488zm0 5.67a.902.902 0 0 0-.69-1.666.902.902 0 1 0 .69 1.666zm.004 5.688a.901.901 0 1 0-.69-1.665.901.901 0 0 0 .69 1.665zM10.4 13.395c0 .34.275.616.615.616h11.283a.615.615 0 1 0 0-1.231H11.015a.615.615 0 0 0-.615.615zm.615 3.445h8.999a.615.615 0 1 0 0-1.23h-8.999a.615.615 0 1 0 0 1.23z"/><use xlink:href="#B"/><use xlink:href="#B" y="5.67"/><use xlink:href="#B" y="8.5"/><path d="M20.014 29.77h-8.999a.615.615 0 1 0 0 1.23h8.999a.615.615 0 1 0 0-1.23z"/></g><defs ><path id="B" d="M22.298 18.44H11.015a.615.615 0 1 0 0 1.23h11.283a.615.615 0 1 0 0-1.23z"/></defs></svg>