<svg xmlns="http://www.w3.org/2000/svg" xmlns:xlink="http://www.w3.org/1999/xlink" width="125" height="115" fill="none" xmlns:v="https://vecta.io/nano"><circle cx="73" cy="63" r="51.5" stroke="#0085ff" stroke-opacity=".6"/><g filter="url(#A)"><circle cx="38.5" cy="23.5" r="18.5" fill="#0085ff"/></g><g fill="#d2e4ff"><path d="M84.987 44.694h-.527l-.63.092a3.08 3.08 0 0 0-2.016 2.877v5.015l.092.257h5.992c.153 0 .277-.124.277-.277v-4.777a3.19 3.19 0 0 0-3.188-3.188z"/><path d="M73.903 68.34a7.84 7.84 0 0 1 .988-11.038c2.022-1.69 4.646-2.185 7.015-1.565v-8.074a2.97 2.97 0 0 1 2.554-2.94v-.03H57.694a3.19 3.19 0 0 0-3.188 3.188v29.666h20.335c.153 0 .277.124.277.277v1.295a3.19 3.19 0 0 0 3.188 3.188h.411a3.19 3.19 0 0 0 3.188-3.188v-8.224c-2.845.745-5.992-.149-8.003-2.555z"/></g><g fill="#fff"><path d="M88.63 71.842l-2.816-3.368c-.265.302-.556.588-.874.854a7.9 7.9 0 0 1-.996.709l2.816 3.368 1.871-1.563z"/><path d="M95.353 79.826l-1.93 1.613a.58.58 0 0 1-.818-.073l-5.948-7.118a.58.58 0 0 1 .073-.818l1.93-1.613a.58.58 0 0 1 .818.073l5.949 7.118a.58.58 0 0 1-.073.818z"/></g><path d="M79.915 71.152a7.84 7.84 0 0 0 7.837-7.837 7.84 7.84 0 0 0-7.837-7.837 7.84 7.84 0 0 0-7.837 7.837 7.84 7.84 0 0 0 7.837 7.837z" fill="#d2e4ff"/><path d="M79.914 68.575a5.26 5.26 0 0 0 5.26-5.259 5.26 5.26 0 0 0-10.52 0 5.26 5.26 0 0 0 5.26 5.259z" fill="#fff"/><path d="M75.118 79.12v-1.295c0-.153-.124-.277-.277-.277H49.969c-.153 0-.277.124-.277.277v1.295a3.19 3.19 0 0 0 3.188 3.188h25.425a3.19 3.19 0 0 1-3.188-3.187z" fill="#d2e4ff"/><g fill="#0085ff"><path d="M58.806 56.051a.69.69 0 0 0 .692.692h12.114a.692.692 0 1 0 0-1.384H59.498a.69.69 0 0 0-.692.692zm10.314 2.888h-9.622a.691.691 0 1 0 0 1.382h9.622a.691.691 0 1 0 0-1.382zm0 3.58h-9.622a.692.692 0 1 0 0 1.383h9.622a.692.692 0 1 0 0-1.383zm.692 4.27a.69.69 0 0 0-.692-.691h-9.622a.691.691 0 1 0 0 1.383h9.622a.69.69 0 0 0 .692-.691zm1.8 2.889h-6.46a.691.691 0 1 0 0 1.382h6.46a.691.691 0 1 0 0-1.382zm-12.114 0a.691.691 0 1 0 0 1.382h3.346a.691.691 0 1 0 0-1.382h-3.346zm0 4.964h17.066a.691.691 0 1 0 0-1.383H59.498a.691.691 0 1 0 0 1.383zm17.066-21.488a.691.691 0 1 0 0-1.382h-9.29a.691.691 0 1 0 0 1.382h9.29zm19.394 25.409l-5.948-7.117c-.218-.261-.525-.421-.863-.451a1.28 1.28 0 0 0-.311.011l-2.122-2.539a8.47 8.47 0 0 0-.253-10.621 8.48 8.48 0 0 0-3.862-2.623v-1.595h5.3a.97.97 0 0 0 .969-.969v-4.778c0-2.139-1.741-3.88-3.88-3.88h-19.65a.692.692 0 1 0 0 1.384h16.678a3.65 3.65 0 0 0-.801 2.278v7.229a8.51 8.51 0 0 0-6.767 1.879 8.47 8.47 0 0 0 4.709 15.038l.775.035a8.56 8.56 0 0 0 1.283-.099v1.814a.692.692 0 1 0 1.384 0v-2.146a8.42 8.42 0 0 0 1.183-.494l2.122 2.539a1.27 1.27 0 0 0 .224 1.233l5.948 7.117a1.27 1.27 0 0 0 .978.456c.288 0 .577-.097.815-.296l1.93-1.613c.538-.45.61-1.254.16-1.793zm-13.361-30.9c0-1.129.842-2.098 1.958-2.255l.248-.023h.183c1.378 0 2.496 1.117 2.496 2.496v4.363h-4.885v-4.581h0zM79.279 70.43c-1.901-.17-3.621-1.07-4.845-2.534s-1.804-3.317-1.634-5.218 1.07-3.621 2.534-4.845a7.11 7.11 0 0 1 4.576-1.659 7.13 7.13 0 0 1 5.488 2.56c1.224 1.464 1.804 3.317 1.634 5.218s-1.07 3.621-2.534 4.845-3.317 1.804-5.218 1.634zm6.106-.572l.393-.352 1.878 2.247-.808.676-1.878-2.247.416-.324zm7.681 10.977l-5.805-6.946 1.759-1.47 5.805 6.946-1.759 1.47zM85.124 64.32a.69.69 0 0 0-.875.439 4.56 4.56 0 0 1-1.404 2.061 4.54 4.54 0 0 1-6.434-.575c-.783-.936-1.154-2.121-1.045-3.336a4.54 4.54 0 0 1 1.62-3.098c1.933-1.615 4.819-1.357 6.434.576a4.54 4.54 0 0 1 .856 1.567c.114.365.502.568.867.455a.69.69 0 0 0 .455-.867c-.234-.75-.609-1.437-1.115-2.043a5.96 5.96 0 0 0-8.384-.75 5.96 5.96 0 0 0-.75 8.384 5.91 5.91 0 0 0 4.037 2.111l.541.024a5.91 5.91 0 0 0 3.807-1.386 5.94 5.94 0 0 0 1.83-2.687.69.69 0 0 0-.439-.875zm-3.219 11.779a.69.69 0 0 0-.692.692v2.33a2.5 2.5 0 0 1-2.496 2.496h-.411a2.5 2.5 0 0 1-2.496-2.496v-1.295a.97.97 0 0 0-.969-.969H55.198V47.881a2.5 2.5 0 0 1 2.496-2.496h4.412a.692.692 0 1 0 0-1.384h-4.412c-2.14 0-3.88 1.741-3.88 3.88v28.975H49.97a.97.97 0 0 0-.969.969v1.295c0 2.14 1.741 3.88 3.88 3.88h25.837c2.139 0 3.88-1.741 3.88-3.88v-2.33a.69.69 0 0 0-.692-.692zM52.88 81.617a2.5 2.5 0 0 1-2.496-2.496v-.88h24.041v.88c0 .95.343 1.821.911 2.496H52.88z"/><use xlink:href="#B"/><use xlink:href="#B" x="2.493"/><use xlink:href="#B" x="4.984"/></g><path d="M44.02 28.8V31H33.7v-1.74l5.56-5.28c.627-.6 1.047-1.12 1.26-1.56.227-.453.34-.9.34-1.34 0-.653-.22-1.153-.66-1.5s-1.087-.52-1.94-.52c-1.427 0-2.52.487-3.28 1.46l-1.82-1.4c.547-.733 1.28-1.3 2.2-1.7.933-.413 1.973-.62 3.12-.62 1.52 0 2.733.36 3.64 1.08s1.36 1.7 1.36 2.94a4.88 4.88 0 0 1-.48 2.14c-.32.667-.933 1.427-1.84 2.28l-3.74 3.56h6.6z" fill="#fff"/><defs><filter id="A" x="0" y="0" width="77" height="77" filterUnits="userSpaceOnUse" color-interpolation-filters="sRGB"><feFlood flood-opacity="0" result="A"/><feColorMatrix in="SourceAlpha" values="0 0 0 0 0 0 0 0 0 0 0 0 0 0 0 0 0 0 127 0"/><feOffset dy="15"/><feGaussianBlur stdDeviation="10"/><feColorMatrix values="0 0 0 0 0.129412 0 0 0 0 0.588235 0 0 0 0 0.952941 0 0 0 0.2 0"/><feBlend in2="A"/><feBlend in="SourceGraphic"/></filter><path id="B" d="M59.475 53.163a.69.69 0 1 0 0-1.383.69.69 0 1 0 0 1.383z"/></defs></svg>