<svg xmlns="http://www.w3.org/2000/svg" width="42" height="42" xmlns:v="https://vecta.io/nano"><path fill="#d2e4ff" d="M41.18 21c0 11.145-9.035 20.18-20.18 20.18S.82 32.145.82 21 9.855.82 21 .82 41.18 9.855 41.18 21z"/><path fill="#fff" d="M28.025 11.47l-9.775 9.775-4.28-4.279-4.64 4.64 4.28 4.28 4.64 4.64 14.415-14.415z"/><path d="M18.25 31.347a.82.82 0 0 1-.58-.24l-8.92-8.92a.82.82 0 0 1 0-1.16l4.64-4.64a.82.82 0 0 1 1.16 0l3.7 3.699 9.195-9.196a.821.821 0 0 1 1.16 0l4.64 4.64a.82.82 0 0 1 0 1.16L18.83 31.108a.82.82 0 0 1-.58.24zm-7.76-9.74l7.76 7.76L31.506 16.11l-3.48-3.48-9.196 9.195a.82.82 0 0 1-1.16 0l-3.7-3.7zM20.995 42A21.002 21.002 0 0 1 6.15 35.85 20.864 20.864 0 0 1 0 21c0-5.61 2.184-10.883 6.15-14.85A20.863 20.863 0 0 1 21 0c5.61 0 10.883 2.184 14.85 6.15a21.002 21.002 0 0 1 6.089 13.235 21.012 21.012 0 0 1-3.871 13.855.82.82 0 0 1-1.332-.958c5.556-7.727 4.695-18.23-2.047-24.971-7.548-7.548-19.83-7.548-27.378 0s-7.548 19.83 0 27.378c6.742 6.742 17.244 7.603 24.972 2.047a.82.82 0 0 1 .957 1.332A20.997 20.997 0 0 1 20.995 42zm14.275-5.91a.826.826 0 0 1-.58-.24.827.827 0 0 1-.24-.58.83.83 0 0 1 .24-.58.826.826 0 0 1 .58-.24.83.83 0 0 1 .58.24c.153.153.24.364.24.58a.827.827 0 0 1-.82.82z" fill="#0085ff"/></svg>