<svg xmlns="http://www.w3.org/2000/svg" width="125" height="115" fill="none" xmlns:v="https://vecta.io/nano"><circle cx="73" cy="63" r="51.5" stroke="#0085ff" stroke-opacity=".6"/><g filter="url(#A)"><circle cx="38.5" cy="23.5" r="18.5" fill="#0085ff"/></g><g fill="#fff"><path d="M39.72 17v14h-2.6V19.18h-2.96V17h5.56zm59.143 55.743a.31.31 0 0 1-.082-.359 4.17 4.17 0 0 0 .337-1.91 4.2 4.2 0 0 0-3.819-3.916c-.384-.032-.758-.011-1.116.056-.199.037-.381-.121-.369-.323l.009-.3a5.35 5.35 0 0 0-5.562-5.346c-.879.034-1.707.285-2.43.699-1.434.822-3.055 1.262-4.707 1.262h-5.948a9.42 9.42 0 0 1-9.416-9.343 5.35 5.35 0 0 0-5.675-5.614c-2.667.161-4.829 2.31-5.006 4.976a5.36 5.36 0 0 0 .18 1.786c.057.207-.106.404-.32.393l-.208-.005a4.18 4.18 0 0 0-1.743 7.976c.168.077.227.282.135.442a5.32 5.32 0 0 0-.694 2.21l-.002.027a.62.62 0 0 1-.462.553l-.004.001c-2.356.615-4.094 2.756-4.094 5.305v3.274a5.53 5.53 0 0 0 5.528 5.528h1.903 39.867s.709.014 1.329-.075c1.873-.269 3.808-1.845 3.808-4.144a4.17 4.17 0 0 0-1.439-3.154z"/><path d="M98.863 72.742a.31.31 0 0 1-.082-.359c.252-.58.377-1.228.337-1.91a4.2 4.2 0 0 0-3.819-3.916 4.18 4.18 0 0 0-1.116.055.31.31 0 0 1-.369-.323l.009-.3a5.35 5.35 0 0 0-5.562-5.346c-.879.034-1.707.285-2.43.699l-.358.194a5.35 5.35 0 0 1 4.83 5.323l-.009.3a.31.31 0 0 0 .369.323c.358-.067.732-.088 1.116-.056a4.2 4.2 0 0 1 3.819 3.916c.04.682-.085 1.33-.337 1.91a.31.31 0 0 0 .082.359c.881.766 1.439 1.894 1.439 3.154 0 1.455-.775 2.62-1.819 3.348h.203s.709.014 1.329-.075c1.873-.269 3.808-1.845 3.808-4.144 0-1.259-.558-2.388-1.439-3.154z"/></g><g fill="#d2e4ff"><path d="M86.559 54.096h-1.197c-.615 0-1.115-.499-1.115-1.114A10.2 10.2 0 0 0 74.05 42.784a10.2 10.2 0 0 0-10.198 10.198c0 .616-.499 1.114-1.114 1.114H61.54c-1.153 0-2.087.934-2.087 2.087v19.951h29.193V56.183c0-1.153-.934-2.087-2.087-2.087z"/><path d="M86.559 54.096h-1.197c-.616 0-1.115-.499-1.115-1.114A10.2 10.2 0 0 0 74.05 42.784a10.15 10.15 0 0 0-4.779 1.187l.299-.005a10.2 10.2 0 0 1 10.198 10.198c0 .616.499 1.114 1.114 1.114h1.197c1.152 0 2.087.934 2.087 2.087v18.768h4.48V56.183c0-1.153-.934-2.087-2.087-2.087z"/></g><path d="M79.8 57.215h-3.677c-.173 0-.313-.14-.313-.313V52.03c0-.173-.14-.313-.313-.313h-2.895c-.173 0-.313.14-.313.313v4.872c0 .173-.14.313-.313.313h-3.677c-.173 0-.313.14-.313.313v2.896c0 .173.14.313.313.313h3.677c.173 0 .313.14.313.313v6.506c0 .173.14.313.313.313h2.895c.173 0 .313-.14.313-.313V61.05c0-.173.14-.313.313-.313H79.8c.173 0 .313-.14.313-.313v-2.896c0-.173-.14-.313-.313-.313z" fill="#fff"/><g fill="#d2e4ff"><path d="M92.274 80.115H55.825c-.291 0-.527-.236-.527-.527v-4.665a.53.53 0 0 1 .527-.528h36.449a.53.53 0 0 1 .527.528v4.665a.53.53 0 0 1-.527.527z"/><path d="M92.279 74.395h-1.742v2.935a.52.52 0 0 1-.522.522H55.298v1.742a.52.52 0 0 0 .522.522h36.46a.52.52 0 0 0 .522-.522v-4.677a.52.52 0 0 0-.522-.522z"/></g><g fill="#fff"><path d="M74.831 75.465a4.2 4.2 0 0 0-1.341.059.41.41 0 0 1-.49-.339 4.18 4.18 0 0 0-8.303.675v1.078c0 .198-.143.364-.337.403a4.18 4.18 0 0 0-3.317 3.537c-.033.249.164.469.415.469h16.404c.172 0 .329-.105.389-.266.212-.563.306-1.184.25-1.832a4.19 4.19 0 0 0-3.672-3.784z"/><path d="M78.502 79.249a4.19 4.19 0 0 0-3.672-3.784c-.464-.054-.914-.03-1.341.059a.41.41 0 0 1-.49-.338 4.18 4.18 0 0 0-4.124-3.503c-1.254 0-2.378.553-3.144 1.428l.092-.002a4.18 4.18 0 0 1 4.124 3.503.41.41 0 0 0 .49.338c.427-.088.877-.112 1.341-.059a4.19 4.19 0 0 1 3.672 3.784c.02.228.02.453.003.673h2.409c.172 0 .329-.105.389-.266.212-.563.306-1.183.25-1.832z"/></g><path d="M99.538 72.382a4.92 4.92 0 0 0 .277-1.953 4.98 4.98 0 0 0-4.534-4.65 4.99 4.99 0 0 0-.763-.005 6.16 6.16 0 0 0-5.174-5.839v-3.752c0-1.582-1.287-2.869-2.869-2.869h-1.197c-.183 0-.332-.149-.332-.332 0-6.055-4.926-10.98-10.98-10.98-4.323 0-8.07 2.512-9.86 6.152a6.11 6.11 0 0 0-4.15-1.285c-.252.015-.505.046-.753.093a.78.78 0 0 0-.625.913c.08.425.489.705.913.625.184-.035.372-.058.559-.069 1.286-.077 2.522.379 3.44 1.259a10.94 10.94 0 0 0-.504 3.292c0 .183-.149.332-.332.332h-1.197c-1.582 0-2.869 1.287-2.869 2.869v10.176c0 .432.35.783.782.783s.783-.35.783-.783V56.182c0-.719.585-1.304 1.304-1.304h1.197a1.9 1.9 0 0 0 1.897-1.897 9.43 9.43 0 0 1 9.415-9.415 9.43 9.43 0 0 1 9.415 9.415 1.9 1.9 0 0 0 1.897 1.897h1.197c.719 0 1.304.585 1.304 1.304v17.432h-7.91c-.432 0-.783.35-.783.782s.35.783.783.783h12.066v4.154H79.206l-.009-.15a4.97 4.97 0 0 0-4.362-4.495c-.409-.047-.818-.045-1.221.008-.53-2.22-2.503-3.796-4.823-3.796-1.927 0-3.599 1.105-4.42 2.713h-4.22v-3.372a.78.78 0 0 0-1.565 0v3.372h-2.851c-.719 0-1.304.585-1.304 1.304v4.415H53.31a4.75 4.75 0 0 1-4.745-4.745v-3.274a4.7 4.7 0 0 1 3.502-4.546c.593-.154 1.013-.658 1.057-1.258l.001-.016a4.51 4.51 0 0 1 .591-1.885c.155-.269.19-.591.096-.886a1.09 1.09 0 0 0-.582-.659c-1.203-.553-1.979-1.764-1.979-3.087a3.4 3.4 0 0 1 3.396-3.396c.779.133 1.515-.599 1.282-1.378a4.59 4.59 0 0 1-.153-1.526 4.52 4.52 0 0 1 .944-2.476c.265-.342.202-.833-.139-1.098s-.833-.202-1.098.139a6.08 6.08 0 0 0-1.269 3.331c-.033.49-.008.978.075 1.456a4.97 4.97 0 0 0-4.603 4.948 4.98 4.98 0 0 0 2.449 4.278 6.04 6.04 0 0 0-.562 2.025A6.27 6.27 0 0 0 47 71.312v3.274a6.32 6.32 0 0 0 6.31 6.31h6.863a1.2 1.2 0 0 0 1.2 1.233h16.404c.498 0 .948-.311 1.122-.773a4.79 4.79 0 0 0 .146-.459h16.207c.346-.003.741-.015 1.086-.05 2.586-.258 4.66-2.323 4.66-4.951a4.96 4.96 0 0 0-1.462-3.515zm-43.542 2.797h7.882a4.96 4.96 0 0 0-.048.683v.781c-1.438.379-2.609 1.379-3.223 2.69h-4.611v-4.154zm21.52 5.387H61.818a3.39 3.39 0 0 1 2.612-2.456 1.2 1.2 0 0 0 .966-1.17v-1.078a3.4 3.4 0 0 1 3.396-3.396 3.38 3.38 0 0 1 3.352 2.846 1.2 1.2 0 0 0 1.421.979 3.43 3.43 0 0 1 1.092-.047h0c1.591.184 2.845 1.477 2.982 3.073a3.39 3.39 0 0 1-.123 1.249zm18.534-1.238l-.4.006H93.5v-4.415c0-.719-.585-1.304-1.304-1.304h-2.851v-12.09c2.069.442 3.613 2.296 3.613 4.467-.15.767.474 1.561 1.286 1.393a3.41 3.41 0 0 1 4.01 3.136 3.37 3.37 0 0 1-.274 1.552 1.09 1.09 0 0 0 .286 1.262c.743.646 1.17 1.58 1.17 2.563 0 1.861-1.524 3.419-3.385 3.431zM75.497 50.936h-2.895a1.1 1.1 0 0 0-1.096 1.096v4.402h-3.207c-.604 0-1.096.491-1.096 1.096v2.896c0 .604.491 1.096 1.096 1.096h3.207v6.037a1.1 1.1 0 0 0 1.096 1.096h2.895a1.1 1.1 0 0 0 1.096-1.096v-6.037H79.8a1.1 1.1 0 0 0 1.096-1.096V57.53c0-.604-.491-1.096-1.096-1.096h-3.208v-4.402c0-.604-.491-1.096-1.096-1.096zm3.834 7.063v1.957h-3.208a1.1 1.1 0 0 0-1.096 1.096v6.036H73.07v-6.036c0-.604-.491-1.096-1.096-1.096h-3.208v-1.957h3.208a1.1 1.1 0 0 0 1.096-1.096v-4.402h1.957v4.402a1.1 1.1 0 0 0 1.096 1.096h3.208z" fill="#0085ff"/><defs><filter id="A" x="0" y="0" width="77" height="77" filterUnits="userSpaceOnUse" color-interpolation-filters="sRGB"><feFlood flood-opacity="0" result="A"/><feColorMatrix in="SourceAlpha" values="0 0 0 0 0 0 0 0 0 0 0 0 0 0 0 0 0 0 127 0"/><feOffset dy="15"/><feGaussianBlur stdDeviation="10"/><feColorMatrix values="0 0 0 0 0.129412 0 0 0 0 0.588235 0 0 0 0 0.952941 0 0 0 0.2 0"/><feBlend in2="A"/><feBlend in="SourceGraphic"/></filter></defs></svg>