<svg xmlns="http://www.w3.org/2000/svg" xmlns:xlink="http://www.w3.org/1999/xlink" width="41" height="41" xmlns:v="https://vecta.io/nano"><g fill="#d2e4ff"><path d="M40.396 2.917V12.4a2.317 2.317 0 0 1-2.317 2.317h-7.663l-2.428 2.142v-2.142h-1.991A2.317 2.317 0 0 1 23.68 12.4V2.917A2.317 2.317 0 0 1 25.997.6h12.082a2.317 2.317 0 0 1 2.317 2.317z"/><path d="M38.083.6H34.88a2.317 2.317 0 0 1 2.317 2.317V12.4a2.317 2.317 0 0 1-2.317 2.317h3.203A2.317 2.317 0 0 0 40.4 12.4V2.917A2.317 2.317 0 0 0 38.083.6zM6.69 5.85l6.16 3.042 3.027 6.112-1.22 1.216a3.19 3.19 0 0 0 0 4.523l5.604 5.585a3.218 3.218 0 0 0 4.54 0l1.22-1.217 6.026 3.098 3.16 6.056c-3.813 3.8-9.997 3.8-13.81 0L6.69 19.612a9.707 9.707 0 0 1 0-13.762z"/><path d="M15.877 15L6.69 5.848l1.166-1.161a2.767 2.767 0 0 1 3.903 0l5.28 5.26a2.748 2.748 0 0 1 0 3.896z"/><use xlink:href="#B"/><use xlink:href="#B"/><path d="M.6 38.083v-9.484a2.317 2.317 0 0 1 2.317-2.316h7.662l2.429-2.143v2.143h1.991a2.317 2.317 0 0 1 2.317 2.316v9.484a2.317 2.317 0 0 1-2.317 2.316H2.917A2.317 2.317 0 0 1 .6 38.083z"/><path d="M15 26.283h-1.992V24.14l-2.428 2.143h1.216a2.317 2.317 0 0 1 2.317 2.316v9.484a2.317 2.317 0 0 1-2.317 2.316H15a2.317 2.317 0 0 0 2.316-2.316v-9.484A2.317 2.317 0 0 0 15 26.283z"/></g><path d="M38.08 0a2.92 2.92 0 0 1 2.917 2.917v9.484a2.92 2.92 0 0 1-2.917 2.917h-7.436l-2.258 1.992c-.388.342-.998.053-.998-.45v-1.542h-1.39A2.92 2.92 0 0 1 23.08 12.4V2.917A2.92 2.92 0 0 1 25.997 0zm1.716 2.917a1.72 1.72 0 0 0-1.716-1.716H25.997a1.72 1.72 0 0 0-1.716 1.716V12.4a1.72 1.72 0 0 0 1.716 1.717h1.992a.6.6 0 0 1 .6.6v.812l1.43-1.262a.6.6 0 0 1 .398-.15h7.663a1.72 1.72 0 0 0 1.716-1.717zM16.626 5.51a.599.599 0 0 0 .424-.174l1.713-1.708c.55-.549-.298-1.4-.848-.851l-1.713 1.708a.62.62 0 0 0 .424 1.026zm-1.979-.82a.65.65 0 0 0 .652-.544l.214-2.41c.07-.773-1.127-.88-1.196-.106l-.215 2.41a.6.6 0 0 0 .545.65zm2.315 2.14a.65.65 0 0 0 .65.546l2.41-.207c.774-.066.67-1.26-.103-1.197l-2.41.208a.6.6 0 0 0-.547.65zm19.224 17.656l1.714-1.708c.55-.549-.298-1.4-.848-.851l-1.714 1.708c-.55.548.298 1.399.848.85zm-2.336-.653a.6.6 0 0 0 .598-.547l.215-2.41c.069-.774-1.128-.88-1.197-.106l-.214 2.41a.65.65 0 0 0 .599.653zm5.214 1.28l-2.41.207c-.76.065-.637 1.26.102 1.196l2.41-.207c.774-.066.67-1.262-.102-1.196zm-2.274 3.678c1.293 1.29 1.293 3.458 0 4.747l-1.163 1.158a10.346 10.346 0 0 1-5.056 2.775c-.724.16-1.01-1.005-.262-1.172a9.138 9.138 0 0 0 4.029-2.042l-8.322-8.292-.797.794a3.823 3.823 0 0 1-5.387 0l-5.605-5.585c-1.465-1.46-1.464-3.914 0-5.373l.794-.791-4.379-4.364c-.55-.548.298-1.399.848-.85l4.382 4.366.739-.736c.827-.825.826-2.223 0-3.045L11.33 5.12a2.169 2.169 0 0 0-3.056 0l-.739.736 1.506 1.5c.55.548-.298 1.4-.848.851L6.7 6.717a9.043 9.043 0 0 0-2.273 6.02c0 2.438.953 4.73 2.683 6.455l4.98 4.963.522-.46a.61.61 0 0 1 .998.45v1.542H15a2.92 2.92 0 0 1 2.918 2.917v1.357l3.898 3.884a9.109 9.109 0 0 0 5.03 2.56c.752.12.556 1.306-.188 1.187a10.304 10.304 0 0 1-5.69-2.896l-3.05-3.04v6.432A2.92 2.92 0 0 1 15 41.005H2.917A2.92 2.92 0 0 1 0 38.088v-9.484a2.92 2.92 0 0 1 2.917-2.917h7.436l.834-.736-4.926-4.908a10.247 10.247 0 0 1-3.037-7.306c0-2.76 1.079-5.355 3.037-7.306l1.166-1.162a3.372 3.372 0 0 1 4.752 0l5.28 5.261a3.39 3.39 0 0 1 0 4.746l-2.384 2.375a2.614 2.614 0 0 0 0 3.672l5.605 5.585a2.62 2.62 0 0 0 3.691 0l2.387-2.378a3.372 3.372 0 0 1 4.751 0zm-23.782-1.903a.6.6 0 0 1-.6-.6v-.812l-1.43 1.262a.6.6 0 0 1-.398.15H2.917a1.72 1.72 0 0 0-1.716 1.716v9.484a1.72 1.72 0 0 0 1.716 1.716H15a1.72 1.72 0 0 0 1.716-1.716v-9.484A1.72 1.72 0 0 0 15 26.888zm22.933 5.799a2.18 2.18 0 0 0 0-3.045l-5.28-5.26a2.169 2.169 0 0 0-3.055 0l-.739.735 8.336 8.306zM36.49 5.22h-8.898c-.776 0-.776 1.201 0 1.201h8.898c.777 0 .777-1.201 0-1.201zm-3.203 3.69h-5.695c-.776 0-.776 1.201 0 1.201h5.695c.777 0 .777-1.201 0-1.201zM3.91 31.66a.6.6 0 0 0 .6.601h8.899c.776 0 .776-1.201 0-1.201H4.51a.6.6 0 0 0-.601.6zm6.297 3.08H4.512c-.776 0-.776 1.201 0 1.201h5.695c.777 0 .777-1.201 0-1.201z" fill="#0085ff"/><defs ><path id="B" d="M35.207 34.27l-9.187-9.153 1.166-1.161a2.767 2.767 0 0 1 3.903 0l5.28 5.26a2.748 2.748 0 0 1 0 3.896z"/></defs></svg>