<svg xmlns="http://www.w3.org/2000/svg" width="125" height="115" fill="none" xmlns:v="https://vecta.io/nano"><circle cx="73" cy="63" r="51.5" stroke="#0085ff" stroke-opacity=".6"/><g filter="url(#A)"><circle cx="38.5" cy="23.5" r="18.5" fill="#0085ff"/></g><path d="M38.84 22.78c1.293.16 2.28.6 2.96 1.32s1.02 1.62 1.02 2.7a4.13 4.13 0 0 1-.62 2.22c-.413.667-1.04 1.2-1.88 1.6-.827.387-1.84.58-3.04.58-1 0-1.967-.14-2.9-.42-.92-.293-1.707-.693-2.36-1.2l1.12-2.02c.507.427 1.12.767 1.84 1.02a7.22 7.22 0 0 0 2.26.36c.92 0 1.64-.187 2.16-.56.533-.387.8-.907.8-1.56s-.253-1.16-.76-1.52c-.493-.373-1.253-.56-2.28-.56h-1.28v-1.78l3.18-3.78H32.7V17h9.54v1.74l-3.4 4.04z" fill="#fff"/><g fill="#d2e4ff"><path d="M62.694 76.441h26.931v6.551H62.694v-6.551z"/><path d="M79.326 43.244a12.82 12.82 0 0 0-2.41-.228A12.77 12.77 0 0 0 64.15 55.781v20.66h22.116V54.606c0-4.951-2.819-9.245-6.94-11.361z"/></g><path d="M89.625 75.602h-2.519V54.606C87.106 47.103 81.002 41 73.5 41s-13.605 6.103-13.605 13.606v11.317a.84.84 0 0 0 1.68 0V54.606c0-6.576 5.35-11.926 11.926-11.926s11.926 5.35 11.926 11.926v20.996H61.574v-2.619a.84.84 0 0 0-1.68 0v2.619h-2.52a.84.84 0 0 0-.84.84v6.719a.84.84 0 0 0 .84.84h32.25a.84.84 0 0 0 .84-.84v-6.719a.84.84 0 0 0-.84-.84zm-.84 6.719h-30.57v-5.039h30.57v5.039zm-28.051-12.01c.221 0 .438-.09.594-.246s.246-.373.246-.594-.09-.438-.246-.594-.373-.246-.594-.246-.438.09-.594.246-.246.373-.246.594.09.438.246.594.373.246.594.246zM73.5 45.535a.84.84 0 0 0-.84.84v1.848h-1.932a.84.84 0 0 0 0 1.68h1.932v5.291a.84.84 0 1 0 1.68 0v-5.291h1.932a.84.84 0 1 0 0-1.68H74.34v-1.848a.84.84 0 0 0-.84-.84zm-7.894 14.53a.84.84 0 0 0 .84.84h14.109a.84.84 0 0 0 0-1.68h-14.11a.84.84 0 0 0-.84.84zm.839 5.542H77a.84.84 0 1 0 0-1.68H66.445a.84.84 0 0 0 0 1.68zm14.11-1.679c-.221 0-.438.09-.594.246s-.246.373-.246.594.09.438.246.594.373.246.594.246.438-.09.594-.246.246-.373.246-.594-.09-.438-.246-.594-.373-.246-.594-.246zm-4.283 4.703h-5.543a.84.84 0 0 0 0 1.68h5.543a.84.84 0 1 0 0-1.68z" fill="#0085ff"/><defs><filter id="A" x="0" y="0" width="77" height="77" filterUnits="userSpaceOnUse" color-interpolation-filters="sRGB"><feFlood flood-opacity="0" result="A"/><feColorMatrix in="SourceAlpha" values="0 0 0 0 0 0 0 0 0 0 0 0 0 0 0 0 0 0 127 0"/><feOffset dy="15"/><feGaussianBlur stdDeviation="10"/><feColorMatrix values="0 0 0 0 0.129412 0 0 0 0 0.588235 0 0 0 0 0.952941 0 0 0 0.2 0"/><feBlend in2="A"/><feBlend in="SourceGraphic"/></filter></defs></svg>