<svg xmlns="http://www.w3.org/2000/svg" width="49" height="45" xmlns:v="https://vecta.io/nano"><path fill="#d2e4ff" d="M41.982 20.12H6.649L.95 28.668h5.699v14.817h35.333V28.668h5.699z"/><path d="M.16 28.141l5.698-8.548a.95.95 0 0 1 .79-.423h23.176a.95.95 0 1 1 0 1.9H26.09l4.432 6.648h15.384l-4.433-6.648h-3.1a.95.95 0 1 1 0-1.9h3.609a.95.95 0 0 1 .79.423l5.699 8.548a.95.95 0 0 1-.79 1.477h-4.75v13.867a.95.95 0 0 1-.95.95H6.65a.95.95 0 0 1-.95-.95V29.618H.949a.95.95 0 0 1-.79-1.477zm7.438 14.394h15.767V23.257l-3.958 5.938a.95.95 0 0 1-.79.423H7.597zm17.667-19.278v19.278h15.767V29.618H30.014a.95.95 0 0 1-.79-.423zm-22.54 4.461h15.383l4.432-6.648H7.157zM34.1 21.07a.95.95 0 1 0 0-1.9.95.95 0 0 0 0 1.9zM14.49 7.608l4.118 1.421-1.421 4.118-4.118-1.421zm8.743 5.877l3.434-2.681 2.681 3.434-3.434 2.681zM23.735.7l7.035-.705.705 7.035-7.035.705z" fill="#0085ff"/></svg>