<svg xmlns="http://www.w3.org/2000/svg" width="123" height="114" xmlns:v="https://vecta.io/nano"><style><![CDATA[.B{fill:#d2e4ff}.C{fill:#0085ff}.D{fill-opacity:.4}]]></style><path d="M2.92 103.192v-22.13L22.65 69.91l18.442 10.036v22.732l-20.159 9.95z" class="B"/><path d="M41.86 78.92v23.332l-20.93 11.752L0 102.424V78.92l20.93-11.58zM20.93 68.884L2.059 79.349 20.93 89.814l18.7-10.465zM1.458 101.566l18.786 10.293V91.015L1.458 80.635zm38.944-.172V80.55L21.616 91.1v20.845z" class="C D"/><path d="M41 101.987l.086-22.646L61.158 68.19l20.33 11.752v22.731l-20.158 9.95z" class="B"/><path d="M82.26 78.92v23.332l-20.93 11.752-20.93-11.58V78.92l20.93-11.58zM61.33 68.884L42.459 79.349 61.33 89.814l18.7-10.465zM41.858 101.48l18.786 10.38V91.014l-18.786-10.38zm38.944-.086V80.55L62.016 91.1v20.845z" class="C D"/><path d="M61.16 68.107l.086-22.646L81.318 34.31l20.33 11.666v22.731L81.49 78.743z" class="B"/><path d="M102.42 44.95v23.332L81.49 80.034 60.56 68.539V45.036L81.49 33.37zM81.49 35L62.619 45.465 81.49 55.93l18.7-10.551zM62.018 67.596l18.786 10.379V57.131L62.018 46.75zm38.944-.172V46.58L82.176 57.13v20.845z" class="C D"/><path d="M81.32 101.817l.086-22.646 20.072-11.151 20.33 11.752v22.731l-20.158 9.95z" class="B"/><path d="M122.58 78.74v23.332l-20.93 11.752-20.93-11.58V78.74l20.93-11.58zm-20.93-10.036L82.779 79.169l18.871 10.465 18.7-10.465zM82.178 101.3l18.786 10.38V90.834l-18.786-10.38zm38.944-.086v-20.93l-18.786 10.55v20.845z" class="C D"/><path d="M22.99 69.312v-22.13L42.805 36.03l18.442 9.95v22.732L41.09 78.748z" class="B"/><path d="M62.02 44.95v23.418L41.09 80.119 20.16 68.54V45.036L41.09 33.37zM41.09 35L22.219 45.465 41.09 55.93l18.7-10.551zM21.618 67.596l18.786 10.379V57.131L21.618 46.75zm38.944-.172V46.58L41.776 57.13v20.845z" class="C D"/><path d="M43.92 35.852v-22.13L63.735 2.57l18.442 10.036v22.732L62.02 45.374z" class="B"/><path d="M82.95 11.58v23.332L62.02 46.664l-20.93-11.58V11.58L62.02 0zM62.02 1.544L43.149 12.009 62.02 22.474l18.7-10.465zM42.462 34.226l18.786 10.379V23.761L42.462 13.38zm39.03-.172V13.21L62.706 23.76v20.845z" class="C D"/></svg>