<svg xmlns="http://www.w3.org/2000/svg" width="111" height="109" xmlns:v="https://vecta.io/nano"><path fill="#d2e4ff" d="M3.9 94.2V64.3l26.7-15 24.8 13.5v30.7L28.2 107z"/><path fill="#0085ff" fill-opacity=".4" d="M56.4 61.4v31.5l-28.2 15.8L0 93.1V61.4l28.2-15.6zM28.2 48L2.8 62.1l25.4 14L53.5 62zM1.9 92l25.3 14V77.8l-25.3-14zm52.6-.3V63.6L29.2 77.8v28.1z"/><path fill="#d2e4ff" d="M55.4 92.6V62l27.1-15L110 62.8v30.7L82.8 107z"/><path fill="#0085ff" fill-opacity=".4" d="M111 61.4v31.5l-28.3 15.8-28.2-15.6V61.4l28.2-15.6zM82.7 48L57.3 62.1l25.5 14L108.1 62zM56.5 92l25.3 14V77.8l-25.3-14zm52.5-.3V63.6L83.7 77.8v28.1z"/><path fill="#d2e4ff" d="M31.1 48.4V18.6L57.7 3.5 82.6 17v30.7L55.4 61.2z"/><path fill="#0085ff" fill-opacity=".4" d="M83.6 15.6v31.5L55.4 62.9 27.2 47.3V15.6L55.4 0zM55.4 2.2L30 16.3l25.4 14.1 25.3-14.2zm-26.3 44l25.3 14V32L29.1 18zm52.6-.2V17.8L56.4 32v28.2z"/></svg>