<svg xmlns="http://www.w3.org/2000/svg" width="20" height="20" fill="none" xmlns:v="https://vecta.io/nano"><path d="M9.829.101A9.58 9.58 0 0 0 .25 9.679a9.58 9.58 0 0 0 9.579 9.579 9.58 9.58 0 0 0 9.579-9.579A9.58 9.58 0 0 0 9.829.101zm4.845 10.637c.445.446.947.835 1.337 1.337.167.223.334.445.445.668.167.334 0 .724-.279.78h-1.949c-.501.056-.891-.167-1.225-.501l-.78-.835-.334-.334c-.278-.167-.501-.111-.668.167s-.167.613-.223.891c0 .445-.167.557-.613.613-1.002.056-1.949-.111-2.84-.613-.78-.446-1.392-1.058-1.893-1.782C4.649 9.735 3.87 8.231 3.146 6.672c-.167-.334-.056-.557.334-.557h1.949c.278 0 .446.167.557.39A12.34 12.34 0 0 0 7.267 8.9c.167.223.278.39.501.557s.39.111.501-.167c.056-.167.111-.334.111-.501.056-.613.056-1.169-.056-1.782-.056-.39-.278-.613-.613-.668-.167-.056-.167-.111-.056-.223.167-.167.334-.278.613-.278h2.228c.334.056.445.223.501.557v2.45c0 .111.056.557.334.613.223.056.334-.111.446-.223.557-.557.891-1.225 1.225-1.949.167-.278.278-.613.39-.947.111-.223.223-.334.501-.334h2.116.167c.334.056.446.223.334.557-.167.557-.501 1.002-.835 1.448-.334.501-.724.947-1.114 1.448-.278.668-.278.891.111 1.281z" fill="#f1f1f1"/></svg>