<svg xmlns="http://www.w3.org/2000/svg" width="44" height="44" fill="none" xmlns:v="https://vecta.io/nano"><g fill="#241a4b"><path d="M27.752 5.383l15.36 26.605c.563.976.887 2.107.887 3.314a6.64 6.64 0 0 1-6.64 6.64H22L16.688 22 22 2.058c2.459 0 4.605 1.338 5.753 3.325z"/><path d="M16.247 5.383L.887 31.988C.324 32.964 0 34.095 0 35.302a6.64 6.64 0 0 0 6.64 6.64H22V2.058c-2.459 0-4.605 1.338-5.753 3.325z"/></g><path d="M40.813 33.316L25.453 6.712a4 4 0 0 0-3.338-1.995l13.137 34.571h2.109a3.99 3.99 0 0 0 3.984-3.984c0-.698-.184-1.385-.531-1.987z" fill="#ffb751"/><path d="M38.229 33.316c.3.602.459 1.289.459 1.987 0 2.196-1.541 3.984-3.437 3.984H6.64a3.99 3.99 0 0 1-3.984-3.984c0-.698.184-1.385.531-1.987l15.36-26.604A4 4 0 0 1 22 4.713l.114.003c1.18.046 2.27.801 2.864 1.995l13.251 26.604z" fill="#ffd764"/><g fill="#241a4b"><path d="M22 30.433v4.427c1.223 0 2.213-.991 2.213-2.213s-.991-2.213-2.213-2.213z"/><path d="M22 30.433c.244 0 .443.991.443 2.213S22.245 34.86 22 34.86c-1.223 0-2.213-.991-2.213-2.213s.991-2.213 2.213-2.213zm0-19.034v16.378c1.223 0 2.213-.992 2.213-2.213V13.613c0-1.223-.991-2.213-2.213-2.213z"/><path d="M22 11.399c.244 0 .443.991.443 2.213v11.952c0 1.222-.198 2.213-.443 2.213-1.223 0-2.213-.992-2.213-2.213V13.613c0-1.223.991-2.213 2.213-2.213z"/></g></svg>