<svg xmlns="http://www.w3.org/2000/svg" width="20" height="20" fill="#f1f1f1" xmlns:v="https://vecta.io/nano"><path d="M8.494 11.572l3.174-1.838-3.174-1.838v3.676zM9.664.101C4.317.101.029 4.444.029 9.791a9.7 9.7 0 0 0 9.69 9.69 9.7 9.7 0 0 0 9.69-9.69c0-5.346-4.4-9.69-9.746-9.69zm6.07 9.69s0 1.949-.223 2.896c-.167.501-.557.947-1.058 1.058-.947.223-4.734.223-4.734.223s-3.787 0-4.734-.278c-.501-.167-.947-.557-1.058-1.058-.223-.947-.223-2.896-.223-2.896s0-1.949.223-2.896c.167-.501.557-.947 1.058-1.058.947-.223 4.734-.223 4.734-.223s3.787 0 4.734.278c.501.167.947.557 1.058 1.058.223.891.223 2.896.223 2.896z"/></svg>